<?xml version="1.0" encoding="UTF-8"?>
<svg id="_레이어_2" data-name="레이어 2" xmlns="http://www.w3.org/2000/svg" xmlns:xlink="http://www.w3.org/1999/xlink" viewBox="0 0 16.87 19.72">
  <defs>
    <style>
      .cls-1 {
        clip-path: url(#clippath);
      }

      .cls-2 {
        fill: none;
      }

      .cls-2, .cls-3, .cls-4 {
        stroke-width: 0px;
      }

      .cls-3 {
        fill: #787878;
      }

      .cls-4 {
        fill: #d94925;
      }
    </style>
    <clipPath id="clippath">
      <rect class="cls-2" width="16.87" height="19.72"/>
    </clipPath>
  </defs>
  <g id="_레이어_1-2" data-name="레이어 1">
    <g class="cls-1">
      <path class="cls-3" d="m3.18,5.92c-.72,0-1.32.61-1.32,1.35v9.2c0,.74.59,1.35,1.32,1.35h8.97c.72,0,1.32-.61,1.32-1.35V7.28c0-.74-.59-1.35-1.32-1.35H3.18Zm8.96,13.79H3.18c-1.75,0-3.18-1.47-3.18-3.26V7.28c0-1.79,1.43-3.26,3.18-3.26h8.97c1.75,0,3.18,1.47,3.18,3.26v9.2c-.02,1.77-1.45,3.24-3.2,3.24Z"/>
      <path class="cls-4" d="m7.71,16.1c-.46,0-.91-.25-1.17-.65l-2.97-4.67c-.43-.67-.24-1.54.41-1.98.65-.44,1.5-.25,1.93.42l1.77,2.76L14.29.69c.39-.69,1.24-.9,1.91-.5.65.4.87,1.28.48,1.96l-7.79,13.24c-.24.42-.69.69-1.17.69t-.02.02Z"/>
    </g>
  </g>
</svg>