<svg width="328" height="354" viewBox="0 0 328 354" fill="none" xmlns="http://www.w3.org/2000/svg">
<rect x="0.75" y="0.75" width="326.5" height="352.5" rx="15.25" fill="white"/>
<rect x="0.75" y="0.75" width="326.5" height="352.5" rx="15.25" stroke="#1681FF" stroke-width="1.5"/>
<path d="M85.7016 43.0312H83.2211V38.8125H79.1586C78.7224 39.2747 78.2016 39.6361 77.5961 39.8965C76.9971 40.1504 76.3591 40.2773 75.682 40.2773C74.7966 40.2773 73.9926 40.0788 73.2699 39.6816C72.5473 39.2845 71.9776 38.7376 71.5609 38.041C71.1508 37.3379 70.949 36.5534 70.9555 35.6875C70.949 34.8086 71.1508 34.0208 71.5609 33.3242C71.9711 32.6211 72.5375 32.071 73.2602 31.6738C73.9828 31.2702 74.7901 31.0651 75.682 31.0586C76.3656 31.0651 77.0036 31.1953 77.5961 31.4492C78.1951 31.7031 78.7126 32.0612 79.1488 32.5234H83.2211V30.043H85.7016V43.0312ZM86.1312 47.4844H73.9047V41.7227H76.4047V45.4922H86.1312V47.4844ZM75.682 33.2852C75.2198 33.2852 74.8064 33.3828 74.4418 33.5781C74.0837 33.7669 73.8038 34.0436 73.602 34.4082C73.4066 34.7728 73.3122 35.1992 73.3187 35.6875C73.3122 36.1693 73.4066 36.5924 73.602 36.957C73.8038 37.3151 74.0837 37.5918 74.4418 37.7871C74.8064 37.9759 75.2198 38.0703 75.682 38.0703C76.1182 38.0703 76.5121 37.9759 76.8637 37.7871C77.2217 37.5918 77.5017 37.3151 77.7035 36.957C77.9053 36.5924 78.0062 36.1693 78.0062 35.6875C78.0062 35.1992 77.9053 34.7728 77.7035 34.4082C77.5017 34.0436 77.2217 33.7669 76.8637 33.5781C76.5121 33.3828 76.1182 33.2852 75.682 33.2852ZM80.2328 34.5156C80.324 34.8997 80.3695 35.2904 80.3695 35.6875C80.3695 36.0651 80.324 36.4427 80.2328 36.8203H83.2211V34.5156H80.2328ZM96.1414 36.4688H90.7703V38.2559C92.17 38.2428 93.3061 38.207 94.1785 38.1484C95.0509 38.0898 95.92 37.9857 96.7859 37.8359L97.0203 39.8281C96.0242 40.0039 94.9956 40.1243 93.9344 40.1895C92.8732 40.248 91.4409 40.2773 89.6375 40.2773H88.3094V34.5938H93.6609V32.9531H88.2703V30.9414H96.1414V36.4688ZM102.587 40.8438H100.087V38.0703H97.1766V36.0781H100.087V34.418H97.1766V32.4062H100.087V30.043H102.587V40.8438ZM96.5516 41.1367C97.8081 41.1367 98.8953 41.2702 99.8133 41.5371C100.731 41.804 101.438 42.1914 101.932 42.6992C102.427 43.207 102.678 43.8125 102.684 44.5156C102.678 45.2188 102.427 45.821 101.932 46.3223C101.438 46.8236 100.731 47.2044 99.8133 47.4648C98.9018 47.7253 97.8146 47.8555 96.5516 47.8555C95.2755 47.8555 94.1753 47.7253 93.2508 47.4648C92.3328 47.2044 91.6264 46.8236 91.1316 46.3223C90.6434 45.821 90.3992 45.2188 90.3992 44.5156C90.3992 43.8125 90.6434 43.207 91.1316 42.6992C91.6264 42.1914 92.3361 41.804 93.2605 41.5371C94.185 41.2702 95.282 41.1367 96.5516 41.1367ZM96.5516 43.0312C95.3406 43.0312 94.4324 43.1549 93.827 43.4023C93.228 43.6432 92.9318 44.0143 92.9383 44.5156C92.9187 45.4792 94.1232 45.9609 96.5516 45.9609C97.7495 45.9609 98.6577 45.8405 99.2762 45.5996C99.8947 45.3587 100.204 44.9974 100.204 44.5156C100.204 43.526 98.9865 43.0312 96.5516 43.0312ZM119.472 39.1641H116.991V37.3867H113.71V38.6562H105.253V30.7852H107.753V32.8555H111.249V30.7852H113.71V32.2891H116.991V30.0234H119.472V39.1641ZM119.472 44.5742H110.155V45.6484H119.999V47.6016H107.655V42.7578H116.991V41.7422H107.636V39.8281H119.472V44.5742ZM111.249 36.7031V34.75H107.753V36.7031H111.249ZM116.991 35.5117V34.1445H113.71V35.5117H116.991Z" fill="#1681FF"/>
<path d="M139.609 36.625H142.227V38.6562H139.609V47.8359H137.109V30.0234H139.609V36.625ZM134.629 33.6758H128.77V41.4688C130.169 41.4557 131.419 41.4069 132.52 41.3223C133.62 41.2376 134.727 41.0977 135.84 40.9023L136.113 42.9922C134.922 43.194 133.747 43.334 132.588 43.4121C131.436 43.4837 130.111 43.5195 128.613 43.5195H127.793H126.289V31.6641H134.629V33.6758ZM158.877 34.2617H156.573V36.0977H158.877V38.1484H156.573V40.4141H154.073V30.0234H156.573V32.2305H158.877V34.2617ZM147.471 31C148.383 30.9935 149.206 31.1758 149.942 31.5469C150.677 31.9115 151.257 32.4225 151.68 33.0801C152.103 33.7311 152.315 34.4701 152.315 35.2969C152.315 36.1237 152.103 36.8626 151.68 37.5137C151.257 38.1647 150.677 38.6758 149.942 39.0469C149.206 39.4115 148.383 39.5938 147.471 39.5938C146.553 39.5938 145.723 39.4115 144.981 39.0469C144.239 38.6758 143.653 38.1647 143.223 37.5137C142.8 36.8626 142.588 36.1237 142.588 35.2969C142.588 34.4701 142.8 33.7311 143.223 33.0801C143.653 32.4225 144.239 31.9115 144.981 31.5469C145.723 31.1758 146.553 30.9935 147.471 31ZM147.471 33.0898C147.002 33.0833 146.582 33.1712 146.211 33.3535C145.847 33.5293 145.56 33.7865 145.352 34.125C145.144 34.457 145.043 34.8477 145.049 35.2969C145.043 35.7461 145.14 36.14 145.342 36.4785C145.551 36.8105 145.84 37.0645 146.211 37.2402C146.582 37.416 147.002 37.5039 147.471 37.5039C147.927 37.5039 148.337 37.416 148.702 37.2402C149.066 37.0645 149.353 36.8105 149.561 36.4785C149.776 36.14 149.886 35.7461 149.893 35.2969C149.886 34.8477 149.776 34.457 149.561 34.125C149.353 33.7865 149.066 33.5293 148.702 33.3535C148.337 33.1712 147.927 33.0833 147.471 33.0898ZM150.752 40.7656C151.963 40.7656 153.021 40.9089 153.926 41.1953C154.831 41.4753 155.528 41.8822 156.016 42.416C156.504 42.9434 156.748 43.5716 156.748 44.3008C156.748 45.0234 156.504 45.6452 156.016 46.166C155.528 46.6934 154.831 47.097 153.926 47.377C153.021 47.6569 151.963 47.7969 150.752 47.7969C149.515 47.7969 148.438 47.6569 147.52 47.377C146.602 47.097 145.896 46.6934 145.401 46.166C144.906 45.6452 144.659 45.0234 144.659 44.3008C144.659 43.5716 144.906 42.9434 145.401 42.416C145.896 41.8822 146.602 41.4753 147.52 41.1953C148.438 40.9089 149.515 40.7656 150.752 40.7656ZM150.752 42.7383C149.574 42.7383 148.679 42.8717 148.067 43.1387C147.455 43.3991 147.152 43.7865 147.159 44.3008C147.152 44.8151 147.452 45.1992 148.057 45.4531C148.669 45.7005 149.567 45.8242 150.752 45.8242C153.109 45.8242 154.287 45.3164 154.287 44.3008C154.287 43.7865 153.988 43.3991 153.389 43.1387C152.79 42.8717 151.911 42.7383 150.752 42.7383ZM173.458 35.4922H175.86V37.5234H173.458V43.3047H170.958V30.043H173.458V35.4922ZM169.903 33.8711H159.356V31.8984H163.399V30.0039H165.88V31.8984H169.903V33.8711ZM164.63 34.4961C165.483 34.4961 166.238 34.6393 166.895 34.9258C167.559 35.2122 168.077 35.6159 168.448 36.1367C168.819 36.6576 169.005 37.2565 169.005 37.9336C169.005 38.6107 168.819 39.2064 168.448 39.7207C168.083 40.2285 167.569 40.6257 166.905 40.9121C166.241 41.1921 165.483 41.332 164.63 41.332C163.77 41.332 163.005 41.1921 162.335 40.9121C161.671 40.6257 161.15 40.2285 160.772 39.7207C160.401 39.2064 160.216 38.6107 160.216 37.9336C160.216 37.2565 160.401 36.6576 160.772 36.1367C161.15 35.6159 161.671 35.2122 162.335 34.9258C163.005 34.6393 163.77 34.4961 164.63 34.4961ZM164.63 36.3906C164.024 36.4036 163.542 36.5436 163.184 36.8105C162.826 37.0775 162.651 37.4518 162.657 37.9336C162.651 38.4154 162.823 38.7865 163.175 39.0469C163.533 39.3073 164.018 39.4375 164.63 39.4375C165.242 39.4375 165.73 39.3073 166.095 39.0469C166.459 38.7799 166.641 38.4089 166.641 37.9336C166.641 37.4518 166.459 37.0775 166.095 36.8105C165.73 36.5436 165.242 36.4036 164.63 36.3906ZM174.102 47.4844H161.934V42.2891H164.415V45.4922H174.102V47.4844ZM195.334 42.8164H192.834V30.043H195.334V42.8164ZM195.802 47.4844H183.42V41.5273H185.939V45.4922H195.802V47.4844ZM185.587 31.1758C186.492 31.1758 187.313 31.3678 188.048 31.752C188.791 32.1361 189.377 32.6699 189.806 33.3535C190.236 34.0306 190.451 34.7956 190.451 35.6484C190.451 36.5143 190.236 37.2923 189.806 37.9824C189.383 38.666 188.8 39.1999 188.058 39.584C187.316 39.9681 186.492 40.1602 185.587 40.1602C184.683 40.1602 183.859 39.9681 183.117 39.584C182.375 39.1999 181.789 38.666 181.359 37.9824C180.936 37.2923 180.724 36.5143 180.724 35.6484C180.724 34.7956 180.939 34.0306 181.369 33.3535C181.798 32.6699 182.381 32.1361 183.117 31.752C183.859 31.3678 184.683 31.1758 185.587 31.1758ZM185.587 33.3438C185.125 33.3372 184.709 33.4284 184.337 33.6172C183.966 33.7995 183.677 34.0664 183.468 34.418C183.26 34.7695 183.159 35.1797 183.166 35.6484C183.159 36.1302 183.26 36.5501 183.468 36.9082C183.677 37.2598 183.963 37.5299 184.328 37.7188C184.699 37.901 185.119 37.9922 185.587 37.9922C186.043 37.9922 186.45 37.901 186.808 37.7188C187.173 37.5299 187.459 37.2598 187.668 36.9082C187.882 36.5501 187.99 36.1302 187.99 35.6484C187.99 35.1797 187.882 34.7695 187.668 34.418C187.459 34.0664 187.173 33.7995 186.808 33.6172C186.444 33.4284 186.037 33.3372 185.587 33.3438ZM212.844 47.7969H210.461V38.8906H208.957V46.9766H206.594V41.8887L205.188 43.7539C203.638 42.9401 202.521 41.5501 201.838 39.584C201.206 41.8496 200.096 43.4544 198.508 44.3984L196.965 42.4844C198.234 41.7682 199.152 40.707 199.719 39.3008C200.292 37.888 200.578 36.2604 200.578 34.418V33.8516H197.57V31.8594H205.715V33.8516H203V34.418C203 36.1042 203.283 37.6016 203.85 38.9102C204.423 40.2188 205.337 41.1986 206.594 41.8496V30.2773H208.957V36.8594H210.461V30.0234H212.844V47.7969ZM234.68 41.0977H227.981V43.9688H225.52V41.0977H218.411V39.1445H234.68V41.0977ZM232.884 47.4844H220.325V42.5625H222.786V45.4922H232.884V47.4844ZM222.962 32.4453H230.091V30.5898H232.571V37.8945H220.501V30.5898H222.962V32.4453ZM230.091 35.9219V34.3008H222.962V35.9219H230.091ZM251.585 45.8242H235.316V43.7344H242.152V40.5312H236.663V38.5781H239.046V33.5H236.585V31.5078H250.218V33.5H247.718V38.5781H250.14V40.5312H244.632V43.7344H251.585V45.8242ZM245.257 38.5781V33.5H241.546V38.5781H245.257ZM255.99 41.7617H253.49L253.236 31.8594H256.244L255.99 41.7617ZM254.759 46.1758C254.46 46.1758 254.183 46.1009 253.929 45.9512C253.675 45.8014 253.474 45.6029 253.324 45.3555C253.181 45.1016 253.112 44.8281 253.119 44.5352C253.112 44.2422 253.181 43.972 253.324 43.7246C253.474 43.4772 253.675 43.2819 253.929 43.1387C254.183 42.9889 254.46 42.9141 254.759 42.9141C255.039 42.9141 255.303 42.9889 255.55 43.1387C255.804 43.2819 256.006 43.4772 256.156 43.7246C256.306 43.972 256.38 44.2422 256.38 44.5352C256.38 44.8281 256.306 45.1016 256.156 45.3555C256.006 45.6029 255.804 45.8014 255.55 45.9512C255.303 46.1009 255.039 46.1758 254.759 46.1758Z" fill="#2C3038"/>
<path d="M113.128 319.551C93.5777 311.265 76.3546 298.33 62.9602 281.873C49.5658 265.417 40.4067 245.938 36.2815 225.136C32.1563 204.334 33.1903 182.84 39.2934 162.529C45.3964 142.217 56.3831 123.705 71.2955 108.606L164 199.886L113.128 319.551Z" fill="#647BF5"/>
<path d="M290.861 229.13C286.55 247.776 278.169 265.241 266.317 280.279C254.465 295.318 239.434 307.558 222.297 316.126C205.16 324.695 186.34 329.38 167.181 329.847C148.021 330.315 128.995 326.553 111.459 318.831L164 199.886L290.861 229.13Z" fill="#3F94F8"/>
<path d="M257.542 109.58C272.776 125.331 283.779 144.67 289.529 165.801C295.278 186.932 295.589 209.171 290.433 230.454L163.885 199.886L257.542 109.58Z" fill="#1DC9EF"/>
<path d="M70.3434 109.58C82.6989 96.8049 97.5449 86.6931 113.966 79.8683C130.386 73.0434 148.033 69.6503 165.818 69.8982L164 199.886L70.3434 109.58Z" fill="#516BF4"/>
<path d="M164 69.8856C181.786 69.8856 199.384 73.5244 215.708 80.5775C232.031 87.6306 246.735 97.9484 258.91 110.894L164 199.886L164 69.8856Z" fill="#44DCD3"/>
<path d="M181.584 115.414L181.566 113.498L186.136 109.297C187.332 108.154 187.965 107.451 187.965 106.449C187.965 105.324 187.103 104.621 185.943 104.621C184.748 104.621 183.974 105.377 183.974 106.59H181.461C181.443 104.094 183.289 102.512 185.978 102.512C188.703 102.512 190.513 104.058 190.513 106.273C190.513 107.715 189.81 108.91 187.191 111.283L185.258 113.164V113.234H190.689V115.414H181.584ZM197.15 115.59C193.968 115.59 192.034 113.217 192.034 109.051C192.034 104.885 193.968 102.512 197.15 102.512C200.331 102.512 202.265 104.902 202.265 109.051C202.265 113.234 200.331 115.59 197.15 115.59ZM197.15 113.41C198.626 113.41 199.575 111.986 199.558 109.051C199.558 106.15 198.626 104.674 197.15 104.674C195.673 104.674 194.741 106.15 194.741 109.051C194.724 111.986 195.673 113.41 197.15 113.41ZM206.313 104.218V111.274C207.861 111.238 209.265 111.148 210.849 110.86L211.029 112.786C209.013 113.164 207.249 113.236 205.125 113.236H203.973V102.292H210.111V104.218H206.313ZM215.475 100.366H217.725V116.962H215.475V108.664H213.981V116.188H211.767V100.69H213.981V106.756H215.475V100.366Z" fill="white"/>
<path d="M184.695 123.365V132.557H183.54V124.559H183.489L181.255 126.044V124.889L183.54 123.365H184.695ZM190.059 132.684C188.231 132.684 186.923 131.706 186.86 130.246H188.015C188.079 131.122 188.955 131.668 190.046 131.668C191.252 131.668 192.141 131.008 192.141 130.056C192.141 129.053 191.341 128.342 189.907 128.342H189.158V127.339H189.907C191.024 127.339 191.798 126.717 191.798 125.765C191.798 124.851 191.125 124.229 190.084 124.229C189.107 124.229 188.206 124.775 188.155 125.676H187.05C187.114 124.216 188.459 123.238 190.097 123.238C191.849 123.238 192.916 124.381 192.903 125.701C192.916 126.742 192.306 127.517 191.341 127.783V127.847C192.535 128.037 193.271 128.888 193.258 130.056C193.271 131.567 191.887 132.684 190.059 132.684ZM195.144 132.633C194.699 132.633 194.319 132.265 194.331 131.808C194.319 131.363 194.699 130.995 195.144 130.995C195.588 130.995 195.956 131.363 195.956 131.808C195.956 132.265 195.588 132.633 195.144 132.633ZM199.543 123.365V132.557H198.388V124.559H198.337L196.103 126.044V124.889L198.388 123.365H199.543ZM203.676 127.631C202.482 127.631 201.835 126.742 201.835 125.422C201.835 124.127 202.508 123.226 203.676 123.226C204.882 123.226 205.516 124.127 205.516 125.422C205.516 126.742 204.856 127.631 203.676 127.631ZM203.676 126.844C204.298 126.844 204.59 126.285 204.59 125.422C204.59 124.571 204.323 124 203.676 124.013C203.066 124.013 202.762 124.571 202.762 125.422C202.762 126.285 203.066 126.844 203.676 126.844ZM209.287 132.684C208.094 132.696 207.433 131.795 207.446 130.487C207.433 129.18 208.119 128.278 209.287 128.278C210.48 128.278 211.115 129.18 211.115 130.487C211.115 131.795 210.455 132.696 209.287 132.684ZM209.287 131.897C209.896 131.897 210.188 131.338 210.188 130.487C210.188 129.624 209.922 129.053 209.287 129.066C208.678 129.078 208.36 129.624 208.36 130.487C208.36 131.338 208.665 131.897 209.287 131.897ZM202.736 132.557L209.058 123.365H210.087L203.764 132.557H202.736Z" fill="white"/>
<path d="M235.59 179.982C232.715 179.982 230.654 178.39 230.599 176.112H233.348C233.402 177.088 234.343 177.739 235.609 177.739C236.911 177.739 237.851 176.998 237.833 175.949C237.851 174.882 236.892 174.122 235.355 174.122H234.144V172.115H235.355C236.639 172.115 237.543 171.41 237.543 170.379C237.543 169.384 236.784 168.697 235.627 168.697C234.469 168.697 233.511 169.348 233.475 170.343H230.871C230.907 168.082 232.95 166.527 235.627 166.527C238.357 166.527 240.184 168.137 240.166 170.216C240.184 171.681 239.153 172.73 237.688 172.983V173.092C239.605 173.327 240.672 174.502 240.654 176.13C240.672 178.372 238.538 179.982 235.59 179.982ZM247.282 179.982C244.009 179.982 242.02 177.54 242.02 173.254C242.02 168.968 244.009 166.527 247.282 166.527C250.555 166.527 252.545 168.986 252.545 173.254C252.545 177.558 250.555 179.982 247.282 179.982ZM247.282 177.739C248.801 177.739 249.778 176.274 249.76 173.254C249.76 170.27 248.801 168.751 247.282 168.751C245.763 168.751 244.805 170.27 244.805 173.254C244.786 176.274 245.763 177.739 247.282 177.739ZM256.709 168.283V175.542C258.302 175.505 259.746 175.412 261.376 175.116L261.561 177.097C259.487 177.486 257.672 177.56 255.487 177.56H254.302V166.301H260.616V168.283H256.709ZM266.135 164.32H268.45V181.393H266.135V172.856H264.598V180.597H262.32V164.653H264.598V170.894H266.135V164.32Z" fill="white"/>
<path d="M233.826 187.752V196.944H232.671V188.946H232.62L230.386 190.431V189.276L232.671 187.752H233.826ZM239.013 197.071C237.35 197.071 236.093 196.042 236.029 194.633H237.134C237.223 195.458 238.022 196.068 239.013 196.068C240.206 196.068 241.069 195.192 241.069 194.036C241.069 192.843 240.168 191.967 238.937 191.954C238.162 191.942 237.565 192.183 237.223 192.779H236.118L236.766 187.752H241.742V188.768H237.718L237.375 191.459H237.464C237.87 191.142 238.492 190.926 239.14 190.926C240.892 190.926 242.187 192.221 242.187 194.011C242.187 195.788 240.841 197.071 239.013 197.071ZM243.958 197.02C243.513 197.02 243.133 196.652 243.145 196.195C243.133 195.75 243.513 195.382 243.958 195.382C244.402 195.382 244.77 195.75 244.77 196.195C244.77 196.652 244.402 197.02 243.958 197.02ZM246.313 196.944L250.528 188.831V188.768H245.666V187.752H251.709V188.819L247.506 196.944H246.313ZM254.876 192.018C253.683 192.018 253.035 191.129 253.035 189.809C253.035 188.514 253.708 187.613 254.876 187.613C256.082 187.613 256.717 188.514 256.717 189.809C256.717 191.129 256.057 192.018 254.876 192.018ZM254.876 191.231C255.498 191.231 255.79 190.672 255.79 189.809C255.79 188.958 255.524 188.387 254.876 188.4C254.267 188.4 253.962 188.958 253.962 189.809C253.962 190.672 254.267 191.231 254.876 191.231ZM260.488 197.071C259.294 197.083 258.634 196.182 258.647 194.874C258.634 193.567 259.32 192.665 260.488 192.665C261.681 192.665 262.316 193.567 262.316 194.874C262.316 196.182 261.656 197.083 260.488 197.071ZM260.488 196.283C261.097 196.283 261.389 195.725 261.389 194.874C261.389 194.011 261.122 193.44 260.488 193.452C259.878 193.465 259.561 194.011 259.561 194.874C259.561 195.725 259.866 196.283 260.488 196.283ZM253.937 196.944L260.259 187.752H261.287L254.965 196.944H253.937Z" fill="white"/>
<path d="M182.601 279.343V277.251L187.98 268.867H191.302V277.216H192.919V279.343H191.302V281.593H188.789V279.343H182.601ZM185.273 277.216H188.824V271.767H188.701L185.273 277.111V277.216ZM199.222 281.769C196.04 281.769 194.106 279.396 194.106 275.23C194.106 271.064 196.04 268.691 199.222 268.691C202.403 268.691 204.337 271.081 204.337 275.23C204.337 279.413 202.403 281.769 199.222 281.769ZM199.222 279.589C200.698 279.589 201.647 278.165 201.63 275.23C201.63 272.329 200.698 270.853 199.222 270.853C197.745 270.853 196.813 272.329 196.813 275.23C196.796 278.165 197.745 279.589 199.222 279.589ZM208.385 270.397V277.453C209.933 277.417 211.337 277.327 212.921 277.039L213.101 278.965C211.085 279.343 209.321 279.415 207.197 279.415H206.045V268.471H212.183V270.397H208.385ZM217.547 266.545H219.797V283.141H217.547V274.843H216.053V282.367H213.839V266.869H216.053V272.935H217.547V266.545Z" fill="white"/>
<path d="M182.673 298.736L182.661 297.898L185.796 294.597C186.888 293.442 187.409 292.82 187.409 291.969C187.409 291.03 186.609 290.408 185.581 290.408C184.489 290.408 183.791 291.106 183.791 292.134H182.711C182.699 290.509 183.956 289.418 185.619 289.418C187.282 289.418 188.475 290.535 188.475 291.969C188.475 292.998 187.993 293.797 186.368 295.473L184.26 297.644V297.72H188.64V298.736H182.673ZM193.115 298.863C191.186 298.863 189.84 297.797 189.853 296.298C189.84 295.105 190.665 294.128 191.719 293.963V293.912C190.805 293.696 190.208 292.858 190.208 291.855C190.208 290.446 191.44 289.418 193.115 289.418C194.791 289.418 196.023 290.446 196.035 291.855C196.023 292.858 195.413 293.696 194.512 293.912V293.963C195.553 294.128 196.378 295.105 196.391 296.298C196.378 297.797 195.032 298.863 193.115 298.863ZM193.115 297.86C194.436 297.86 195.248 297.2 195.248 296.235C195.248 295.219 194.347 294.47 193.115 294.47C191.884 294.47 190.97 295.219 190.995 296.235C190.97 297.2 191.795 297.86 193.115 297.86ZM193.115 293.505C194.157 293.505 194.918 292.871 194.918 291.944C194.918 291.03 194.195 290.408 193.115 290.408C192.024 290.408 191.313 291.03 191.313 291.944C191.313 292.871 192.062 293.505 193.115 293.505ZM198.162 298.812C197.718 298.812 197.337 298.444 197.35 297.987C197.337 297.543 197.718 297.174 198.162 297.174C198.606 297.174 198.975 297.543 198.975 297.987C198.975 298.444 198.606 298.812 198.162 298.812ZM203.095 298.863C201.051 298.863 199.883 297.149 199.883 294.14C199.883 291.157 201.076 289.418 203.095 289.418C205.113 289.418 206.306 291.157 206.306 294.14C206.306 297.149 205.126 298.863 203.095 298.863ZM203.095 297.847C204.415 297.847 205.189 296.514 205.189 294.14C205.189 291.766 204.415 290.408 203.095 290.408C201.774 290.408 200.987 291.766 200.987 294.14C200.987 296.514 201.762 297.847 203.095 297.847ZM209.512 293.81C208.319 293.81 207.671 292.922 207.671 291.601C207.671 290.306 208.344 289.405 209.512 289.405C210.718 289.405 211.353 290.306 211.353 291.601C211.353 292.922 210.693 293.81 209.512 293.81ZM209.512 293.023C210.134 293.023 210.426 292.464 210.426 291.601C210.426 290.751 210.16 290.179 209.512 290.192C208.903 290.192 208.598 290.751 208.598 291.601C208.598 292.464 208.903 293.023 209.512 293.023ZM215.124 298.863C213.93 298.876 213.27 297.974 213.283 296.667C213.27 295.359 213.956 294.458 215.124 294.458C216.317 294.458 216.952 295.359 216.952 296.667C216.952 297.974 216.292 298.876 215.124 298.863ZM215.124 298.076C215.733 298.076 216.025 297.517 216.025 296.667C216.025 295.803 215.758 295.232 215.124 295.245C214.514 295.257 214.197 295.803 214.197 296.667C214.197 297.517 214.502 298.076 215.124 298.076ZM208.573 298.736L214.895 289.545H215.923L209.601 298.736H208.573Z" fill="white"/>
<path d="M65.2737 219.835C62.6194 219.835 60.6858 218.271 60.6331 216.074H63.1995C63.2522 217.075 64.1663 217.743 65.2737 217.743C66.592 217.743 67.5237 216.812 67.5237 215.493C67.5237 214.14 66.5745 213.208 65.2385 213.191C64.2893 213.191 63.6213 213.542 63.2346 214.263H60.844L61.5295 206.933H69.3694V209.095H63.7092L63.3577 212.312H63.4631C63.9377 211.679 64.887 211.24 66.012 211.24C68.3499 211.24 70.0901 212.98 70.0901 215.423C70.0901 217.99 68.1389 219.835 65.2737 219.835ZM76.4625 219.835C73.2809 219.835 71.3473 217.462 71.3473 213.296C71.3473 209.13 73.2809 206.757 76.4625 206.757C79.6442 206.757 81.5777 209.148 81.5777 213.296C81.5777 217.48 79.6442 219.835 76.4625 219.835ZM76.4625 217.656C77.9391 217.656 78.8883 216.232 78.8707 213.296C78.8707 210.396 77.9391 208.919 76.4625 208.919C74.9859 208.919 74.0543 210.396 74.0543 213.296C74.0367 216.232 74.9859 217.656 76.4625 217.656ZM85.6259 208.463V215.519C87.1739 215.483 88.5779 215.393 90.1619 215.105L90.3419 217.031C88.3259 217.409 86.5619 217.481 84.4379 217.481H83.2859V206.537H89.4239V208.463H85.6259ZM94.7879 204.611H97.0379V221.207H94.7879V212.909H93.2939V220.433H91.0799V204.935H93.2939V211.001H94.7879V204.611Z" fill="white"/>
<path d="M63.6331 236.929C61.8049 236.929 60.4973 235.952 60.4338 234.492H61.5891C61.6526 235.368 62.5286 235.914 63.6204 235.914C64.8264 235.914 65.7151 235.253 65.7151 234.301C65.7151 233.298 64.9153 232.587 63.4807 232.587H62.7317V231.585H63.4807C64.5979 231.585 65.3723 230.962 65.3723 230.01C65.3723 229.096 64.6995 228.474 63.6584 228.474C62.6809 228.474 61.7795 229.02 61.7288 229.921H60.6243C60.6877 228.461 62.0334 227.484 63.6711 227.484C65.4231 227.484 66.4895 228.627 66.4768 229.947C66.4895 230.988 65.8801 231.762 64.9153 232.029V232.092C66.1086 232.283 66.845 233.133 66.8323 234.301C66.845 235.812 65.4612 236.929 63.6331 236.929ZM71.2315 236.929C69.1875 236.929 68.0195 235.215 68.0195 232.207C68.0195 229.223 69.2129 227.484 71.2315 227.484C73.25 227.484 74.4434 229.223 74.4434 232.207C74.4434 235.215 73.2627 236.929 71.2315 236.929ZM71.2315 235.914C72.5518 235.914 73.3262 234.581 73.3262 232.207C73.3262 229.833 72.5518 228.474 71.2315 228.474C69.9111 228.474 69.124 229.833 69.124 232.207C69.124 234.581 69.8984 235.914 71.2315 235.914ZM76.1638 236.878C75.7195 236.878 75.3386 236.51 75.3513 236.053C75.3386 235.609 75.7195 235.241 76.1638 235.241C76.6082 235.241 76.9763 235.609 76.9763 236.053C76.9763 236.51 76.6082 236.878 76.1638 236.878ZM81.2486 236.929C79.4204 236.929 78.1128 235.952 78.0493 234.492H79.2046C79.2681 235.368 80.1441 235.914 81.2359 235.914C82.4419 235.914 83.3306 235.253 83.3306 234.301C83.3306 233.298 82.5308 232.587 81.0962 232.587H80.3472V231.585H81.0962C82.2134 231.585 82.9878 230.962 82.9878 230.01C82.9878 229.096 82.315 228.474 81.274 228.474C80.2964 228.474 79.395 229.02 79.3443 229.921H78.2398C78.3033 228.461 79.649 227.484 81.2866 227.484C83.0386 227.484 84.105 228.627 84.0923 229.947C84.105 230.988 83.4956 231.762 82.5308 232.029V232.092C83.7241 232.283 84.4605 233.133 84.4478 234.301C84.4605 235.812 83.0767 236.929 81.2486 236.929ZM87.7806 231.877C86.5872 231.877 85.9397 230.988 85.9397 229.668C85.9397 228.373 86.6126 227.471 87.7806 227.471C88.9866 227.471 89.6214 228.373 89.6214 229.668C89.6214 230.988 88.9612 231.877 87.7806 231.877ZM87.7806 231.089C88.4026 231.089 88.6946 230.531 88.6946 229.668C88.6946 228.817 88.428 228.246 87.7806 228.258C87.1712 228.258 86.8665 228.817 86.8665 229.668C86.8665 230.531 87.1712 231.089 87.7806 231.089ZM93.3919 236.929C92.1985 236.942 91.5384 236.041 91.5511 234.733C91.5384 233.425 92.2239 232.524 93.3919 232.524C94.5852 232.524 95.22 233.425 95.22 234.733C95.22 236.041 94.5599 236.942 93.3919 236.929ZM93.3919 236.142C94.0013 236.142 94.2933 235.584 94.2933 234.733C94.2933 233.87 94.0266 233.298 93.3919 233.311C92.7825 233.324 92.4651 233.87 92.4651 234.733C92.4651 235.584 92.7698 236.142 93.3919 236.142ZM86.8411 236.802L93.1634 227.611H94.1917L87.8694 236.802H86.8411Z" fill="white"/>
<path d="M115.879 115.59C113.243 115.572 110.747 114.008 110.747 109.349C110.747 105.06 112.803 102.512 115.985 102.512C118.551 102.512 120.292 104.129 120.555 106.221H117.954C117.743 105.324 117.004 104.779 115.985 104.779C114.262 104.779 113.348 106.344 113.331 108.84H113.454C114.034 107.715 115.299 107.047 116.706 107.047C118.991 107.047 120.696 108.769 120.696 111.16C120.696 113.744 118.745 115.607 115.879 115.59ZM115.862 113.498C117.163 113.498 118.129 112.513 118.129 111.23C118.129 109.965 117.198 108.963 115.897 108.963C114.596 108.963 113.612 109.982 113.594 111.23C113.612 112.478 114.561 113.498 115.862 113.498ZM127.103 115.59C123.922 115.59 121.988 113.217 121.988 109.051C121.988 104.885 123.922 102.512 127.103 102.512C130.285 102.512 132.219 104.902 132.219 109.051C132.219 113.234 130.285 115.59 127.103 115.59ZM127.103 113.41C128.58 113.41 129.529 111.986 129.512 109.051C129.512 106.15 128.58 104.674 127.103 104.674C125.627 104.674 124.695 106.15 124.695 109.051C124.678 111.986 125.627 113.41 127.103 113.41ZM136.267 104.218V111.274C137.815 111.238 139.219 111.148 140.803 110.86L140.983 112.786C138.967 113.164 137.203 113.236 135.079 113.236H133.927V102.292H140.065V104.218H136.267ZM145.429 100.366H147.679V116.962H145.429V108.664H143.935V116.188H141.721V100.69H143.935V106.756H145.429V100.366Z" fill="white"/>
<path d="M114.069 123.365V132.557H112.914V124.559H112.863L110.628 126.044V124.889L112.914 123.365H114.069ZM116.259 132.557L116.246 131.719L119.382 128.418C120.474 127.263 120.994 126.641 120.994 125.79C120.994 124.851 120.195 124.229 119.166 124.229C118.074 124.229 117.376 124.927 117.376 125.955H116.297C116.284 124.33 117.541 123.238 119.204 123.238C120.867 123.238 122.061 124.356 122.061 125.79C122.061 126.818 121.578 127.618 119.953 129.294L117.846 131.465V131.541H122.226V132.557H116.259ZM124.416 132.633C123.972 132.633 123.591 132.265 123.604 131.808C123.591 131.363 123.972 130.995 124.416 130.995C124.86 130.995 125.229 131.363 125.229 131.808C125.229 132.265 124.86 132.633 124.416 132.633ZM129.628 123.238C131.215 123.251 132.967 124.203 132.967 127.593C132.967 130.856 131.634 132.684 129.475 132.684C127.863 132.684 126.72 131.693 126.492 130.233H127.622C127.825 131.059 128.447 131.668 129.475 131.668C130.973 131.668 131.887 130.373 131.9 128.139H131.773C131.24 128.9 130.402 129.358 129.425 129.358C127.774 129.358 126.416 128.101 126.416 126.323C126.416 124.609 127.673 123.226 129.628 123.238ZM129.628 124.241C128.422 124.241 127.52 125.181 127.533 126.311C127.533 127.453 128.384 128.355 129.59 128.355C130.783 128.355 131.722 127.364 131.722 126.285C131.722 125.232 130.846 124.241 129.628 124.241ZM136.223 127.631C135.03 127.631 134.382 126.742 134.382 125.422C134.382 124.127 135.055 123.226 136.223 123.226C137.429 123.226 138.064 124.127 138.064 125.422C138.064 126.742 137.404 127.631 136.223 127.631ZM136.223 126.844C136.845 126.844 137.137 126.285 137.137 125.422C137.137 124.571 136.871 124 136.223 124.013C135.614 124.013 135.309 124.571 135.309 125.422C135.309 126.285 135.614 126.844 136.223 126.844ZM141.835 132.684C140.641 132.696 139.981 131.795 139.994 130.487C139.981 129.18 140.667 128.278 141.835 128.278C143.028 128.278 143.663 129.18 143.663 130.487C143.663 131.795 143.002 132.696 141.835 132.684ZM141.835 131.897C142.444 131.897 142.736 131.338 142.736 130.487C142.736 129.624 142.469 129.053 141.835 129.066C141.225 129.078 140.908 129.624 140.908 130.487C140.908 131.338 141.212 131.897 141.835 131.897ZM135.284 132.557L141.606 123.365H142.634L136.312 132.557H135.284Z" fill="white"/>
</svg>
