<svg width="328" height="284" viewBox="0 0 328 284" fill="none" xmlns="http://www.w3.org/2000/svg">
<rect width="328" height="284" rx="16" fill="#26BCBC"/>
<path d="M97.0352 69.6328V72.3086C98.4902 72.2207 99.9648 72.084 101.352 71.8789L101.547 73.6953C97.6016 74.457 93.3828 74.4961 90.2773 74.4961L89.9844 72.4844C91.3223 72.4746 92.8945 72.4648 94.5547 72.4062V69.6328H97.0352ZM100.707 62.1133V64.125H97.0742C97.2402 65.8438 98.5781 67.4551 101.254 68.1094L100.121 70.043C98.041 69.5156 96.6055 68.3633 95.8047 66.8789C95.0137 68.4316 93.5977 69.6426 91.5078 70.1797L90.3359 68.3047C93.0215 67.5918 94.3203 65.9219 94.4961 64.125H90.9023V62.1133H94.5547V60.1797H97.0352V62.1133H100.707ZM104.848 60.0234V77.8359H102.367V60.0234H104.848ZM117.045 61.0195V62.9922H113.51C113.53 65.0918 114.78 67.2402 117.592 68.168L116.362 70.082C114.389 69.457 113.041 68.168 112.28 66.5664C111.479 68.3438 110.063 69.7793 107.963 70.4531L106.694 68.4805C109.614 67.543 110.942 65.209 110.971 62.9922H107.397V61.0195H117.045ZM121.772 71.3906V77.7969H119.291V73.3828H109.565V71.3906H121.772ZM121.772 60.0234V70.6094H119.291V66.332H116.537V64.3008H119.291V60.0234H121.772ZM129.438 61.2148C132.251 61.1953 134.36 63.0312 134.36 65.5703C134.36 68.1289 132.251 69.9453 129.438 69.9453C126.626 69.9453 124.497 68.1289 124.497 65.5703C124.497 63.0312 126.626 61.1953 129.438 61.2148ZM129.438 63.3633C128.032 63.3633 126.958 64.1836 126.977 65.5703C126.958 66.9766 128.032 67.7773 129.438 67.7773C130.845 67.7773 131.919 66.9766 131.938 65.5703C131.919 64.1836 130.864 63.3633 129.438 63.3633ZM138.618 60.0234V77.8359H136.137V60.0234H138.618ZM123.755 72.1719C126.919 72.1914 131.313 72.1328 135.122 71.6055L135.317 73.4023C131.372 74.1641 127.153 74.2031 124.048 74.2031L123.755 72.1719ZM149.83 60.5508C152.525 60.5508 154.576 62.2305 154.576 64.6133C154.576 66.957 152.525 68.6562 149.83 68.6562C147.076 68.6562 145.045 66.957 145.045 64.6133C145.045 62.2305 147.076 60.5508 149.83 60.5508ZM149.83 62.582C148.463 62.582 147.447 63.3242 147.466 64.6133C147.447 65.8828 148.463 66.6445 149.83 66.6445C151.177 66.6445 152.173 65.8828 152.173 64.6133C152.173 63.3242 151.177 62.582 149.83 62.582ZM159.654 60.0234V68.9297H157.154V60.0234H159.654ZM159.654 69.6719V74.4961H150.201V75.6484H160.142V77.6016H147.759V72.6797H157.173V71.5859H147.72V69.6719H159.654ZM168.219 64.8672C168.199 67.582 169.645 70.707 172.574 72.0547L171.188 74.0078C169.205 73.0996 167.789 71.2832 167.008 69.1445C166.207 71.498 164.752 73.4902 162.691 74.457L161.246 72.4844C164.215 71.0977 165.699 67.7969 165.719 64.8672V63.7734H161.949V61.7422H171.793V63.7734H168.219V64.8672ZM175.68 60.0234V66.8008H178.297V68.8906H175.68V77.7969H173.18V60.0234H175.68ZM193.444 60.0234V77.8359H190.963V60.0234H193.444ZM187.936 61.5078V68.3633H182.077V71.625C184.782 71.6152 187.086 71.459 189.694 71.0391L189.909 73.0508C186.979 73.5586 184.342 73.6758 181.1 73.6758H179.498V66.3906H185.397V63.5195H179.479V61.5078H187.936ZM215.007 60.0234V77.7969H212.644V60.0234H215.007ZM211.374 60.3164V76.9766H209.03V68.1289H206.687V66.1172H209.03V60.3164H211.374ZM205.261 64.7891C205.261 67.7383 206.179 70.7266 208.777 72.2109L207.312 74.0469C205.73 73.1094 204.685 71.5176 204.089 69.6133C203.474 71.6836 202.4 73.4414 200.769 74.4375L199.265 72.6016C201.882 71 202.859 67.7969 202.859 64.7891V63.832H199.948V61.8398H207.956V63.832H205.261V64.7891ZM224.529 71.0977C228.416 71.0977 230.857 72.3281 230.877 74.457C230.857 76.5469 228.416 77.7969 224.529 77.7969C220.681 77.7969 218.201 76.5469 218.201 74.457C218.201 72.3281 220.681 71.0977 224.529 71.0977ZM224.529 72.9531C222.087 72.9531 220.681 73.4609 220.681 74.457C220.681 75.4141 222.087 75.9023 224.529 75.9023C226.97 75.9023 228.396 75.4141 228.396 74.457C228.396 73.4609 226.97 72.9531 224.529 72.9531ZM230.779 60.8242V62.2695C230.779 63.6758 230.779 65.1992 230.271 67.0352L227.83 66.8008C228.22 65.1895 228.269 63.9883 228.298 62.7773H218.377V60.8242H230.779ZM232.693 67.9531V69.9648H216.56V67.9531H222.615V64.8477H225.076V67.9531H232.693ZM237.156 74.5547L235.477 80.1211H233.406L234.383 74.5547H237.156ZM105.282 95.6328V98.3086C106.738 98.2207 108.212 98.084 109.599 97.8789L109.794 99.6953C105.849 100.457 101.63 100.496 98.5246 100.496L98.2316 98.4844C99.5695 98.4746 101.142 98.4648 102.802 98.4062V95.6328H105.282ZM108.954 88.1133V90.125H105.321C105.488 91.8438 106.825 93.4551 109.501 94.1094L108.368 96.043C106.288 95.5156 104.853 94.3633 104.052 92.8789C103.261 94.4316 101.845 95.6426 99.7551 96.1797L98.5832 94.3047C101.269 93.5918 102.568 91.9219 102.743 90.125H99.1496V88.1133H102.802V86.1797H105.282V88.1133H108.954ZM113.095 86.0234V103.836H110.614V86.0234H113.095ZM129.687 87.5664V89.2461C129.687 91.4727 129.687 93.9727 128.964 97.7422L126.464 97.4883C127.138 94.1289 127.168 91.6289 127.187 89.5391H116.718V87.5664H129.687ZM131.25 99.5977V101.629H115.039V99.5977H120.839V93.4844H123.32V99.5977H131.25ZM137.686 87.2148C140.498 87.1953 142.607 89.0312 142.607 91.5703C142.607 94.1289 140.498 95.9453 137.686 95.9453C134.873 95.9453 132.744 94.1289 132.744 91.5703C132.744 89.0312 134.873 87.1953 137.686 87.2148ZM137.686 89.3633C136.279 89.3633 135.205 90.1836 135.225 91.5703C135.205 92.9766 136.279 93.7773 137.686 93.7773C139.092 93.7773 140.166 92.9766 140.186 91.5703C140.166 90.1836 139.111 89.3633 137.686 89.3633ZM146.865 86.0234V103.836H144.385V86.0234H146.865ZM132.002 98.1719C135.166 98.1914 139.561 98.1328 143.369 97.6055L143.564 99.4023C139.619 100.164 135.4 100.203 132.295 100.203L132.002 98.1719ZM161.026 97.0977C164.913 97.0977 167.354 98.3281 167.374 100.457C167.354 102.547 164.913 103.797 161.026 103.797C157.179 103.797 154.698 102.547 154.698 100.457C154.698 98.3281 157.179 97.0977 161.026 97.0977ZM161.026 98.9531C158.585 98.9531 157.179 99.4609 157.179 100.457C157.179 101.414 158.585 101.902 161.026 101.902C163.468 101.902 164.893 101.414 164.893 100.457C164.893 99.4609 163.468 98.9531 161.026 98.9531ZM167.276 86.8242V88.2695C167.276 89.6758 167.276 91.1992 166.768 93.0352L164.327 92.8008C164.718 91.1895 164.766 89.9883 164.796 88.7773H154.874V86.8242H167.276ZM169.19 93.9531V95.9648H153.057V93.9531H159.112V90.8477H161.573V93.9531H169.19ZM184.552 87.5664V89.2461C184.552 91.4727 184.552 93.9727 183.829 97.7422L181.329 97.4883C182.003 94.1289 182.032 91.6289 182.052 89.5391H171.583V87.5664H184.552ZM186.114 99.5977V101.629H169.904V99.5977H175.704V93.4844H178.185V99.5977H186.114ZM206.486 88.2891V90.2812H191.701V88.2891H197.854V86.2188H200.314V88.2891H206.486ZM207.268 100.027V102.02H190.998V100.027H194.885V97.0977C193.674 96.5117 193 95.6133 193.01 94.4414C192.99 92.2734 195.334 91.0039 199.084 91.0039C202.814 91.0039 205.139 92.2734 205.139 94.4414C205.139 95.6035 204.465 96.5117 203.264 97.0781V100.027H207.268ZM199.084 92.918C196.779 92.918 195.549 93.4258 195.568 94.4414C195.549 95.4375 196.779 95.9258 199.084 95.9258C201.33 95.9258 202.58 95.4375 202.58 94.4414C202.58 93.4258 201.33 92.918 199.084 92.918ZM197.385 100.027H200.803V97.7617C200.266 97.8301 199.699 97.8594 199.084 97.8594C198.479 97.8594 197.912 97.8301 197.385 97.7617V100.027ZM215.989 86.1797C220.071 86.1797 222.434 87.2539 222.454 89.2266C222.434 91.1797 220.071 92.2539 215.989 92.2539C211.887 92.2539 209.504 91.1797 209.504 89.2266C209.504 87.2539 211.887 86.1797 215.989 86.1797ZM215.989 88.0156C213.371 88.0156 212.102 88.4062 212.121 89.2266C212.102 90.0859 213.371 90.4375 215.989 90.4375C218.625 90.4375 219.875 90.0859 219.875 89.2266C219.875 88.4062 218.625 88.0156 215.989 88.0156ZM224.094 92.9961V94.9492H220.032V96.1992H222.121V100.73H212.219V101.805H222.59V103.68H209.778V98.9922H219.661V98.0156H209.758V96.1992H211.965V94.9492H207.883V92.9961H224.094ZM214.426 96.1992H217.551V94.9492H214.426V96.1992ZM228.811 87.8594L228.557 97.7617H226.057L225.804 87.8594H228.811ZM227.327 102.176C226.409 102.176 225.667 101.434 225.686 100.535C225.667 99.6367 226.409 98.9141 227.327 98.9141C228.186 98.9141 228.948 99.6367 228.948 100.535C228.948 101.434 228.186 102.176 227.327 102.176Z" fill="#FFFB93"/>
<path d="M108.491 46H105.959L109.881 34.6875H112.897L116.803 46H114.287L113.444 43.3906H109.35L108.491 46ZM109.944 41.5625H112.85L111.428 37.2344H111.35L109.944 41.5625ZM120.108 34.6875V46H117.764V34.6875H120.108ZM137.499 41.7344V43.3594H131.984V47.4531H130.015V43.3594H124.531V41.7344H137.499ZM136.312 34.8594V36.4219H132.046C132.273 37.6719 133.874 39.0781 136.812 39.4062L136.093 40.9688C133.687 40.6953 131.945 39.7109 131.015 38.4062C130.093 39.7266 128.335 40.6953 125.906 40.9688L125.187 39.4062C128.124 39.0781 129.742 37.6797 129.984 36.4219H125.702V34.8594H130.015V33.2344H131.984V34.8594H136.312ZM143.273 36.5625C143.273 38.1562 144.32 39.7969 146.632 40.5L145.679 42.0469C144.086 41.5938 142.961 40.6172 142.32 39.375C141.687 40.7188 140.554 41.7734 138.914 42.2812L137.945 40.7188C140.257 40.0312 141.289 38.2969 141.289 36.5625V36.4531H138.429V34.8906H141.289V33.3125H143.304V34.8906H146.148V36.4531H143.273V36.5625ZM150.023 33.2344V43.7812H148.039V38.9844H145.679V37.375H148.039V33.2344H150.023ZM150.367 45.5938V47.1875H140.586V42.875H142.586V45.5938H150.367ZM155.594 33.6406C157.75 33.6406 159.391 34.9844 159.391 36.8906C159.391 38.7656 157.75 40.125 155.594 40.125C153.391 40.125 151.766 38.7656 151.766 36.8906C151.766 34.9844 153.391 33.6406 155.594 33.6406ZM155.594 35.2656C154.5 35.2656 153.688 35.8594 153.703 36.8906C153.688 37.9062 154.5 38.5156 155.594 38.5156C156.672 38.5156 157.469 37.9062 157.469 36.8906C157.469 35.8594 156.672 35.2656 155.594 35.2656ZM163.453 33.2188V40.3438H161.453V33.2188H163.453ZM163.453 40.9375V44.7969H155.891V45.7188H163.844V47.2812H153.938V43.3438H161.469V42.4688H153.906V40.9375H163.453ZM170.305 37.0938C170.289 39.2656 171.446 41.7656 173.789 42.8438L172.68 44.4062C171.094 43.6797 169.961 42.2266 169.336 40.5156C168.696 42.3984 167.532 43.9922 165.883 44.7656L164.727 43.1875C167.102 42.0781 168.289 39.4375 168.305 37.0938V36.2188H165.289V34.5938H173.164V36.2188H170.305V37.0938ZM176.274 33.2188V38.6406H178.367V40.3125H176.274V47.4375H174.274V33.2188H176.274ZM190.485 33.2188V47.4688H188.501V33.2188H190.485ZM186.079 34.4062V39.8906H181.391V42.5C183.555 42.4922 185.399 42.3672 187.485 42.0312L187.657 43.6406C185.313 44.0469 183.204 44.1406 180.61 44.1406H179.329V38.3125H184.048V36.0156H179.313V34.4062H186.079ZM207.392 33.2188V47.4375H205.376V33.2188H207.392ZM203.126 34.7031C203.126 39.0156 201.611 42.5938 196.533 45L195.486 43.4062C199.158 41.6719 200.775 39.4219 201.095 36.2656H196.251V34.7031H203.126ZM220.228 33.2344V37.2344H222.15V38.875H220.228V43.7031H218.228V33.2344H220.228ZM220.744 45.5938V47.1875H211.009V42.625H212.994V45.5938H220.744ZM211.353 34.2344V36.2969H214.259V34.2344H216.259V41.4375H209.369V34.2344H211.353ZM211.353 39.875H214.259V37.8281H211.353V39.875Z" fill="white"/>
<mask id="path-4-inside-1_5675_432218" fill="white">
<path d="M24 120H304V260H24V120Z"/>
</mask>
<path d="M24 121H304V119H24V121Z" fill="white" fill-opacity="0.3" mask="url(#path-4-inside-1_5675_432218)"/>
<rect x="24" y="140" width="52" height="52" rx="26" fill="white"/>
<rect x="39" y="152.5" width="22.5" height="28.5" rx="3" fill="#459AFF"/>
<path d="M53.75 160.75L48.5937 166L46.25 163.614" stroke="white" stroke-width="2" stroke-linecap="round" stroke-linejoin="round"/>
<rect x="45" y="170.857" width="10" height="1.5" rx="0.75" fill="white"/>
<rect x="45" y="174" width="10" height="1.5" rx="0.75" fill="white"/>
<rect x="44.0002" y="154" width="12" height="3" rx="1.5" fill="#4643DD"/>
<circle cx="50.0002" cy="153.25" r="1.25" fill="#4643DD" stroke="#4643DD" stroke-width="2"/>
<path d="M102.199 143.178V144.258C102.199 145.42 102.199 146.678 101.857 148.428H103.621V149.494H98.6582V154.676H97.3457V149.494H92.4512V148.428H100.545C100.914 146.685 100.914 145.399 100.914 144.258V144.244H93.8184V143.178H102.199ZM108.53 144.613C108.53 146.186 109.706 147.689 111.592 148.291L110.922 149.303C109.514 148.838 108.448 147.867 107.901 146.637C107.347 147.97 106.26 149.022 104.797 149.535L104.127 148.537C106.028 147.881 107.204 146.281 107.217 144.613V144.271H104.469V143.219H111.223V144.271H108.53V144.613ZM114.149 142.412V149.809H112.85V142.412H114.149ZM114.149 150.424V154.662H112.85V151.477H105.85V150.424H114.149ZM119.796 146.021C119.796 147.963 121.067 150.123 122.927 150.998L122.189 152.01C120.815 151.347 119.728 149.966 119.181 148.359C118.613 150.116 117.465 151.627 116.064 152.324L115.298 151.299C117.157 150.41 118.511 148.1 118.511 146.021V144.723H115.749V143.643H122.462V144.723H119.796V146.021ZM125.073 142.412V147.266H127.042V148.359H125.073V154.662H123.775V142.412H125.073ZM140.442 142.412V154.662H139.197V148.332H137.612V154.033H136.422V142.658H137.612V147.266H139.197V142.412H140.442ZM134.932 143.889V144.941H131.637V150.615C133.141 150.602 134.276 150.533 135.588 150.287L135.684 151.354C134.207 151.654 132.949 151.709 131.158 151.723H130.338V143.889H134.932ZM145.692 144.367C145.692 145.98 146.813 147.471 148.645 148.072L147.948 149.098C146.608 148.626 145.603 147.669 145.077 146.459C144.537 147.833 143.498 148.906 142.069 149.439L141.372 148.4C143.286 147.717 144.393 146.09 144.407 144.258V143.055H145.692V144.367ZM151.093 142.412V145.488H152.87V146.582H151.093V149.809H149.794V142.412H151.093ZM147.141 150.096C149.657 150.096 151.202 150.93 151.202 152.365C151.202 153.814 149.657 154.648 147.141 154.635C144.598 154.648 143.026 153.814 143.026 152.365C143.026 150.93 144.598 150.096 147.141 150.096ZM147.141 151.121C145.364 151.121 144.311 151.586 144.325 152.365C144.311 153.172 145.364 153.609 147.141 153.623C148.905 153.609 149.93 153.172 149.93 152.365C149.93 151.586 148.905 151.121 147.141 151.121ZM160.377 146.021C160.377 148.072 161.717 150.191 163.603 150.998L162.893 152.01C161.45 151.374 160.302 150.027 159.734 148.387C159.167 150.137 158.012 151.627 156.59 152.324L155.838 151.299C157.684 150.438 159.051 148.127 159.064 146.021V144.723H156.262V143.643H163.166V144.723H160.377V146.021ZM166.01 142.412V154.662H164.711V142.412H166.01ZM177.618 150.273V154.662H176.319V151.299H169.319V150.273H177.618ZM177.618 142.412V149.631H176.319V147.949H173.297C172.73 148.619 171.834 149.022 170.795 149.016C168.95 149.029 167.582 147.799 167.582 146.049C167.582 144.326 168.95 143.082 170.795 143.096C171.834 143.089 172.723 143.492 173.297 144.162H176.319V142.412H177.618ZM170.795 144.189C169.647 144.189 168.827 144.955 168.827 146.049C168.827 147.17 169.647 147.922 170.795 147.922C171.903 147.922 172.737 147.17 172.737 146.049C172.737 144.955 171.903 144.189 170.795 144.189ZM173.872 146.883H176.319V145.229H173.872C173.94 145.488 173.981 145.762 173.981 146.049C173.981 146.343 173.94 146.623 173.872 146.883ZM183.197 150.137C182.664 150.137 182.213 149.699 182.226 149.166C182.213 148.633 182.664 148.195 183.197 148.195C183.716 148.195 184.168 148.633 184.168 149.166C184.168 149.699 183.716 150.137 183.197 150.137ZM191.182 142.973C192.796 142.959 194.04 143.896 194.313 145.27H196.706V142.412H198.005V148.988H196.706V146.336H194.327C194.06 147.744 192.809 148.688 191.182 148.688C189.309 148.688 187.969 147.512 187.969 145.816C187.969 144.148 189.309 142.959 191.182 142.973ZM191.182 144.053C190.02 144.053 189.214 144.764 189.214 145.816C189.214 146.869 190.02 147.594 191.182 147.594C192.317 147.594 193.124 146.869 193.124 145.816C193.124 144.764 192.317 144.053 191.182 144.053ZM191.305 149.576V150.998H196.706V149.576H198.005V154.512H190.02V149.576H191.305ZM191.305 153.445H196.706V152.023H191.305V153.445ZM205.552 146.773V148.428H210.501V149.494H199.331V148.428H204.267V146.773H205.552ZM204.909 150.383C207.562 150.383 209.134 151.135 209.134 152.516C209.134 153.883 207.562 154.648 204.909 154.635C202.243 154.648 200.658 153.883 200.658 152.516C200.658 151.135 202.243 150.383 204.909 150.383ZM204.909 151.381C203.023 151.381 201.97 151.777 201.97 152.516C201.97 153.254 203.023 153.65 204.909 153.65C206.769 153.65 207.835 153.254 207.835 152.516C207.835 151.777 206.769 151.381 204.909 151.381ZM209.503 142.973V144.012H205.784C205.969 145.181 207.705 146.172 209.927 146.391L209.462 147.416C207.329 147.17 205.579 146.295 204.909 144.996C204.24 146.295 202.49 147.17 200.37 147.416L199.906 146.391C202.114 146.172 203.85 145.194 204.034 144.012H200.357V142.973H209.503ZM217.721 143.191C219.662 143.191 221.043 144.381 221.057 146.104C221.043 147.628 219.963 148.735 218.364 148.961V150.902C219.519 150.848 220.695 150.752 221.795 150.588L221.891 151.531C219.116 152.051 216.149 152.064 213.961 152.064L213.797 150.998C214.761 150.998 215.882 150.998 217.065 150.957V148.961C215.479 148.729 214.371 147.621 214.385 146.104C214.371 144.381 215.793 143.191 217.721 143.191ZM217.721 144.312C216.532 144.312 215.657 145.01 215.67 146.104C215.657 147.184 216.532 147.908 217.721 147.895C218.911 147.908 219.786 147.184 219.786 146.104C219.786 145.01 218.911 144.312 217.721 144.312ZM223.86 142.412V154.689H222.561V142.412H223.86ZM237.875 143.178V144.258C237.875 145.42 237.875 146.678 237.533 148.428H239.296V149.494H234.334V154.676H233.021V149.494H228.126V148.428H236.22C236.589 146.685 236.589 145.399 236.589 144.258V144.244H229.494V143.178H237.875ZM244.205 144.613C244.205 146.186 245.381 147.689 247.268 148.291L246.598 149.303C245.19 148.838 244.123 147.867 243.576 146.637C243.023 147.97 241.936 149.022 240.473 149.535L239.803 148.537C241.703 147.881 242.879 146.281 242.893 144.613V144.271H240.145V143.219H246.899V144.271H244.205V144.613ZM249.824 142.412V149.809H248.525V142.412H249.824ZM249.824 150.424V154.662H248.525V151.477H241.525V150.424H249.824ZM255.471 146.021C255.471 147.963 256.743 150.123 258.602 150.998L257.864 152.01C256.49 151.347 255.403 149.966 254.856 148.359C254.289 150.116 253.14 151.627 251.739 152.324L250.973 151.299C252.833 150.41 254.186 148.1 254.186 146.021V144.723H251.424V143.643H258.137V144.723H255.471V146.021ZM260.749 142.412V147.266H262.717V148.359H260.749V154.662H259.45V142.412H260.749ZM266.738 143.287C268.679 143.273 270.06 144.477 270.073 146.199C270.06 147.922 268.679 149.125 266.738 149.125C264.81 149.125 263.388 147.922 263.402 146.199C263.388 144.477 264.81 143.273 266.738 143.287ZM266.738 144.408C265.548 144.408 264.673 145.119 264.687 146.199C264.673 147.279 265.548 147.99 266.738 147.99C267.927 147.99 268.802 147.279 268.802 146.199C268.802 145.119 267.927 144.408 266.738 144.408ZM272.876 142.412V154.689H271.577V142.412H272.876ZM262.814 150.971C265.042 150.971 268.132 150.943 270.812 150.561L270.907 151.504C268.132 152.037 265.165 152.051 262.978 152.051L262.814 150.971ZM102.596 159.412V171.689H101.297V159.412H102.596ZM96.0469 160.328C97.8652 160.328 99.2051 161.996 99.2051 164.621C99.2051 167.26 97.8652 168.928 96.0469 168.928C94.2012 168.928 92.875 167.26 92.875 164.621C92.875 161.996 94.2012 160.328 96.0469 160.328ZM96.0469 161.49C94.9121 161.49 94.1328 162.693 94.1328 164.621C94.1328 166.562 94.9121 167.766 96.0469 167.766C97.168 167.766 97.9473 166.562 97.9473 164.621C97.9473 162.693 97.168 161.49 96.0469 161.49ZM109.829 160.15V163.719H105.782V165.414C107.915 165.421 109.077 165.373 110.458 165.113L110.581 166.166C109.09 166.426 107.833 166.467 105.385 166.467H104.497V162.734H108.53V161.189H104.483V160.15H109.829ZM114.204 159.426V166.959H112.905V164.799H110.608V163.76H112.905V162.242H110.608V161.203H112.905V159.426H114.204ZM114.204 167.574V171.676H112.905V168.627H105.891V167.574H114.204ZM128.834 159.412V167.137H127.603V163.719H126.181V166.713H124.965V159.645H126.181V162.652H127.603V159.412H128.834ZM124.513 160.807V161.832H118.32V160.807H120.795V159.508H122.08V160.807H124.513ZM121.424 162.406C122.982 162.406 124.076 163.24 124.076 164.512C124.076 165.783 122.982 166.617 121.424 166.617C119.892 166.617 118.799 165.783 118.799 164.512C118.799 163.24 119.892 162.406 121.424 162.406ZM121.424 163.363C120.562 163.363 119.961 163.814 119.961 164.512C119.961 165.209 120.562 165.674 121.424 165.674C122.312 165.674 122.9 165.209 122.9 164.512C122.9 163.814 122.312 163.363 121.424 163.363ZM124.732 167.314C127.33 167.314 128.888 168.094 128.902 169.488C128.888 170.855 127.33 171.648 124.732 171.635C122.134 171.648 120.576 170.855 120.59 169.488C120.576 168.094 122.134 167.314 124.732 167.314ZM124.732 168.312C122.914 168.312 121.861 168.723 121.875 169.488C121.861 170.227 122.914 170.65 124.732 170.637C126.564 170.65 127.59 170.227 127.603 169.488C127.59 168.723 126.564 168.312 124.732 168.312ZM141.112 165.373V166.412H129.928V165.373H134.891V164.074H131.322V159.973H139.731V160.998H132.608V163.035H139.813V164.074H136.149V165.373H141.112ZM135.506 167.205C138.145 167.205 139.731 168.012 139.731 169.434C139.731 170.855 138.145 171.648 135.506 171.662C132.854 171.648 131.254 170.855 131.254 169.434C131.254 168.012 132.854 167.205 135.506 167.205ZM135.506 168.217C133.633 168.217 132.567 168.654 132.567 169.434C132.567 170.213 133.633 170.65 135.506 170.637C137.352 170.65 138.432 170.213 138.432 169.434C138.432 168.654 137.352 168.217 135.506 168.217ZM151.68 159.412V166.699H150.382V163.596H148.098V162.529H150.382V159.412H151.68ZM147.579 167.041C150.149 167.041 151.721 167.889 151.721 169.352C151.721 170.814 150.149 171.648 147.579 171.662C145.009 171.648 143.423 170.814 143.436 169.352C143.423 167.889 145.009 167.041 147.579 167.041ZM147.579 168.053C145.788 168.053 144.721 168.518 144.721 169.352C144.721 170.172 145.788 170.65 147.579 170.637C149.37 170.65 150.436 170.172 150.436 169.352C150.436 168.518 149.37 168.053 147.579 168.053ZM145.856 161.572C145.856 163.131 146.964 164.635 148.809 165.264L148.139 166.289C146.765 165.811 145.754 164.833 145.227 163.623C144.687 164.997 143.614 166.098 142.151 166.631L141.468 165.592C143.368 164.936 144.53 163.281 144.53 161.586V161.312H141.878V160.26H148.481V161.312H145.856V161.572ZM164.218 169.064V170.145H153.007V169.064H157.943V166.549H154.292V160.246H155.591V162.352H161.607V160.246H162.892V166.549H159.228V169.064H164.218ZM155.591 165.496H161.607V163.404H155.591V165.496ZM174.281 159.412V164.389H176.059V165.455H174.281V171.662H172.982V159.412H174.281ZM168.238 160.725C168.238 163.787 167.678 166.576 165.463 168.941L164.437 168.217C166.228 166.357 166.878 164.245 167.008 161.791H164.875V160.725H168.238ZM171.615 160.725C171.615 163.828 171.232 167.082 168.976 169.748L167.937 169.037C169.756 166.911 170.303 164.409 170.398 161.791H168.635V160.725H171.615ZM180.598 163.021C180.598 165.072 181.938 167.191 183.825 167.998L183.114 169.01C181.671 168.374 180.523 167.027 179.956 165.387C179.388 167.137 178.233 168.627 176.811 169.324L176.059 168.299C177.905 167.438 179.272 165.127 179.286 163.021V161.723H176.483V160.643H183.387V161.723H180.598V163.021ZM186.231 159.412V171.662H184.932V159.412H186.231ZM201.681 165.824V166.863H196.814V169.119H195.529V166.863H190.47V165.824H201.681ZM200.437 170.35V171.402H191.865V168.053H193.15V170.35H200.437ZM193.232 159.795V161.285H198.906V159.795H200.205V164.744H191.947V159.795H193.232ZM193.232 163.705H198.906V162.256H193.232V163.705ZM206.344 161.367C206.33 162.994 207.451 164.525 209.297 165.141L208.586 166.18C207.233 165.694 206.235 164.703 205.715 163.459C205.175 164.826 204.136 165.899 202.707 166.439L202.01 165.387C203.924 164.717 205.031 163.104 205.045 161.299V160.041H206.344V161.367ZM212.236 167.314V171.662H210.938V168.34H203.938V167.314H212.236ZM212.236 159.412V166.672H210.938V162.953H208.354V161.887H210.938V159.412H212.236ZM223.106 159.412V164.375H225.075V165.455H223.106V171.662H221.821V159.412H223.106ZM220.755 161.326V162.393H213.495V161.326H216.516V159.576H217.815V161.326H220.755ZM217.173 163.295C218.923 163.295 220.208 164.471 220.221 166.139C220.208 167.82 218.923 168.982 217.173 168.996C215.409 168.982 214.124 167.82 214.124 166.139C214.124 164.471 215.409 163.295 217.173 163.295ZM217.173 164.361C216.134 164.361 215.354 165.086 215.368 166.139C215.354 167.205 216.134 167.916 217.173 167.902C218.212 167.916 218.977 167.205 218.977 166.139C218.977 165.086 218.212 164.361 217.173 164.361ZM228.425 160.328C229.539 160.328 230.462 160.971 231.009 162.078H234.031V159.412H235.316V171.689H234.031V166.986H231.091C230.565 168.217 229.601 168.928 228.425 168.928C226.593 168.928 225.308 167.26 225.322 164.621C225.308 161.996 226.593 160.328 228.425 160.328ZM228.425 161.49C227.318 161.49 226.552 162.693 226.552 164.621C226.552 166.562 227.318 167.766 228.425 167.766C229.533 167.766 230.298 166.562 230.298 164.621C230.298 162.693 229.533 161.49 228.425 161.49ZM231.378 163.145C231.467 163.596 231.529 164.088 231.529 164.621C231.529 165.086 231.488 165.517 231.406 165.92H234.031V163.145H231.378ZM243.164 163.158C243.164 165.059 244.053 167.041 245.762 167.93L245.024 168.9C243.841 168.271 243.014 167.103 242.577 165.715C242.132 167.191 241.312 168.47 240.129 169.16L239.364 168.203C241.045 167.219 241.934 165.127 241.948 163.158V162.707H239.678V161.627H241.948V159.85H243.164V161.627H245.393V162.707H243.164V163.158ZM250.082 159.412V171.662H248.838V165.373H247.375V171.061H246.145V159.645H247.375V164.279H248.838V159.412H250.082ZM262.21 165.387V166.439H251.04V165.387H253.72V163.732C252.776 163.35 252.243 162.734 252.243 161.928C252.243 160.479 253.925 159.631 256.618 159.631C259.298 159.631 260.993 160.479 260.993 161.928C260.993 162.734 260.453 163.356 259.503 163.732V165.387H262.21ZM256.618 167.273C259.257 167.273 260.843 168.053 260.843 169.447C260.843 170.869 259.257 171.635 256.618 171.635C253.952 171.635 252.366 170.869 252.366 169.447C252.366 168.053 253.952 167.273 256.618 167.273ZM256.618 168.271C254.745 168.271 253.679 168.695 253.679 169.447C253.679 170.213 254.745 170.65 256.618 170.637C258.464 170.65 259.544 170.213 259.544 169.447C259.544 168.695 258.464 168.271 256.618 168.271ZM256.618 160.629C254.718 160.629 253.569 161.107 253.583 161.928C253.569 162.748 254.718 163.213 256.618 163.213C258.519 163.213 259.653 162.748 259.653 161.928C259.653 161.107 258.519 160.629 256.618 160.629ZM255.032 165.387H258.218V164.074C257.739 164.156 257.199 164.197 256.618 164.197C256.044 164.197 255.511 164.156 255.032 164.088V165.387ZM270.961 167.109C273.613 167.109 275.281 167.943 275.295 169.379C275.281 170.801 273.613 171.648 270.961 171.635C268.336 171.648 266.654 170.801 266.654 169.379C266.654 167.943 268.336 167.109 270.961 167.109ZM270.961 168.094C269.102 168.094 267.94 168.572 267.953 169.379C267.94 170.172 269.102 170.637 270.961 170.637C272.834 170.637 273.996 170.172 274.01 169.379C273.996 168.572 272.834 168.094 270.961 168.094ZM275.199 160.014V161.039C275.199 162.023 275.199 163.035 274.857 164.293L273.586 164.156C273.914 162.905 273.914 162.003 273.914 161.053H266.75V160.014H275.199ZM276.594 165.045V166.098H265.451V165.045H269.922V162.748H271.193V165.045H276.594ZM286.889 160.588V161.791C286.889 163.309 286.889 165.004 286.424 167.506L285.112 167.369C285.59 165.004 285.59 163.268 285.59 161.791V161.641H278.153V160.588H286.889ZM288.147 168.928V170.008H276.977V168.928H281.229V164.607H282.514V168.928H288.147ZM96.7168 180.021C96.7168 181.963 97.9883 184.123 99.8477 184.998L99.1094 186.01C97.7354 185.347 96.6484 183.966 96.1016 182.359C95.5342 184.116 94.3857 185.627 92.9844 186.324L92.2188 185.299C94.0781 184.41 95.4316 182.1 95.4316 180.021V178.723H92.6699V177.643H99.3828V178.723H96.7168V180.021ZM101.994 176.412V181.266H103.963V182.359H101.994V188.662H100.695V176.412H101.994ZM115.174 182.373V183.412H103.991V182.373H108.954V181.074H105.385V176.973H113.794V177.998H106.67V180.035H113.876V181.074H110.211V182.373H115.174ZM109.569 184.205C112.208 184.205 113.794 185.012 113.794 186.434C113.794 187.855 112.208 188.648 109.569 188.662C106.917 188.648 105.317 187.855 105.317 186.434C105.317 185.012 106.917 184.205 109.569 184.205ZM109.569 185.217C107.696 185.217 106.629 185.654 106.629 186.434C106.629 187.213 107.696 187.65 109.569 187.637C111.415 187.65 112.495 187.213 112.495 186.434C112.495 185.654 111.415 185.217 109.569 185.217ZM128.328 181.881V182.947H124.623V186.064H129.599V187.131H118.388V186.064H123.324V182.947H119.728V177.424H121.041V181.881H128.328ZM141.084 181.785V182.756H136.149V183.781H139.69V186.543H132.553V187.555H140.031V188.539H131.281V185.641H138.405V184.725H131.268V183.781H134.864V182.756H129.942V181.785H141.084ZM136.149 176.357V177.438H139.977V178.436H136.258C136.504 179.475 138.165 180.199 140.537 180.322L140.141 181.307C138.008 181.156 136.272 180.527 135.506 179.447C134.74 180.527 133.004 181.156 130.858 181.307L130.489 180.322C132.84 180.199 134.494 179.475 134.768 178.436H131.049V177.438H134.864V176.357H136.149Z" fill="white"/>
<rect x="24" y="208" width="52" height="52" rx="26" fill="white"/>
<rect x="42.8995" y="218.134" width="21.7352" height="27.169" rx="4" transform="rotate(15 42.8995 218.134)" fill="#FFD600"/>
<rect x="38.4286" y="220.5" width="21.8571" height="27" rx="3" fill="#FF6B4A"/>
<path d="M49.4391 228.857C49.3884 228.852 49.3276 228.852 49.2719 228.857C48.0658 228.817 47.108 227.827 47.108 226.61C47.108 225.367 48.1114 224.357 49.358 224.357C50.5996 224.357 51.608 225.367 51.608 226.61C51.603 227.827 50.6452 228.817 49.4391 228.857Z" fill="white"/>
<path d="M46.0548 230.318C44.458 231.284 44.458 232.859 46.0548 233.819C47.8693 234.917 50.8451 234.917 52.6596 233.819C54.2564 232.853 54.2564 231.278 52.6596 230.318C50.8517 229.227 47.8759 229.227 46.0548 230.318Z" fill="white"/>
<rect x="44.2142" y="237" width="10" height="1.5" rx="0.75" fill="white"/>
<rect x="44.2142" y="240" width="10" height="1.5" rx="0.75" fill="white"/>
<path d="M102.199 219.678V220.758C102.199 221.92 102.199 223.178 101.857 224.928H103.621V225.994H98.6582V231.176H97.3457V225.994H92.4512V224.928H100.545C100.914 223.185 100.914 221.899 100.914 220.758V220.744H93.8184V219.678H102.199ZM114.149 218.926V227.826H112.85V218.926H114.149ZM114.518 229.85V230.902H106.137V226.924H107.45V229.85H114.518ZM107.504 219.746C109.35 219.746 110.758 221.004 110.758 222.781C110.758 224.586 109.35 225.83 107.504 225.83C105.659 225.83 104.237 224.586 104.237 222.781C104.237 221.004 105.659 219.746 107.504 219.746ZM107.504 220.881C106.356 220.881 105.508 221.66 105.508 222.781C105.508 223.93 106.356 224.695 107.504 224.695C108.626 224.695 109.487 223.93 109.487 222.781C109.487 221.66 108.626 220.881 107.504 220.881ZM119.782 222.029C119.769 224.203 121.026 226.418 122.859 227.307L122.052 228.346C120.719 227.655 119.687 226.281 119.153 224.641C118.6 226.391 117.526 227.854 116.132 228.578L115.325 227.525C117.212 226.623 118.484 224.271 118.484 222.029V219.938H119.782V222.029ZM125.073 218.912V223.793H127.042V224.9H125.073V231.162H123.775V218.912H125.073ZM140.442 218.912V231.162H139.197V224.832H137.612V230.533H136.422V219.158H137.612V223.766H139.197V218.912H140.442ZM134.932 220.389V221.441H131.637V227.115C133.141 227.102 134.276 227.033 135.588 226.787L135.684 227.854C134.207 228.154 132.949 228.209 131.158 228.223H130.338V220.389H134.932ZM145.692 220.867C145.692 222.48 146.813 223.971 148.645 224.572L147.948 225.598C146.608 225.126 145.603 224.169 145.077 222.959C144.537 224.333 143.498 225.406 142.069 225.939L141.372 224.9C143.286 224.217 144.393 222.59 144.407 220.758V219.555H145.692V220.867ZM151.093 218.912V221.988H152.87V223.082H151.093V226.309H149.794V218.912H151.093ZM147.141 226.596C149.657 226.596 151.202 227.43 151.202 228.865C151.202 230.314 149.657 231.148 147.141 231.135C144.598 231.148 143.026 230.314 143.026 228.865C143.026 227.43 144.598 226.596 147.141 226.596ZM147.141 227.621C145.364 227.621 144.311 228.086 144.325 228.865C144.311 229.672 145.364 230.109 147.141 230.123C148.905 230.109 149.93 229.672 149.93 228.865C149.93 228.086 148.905 227.621 147.141 227.621ZM161.389 226.609C164.041 226.609 165.709 227.443 165.723 228.879C165.709 230.301 164.041 231.148 161.389 231.135C158.764 231.148 157.082 230.301 157.082 228.879C157.082 227.443 158.764 226.609 161.389 226.609ZM161.389 227.594C159.529 227.594 158.367 228.072 158.381 228.879C158.367 229.672 159.529 230.137 161.389 230.137C163.262 230.137 164.424 229.672 164.437 228.879C164.424 228.072 163.262 227.594 161.389 227.594ZM165.627 219.514V220.539C165.627 221.523 165.627 222.535 165.285 223.793L164.014 223.656C164.342 222.405 164.342 221.503 164.342 220.553H157.178V219.514H165.627ZM167.021 224.545V225.598H155.879V224.545H160.35V222.248H161.621V224.545H167.021ZM177.317 220.088V221.291C177.317 222.809 177.317 224.504 176.852 227.006L175.54 226.869C176.018 224.504 176.018 222.768 176.018 221.291V221.141H168.581V220.088H177.317ZM178.575 228.428V229.508H167.405V228.428H171.657V224.107H172.942V228.428H178.575ZM189.485 218.912V231.162H188.241V218.912H189.485ZM186.997 219.145V230.561H185.753V224.654H184.372C184.263 227.047 183.237 228.537 181.72 228.523C180.12 228.537 179.081 226.855 179.081 224.203C179.081 221.551 180.12 219.883 181.72 219.896C183.21 219.883 184.222 221.298 184.372 223.602H185.753V219.145H186.997ZM181.72 221.113C180.831 221.113 180.284 222.248 180.284 224.203C180.284 226.158 180.831 227.293 181.72 227.293C182.622 227.293 183.183 226.158 183.183 224.203C183.183 222.248 182.622 221.113 181.72 221.113ZM203.104 218.912V223.793H205.004V224.873H203.104V231.148H201.805V218.912H203.104ZM199.904 220.197C199.891 223.738 198.332 226.896 194.299 228.893L193.574 227.881C196.644 226.35 198.312 224.135 198.578 221.277H194.19V220.197H199.904ZM209.38 221.168C209.38 222.727 210.46 224.148 212.319 224.736L211.704 225.748C210.309 225.304 209.291 224.381 208.751 223.219C208.217 224.559 207.144 225.618 205.675 226.131L205.005 225.092C206.919 224.463 208.067 222.877 208.081 221.182V220.84H205.387V219.787H212.018V220.84H209.38V221.168ZM214.725 218.912V221.947H216.503V223.014H214.725V226.268H213.426V218.912H214.725ZM210.774 226.568C213.303 226.568 214.835 227.402 214.835 228.838C214.835 230.287 213.303 231.148 210.774 231.135C208.217 231.148 206.659 230.287 206.659 228.838C206.659 227.402 208.217 226.568 210.774 226.568ZM210.774 227.594C208.997 227.594 207.944 228.045 207.958 228.838C207.944 229.658 208.997 230.109 210.774 230.109C212.538 230.109 213.563 229.658 213.563 228.838C213.563 228.045 212.538 227.594 210.774 227.594ZM223.887 221.086C223.887 222.631 224.994 224.148 226.84 224.777L226.17 225.789C224.796 225.311 223.777 224.333 223.244 223.123C222.711 224.47 221.638 225.55 220.181 226.062L219.512 225.037C221.398 224.395 222.56 222.754 222.56 221.1V220.758H219.908V219.705H226.512V220.758H223.887V221.086ZM229.711 226.855V231.162H228.412V227.908H221.412V226.855H229.711ZM229.711 218.912V226.24H228.412V223.096H226.142V222.029H228.412V218.912H229.711ZM240.663 218.912V221.988H242.44V223.082H240.663V226.049H239.364V218.912H240.663ZM234.114 226.555V227.744H239.364V226.555H240.663V231.012H232.829V226.555H234.114ZM234.114 229.973H239.364V228.756H234.114V229.973ZM238.352 220.115V221.154H231.051V220.115H234.059V218.803H235.358V220.115H238.352ZM234.702 221.66C236.465 221.66 237.668 222.494 237.668 223.807C237.668 225.105 236.465 225.967 234.702 225.953C232.911 225.967 231.721 225.105 231.721 223.807C231.721 222.494 232.911 221.66 234.702 221.66ZM234.702 222.631C233.663 222.617 232.965 223.096 232.979 223.807C232.965 224.531 233.663 224.996 234.702 224.996C235.741 224.996 236.438 224.531 236.452 223.807C236.438 223.096 235.741 222.617 234.702 222.631ZM252.202 218.926V222.863H253.979V223.943H252.202V228.086H250.903V218.926H252.202ZM249.892 220.348V221.4H242.591V220.348H245.599V218.912H246.897V220.348H249.892ZM246.241 221.988C248.005 221.988 249.208 222.904 249.208 224.299C249.208 225.693 248.005 226.596 246.241 226.596C244.464 226.596 243.261 225.693 243.261 224.299C243.261 222.904 244.464 221.988 246.241 221.988ZM246.241 222.986C245.202 222.986 244.505 223.492 244.519 224.299C244.505 225.092 245.202 225.584 246.241 225.584C247.28 225.584 247.977 225.092 247.991 224.299C247.977 223.492 247.28 222.986 246.241 222.986ZM252.722 229.85V230.902H244.436V227.361H245.735V229.85H252.722ZM102.609 235.926V244.826H101.311V235.926H102.609ZM102.979 246.85V247.902H94.5977V243.924H95.9102V246.85H102.979ZM95.9648 236.746C97.8105 236.746 99.2188 238.004 99.2188 239.781C99.2188 241.586 97.8105 242.83 95.9648 242.83C94.1191 242.83 92.6973 241.586 92.6973 239.781C92.6973 238.004 94.1191 236.746 95.9648 236.746ZM95.9648 237.881C94.8164 237.881 93.9688 238.66 93.9688 239.781C93.9688 240.93 94.8164 241.695 95.9648 241.695C97.0859 241.695 97.9473 240.93 97.9473 239.781C97.9473 238.66 97.0859 237.881 95.9648 237.881ZM114.573 235.912V248.162H113.329V241.873H111.866V247.561H110.635V236.145H111.866V240.779H113.329V235.912H114.573ZM107.71 239.152C107.71 241.354 108.544 243.35 110.321 244.266L109.555 245.264C108.352 244.614 107.545 243.473 107.108 242.051C106.691 243.664 105.877 244.949 104.633 245.688L103.827 244.703C105.618 243.691 106.452 241.586 106.452 239.152V238.359H104.155V237.307H109.842V238.359H107.71V239.152ZM128.027 235.926V239.562H129.777V240.629H128.027V244.17H126.728V235.926H128.027ZM118.306 242.803C119.257 242.803 120.357 242.803 121.506 242.762V241.941C120.111 241.798 119.222 241.142 119.236 240.15C119.222 239.029 120.384 238.332 122.148 238.346C123.898 238.332 125.06 239.029 125.06 240.15C125.06 241.135 124.185 241.791 122.804 241.941V242.721C123.898 242.666 125.006 242.577 126.031 242.434L126.14 243.363C123.502 243.828 120.603 243.842 118.443 243.842L118.306 242.803ZM128.027 244.744V248.162H126.728V245.756H119.838V244.744H128.027ZM125.689 236.965V237.936H118.621V236.965H121.506V235.816H122.804V236.965H125.689ZM122.148 239.234C121.095 239.221 120.466 239.562 120.466 240.15C120.466 240.725 121.095 241.094 122.148 241.094C123.187 241.094 123.816 240.725 123.816 240.15C123.816 239.562 123.187 239.221 122.148 239.234ZM141.139 245.564V246.645H129.928V245.564H134.864V243.049H131.213V236.746H132.512V238.852H138.528V236.746H139.813V243.049H136.149V245.564H141.139ZM132.512 241.996H138.528V239.904H132.512V241.996Z" fill="white"/>
</svg>
