<svg width="328" height="248" viewBox="0 0 328 248" fill="none" xmlns="http://www.w3.org/2000/svg">
<rect x="0.5" y="0.5" width="327" height="246.849" rx="15.5" fill="white"/>
<rect x="0.5" y="0.5" width="327" height="246.849" rx="15.5" stroke="#DAE0ED"/>
<path d="M75.8824 43V28.8594H81.4293C84.652 28.8594 86.4879 30.832 86.4879 33.625C86.4879 36.457 84.6129 38.3906 81.3512 38.3906H78.8121V43H75.8824ZM78.8121 36.0273H80.8824C82.6207 36.0273 83.4605 35.0508 83.4605 33.625C83.4605 32.2188 82.6207 31.2617 80.8824 31.2617H78.8121V36.0273ZM97.3965 33.7812C97.1621 32.2188 95.9512 31.2617 94.3105 31.2617C92.1035 31.2617 90.6582 32.9609 90.6582 35.9297C90.6582 38.9766 92.123 40.5977 94.291 40.5977C95.9121 40.5977 97.1035 39.6992 97.3965 38.1758L100.365 38.1953C100.033 40.8125 97.8457 43.1953 94.252 43.1953C90.4629 43.1953 87.6699 40.5391 87.6699 35.9297C87.6699 31.3203 90.5215 28.6641 94.252 28.6641C97.5137 28.6641 99.9746 30.5391 100.365 33.7812H97.3965ZM108.539 34.7773V37.082H102.094V34.7773H108.539ZM126.206 40.6758V42.7266H109.936V40.6758H116.792V37.043H111.655V28.332H124.389V37.043H119.272V40.6758H126.206ZM114.116 30.3242V35.0898H121.929V30.3242H114.116ZM140.845 27.0234V33.6641H143.462V35.7539H140.845V44.7969H138.345V27.0234H140.845ZM129.868 28.4297V32.7656H133.56V28.4297H136.04V40.6758H127.388V28.4297H129.868ZM129.868 38.6641H133.56V34.6992H129.868V38.6641ZM148.765 27.5508C151.461 27.5508 153.511 29.2305 153.511 31.6133C153.511 33.957 151.461 35.6562 148.765 35.6562C146.011 35.6562 143.98 33.957 143.98 31.6133C143.98 29.2305 146.011 27.5508 148.765 27.5508ZM148.765 29.582C147.398 29.582 146.382 30.3242 146.402 31.6133C146.382 32.8828 147.398 33.6445 148.765 33.6445C150.113 33.6445 151.109 32.8828 151.109 31.6133C151.109 30.3242 150.113 29.582 148.765 29.582ZM158.589 27.0234V35.9297H156.089V27.0234H158.589ZM158.589 36.6719V41.4961H149.136V42.6484H159.078V44.6016H146.695V39.6797H156.109V38.5859H146.656V36.6719H158.589ZM181.051 35.4219V37.375H164.801V35.4219H171.715V33.8984H166.774V27.8047H179.098V29.7383H169.254V31.9453H179.196V33.8984H174.157V35.4219H181.051ZM172.887 38.2734C176.735 38.2734 179.059 39.4453 179.079 41.5547C179.059 43.625 176.735 44.8164 172.887 44.8164C169 44.8164 166.657 43.625 166.657 41.5547C166.657 39.4453 169 38.2734 172.887 38.2734ZM172.887 40.168C170.426 40.168 169.176 40.6367 169.196 41.5547C169.176 42.4922 170.426 42.9219 172.887 42.9219C175.289 42.9219 176.559 42.4922 176.579 41.5547C176.559 40.6367 175.289 40.168 172.887 40.168ZM188.6 31.0469C188.6 34.3086 190.085 37.5898 193.093 38.8594L191.628 40.8516C189.596 39.9336 188.19 38.166 187.389 35.9688C186.579 38.3613 185.124 40.2949 182.956 41.2812L181.452 39.2109C184.557 37.9023 186.061 34.5039 186.081 31.0469V28.3906H188.6V31.0469ZM196.569 27.0234V44.8359H194.05V27.0234H196.569ZM213.982 27.0234V44.7969H211.638V27.0234H213.982ZM210.193 27.4141V44.0156H207.868V35.8516H204.958C203.943 37.8828 202.292 39.6406 199.763 41.1055L198.357 39.3477C201.941 37.2188 203.523 34.6309 203.864 31.1445H199.333V29.1328H206.345C206.335 30.8223 206.159 32.4141 205.739 33.8789H207.868V27.4141H210.193ZM230.964 27.0234V44.7969H228.582V35.8906H227.078V43.9766H224.714V38.8789L223.308 40.7539C221.658 39.8848 220.593 38.4102 219.968 36.5742C219.373 38.6836 218.318 40.3926 216.629 41.3984L215.086 39.4844C217.781 37.9609 218.699 34.8164 218.699 31.418V30.8516H215.691V28.8594H223.836V30.8516H221.121V31.418C221.121 34.5137 222.039 37.4629 224.714 38.8398V27.2773H227.078V33.8594H228.582V27.0234H230.964ZM248.611 40.7734V42.8242H232.342V40.7734H239.197V38.0977H234.217V32.1211H244.275V30.168H234.197V28.1758H246.736V34.0742H236.717V36.0664H247.146V38.0977H241.678V40.7734H248.611ZM112.9 51.0234V57.5859H114.696V59.6562H112.9V68.7969H110.439V51.0234H112.9ZM100.341 52.625V56.7461H101.474V52.625H103.505V64.6953H98.2902V52.625H100.341ZM100.341 62.6445H101.474V58.7188H100.341V62.6445ZM106.239 52.625V56.7461H107.392V52.625H109.423V64.6953H104.228V52.625H106.239ZM106.239 62.6445H107.392V58.7188H106.239V62.6445ZM131.308 64.7344V66.7656H115.039V64.7344H131.308ZM129.433 52.2148V58.1328H119.414V60.1641H129.843V62.1172H116.914V56.1406H126.972V54.207H116.894V52.2148H129.433ZM147.334 51.0234V68.7969H144.99V51.0234H147.334ZM143.545 51.4141V68.0156H141.221V59.8516H138.311C137.295 61.8828 135.645 63.6406 133.115 65.1055L131.709 63.3477C135.293 61.2188 136.875 58.6309 137.217 55.1445H132.686V53.1328H139.697C139.688 54.8223 139.512 56.4141 139.092 57.8789H141.221V51.4141H143.545ZM167.901 51.043V63.8164H165.401V51.043H167.901ZM168.37 66.4922V68.4844H155.987V62.5273H158.507V66.4922H168.37ZM158.155 52.1758C160.889 52.1758 163.018 54.0508 163.018 56.6484C163.018 59.3047 160.889 61.1602 158.155 61.1602C155.421 61.1602 153.292 59.3047 153.292 56.6484C153.292 54.0508 155.421 52.1758 158.155 52.1758ZM158.155 54.3438C156.768 54.3242 155.714 55.2031 155.733 56.6484C155.714 58.1328 156.768 58.9922 158.155 58.9922C159.503 58.9922 160.557 58.1328 160.557 56.6484C160.557 55.2031 159.503 54.3242 158.155 54.3438ZM185.411 51.0234V68.7969H183.029V59.8906H181.525V67.9766H179.161V62.8789L177.755 64.7539C176.105 63.8848 175.04 62.4102 174.415 60.5742C173.82 62.6836 172.765 64.3926 171.075 65.3984L169.532 63.4844C172.228 61.9609 173.146 58.8164 173.146 55.418V54.8516H170.138V52.8594H178.282V54.8516H175.568V55.418C175.568 58.5137 176.486 61.4629 179.161 62.8398V51.2773H181.525V57.8594H183.029V51.0234H185.411ZM207.268 64.6758V66.7266H190.998V64.6758H197.854V61.043H192.717V52.332H205.451V61.043H200.334V64.6758H207.268ZM195.178 54.3242V59.0898H202.99V54.3242H195.178ZM218.391 52V53.9922H214.836C214.954 55.8672 216.291 57.7422 219.075 58.5039L217.825 60.4375C215.793 59.8613 214.368 58.6406 213.567 57.0781C212.756 58.7676 211.301 60.1055 209.192 60.75L207.942 58.7969C210.774 57.9766 212.151 56.0039 212.278 53.9922H208.625V52H218.391ZM222.766 51.0234V60.6719H220.266V51.0234H222.766ZM213.332 61.4141V63.0742H220.286V61.4141H222.766V68.6016H210.871V61.4141H213.332ZM213.332 66.6094H220.286V65.0078H213.332V66.6094ZM228.811 52.8594L228.557 62.7617H226.057L225.804 52.8594H228.811ZM227.327 67.1758C226.409 67.1758 225.667 66.4336 225.686 65.5352C225.667 64.6367 226.409 63.9141 227.327 63.9141C228.186 63.9141 228.948 64.6367 228.948 65.5352C228.948 66.4336 228.186 67.1758 227.327 67.1758Z" fill="#2C3038"/>
<path d="M174.369 206.399V198.003L155.883 198.321L137.392 198.003V206.399C137.277 212.707 129.653 214.223 129.653 214.223H182.108C182.108 214.223 174.485 212.707 174.369 206.399Z" fill="#4D5AE1"/>
<path d="M160.251 214.224H151.937H130.509C128.859 214.224 127.521 215.561 127.521 217.212C127.521 218.862 128.859 220.2 130.509 220.2H151.937H160.251H181.678C183.329 220.2 184.666 218.862 184.666 217.212C184.666 215.561 183.329 214.224 181.678 214.224H160.251Z" fill="#4D5AE1"/>
<path d="M225.124 197.397C225.124 200.556 222.566 203.112 219.41 203.112H92.1508C88.995 203.112 86.4363 200.556 86.4363 197.397V116.543C86.4363 113.385 88.995 110.824 92.1508 110.824H219.41C222.566 110.824 225.124 113.385 225.124 116.543V197.397Z" fill="#4D5AE1"/>
<path d="M106.377 197.662C106.377 198.161 105.972 198.567 105.473 198.567H97.7204C97.2214 198.567 96.8163 198.161 96.8163 197.662C96.8163 197.162 97.2214 196.757 97.7204 196.757H105.473C105.972 196.757 106.377 197.162 106.377 197.662Z" fill="#3ECEA8"/>
<path d="M206.403 117.773H105.157C98.5298 117.773 93.1572 123.146 93.1572 129.773V180.292C93.1572 186.92 98.5298 192.292 105.157 192.292H206.403C213.031 192.292 218.403 186.92 218.403 180.292V129.773C218.403 123.146 213.031 117.773 206.403 117.773Z" fill="white"/>
<rect x="212.812" y="149.77" width="41.7928" height="70.4299" rx="8" fill="#484A5D"/>
<rect x="216.224" y="153.184" width="34.9695" height="63.6004" rx="4" fill="white"/>
<rect x="225.606" y="150.623" width="15.7789" height="5.54903" rx="2.77451" fill="#484A5D"/>
<rect x="218.783" y="161.294" width="29.852" height="17.0739" rx="2" fill="#E8ECF5"/>
<rect x="218.783" y="194.162" width="29.852" height="2.56109" rx="1.28054" fill="#E8ECF5"/>
<rect x="218.783" y="198.857" width="29.852" height="2.56109" rx="1.28054" fill="#E8ECF5"/>
<rect x="218.783" y="203.553" width="22.6022" height="2.56109" rx="1.28054" fill="#E8ECF5"/>
<rect x="218.783" y="180.93" width="14.0731" height="10.2444" rx="2" fill="#E8ECF5"/>
<rect x="234.562" y="180.93" width="14.0731" height="10.2444" rx="2" fill="#E8ECF5"/>
<path d="M205.059 93.3656H70.8022V172.426C70.8022 176.844 74.384 180.426 78.8022 180.426H197.059C201.478 180.426 205.059 176.844 205.059 172.426V93.3656Z" fill="#E8ECF5"/>
<path d="M201.059 87.8762H74.8022C72.5931 87.8762 70.8022 89.667 70.8022 91.8762V95.4356H205.059V91.8762C205.059 89.667 203.269 87.8762 201.059 87.8762Z" fill="#3ECEA8"/>
<path d="M79.391 91.7606C79.391 92.691 80.1452 93.4467 81.0755 93.4467C82.0058 93.4467 82.76 92.691 82.76 91.7606C82.76 90.8303 82.0058 90.0746 81.0755 90.0746C80.1452 90.0746 79.391 90.8303 79.391 91.7606Z" fill="white"/>
<path d="M86.4106 91.7606C86.4106 92.691 87.1648 93.4467 88.0952 93.4467C89.0255 93.4467 89.7797 92.691 89.7797 91.7606C89.7797 90.8303 89.0255 90.0746 88.0952 90.0746C87.1648 90.0746 86.4106 90.8303 86.4106 91.7606Z" fill="white"/>
<path d="M93.4301 91.7606C93.4301 92.691 94.1842 93.4467 95.1146 93.4467C96.0449 93.4467 96.7991 92.691 96.7991 91.7606C96.7991 90.8303 96.0449 90.0746 95.1146 90.0746C94.1842 90.0746 93.4301 90.8303 93.4301 91.7606Z" fill="white"/>
<path d="M165.736 138.612H186.816C190.539 138.612 193.558 141.634 193.558 145.36V166.463C193.558 170.19 190.539 173.212 186.816 173.212H165.736C162.013 173.212 158.994 170.19 158.994 166.463V145.364C158.994 141.638 162.013 138.616 165.736 138.616V138.612Z" fill="white"/>
<path d="M88.5941 101.002H109.674C113.397 101.002 116.416 104.024 116.416 107.75V128.849C116.416 132.576 113.397 135.598 109.674 135.598H88.5941C84.8711 135.598 81.8518 132.576 81.8518 128.849V107.75C81.8518 104.024 84.8711 101.002 88.5941 101.002Z" fill="white"/>
<mask id="mask0_5675_432289" style="mask-type:luminance" maskUnits="userSpaceOnUse" x="81" y="101" width="36" height="35">
<path d="M88.5941 101.002H109.674C113.397 101.002 116.416 104.024 116.416 107.75V128.849C116.416 132.576 113.397 135.598 109.674 135.598H88.5941C84.8711 135.598 81.8518 132.576 81.8518 128.849V107.75C81.8518 104.024 84.8711 101.002 88.5941 101.002Z" fill="white"/>
</mask>
<g mask="url(#mask0_5675_432289)">
<path d="M108.714 128.769C108.714 128.769 109.009 131.949 109.009 135.163V136.042H106.062L105.307 128.67L108.719 128.769H108.714Z" fill="#EDBAB7"/>
<path d="M94.3342 109.074C94.3342 109.074 93.3448 113.163 92.4109 114.593C91.5452 115.92 91.4385 117.53 92.1934 118.836C92.8459 119.958 93.8608 120.381 94.9653 120.454C95.1956 120.471 97.7885 120.325 97.7885 120.304L97.6606 110.329L94.3342 109.078V109.074Z" fill="#424752"/>
<path d="M103.904 108.655C103.904 108.655 104.569 112.949 105.397 114.392C106.16 115.728 106.139 117.448 105.273 118.934C104.527 120.21 103.469 120.769 102.352 120.965C102.117 121.004 99.5243 121.123 99.5243 121.098L100.454 110.35L103.9 108.655H103.904Z" fill="#424752"/>
<path d="M97.2853 118.686L94.9952 118.934L94.4664 124.227C94.4664 124.227 105.358 125.354 105.358 125.251C105.358 125.149 103.746 118.853 103.746 118.853L101.904 118.865L97.2896 118.69L97.2853 118.686Z" fill="#3041BF"/>
<path d="M104.143 125.956C104.411 127.142 103.576 128.85 103.93 129.785L109.981 129.021C109.119 125.614 108.911 121.517 106.885 119.681C106.885 119.681 105.887 118.78 103.503 118.798" fill="#3041BF"/>
<path d="M90.1037 128.769C90.1037 128.769 89.8094 131.949 89.8094 135.163V136.042H92.7563L93.5111 128.67L90.0994 128.769H90.1037Z" fill="#EDBAB7"/>
<path d="M94.6754 125.956C94.4067 127.142 95.2425 128.85 94.8886 129.785L88.8372 129.021C89.6986 125.614 89.9076 121.517 91.9332 119.681C91.9332 119.681 92.9311 118.78 95.315 118.798" fill="#3041BF"/>
<path d="M93.5153 122.601C92.7648 123.762 92.1251 124.868 92.334 126.31C92.4876 127.365 92.624 128.218 93.0462 129.17C93.1997 129.52 93.4087 129.977 93.43 130.361C93.5921 133.23 93.703 131.168 92.5729 136.042L106.062 135.983C105.567 132.167 104.932 133.037 105.618 130.293C105.866 129.307 106.731 127.399 106.309 125.141C106.215 124.65 105.712 123.199 105.004 122.353" fill="#3041BF"/>
<path d="M98.7053 114.789L97.3108 116.134L97.3022 119.058C98.0485 119.698 99.5667 119.95 101.648 119.007C101.55 118.221 101.477 117.325 101.567 116.693L98.7053 114.789Z" fill="#EDBAB7"/>
<path d="M104.002 111.708C103.819 111.639 103.627 111.639 103.435 111.708C103.414 109.68 103.435 107.934 102.01 107.128C101.469 106.82 99.8569 106.65 99.2214 106.65C98.4666 106.65 96.748 106.889 96.1381 107.311C94.8758 108.182 95.0294 109.821 95.008 111.703C94.8161 111.639 94.62 111.635 94.4366 111.703C93.8907 111.917 93.9291 112.711 94.2148 113.479C94.5006 114.243 94.9313 114.691 95.4729 114.482C95.4985 114.474 95.5198 114.457 95.5411 114.444C95.8993 115.31 96.4708 116.143 97.0891 116.766C97.7288 117.406 98.4197 117.824 99.2172 117.824C100.015 117.824 100.778 117.368 101.435 116.676C102.015 116.066 102.556 115.272 102.893 114.444C102.919 114.457 102.936 114.474 102.961 114.482C103.507 114.696 103.934 114.247 104.22 113.479C104.505 112.711 104.539 111.917 103.998 111.703L104.002 111.708Z" fill="#EDBAB7"/>
<path d="M97.8269 117.068C97.8269 117.068 99.4219 117.734 100.752 116.868" stroke="#DB938F" stroke-linecap="round" stroke-linejoin="round"/>
<path d="M94.6797 111.502C94.7522 111.528 94.9611 111.52 94.9611 111.52C99.1532 111.11 101.375 109.108 101.375 109.108C102.237 108.933 103.247 111.225 103.473 111.639L103.823 111.114C103.87 110.939 103.712 110.619 103.746 110.448C103.968 109.398 103.972 108.378 103.477 107.648C102.573 106.308 100.842 105.441 99.166 105.45C97.49 105.441 95.7586 106.308 94.8545 107.648C94.6754 107.908 94.1551 109.082 94.2362 110.077" fill="#424752"/>
<path d="M93.3234 123.651C93.3234 123.651 92.415 126.301 93.3234 129.281" stroke="#202E94" stroke-linecap="round" stroke-linejoin="round"/>
<path d="M105.089 123.305C105.089 123.305 106.164 126.532 105.503 129.929" stroke="#202E94" stroke-linecap="round" stroke-linejoin="round"/>
</g>
<path d="M148.354 101.002H127.274C123.55 101.002 120.531 104.023 120.531 107.75V128.849C120.531 132.576 123.55 135.598 127.274 135.598H148.354C152.077 135.598 155.096 132.576 155.096 128.849V107.75C155.096 104.023 152.077 101.002 148.354 101.002Z" fill="white"/>
<mask id="mask1_5675_432289" style="mask-type:luminance" maskUnits="userSpaceOnUse" x="120" y="101" width="36" height="35">
<path d="M148.354 101.002H127.274C123.55 101.002 120.531 104.023 120.531 107.75V128.849C120.531 132.576 123.55 135.598 127.274 135.598H148.354C152.077 135.598 155.096 132.576 155.096 128.849V107.75C155.096 104.023 152.077 101.002 148.354 101.002Z" fill="white"/>
</mask>
<g mask="url(#mask1_5675_432289)">
<path d="M133.082 107.635C132.417 108.33 132.242 109.863 131.607 110.716C130.89 111.677 129.978 112.706 130.02 113.943C130.11 116.658 129.103 116.197 128.69 117.422C128.174 118.946 128.174 120.615 129.777 121.46C130.502 121.844 131.466 122.553 131.756 123.168C132.088 123.876 132.587 124.563 133.287 124.491C133.692 124.448 134.076 124.205 134.319 123.74C134.805 122.818 135.457 123.01 136.033 122.638C136.511 122.327 134.715 120.675 134.592 119.872C134.545 119.578 136.869 120.986 136.78 120.718C136.562 120.056 137.313 121.046 137.372 119.642C137.411 118.656 135.432 115.642 135.641 114.699C135.794 113.995 136.131 113.401 136.494 112.957L133.645 107.046L133.082 107.639V107.635Z" fill="#424752"/>
<path d="M146.469 118.408C146.277 117.452 145.317 116.867 145.274 115.864C145.232 114.878 145.701 113.978 145.441 112.949C145.185 111.609 144.277 111.177 144.277 111.177C143.291 110.337 142.699 108.275 142.699 108.275L141.888 107.046L139.04 112.957C139.402 113.401 139.739 113.995 139.893 114.699C140.102 115.638 137.914 117.017 137.956 118.003C138.012 119.407 138.767 118.417 138.549 119.078C138.46 119.347 138.426 119.68 138.383 119.975C138.259 120.777 139.027 122.331 139.504 122.643C140.076 123.014 140.728 122.822 141.219 123.744C141.462 124.209 141.85 124.452 142.251 124.495C142.95 124.572 143.449 123.885 143.782 123.172C144.072 122.557 144.353 121.93 145.083 121.546C145.897 121.119 146.81 120.107 146.473 118.408H146.469Z" fill="#424752"/>
<path d="M142.891 111.443C142.699 111.366 142.49 111.374 142.289 111.443C142.268 109.304 142.289 107.469 140.788 106.619C140.221 106.299 138.519 106.12 137.85 106.12C137.057 106.12 135.244 106.372 134.6 106.816C133.27 107.729 133.432 109.458 133.411 111.443C133.21 111.374 133.001 111.37 132.809 111.443C132.238 111.669 132.272 112.506 132.575 113.312C132.877 114.119 133.325 114.593 133.901 114.367C133.927 114.358 133.948 114.337 133.973 114.324C134.349 115.237 134.357 116.112 135.01 116.77C135.684 117.444 137.001 117.884 137.846 117.884C138.69 117.884 140.085 117.406 140.775 116.676C141.385 116.031 141.36 115.195 141.718 114.324C141.744 114.337 141.765 114.354 141.79 114.367C142.362 114.593 142.814 114.119 143.117 113.312C143.419 112.506 143.458 111.669 142.882 111.443H142.891Z" fill="#EDBAB7"/>
<path d="M133.01 107.883C133.189 107.439 133.415 107.029 133.675 106.696C134.605 105.497 136.92 105.091 137.995 105.091C139.969 105.091 141.343 105.753 142.247 107.165C142.827 108.066 143.164 109.978 142.835 111.267C142.835 111.267 142.366 111.438 142.362 111.438C137.854 111.327 136.178 109.103 135.581 109.206C134.434 109.402 133.833 110.691 133.615 111.212C133.449 111.609 133.24 111.511 133.086 111.361" fill="#424752"/>
<path d="M135.888 118.899L133.598 119.147L133.069 124.44C133.069 124.44 143.961 125.567 143.961 125.464C143.961 125.362 142.554 119.109 142.554 119.109L140.507 119.079L135.888 118.904V118.899Z" fill="#80E0B4"/>
<path d="M133.88 119.092C131.415 119.075 130.387 119.975 130.387 119.975C128.297 121.811 128.267 132.875 127.376 136.281L133.112 136.05C133.474 135.116 132.937 127.437 133.214 126.25L133.88 119.092Z" fill="#80E0B4"/>
<path d="M145.211 119.975C145.211 119.975 144.183 119.075 141.718 119.092L142.383 126.25C142.66 127.437 142.123 135.116 142.486 136.05L148.221 136.281C147.33 132.875 147.304 121.811 145.211 119.975Z" fill="#80E0B4"/>
<path d="M132.118 122.814C131.368 123.975 130.728 125.081 130.937 126.524C131.09 127.578 131.227 128.432 131.649 129.383C131.803 129.733 132.012 130.19 132.033 130.574C132.195 133.443 132.306 131.381 131.176 136.251L144.665 136.192C144.17 132.38 143.534 133.246 144.221 130.502C144.468 129.516 145.334 127.608 144.912 125.354C144.818 124.863 144.315 123.412 143.607 122.567" fill="#80E0B4"/>
<path d="M137.308 114.998L135.914 116.343L135.905 119.267C136.652 119.907 138.17 120.163 140.255 119.215C140.157 118.43 140.085 117.538 140.17 116.902L137.308 114.998Z" fill="#EDBAB7"/>
<path d="M136.511 117.602C136.511 117.602 137.841 117.935 138.571 117.735L139.569 117.402" stroke="#DB938F" stroke-linecap="round" stroke-linejoin="round"/>
<path d="M132.754 122.788C132.754 122.788 129.611 125.024 132.007 129.494C132.007 129.494 132.088 133.053 131.675 135.457" stroke="#4DB284" stroke-linecap="round" stroke-linejoin="round"/>
<path d="M143.505 122.788C143.505 122.788 146.648 125.024 144.251 129.494C144.251 129.494 144.17 133.053 144.584 135.457" stroke="#4DB284" stroke-linecap="round" stroke-linejoin="round"/>
<path d="M136.067 118.4L138.345 119.988L136.856 121.96L134.946 119.361L136.067 118.4Z" fill="white"/>
<path d="M140.029 118.4L137.748 119.988L139.236 121.96L141.066 119.267L140.029 118.4Z" fill="white"/>
</g>
<path d="M127.274 138.612H148.354C152.077 138.612 155.096 141.634 155.096 145.36V166.463C155.096 170.19 152.077 173.212 148.354 173.212H127.274C123.551 173.212 120.531 170.19 120.531 166.463V145.364C120.531 141.638 123.551 138.616 127.274 138.616V138.612Z" fill="white"/>
<mask id="mask2_5675_432289" style="mask-type:luminance" maskUnits="userSpaceOnUse" x="120" y="138" width="36" height="36">
<path d="M127.274 138.612H148.354C152.077 138.612 155.096 141.634 155.096 145.36V166.463C155.096 170.19 152.077 173.212 148.354 173.212H127.274C123.551 173.212 120.531 170.19 120.531 166.463V145.364C120.531 141.638 123.551 138.616 127.274 138.616V138.612Z" fill="white"/>
</mask>
<g mask="url(#mask2_5675_432289)">
<path d="M140.379 146.889C140.763 146.539 140.972 145.531 141.415 145.151C142.119 144.545 143.095 144.336 143.999 144.507C145.68 144.823 146.848 146.329 146.609 147.866C146.554 148.225 146.426 148.553 146.238 148.844C146.076 149.262 145.931 149.676 145.923 149.749C145.837 150.363 145.846 150.905 146.174 151.464C146.545 152.092 147.185 152.643 147.368 153.364C147.594 154.265 146.861 154.918 146.601 155.699C146.328 156.514 146.264 157.449 147.919 158.388C147.974 158.418 146.473 158.307 146.439 158.307C145.057 158.196 142.161 157.842 142.016 156.032C141.965 155.366 142.191 154.798 142.477 154.03C142.601 153.697 142.537 153.133 142.439 152.783C142.208 151.989 141.313 151.443 140.878 150.739C140.204 149.646 140.025 148.272 140.187 147.012C140.259 146.995 140.323 146.957 140.383 146.901L140.379 146.889Z" fill="#424752"/>
<path d="M147.13 166.088C147.13 166.088 147.428 169.315 147.428 172.585V173.477H144.434L143.667 165.99L147.13 166.088Z" fill="#EDBAB7"/>
<path d="M135.526 155.848L133.197 156.099L132.66 161.474C132.66 161.474 143.718 162.617 143.718 162.511C143.718 162.404 142.08 156.014 142.08 156.014L140.208 156.027L135.521 155.848H135.526Z" fill="#E391C0"/>
<path d="M142.741 163.232C143.014 164.436 142.166 166.173 142.524 167.121L148.669 166.344C147.795 162.882 147.582 158.72 145.526 156.859C145.526 156.859 144.515 155.946 142.089 155.963" fill="#E391C0"/>
<path d="M128.233 166.088C128.233 166.088 127.935 169.315 127.935 172.585V173.477H130.929L131.696 165.99L128.233 166.088Z" fill="#EDBAB7"/>
<path d="M133.125 163.232C132.852 164.436 133.7 166.173 133.342 167.121L127.197 166.344C128.071 162.882 128.284 158.72 130.34 156.859C130.34 156.859 131.351 155.946 133.777 155.963" fill="#E391C0"/>
<path d="M131.948 159.826C131.184 161.008 130.536 162.131 130.75 163.591C130.907 164.667 131.048 165.529 131.474 166.498C131.632 166.852 131.841 167.313 131.863 167.706C132.025 170.617 132.14 168.525 130.988 173.472L144.686 173.413C144.183 169.537 143.539 170.42 144.238 167.633C144.49 166.63 145.368 164.696 144.942 162.404C144.848 161.905 144.332 160.432 143.62 159.574" fill="#E391C0"/>
<path d="M136.967 151.891L135.551 153.257L135.543 156.228C136.302 156.877 137.841 157.137 139.957 156.177C139.858 155.379 139.782 154.474 139.871 153.829L136.967 151.896V151.891Z" fill="#EDBAB7"/>
<path d="M142.345 148.762C142.161 148.69 141.961 148.694 141.765 148.762C141.743 146.701 141.765 144.929 140.319 144.114C139.769 143.802 138.131 143.632 137.483 143.632C136.72 143.632 134.971 143.875 134.353 144.302C133.069 145.185 133.227 146.85 133.206 148.762C133.01 148.698 132.809 148.694 132.626 148.762C132.071 148.98 132.11 149.787 132.4 150.564C132.69 151.34 133.125 151.797 133.679 151.58C133.705 151.571 133.726 151.554 133.747 151.541C134.11 152.42 134.69 153.266 135.321 153.902C135.969 154.55 136.669 154.973 137.483 154.973C138.298 154.973 139.07 154.508 139.735 153.808C140.323 153.189 140.873 152.382 141.215 151.541C141.24 151.554 141.257 151.571 141.283 151.58C141.837 151.797 142.272 151.34 142.562 150.564C142.852 149.787 142.891 148.98 142.336 148.762H142.345Z" fill="#EDBAB7"/>
<path d="M136.178 154.26C136.178 154.26 137.905 154.99 138.903 154.06" stroke="#DB938F" stroke-linecap="round" stroke-linejoin="round"/>
<path d="M141.812 144.639C140.895 143.277 139.134 142.398 137.432 142.407C135.73 142.398 133.973 143.277 133.052 144.639C132.613 145.288 132.447 146.065 132.468 146.837C132.472 147.059 132.592 148.677 132.813 148.754C132.886 148.779 133.317 148.784 133.317 148.784C140.153 149.129 139.671 146.12 139.671 146.12C140.549 145.941 141.573 148.271 141.803 148.69L142.157 148.156C142.204 147.981 142.042 147.653 142.08 147.478C142.306 146.41 142.311 145.377 141.807 144.635L141.812 144.639Z" fill="#424752"/>
<path d="M131.5 160.893C131.5 160.893 130.575 163.587 131.5 166.613" stroke="#C875A5" stroke-linecap="round" stroke-linejoin="round"/>
<path d="M143.68 160.557C143.68 160.557 144.771 163.835 144.097 167.284" stroke="#C875A5" stroke-linecap="round" stroke-linejoin="round"/>
</g>
<path d="M186.816 101.002H165.736C162.012 101.002 158.994 104.023 158.994 107.75V128.849C158.994 132.576 162.012 135.598 165.736 135.598H186.816C190.539 135.598 193.558 132.576 193.558 128.849V107.75C193.558 104.023 190.539 101.002 186.816 101.002Z" fill="white"/>
<mask id="mask3_5675_432289" style="mask-type:luminance" maskUnits="userSpaceOnUse" x="158" y="101" width="36" height="35">
<path d="M186.816 101.002H165.736C162.012 101.002 158.994 104.023 158.994 107.75V128.849C158.994 132.576 162.012 135.598 165.736 135.598H186.816C190.539 135.598 193.558 132.576 193.558 128.849V107.75C193.558 104.023 190.539 101.002 186.816 101.002Z" fill="white"/>
</mask>
<g mask="url(#mask3_5675_432289)">
<path d="M170.167 126.109C169.621 127.509 169.054 134.911 168.444 135.986L162.968 135.893C163.126 131.876 163.326 132.008 164.081 127.018C164.687 123.006 165.314 117.756 170.372 117.466" fill="#7989E6"/>
<path d="M182.363 126.114C182.909 127.514 183.485 134.915 184.091 135.995L189.566 135.906C189.404 131.889 189.204 132.021 188.445 127.031C187.835 123.019 187.204 117.769 182.142 117.474" fill="#7989E6"/>
<path d="M181.673 117.329C181.366 117.244 181.033 117.188 180.675 117.167C179.186 117.064 177.736 117.209 176.252 117.269C174.299 117.35 172.303 117.03 170.376 117.47C169.459 117.679 167.57 118.644 167.847 124.082C168.009 127.206 167.408 129.746 168.435 136.063H184.428C185.374 129.767 185.037 128.218 185.315 124.491C185.532 121.572 184.662 118.144 181.673 117.333V117.329Z" fill="#7989E6"/>
<path d="M175.813 112.629L174.308 114.085L174.295 117.563C175.101 118.255 176.743 118.532 178.99 117.508C178.884 116.659 178.807 115.369 178.901 114.686L175.809 112.629H175.813Z" fill="#EDBAB7"/>
<path d="M181.847 108.963C181.638 108.881 181.412 108.886 181.195 108.963C181.169 106.658 181.195 104.677 179.566 103.759C178.948 103.414 177.097 103.217 176.372 103.217C175.51 103.217 173.54 103.49 172.841 103.968C171.395 104.954 171.57 106.82 171.549 108.958C171.331 108.886 171.105 108.881 170.896 108.963C170.273 109.206 170.312 110.106 170.64 110.977C170.969 111.848 171.459 112.356 172.082 112.113C172.111 112.104 172.133 112.083 172.158 112.07C172.568 113.056 172.576 113.999 173.284 114.708C174.013 115.434 175.451 115.907 176.367 115.907C177.284 115.907 178.803 115.391 179.553 114.605C180.214 113.91 180.189 113.009 180.577 112.07C180.602 112.083 180.628 112.104 180.653 112.113C181.276 112.356 181.766 111.848 182.095 110.977C182.423 110.106 182.462 109.202 181.839 108.963H181.847Z" fill="#EDBAB7"/>
<path d="M175.127 115.673C175.127 115.673 176.653 116.143 177.387 115.942L178.385 115.609" stroke="#DB938F" stroke-linecap="round" stroke-linejoin="round"/>
<path d="M181.012 104.451C180.022 102.854 178.133 102.176 176.304 102.189C174.474 102.176 172.585 102.854 171.596 104.451C170.964 105.471 170.602 107.639 170.956 109.099L171.468 109.296C176.274 107.183 176.44 105.859 176.44 105.859C178.675 108.51 180.884 108.805 181.135 109.296L181.647 109.099C182.005 107.639 181.639 105.471 181.007 104.451H181.012Z" fill="#424752"/>
<path d="M168.504 123.407C168.504 123.407 168.256 129.203 168.504 134.833" stroke="#6170CB" stroke-linecap="round" stroke-linejoin="round"/>
<path d="M184.219 123.407C184.219 123.407 184.467 129.203 184.219 134.833" stroke="#6170CB" stroke-linecap="round" stroke-linejoin="round"/>
</g>
<mask id="mask4_5675_432289" style="mask-type:luminance" maskUnits="userSpaceOnUse" x="158" y="138" width="36" height="36">
<path d="M165.736 138.612H186.816C190.539 138.612 193.558 141.634 193.558 145.36V166.463C193.558 170.19 190.539 173.212 186.816 173.212H165.736C162.013 173.212 158.994 170.19 158.994 166.463V145.364C158.994 141.638 162.013 138.616 165.736 138.616V138.612Z" fill="white"/>
</mask>
<g mask="url(#mask4_5675_432289)">
<path d="M170.167 163.719C169.621 165.119 169.054 172.52 168.444 173.596L162.968 173.502C163.126 169.481 163.326 169.618 164.081 164.628C164.687 160.616 165.314 155.365 170.372 155.075" fill="#535263"/>
<path d="M182.363 163.727C182.909 165.127 183.485 172.529 184.091 173.609L189.566 173.519C189.404 169.498 189.204 169.635 188.445 164.645C187.835 160.633 187.204 155.382 182.142 155.088" fill="#535263"/>
<path d="M181.673 154.939C181.366 154.854 181.033 154.798 180.675 154.777L181.263 173.673H184.428C185.374 167.377 185.037 165.828 185.315 162.097C185.532 159.178 184.662 155.75 181.673 154.939Z" fill="#535263"/>
<path d="M180.675 154.773C179.186 154.67 177.737 154.815 176.252 154.875C174.713 154.939 173.144 154.755 171.604 154.888L171.306 173.669H181.263" fill="#DEDEED"/>
<path d="M171.604 154.892C171.19 154.926 170.781 154.986 170.376 155.079C169.459 155.289 167.57 156.253 167.847 161.691C168.009 164.816 167.408 167.356 168.435 173.673H171.305" fill="#535263"/>
<path d="M178.901 152.433L175.809 150.239L174.303 151.788L174.291 155.498C175.097 156.236 176.739 156.531 178.986 155.438C178.879 154.533 178.803 153.158 178.896 152.429L178.901 152.433Z" fill="#EDBAB7"/>
<path d="M174.453 154.248L177.003 156.228L175.34 158.687L173.195 155.447L174.453 154.248Z" fill="#BCBCDA"/>
<path d="M178.888 154.248L176.338 156.228L178.001 158.687L180.048 155.327L178.888 154.248Z" fill="#BCBCDA"/>
<path d="M181.847 146.572C181.638 146.491 181.412 146.496 181.195 146.572C181.169 144.267 181.195 142.287 179.566 141.369C178.948 141.023 177.097 140.827 176.372 140.827C175.51 140.827 173.54 141.1 172.841 141.578C171.395 142.564 171.57 144.43 171.549 146.568C171.331 146.496 171.105 146.491 170.896 146.572C170.273 146.816 170.312 147.716 170.64 148.587C170.969 149.458 171.459 149.966 172.082 149.722C172.111 149.714 172.133 149.693 172.158 149.68C172.568 150.666 172.576 151.609 173.284 152.318C174.013 153.048 175.451 153.517 176.367 153.517C177.284 153.517 178.803 153.001 179.553 152.215C180.214 151.52 180.189 150.619 180.577 149.68C180.602 149.693 180.628 149.714 180.653 149.722C181.276 149.966 181.766 149.458 182.095 148.587C182.423 147.716 182.462 146.816 181.839 146.572H181.847Z" fill="#EDBAB7"/>
<path d="M174.73 153.061C174.73 153.061 176.257 153.526 176.99 153.33L177.988 152.997" stroke="#DB938F" stroke-linecap="round" stroke-linejoin="round"/>
<path d="M175.425 147.567C175.425 148.084 174.815 148.502 174.065 148.502C173.314 148.502 172.704 148.084 172.704 147.567C172.704 147.051 173.314 146.633 174.065 146.633C174.815 146.633 175.425 147.051 175.425 147.567Z" stroke="#8C6563" stroke-linecap="round" stroke-linejoin="round"/>
<path d="M180.014 147.567C180.014 148.084 179.404 148.502 178.653 148.502C177.903 148.502 177.293 148.084 177.293 147.567C177.293 147.051 177.903 146.633 178.653 146.633C179.404 146.633 180.014 147.051 180.014 147.567Z" stroke="#8C6563" stroke-linecap="round" stroke-linejoin="round"/>
<path d="M175.578 147.568C175.578 147.568 176.393 147.06 177.25 147.529" stroke="#8C6563" stroke-linecap="round" stroke-linejoin="round"/>
<path d="M181.557 142.125C180.568 140.528 178.133 139.786 176.304 139.798C174.474 139.786 171.851 140.161 170.866 141.758C170.235 142.778 169.693 145.057 170.96 146.709L171.472 146.905C177.237 145.864 178.333 143.521 178.333 143.521C180.739 142.914 180.884 146.415 181.135 146.905L181.647 146.709C182.005 145.249 182.184 143.145 181.557 142.125Z" fill="#424752"/>
<path d="M168.504 161.017C168.504 161.017 168.256 166.814 168.504 172.444" stroke="#3D3D4B" stroke-linecap="round" stroke-linejoin="round"/>
<path d="M184.219 161.017C184.219 161.017 184.467 166.814 184.219 172.444" stroke="#3D3D4B" stroke-linecap="round" stroke-linejoin="round"/>
</g>
<path d="M88.5941 138.612H109.674C113.397 138.612 116.416 141.634 116.416 145.36V166.463C116.416 170.19 113.397 173.212 109.674 173.212H88.5941C84.8711 173.212 81.8518 170.19 81.8518 166.463V145.364C81.8518 141.638 84.8711 138.616 88.5941 138.616V138.612Z" fill="white"/>
<mask id="mask5_5675_432289" style="mask-type:luminance" maskUnits="userSpaceOnUse" x="81" y="138" width="36" height="36">
<path d="M88.5941 138.612H109.674C113.397 138.612 116.416 141.634 116.416 145.36V166.463C116.416 170.19 113.397 173.212 109.674 173.212H88.5941C84.8711 173.212 81.8518 170.19 81.8518 166.463V145.364C81.8518 141.638 84.8711 138.616 88.5941 138.616V138.612Z" fill="white"/>
</mask>
<g mask="url(#mask5_5675_432289)">
<path d="M93.1998 164.355C92.654 165.751 92.0868 173.157 91.4812 174.232L86.0055 174.138C86.1633 170.122 86.3637 170.254 87.1185 165.264C87.7284 161.252 88.351 156.001 93.4131 155.711" fill="#E9E69D"/>
<path d="M105.396 164.359C105.942 165.759 106.518 173.16 107.128 174.24L112.604 174.151C112.442 170.134 112.241 170.266 111.482 165.276C110.868 161.264 110.241 156.014 105.179 155.719" fill="#E9E69D"/>
<path d="M104.706 155.57C104.394 155.485 104.062 155.429 103.708 155.408C102.219 155.305 100.765 155.45 99.2854 155.51C97.3322 155.591 95.3321 155.271 93.4088 155.711C92.4919 155.92 90.6027 156.885 90.8799 162.323C91.0419 165.447 90.4406 167.983 91.4684 174.304H107.461C108.412 168.008 108.07 166.459 108.348 162.733C108.565 159.813 107.695 156.385 104.706 155.574V155.57Z" fill="#E9E69D"/>
<path d="M98.8461 150.875L97.3407 152.33L97.3322 155.813C98.1382 156.505 99.3962 157.495 102.027 155.758C101.921 154.909 101.844 153.619 101.938 152.936L98.8461 150.879V150.875Z" fill="#EDBAB7"/>
<path d="M104.88 147.205C104.671 147.124 104.445 147.128 104.228 147.205C104.202 144.9 104.228 142.919 102.599 142.001C101.98 141.656 100.13 141.459 99.4047 141.459C98.5433 141.459 96.573 141.732 95.8736 142.211C94.4279 143.197 94.6028 145.062 94.5815 147.2C94.364 147.128 94.138 147.124 93.929 147.2C93.3064 147.444 93.3447 148.344 93.6774 149.215C94.0057 150.086 94.4962 150.594 95.1188 150.355C95.1487 150.342 95.17 150.325 95.1956 150.312C95.605 151.298 95.6135 152.241 96.3214 152.95C97.0507 153.676 98.4878 154.149 99.4047 154.149C100.322 154.149 101.84 153.633 102.59 152.848C103.251 152.152 103.226 151.251 103.614 150.312C103.639 150.325 103.665 150.346 103.691 150.355C104.313 150.598 104.804 150.086 105.132 149.215C105.46 148.344 105.499 147.444 104.876 147.2L104.88 147.205Z" fill="#EDBAB7"/>
<path d="M97.8269 153.863C97.8269 153.863 99.2214 154.794 101.149 153.795" stroke="#DB938F" stroke-linecap="round" stroke-linejoin="round"/>
<path d="M104.045 142.697C103.055 141.1 101.166 140.469 99.3365 140.434C95.4856 140.358 96.2916 142.095 93.3747 141.723C92.1849 141.57 92.7563 146.876 93.993 147.345L94.5048 147.541C96.168 143.461 98.2747 144.643 98.2747 144.643C100.509 147.294 103.917 147.051 104.168 147.541L104.68 147.345C105.038 145.885 104.672 143.717 104.045 142.697Z" fill="#424752"/>
<path d="M91.5371 161.653C91.5371 161.653 91.2889 167.45 91.5371 173.08" stroke="#C7C472" stroke-linecap="round" stroke-linejoin="round"/>
<path d="M107.252 161.653C107.252 161.653 107.5 167.45 107.252 173.08" stroke="#C7C472" stroke-linecap="round" stroke-linejoin="round"/>
<path d="M97.3621 155.071L99.9208 156.851L98.2534 159.066L96.1083 156.151L97.3621 155.071Z" fill="white"/>
<path d="M101.806 155.071L99.2512 156.851L100.919 159.066L102.974 156.044L101.806 155.071Z" fill="white"/>
</g>
</svg>
