<svg width="328" height="458" viewBox="0 0 328 458" fill="none" xmlns="http://www.w3.org/2000/svg">
<rect x="0.5" y="0.5" width="327" height="222" rx="15.5" fill="white"/>
<rect x="0.5" y="0.5" width="327" height="222" rx="15.5" stroke="#DAE0ED"/>
<mask id="path-2-inside-1_5675_431995" fill="white">
<path d="M0 16C0 7.16345 7.16344 0 16 0H312C320.837 0 328 7.16344 328 16V142H0V16Z"/>
</mask>
<path d="M0 16C0 7.16345 7.16344 0 16 0H312C320.837 0 328 7.16344 328 16V142H0V16Z" fill="#F5F7FA"/>
<path d="M-1 16C-1 6.61116 6.61116 -1 16 -1H312C321.389 -1 329 6.61116 329 16H327C327 7.71573 320.284 1 312 1H16C7.71573 1 1 7.71573 1 16H-1ZM328 142H0H328ZM-1 142V16C-1 6.61116 6.61116 -1 16 -1V1C7.71573 1 1 7.71573 1 16V142H-1ZM312 -1C321.389 -1 329 6.61116 329 16V142H327V16C327 7.71573 320.284 1 312 1V-1Z" fill="#DAE0ED" mask="url(#path-2-inside-1_5675_431995)"/>
<path d="M95 38V111.407C95 115.049 97.9466 118 101.583 118H228.417C232.053 118 235 115.049 235 111.407V38H95Z" fill="#C9D9FF"/>
<path d="M235 31.1598C235 27.7593 232.053 25.0034 228.417 25.0034H101.583C97.9467 25.0034 95 27.7593 95 31.1598V39.0034H235V31.1598Z" fill="#575A70"/>
<path d="M106 32C106 33.1038 105.104 34 104 34C102.896 34 102 33.1038 102 32C102 30.8962 102.896 30 104 30C105.104 30 106 30.8962 106 32Z" fill="white" fill-opacity="0.5"/>
<path d="M114 32C114 33.1038 113.104 34 112 34C110.896 34 110 33.1038 110 32C110 30.8962 110.896 30 112 30C113.104 30 114 30.8962 114 32Z" fill="white" fill-opacity="0.5"/>
<path d="M122 32C122 33.1038 121.104 34 120 34C118.896 34 118 33.1038 118 32C118 30.8962 118.896 30 120 30C121.104 30 122 30.8962 122 32Z" fill="white" fill-opacity="0.5"/>
<g opacity="0.4">
<path d="M210.458 50H119.542C118.138 50 117 51.111 117 52.4815V75.5185C117 76.889 118.138 78 119.542 78H210.458C211.862 78 213 76.889 213 75.5185V52.4815C213 51.111 211.862 50 210.458 50Z" fill="#B3C2E5"/>
<path d="M210.458 81H119.542C118.138 81 117 82.111 117 83.4815V106.518C117 107.889 118.138 109 119.542 109H210.458C211.862 109 213 107.889 213 106.518V83.4815C213 82.111 211.862 81 210.458 81Z" fill="#B3C2E5"/>
<path d="M119.542 113H210.458C211.859 113 213 114.096 213 115.449V117H117V115.449C117 114.099 118.138 113 119.542 113Z" fill="#B3C2E5"/>
</g>
<g filter="url(#filter0_d_5675_431995)">
<path d="M219.929 49H110.071C108.375 49 107 50.5078 107 52.3678V83.6322C107 85.4922 108.375 87 110.071 87H219.929C221.625 87 223 85.4922 223 83.6322V52.3678C223 50.5078 221.625 49 219.929 49Z" fill="white"/>
</g>
<rect x="150" y="74" width="42" height="3" rx="1.5" fill="#EAEDF4"/>
<rect x="150" y="67" width="62" height="3" rx="1.5" fill="#EAEDF4"/>
<rect x="150" y="60" width="30" height="2" rx="1" fill="#EAEDF4"/>
<path d="M138.688 57H118.312C116.483 57 115 58.7432 115 60.8935V75.1065C115 77.2568 116.483 79 118.312 79H138.688C140.517 79 142 77.2568 142 75.1065V60.8935C142 58.7432 140.517 57 138.688 57Z" fill="#EAEDF4"/>
<g filter="url(#filter1_d_5675_431995)">
<path d="M214 71C222.284 71 229 64.2843 229 56C229 47.7157 222.284 41 214 41C205.716 41 199 47.7157 199 56C199 64.2843 205.716 71 214 71Z" fill="#1681FF"/>
</g>
<g opacity="0.1">
<path d="M213.244 64.5002C212.732 64.5002 212.24 64.2994 211.879 63.9363L207.189 59.2504C206.437 58.501 206.441 57.2842 207.193 56.5348C207.945 55.7853 209.166 55.7892 209.918 56.5386L213.228 59.8453L219.489 53.4482C220.233 52.6911 221.45 52.6756 222.214 53.4134C222.973 54.1513 222.989 55.3681 222.249 56.1253L214.624 63.9169C214.263 64.2839 213.771 64.4925 213.255 64.4964H213.244V64.5002Z" fill="black"/>
<g style="mix-blend-mode:multiply" opacity="0.75">
<path d="M213.243 64.5004C212.731 64.5004 212.239 64.2995 211.878 63.9364L207.188 59.2506C206.436 58.5011 206.44 57.2843 207.192 56.5349C207.944 55.7855 209.165 55.7893 209.917 56.5387L213.227 59.8455L219.488 53.4483C220.232 52.6912 221.449 52.6757 222.213 53.4136C222.973 54.1514 222.988 55.3682 222.248 56.1254L214.623 63.9171C214.262 64.284 213.77 64.4926 213.255 64.4965H213.243V64.5004Z" fill="#C9C9C9"/>
</g>
</g>
<path d="M212.728 62.9593C212.217 62.9593 211.724 62.7584 211.364 62.3953L206.674 57.7095C205.922 56.9601 205.925 55.7432 206.677 54.9938C207.429 54.2444 208.65 54.2482 209.402 54.9977L212.713 58.3044L218.973 51.9073C219.717 51.1501 220.935 51.1347 221.698 51.8725C222.458 52.6103 222.474 53.8272 221.733 54.5843L214.108 62.376C213.748 62.743 213.256 62.9516 212.74 62.9554H212.728V62.9593Z" fill="white"/>
<path d="M145.223 162.086V164.322H140.114V166.272H145.6V168.495H137.41V158.134H145.47V160.37H140.114V162.086H145.223ZM148.201 158.134L150.71 165.505L153.219 158.134H155.923L152.413 168.495H149.007L145.497 158.134H148.201ZM163.904 162.086V164.322H158.795V166.272H164.281V168.495H156.091V158.134H164.151V160.37H158.795V162.086H163.904ZM164.828 158.134H167.532L171.419 164.413V158.134H174.123V168.495H171.419L167.532 162.099V168.495H164.828V158.134ZM180.422 160.37V168.495H177.718V160.37H174.429V158.134H183.711V160.37H180.422ZM186.01 158.134H190.274V168.495H187.57V160.37H186.01V158.134Z" fill="#6B7486"/>
<path d="M62.7637 183.859V198H59.8145V186.652H59.7363L56.4941 188.684V186.086L59.9902 183.859H62.7637ZM91.3066 183.859V198H88.3574V186.652H88.2793L85.0371 188.684V186.086L88.5332 183.859H91.3066ZM145.705 191.965V193.957H138.752V199.777H136.291V193.957H129.436V191.965H145.705ZM143.752 182.883V190.051H131.35V182.883H143.752ZM133.811 184.855V188.098H141.271V184.855H133.811ZM162.01 195.773V197.824H145.74V195.773H149.9V193.059H147.615V187.082H157.674V185.168H147.596V183.176H160.135V189.074H150.115V191.047H160.545V193.059H158.025V195.773H162.01ZM152.322 195.773H155.584V193.059H152.322V195.773Z" fill="#1681FF"/>
<path d="M69.5371 182.746C72.1738 182.766 74.1074 184.387 74.127 186.672C74.1074 188.977 72.1738 190.578 69.5371 190.578C66.8809 190.578 64.9277 188.977 64.9277 186.672C64.9277 184.387 66.8809 182.766 69.5371 182.746ZM69.5371 184.309C67.916 184.289 66.7246 185.246 66.7441 186.672C66.7246 188.117 67.916 189.074 69.5371 189.074C71.1387 189.074 72.3301 188.117 72.3301 186.672C72.3301 185.246 71.1387 184.289 69.5371 184.309ZM79.0879 182.16V191.066H77.2324V182.16H79.0879ZM79.0879 191.867V196.281H69.4395V197.961H79.6738V199.445H67.6426V194.895H77.252V193.352H67.584V191.867H79.0879ZM107.709 182.18V195.07H105.854V188.996H102.221V187.453H105.854V182.18H107.709ZM102.338 183.488C102.318 188.059 99.1738 191.496 94.1543 193.117L93.373 191.633C97.2695 190.373 99.916 187.99 100.307 185.031H94.2715V183.488H102.338ZM108.158 197.785V199.289H96.4395V193.742H98.3145V197.785H108.158ZM125.361 191.301V192.785H109.404V191.301H125.361ZM123.564 197.785V199.289H111.416V194.211H113.291V197.785H123.564ZM117.373 182.746C121.162 182.727 123.623 184.055 123.623 186.242C123.623 188.449 121.162 189.777 117.373 189.797C113.564 189.777 111.123 188.449 111.123 186.242C111.123 184.055 113.564 182.727 117.373 182.746ZM117.373 184.23C114.697 184.23 113.018 184.992 113.037 186.242C113.018 187.531 114.697 188.273 117.373 188.273C120.049 188.273 121.709 187.531 121.709 186.242C121.709 184.992 120.049 184.23 117.373 184.23ZM178.158 196.008V197.57H162.143V196.008H169.193V192.941H164.096V187.375H174.369V184.914H164.057V183.391H176.205V188.859H165.932V191.418H176.615V192.941H171.029V196.008H178.158ZM187.271 182.746C189.908 182.766 191.842 184.387 191.861 186.672C191.842 188.977 189.908 190.578 187.271 190.578C184.615 190.578 182.662 188.977 182.662 186.672C182.662 184.387 184.615 182.766 187.271 182.746ZM187.271 184.309C185.65 184.289 184.459 185.246 184.479 186.672C184.459 188.117 185.65 189.074 187.271 189.074C188.873 189.074 190.064 188.117 190.064 186.672C190.064 185.246 188.873 184.289 187.271 184.309ZM196.822 182.16V191.066H194.967V182.16H196.822ZM196.822 191.867V196.281H187.174V197.961H197.408V199.445H185.377V194.895H194.986V193.352H185.318V191.867H196.822ZM204.689 187.316C204.689 190.09 206.506 193.176 209.162 194.426L208.107 195.871C206.145 194.924 204.592 192.951 203.811 190.656C203 193.166 201.359 195.324 199.357 196.32L198.264 194.855C200.92 193.586 202.854 190.285 202.854 187.316V185.461H198.908V183.918H208.498V185.461H204.689V187.316ZM212.229 182.16V189.094H215.041V190.656H212.229V199.66H210.373V182.16H212.229ZM229.412 182.16V199.699H227.557V182.16H229.412ZM224.061 183.742V190.129H217.771V193.957C220.604 193.947 223.084 193.82 226.014 193.332L226.189 194.855C223.084 195.383 220.447 195.5 217.361 195.5H215.877V188.645H222.166V185.246H215.857V183.742H224.061ZM251.025 190.383V191.906H235.049V190.383H251.025ZM249.17 187.355V188.859H237.041V182.785H249.053V184.309H238.877V187.355H249.17ZM243.018 193.273C246.787 193.273 249.053 194.426 249.053 196.457C249.053 198.488 246.787 199.641 243.018 199.621C239.229 199.641 236.943 198.488 236.943 196.457C236.943 194.426 239.229 193.273 243.018 193.273ZM243.018 194.699C240.342 194.719 238.818 195.344 238.818 196.457C238.818 197.57 240.342 198.195 243.018 198.195C245.654 198.195 247.197 197.57 247.197 196.457C247.197 195.344 245.654 194.719 243.018 194.699ZM267.33 191.711V193.215H251.314V191.711H258.404V190.051H253.365V185.598H263.463V184.035H253.326V182.57H265.318V186.965H255.201V188.605H265.67V190.051H260.24V191.711H267.33ZM265.416 194.445V199.523H263.541V195.93H253.111V194.445H265.416ZM270.842 183.859L270.666 193.918H268.732L268.557 183.859H270.842ZM269.709 198.137C268.947 198.137 268.303 197.512 268.322 196.75C268.303 195.988 268.947 195.363 269.709 195.363C270.451 195.363 271.096 195.988 271.096 196.75C271.096 197.512 270.451 198.137 269.709 198.137Z" fill="#2C3038"/>
<rect x="0.5" y="235.5" width="327" height="222" rx="15.5" fill="white"/>
<rect x="0.5" y="235.5" width="327" height="222" rx="15.5" stroke="#DAE0ED"/>
<mask id="path-24-inside-2_5675_431995" fill="white">
<path d="M0 251C0 242.163 7.16344 235 16 235H312C320.837 235 328 242.163 328 251V377H0V251Z"/>
</mask>
<path d="M0 251C0 242.163 7.16344 235 16 235H312C320.837 235 328 242.163 328 251V377H0V251Z" fill="#F5F7FA"/>
<path d="M-1 251C-1 241.611 6.61116 234 16 234H312C321.389 234 329 241.611 329 251H327C327 242.716 320.284 236 312 236H16C7.71573 236 1 242.716 1 251H-1ZM328 377H0H328ZM-1 377V251C-1 241.611 6.61116 234 16 234V236C7.71573 236 1 242.716 1 251V377H-1ZM312 234C321.389 234 329 241.611 329 251V377H327V251C327 242.716 320.284 236 312 236V234Z" fill="#DAE0ED" mask="url(#path-24-inside-2_5675_431995)"/>
<g filter="url(#filter2_f_5675_431995)">
<ellipse cx="130.292" cy="328.61" rx="62.2933" ry="6.02111" fill="#CDD5E6"/>
</g>
<g clip-path="url(#clip0_5675_431995)">
<path d="M73.4531 263.889C71.1324 263.889 69.2361 265.785 69.2361 268.106L69.2361 324.822C69.2361 327.143 71.1342 329.041 73.453 329.039L156.739 329.039C159.059 329.039 160.956 327.143 160.956 324.822L160.956 268.106C160.956 265.785 159.057 263.887 156.739 263.889H73.4531Z" fill="white"/>
<path d="M185.622 268.105C185.622 265.785 183.724 263.887 181.405 263.888L165.172 263.888C162.851 263.888 160.955 265.785 160.955 268.105L160.955 324.822C160.955 327.142 162.853 329.04 165.172 329.039H181.405C183.726 329.039 185.622 327.142 185.622 324.822L185.622 268.105Z" fill="#26BCBC"/>
<path d="M175.237 313.482C175.034 313.846 174.754 314.13 174.398 314.337C174.041 314.543 173.641 314.647 173.194 314.647C172.747 314.647 172.347 314.543 171.99 314.337C171.632 314.131 171.354 313.846 171.152 313.482C170.949 313.117 170.847 312.709 170.849 312.256C170.849 311.858 170.921 311.501 171.069 311.184C171.215 310.869 171.416 310.612 171.673 310.415C171.93 310.217 172.215 310.087 172.534 310.025L172.534 311.036C172.314 311.091 172.132 311.226 171.984 311.445C171.838 311.661 171.766 311.927 171.766 312.237C171.766 312.505 171.828 312.746 171.951 312.961C172.074 313.175 172.243 313.344 172.46 313.469C172.676 313.591 172.923 313.654 173.196 313.653C173.467 313.653 173.712 313.591 173.932 313.469C174.15 313.346 174.323 313.177 174.446 312.962C174.569 312.748 174.629 312.505 174.631 312.239C174.631 312.034 174.59 311.843 174.511 311.661C174.432 311.48 174.328 311.33 174.199 311.212C174.071 311.094 173.941 311.02 173.803 310.996L173.803 309.988C174.108 310.036 174.391 310.161 174.657 310.367C174.925 310.571 175.14 310.839 175.302 311.17C175.464 311.501 175.546 311.865 175.546 312.263C175.546 312.718 175.444 313.126 175.244 313.489L175.237 313.482Z" fill="white"/>
<path d="M175.236 306.784C175.034 307.152 174.754 307.439 174.398 307.647C174.043 307.855 173.641 307.96 173.196 307.959C172.749 307.959 172.349 307.855 171.993 307.647C171.638 307.439 171.358 307.152 171.155 306.784C170.953 306.416 170.851 306.004 170.852 305.548C170.852 305.09 170.954 304.678 171.155 304.312C171.358 303.944 171.638 303.657 171.993 303.449C172.349 303.242 172.75 303.136 173.196 303.138C173.643 303.138 174.043 303.242 174.398 303.449C174.754 303.657 175.034 303.944 175.236 304.312C175.439 304.68 175.541 305.092 175.539 305.548C175.539 306.006 175.437 306.418 175.236 306.784ZM174.456 304.825C174.333 304.61 174.161 304.441 173.939 304.317C173.717 304.194 173.47 304.134 173.196 304.134C172.918 304.134 172.669 304.196 172.449 304.317C172.229 304.439 172.058 304.61 171.935 304.825C171.812 305.039 171.748 305.282 171.748 305.546C171.748 305.814 171.81 306.055 171.933 306.27C172.058 306.487 172.229 306.654 172.447 306.777C172.666 306.9 172.916 306.96 173.194 306.96C173.469 306.96 173.717 306.899 173.937 306.777C174.159 306.654 174.331 306.485 174.455 306.27C174.578 306.055 174.641 305.812 174.64 305.546C174.64 305.279 174.578 305.038 174.455 304.823L174.456 304.825Z" fill="white"/>
<path d="M170.963 300.954L170.963 299.958H173.453C173.812 299.958 174.099 299.864 174.316 299.676C174.532 299.487 174.643 299.232 174.641 298.91C174.641 298.59 174.532 298.332 174.316 298.144C174.099 297.956 173.81 297.861 173.453 297.862H170.963L170.963 296.866H173.453C173.868 296.866 174.236 296.952 174.553 297.121C174.87 297.29 175.113 297.53 175.286 297.839C175.457 298.148 175.543 298.505 175.545 298.912C175.545 299.317 175.458 299.674 175.288 299.982C175.115 300.292 174.872 300.532 174.555 300.701C174.238 300.87 173.874 300.956 173.455 300.956L170.965 300.956L170.963 300.954Z" fill="white"/>
<path d="M170.962 294.486L170.962 292.771C170.962 292.387 171.031 292.058 171.166 291.781C171.302 291.505 171.492 291.293 171.737 291.147C171.982 291.001 172.269 290.929 172.598 290.927C172.929 290.927 173.219 290.999 173.468 291.145C173.714 291.293 173.906 291.503 174.042 291.779C174.177 292.056 174.246 292.385 174.246 292.769L174.246 293.487L175.436 293.487L175.436 294.484L170.968 294.484L170.962 294.486ZM173.357 292.813C173.357 292.531 173.29 292.313 173.16 292.158C173.028 292.001 172.839 291.925 172.594 291.924C172.348 291.924 172.165 292.001 172.035 292.156C171.908 292.311 171.843 292.531 171.844 292.811L171.844 293.484L173.359 293.484L173.359 292.808L173.357 292.813Z" fill="white"/>
<path d="M175.236 287.764C175.034 288.132 174.754 288.419 174.398 288.627C174.043 288.835 173.641 288.941 173.196 288.939C172.749 288.939 172.349 288.835 171.993 288.627C171.638 288.419 171.358 288.132 171.155 287.764C170.953 287.396 170.851 286.984 170.852 286.528C170.852 286.071 170.954 285.659 171.155 285.292C171.358 284.924 171.638 284.637 171.993 284.43C172.349 284.222 172.75 284.116 173.196 284.118C173.643 284.118 174.043 284.222 174.398 284.43C174.754 284.637 175.034 284.924 175.236 285.292C175.439 285.66 175.541 286.072 175.539 286.528C175.539 286.986 175.437 287.398 175.236 287.764ZM174.456 285.805C174.333 285.59 174.161 285.421 173.939 285.298C173.717 285.174 173.47 285.114 173.196 285.114C172.918 285.114 172.669 285.176 172.449 285.298C172.229 285.419 172.058 285.59 171.935 285.805C171.812 286.019 171.748 286.262 171.748 286.527C171.748 286.794 171.81 287.035 171.933 287.25C172.057 287.465 172.229 287.634 172.447 287.757C172.666 287.881 172.916 287.94 173.194 287.94C173.469 287.94 173.717 287.879 173.937 287.757C174.159 287.634 174.331 287.465 174.455 287.25C174.578 287.035 174.641 286.792 174.64 286.527C174.64 286.259 174.578 286.018 174.455 285.803L174.456 285.805Z" fill="white"/>
<path d="M170.963 281.882L170.963 281.047L173.65 278.815L170.91 278.815L170.91 277.818L175.379 277.818L175.379 278.653L172.694 280.884L175.433 280.884L175.433 281.88L170.965 281.88L170.963 281.882Z" fill="white"/>
<path d="M94.7907 298.2L94.7907 296.36L99.9507 291.84C100.391 291.44 100.811 291.06 101.211 290.66C101.571 290.28 101.911 289.9 102.191 289.5C102.471 289.12 102.691 288.74 102.851 288.34C103.011 287.96 103.091 287.58 103.091 287.18C103.091 286.36 102.851 285.7 102.391 285.22C101.911 284.76 101.271 284.52 100.431 284.52C99.6307 284.52 98.9307 284.82 98.2907 285.4C97.6507 286 97.1507 286.78 96.8107 287.7L94.3707 286.36C94.5907 285.74 94.8907 285.16 95.2707 284.62C95.6307 284.1 96.0907 283.66 96.6307 283.26C97.1507 282.9 97.7507 282.6 98.4307 282.38C99.1107 282.18 99.8707 282.08 100.711 282.08C101.431 282.08 102.151 282.18 102.831 282.38C103.491 282.6 104.091 282.92 104.611 283.32C105.111 283.76 105.511 284.28 105.811 284.92C106.091 285.58 106.211 286.34 106.191 287.22C106.171 287.7 106.071 288.18 105.891 288.66C105.691 289.18 105.431 289.68 105.111 290.18C104.771 290.7 104.391 291.2 103.951 291.68C103.511 292.2 103.031 292.68 102.511 293.12L99.4707 295.78L106.811 295.78L106.811 298.2L94.7907 298.2ZM108.416 290.32C108.416 289.06 108.556 287.92 108.856 286.88C109.136 285.88 109.576 285 110.156 284.28C110.716 283.58 111.396 283.04 112.236 282.64C113.056 282.28 113.996 282.08 115.076 282.08C116.116 282.08 117.056 282.28 117.896 282.64C118.696 283.04 119.396 283.58 119.976 284.28C120.536 285 120.976 285.88 121.296 286.88C121.576 287.92 121.736 289.06 121.736 290.32C121.736 291.6 121.596 292.74 121.316 293.74C121.036 294.78 120.616 295.64 120.056 296.36C119.496 297.08 118.796 297.62 117.976 298.02C117.136 298.4 116.156 298.6 115.076 298.6C113.996 298.6 113.056 298.4 112.236 298.02C111.396 297.62 110.716 297.08 110.156 296.36C109.576 295.64 109.136 294.78 108.856 293.74C108.556 292.74 108.416 291.6 108.416 290.32ZM111.576 290.32C111.576 291.36 111.656 292.26 111.856 292.98C112.036 293.72 112.296 294.32 112.616 294.78C112.936 295.26 113.296 295.62 113.736 295.82C114.136 296.04 114.596 296.16 115.076 296.16C115.556 296.16 116.016 296.04 116.456 295.82C116.876 295.62 117.256 295.26 117.576 294.78C117.896 294.32 118.136 293.72 118.336 292.98C118.496 292.26 118.596 291.36 118.596 290.32C118.596 289.3 118.496 288.42 118.336 287.68C118.136 286.96 117.896 286.36 117.576 285.88C117.256 285.42 116.876 285.08 116.456 284.84C116.016 284.64 115.556 284.52 115.076 284.52C114.596 284.52 114.136 284.64 113.736 284.84C113.296 285.08 112.936 285.42 112.616 285.88C112.296 286.36 112.036 286.96 111.856 287.68C111.656 288.42 111.576 289.3 111.576 290.32ZM124.169 298.2L136.129 282.46L139.289 282.46L127.329 298.2L124.169 298.2ZM123.429 285.6C123.429 285.04 123.529 284.54 123.749 284.1C123.949 283.68 124.249 283.32 124.609 283C124.969 282.7 125.369 282.46 125.849 282.3C126.289 282.14 126.769 282.06 127.289 282.06C127.789 282.06 128.269 282.14 128.749 282.3C129.209 282.46 129.629 282.7 129.989 282.98C130.329 283.3 130.609 283.66 130.829 284.1C131.029 284.54 131.129 285.04 131.129 285.6C131.129 286.16 131.029 286.64 130.829 287.06C130.609 287.5 130.329 287.88 129.989 288.18C129.629 288.5 129.209 288.72 128.749 288.88C128.269 289.04 127.789 289.12 127.289 289.12C126.769 289.12 126.289 289.04 125.849 288.88C125.369 288.72 124.969 288.5 124.609 288.18C124.249 287.9 123.949 287.52 123.749 287.08C123.529 286.64 123.429 286.16 123.429 285.6ZM132.429 295.06C132.429 294.5 132.529 294 132.749 293.56C132.949 293.14 133.249 292.78 133.609 292.46C133.969 292.16 134.369 291.92 134.849 291.76C135.289 291.6 135.769 291.52 136.289 291.52C136.789 291.52 137.269 291.6 137.749 291.76C138.209 291.92 138.629 292.16 138.989 292.44C139.329 292.76 139.609 293.12 139.829 293.56C140.029 294 140.129 294.5 140.129 295.06C140.129 295.62 140.029 296.1 139.829 296.54C139.609 296.96 139.329 297.32 138.989 297.64C138.629 297.94 138.209 298.18 137.749 298.34C137.269 298.5 136.789 298.58 136.289 298.58C135.769 298.58 135.289 298.5 134.849 298.34C134.369 298.18 133.969 297.94 133.609 297.66C133.249 297.34 132.949 296.98 132.749 296.54C132.529 296.1 132.429 295.62 132.429 295.06ZM127.289 286.98C127.709 286.98 128.049 286.84 128.309 286.56C128.549 286.3 128.669 285.98 128.669 285.6C128.669 285.2 128.549 284.86 128.309 284.6C128.049 284.36 127.709 284.22 127.289 284.22C126.829 284.22 126.489 284.36 126.249 284.62C126.009 284.9 125.889 285.24 125.889 285.6C125.889 285.98 126.009 286.3 126.249 286.56C126.489 286.84 126.829 286.98 127.289 286.98ZM136.289 296.44C136.709 296.44 137.049 296.3 137.309 296.04C137.549 295.76 137.669 295.44 137.669 295.06C137.669 294.66 137.549 294.32 137.309 294.06C137.049 293.82 136.709 293.68 136.289 293.68C135.829 293.68 135.489 293.82 135.249 294.08C135.009 294.36 134.889 294.7 134.889 295.06C134.889 295.44 135.009 295.76 135.249 296.04C135.489 296.3 135.829 296.44 136.289 296.44Z" fill="#26BCBC"/>
<path d="M101.905 311.872L101.905 311.2L94.8254 311.2L94.8254 310.216L103.105 310.216L103.105 312.856L96.0254 312.856L96.0254 313.528L103.225 313.528L103.225 314.512L94.8254 314.512L94.8254 311.872L101.905 311.872ZM97.2494 306.364C97.7054 306.364 98.1134 306.4 98.4974 306.46C98.8694 306.532 99.1934 306.64 99.4694 306.76C99.7334 306.904 99.9374 307.072 100.081 307.264C100.225 307.48 100.297 307.72 100.297 307.984C100.297 308.272 100.225 308.512 100.081 308.704C99.9374 308.908 99.7334 309.076 99.4694 309.196C99.1934 309.34 98.8694 309.436 98.4974 309.496C98.1134 309.568 97.7054 309.592 97.2494 309.592C96.7934 309.592 96.3734 309.568 96.0134 309.496C95.6294 309.436 95.3174 309.34 95.0534 309.196C94.7894 309.076 94.5854 308.908 94.4414 308.704C94.2974 308.512 94.2254 308.272 94.2254 307.984C94.2254 307.72 94.2974 307.48 94.4414 307.264C94.5854 307.072 94.7894 306.904 95.0534 306.76C95.3174 306.64 95.6294 306.532 96.0134 306.46C96.3734 306.4 96.7934 306.364 97.2494 306.364ZM93.9254 304.72L96.6494 304.72L96.6494 303.784L97.8494 303.784L97.8494 304.72L100.585 304.72L100.585 305.704L93.9254 305.704L93.9254 304.72ZM103.105 307.528L103.105 309.556L101.905 309.556L101.905 304.36L103.105 304.36L103.105 306.544L104.509 306.544L104.509 307.528L103.105 307.528ZM97.2494 307.348C97.0094 307.348 96.7814 307.36 96.5654 307.384C96.3374 307.408 96.1454 307.444 95.9774 307.492C95.8094 307.54 95.6774 307.612 95.5814 307.684C95.4734 307.768 95.4254 307.864 95.4254 307.984C95.4254 308.104 95.4734 308.2 95.5814 308.272C95.6774 308.356 95.8094 308.416 95.9774 308.464C96.1454 308.512 96.3374 308.548 96.5654 308.572C96.7814 308.596 97.0094 308.608 97.2494 308.608C97.4894 308.608 97.7174 308.596 97.9454 308.572C98.1614 308.548 98.3534 308.512 98.5334 308.464C98.7014 308.416 98.8334 308.356 98.9414 308.272C99.0374 308.2 99.0974 308.104 99.0974 307.984C99.0974 307.864 99.0374 307.768 98.9414 307.684C98.8214 307.612 98.6894 307.54 98.5214 307.492C98.3414 307.444 98.1374 307.408 97.9214 307.384C97.6934 307.36 97.4654 307.348 97.2494 307.348ZM114.751 304.36L114.751 311.404L113.551 311.404L113.551 304.36L114.751 304.36ZM107.311 311.212L107.311 313.528L114.871 313.528L114.871 314.512L106.111 314.512L106.111 311.212L107.311 311.212ZM105.247 307.372C105.247 306.916 105.319 306.508 105.487 306.124C105.631 305.764 105.859 305.44 106.159 305.176C106.447 304.924 106.795 304.72 107.215 304.576C107.623 304.432 108.091 304.36 108.607 304.36C109.111 304.36 109.579 304.432 109.999 304.576C110.407 304.72 110.767 304.924 111.067 305.176C111.355 305.44 111.571 305.764 111.739 306.124C111.883 306.508 111.967 306.916 111.967 307.372C111.967 307.828 111.883 308.236 111.739 308.596C111.571 308.968 111.355 309.28 111.067 309.544C110.767 309.808 110.407 310.012 109.999 310.156C109.579 310.3 109.111 310.372 108.607 310.372C108.091 310.372 107.623 310.3 107.215 310.156C106.795 310.012 106.447 309.808 106.159 309.544C105.859 309.28 105.631 308.968 105.487 308.596C105.319 308.236 105.247 307.828 105.247 307.372ZM108.607 309.388C108.919 309.388 109.207 309.34 109.471 309.244C109.735 309.16 109.963 309.028 110.155 308.848C110.347 308.68 110.491 308.464 110.611 308.212C110.707 307.972 110.767 307.684 110.767 307.372C110.767 307.06 110.707 306.772 110.611 306.52C110.491 306.28 110.347 306.064 110.155 305.884C109.963 305.716 109.735 305.572 109.471 305.476C109.207 305.392 108.919 305.344 108.607 305.344C108.295 305.344 108.007 305.392 107.743 305.476C107.479 305.572 107.251 305.716 107.059 305.884C106.867 306.064 106.711 306.28 106.615 306.52C106.495 306.772 106.447 307.06 106.447 307.372C106.447 307.684 106.495 307.972 106.615 308.212C106.711 308.464 106.867 308.68 107.059 308.848C107.251 309.028 107.479 309.16 107.743 309.244C108.007 309.34 108.295 309.388 108.607 309.388ZM124.244 310.288L124.244 308.284L116.96 308.284L116.96 307.3L124.244 307.3L124.244 305.584L116.96 305.584L116.96 304.6L125.444 304.6L125.444 310.288L124.244 310.288ZM120.596 314.644L120.596 312.376L116.372 312.376L116.372 311.392L126.032 311.392L126.032 312.376L121.796 312.376L121.796 314.644L120.596 314.644ZM128 304.468L136.484 304.468L136.484 305.452L134.816 305.452L134.816 307.744L136.484 307.744L136.484 308.728L132.836 308.728L132.836 309.82L137.072 309.82L137.072 310.804L127.412 310.804L127.412 309.82L131.636 309.82L131.636 308.728L128 308.728L128 307.744L129.656 307.744L129.656 305.452L128 305.452L128 304.468ZM129.2 311.452L129.2 313.528L136.604 313.528L136.604 314.512L128 314.512L128 311.452L129.2 311.452ZM130.856 307.744L133.616 307.744L133.616 305.452L130.856 305.452L130.856 307.744Z" fill="#6B7486"/>
</g>
<g filter="url(#filter3_f_5675_431995)">
<ellipse cx="200.733" cy="354.943" rx="62.2933" ry="4.81689" fill="#CDD5E6"/>
</g>
<g filter="url(#filter4_d_5675_431995)">
<path d="M145.328 289.811C143.007 289.811 141.111 291.707 141.111 294.028L141.111 350.744C141.111 353.065 143.009 354.963 145.328 354.961L228.613 354.961C230.934 354.961 232.83 353.065 232.83 350.744L232.83 294.028C232.83 291.707 230.932 289.809 228.613 289.811H145.328Z" fill="white"/>
<path d="M257.498 294.028C257.498 291.707 255.6 289.809 253.281 289.811L237.047 289.811C234.727 289.811 232.83 291.707 232.83 294.028L232.83 350.744C232.83 353.065 234.729 354.963 237.047 354.961H253.281C255.602 354.961 257.498 353.065 257.498 350.744L257.498 294.028Z" fill="#1681FF"/>
<path d="M247.112 339.403C246.91 339.768 246.63 340.051 246.274 340.259C245.917 340.465 245.517 340.569 245.07 340.569C244.623 340.569 244.223 340.465 243.866 340.259C243.508 340.053 243.23 339.768 243.028 339.403C242.825 339.039 242.723 338.63 242.725 338.178C242.725 337.78 242.797 337.422 242.945 337.105C243.091 336.79 243.292 336.533 243.549 336.336C243.806 336.139 244.091 336.008 244.41 335.947L244.41 336.957C244.19 337.012 244.008 337.148 243.86 337.366C243.714 337.582 243.642 337.848 243.642 338.158C243.642 338.426 243.704 338.667 243.827 338.882C243.95 339.097 244.119 339.266 244.336 339.391C244.552 339.512 244.799 339.576 245.072 339.574C245.343 339.574 245.588 339.512 245.808 339.391C246.026 339.267 246.199 339.098 246.322 338.884C246.445 338.669 246.505 338.426 246.507 338.16C246.507 337.956 246.466 337.764 246.387 337.582C246.308 337.401 246.204 337.251 246.075 337.133C245.947 337.016 245.816 336.942 245.679 336.917L245.679 335.91C245.984 335.957 246.267 336.082 246.533 336.288C246.801 336.493 247.016 336.76 247.178 337.091C247.34 337.422 247.422 337.787 247.422 338.185C247.422 338.639 247.32 339.047 247.119 339.41L247.112 339.403Z" fill="white"/>
<path d="M247.113 332.705C246.911 333.073 246.631 333.36 246.275 333.568C245.92 333.776 245.518 333.881 245.073 333.88C244.625 333.88 244.226 333.776 243.87 333.568C243.514 333.36 243.234 333.073 243.032 332.705C242.829 332.337 242.727 331.925 242.729 331.469C242.729 331.011 242.831 330.599 243.032 330.233C243.234 329.865 243.514 329.578 243.87 329.37C244.226 329.163 244.627 329.057 245.073 329.059C245.52 329.059 245.92 329.163 246.275 329.37C246.631 329.578 246.911 329.865 247.113 330.233C247.316 330.601 247.418 331.013 247.416 331.469C247.416 331.927 247.314 332.339 247.113 332.705ZM246.333 330.745C246.21 330.531 246.038 330.362 245.816 330.238C245.594 330.115 245.347 330.055 245.073 330.055C244.794 330.055 244.546 330.117 244.326 330.238C244.106 330.36 243.935 330.531 243.812 330.745C243.689 330.96 243.625 331.203 243.625 331.467C243.625 331.735 243.687 331.976 243.81 332.191C243.935 332.408 244.106 332.575 244.324 332.698C244.543 332.821 244.793 332.881 245.071 332.881C245.346 332.881 245.594 332.82 245.814 332.698C246.036 332.575 246.208 332.406 246.332 332.191C246.455 331.976 246.518 331.733 246.516 331.467C246.516 331.2 246.455 330.959 246.332 330.744L246.333 330.745Z" fill="white"/>
<path d="M242.84 326.876L242.84 325.879H245.33C245.689 325.879 245.976 325.786 246.193 325.598C246.409 325.409 246.52 325.154 246.518 324.832C246.518 324.511 246.409 324.254 246.193 324.066C245.976 323.877 245.687 323.782 245.33 323.784H242.84L242.84 322.788H245.33C245.745 322.788 246.113 322.874 246.43 323.043C246.747 323.212 246.99 323.451 247.163 323.761C247.333 324.069 247.42 324.427 247.422 324.833C247.422 325.238 247.335 325.596 247.164 325.904C246.992 326.214 246.749 326.453 246.432 326.622C246.115 326.791 245.751 326.878 245.332 326.878L242.842 326.878L242.84 326.876Z" fill="white"/>
<path d="M242.839 320.406L242.839 318.691C242.839 318.308 242.908 317.978 243.043 317.702C243.179 317.426 243.369 317.214 243.614 317.068C243.859 316.922 244.146 316.85 244.475 316.848C244.806 316.848 245.096 316.92 245.345 317.066C245.591 317.214 245.783 317.424 245.919 317.7C246.054 317.977 246.123 318.306 246.123 318.69L246.123 319.408L247.313 319.408L247.313 320.405L242.844 320.405L242.839 320.406ZM245.234 318.734C245.234 318.452 245.167 318.234 245.036 318.079C244.904 317.922 244.716 317.846 244.471 317.845C244.225 317.845 244.042 317.922 243.911 318.077C243.785 318.232 243.719 318.452 243.721 318.732L243.721 319.405L245.235 319.405L245.235 318.728L245.234 318.734Z" fill="white"/>
<path d="M247.113 313.686C246.911 314.054 246.631 314.341 246.275 314.548C245.92 314.756 245.518 314.862 245.073 314.86C244.625 314.86 244.226 314.756 243.87 314.548C243.514 314.341 243.234 314.054 243.032 313.686C242.829 313.318 242.727 312.906 242.729 312.45C242.729 311.992 242.831 311.58 243.032 311.214C243.234 310.846 243.514 310.559 243.87 310.351C244.226 310.143 244.627 310.037 245.073 310.039C245.52 310.039 245.92 310.143 246.275 310.351C246.631 310.559 246.911 310.846 247.113 311.214C247.316 311.582 247.418 311.994 247.416 312.45C247.416 312.907 247.314 313.319 247.113 313.686ZM246.333 311.726C246.21 311.511 246.038 311.342 245.816 311.219C245.594 311.096 245.347 311.036 245.073 311.036C244.794 311.036 244.546 311.097 244.326 311.219C244.106 311.34 243.935 311.511 243.812 311.726C243.689 311.941 243.625 312.184 243.625 312.448C243.625 312.715 243.687 312.957 243.81 313.171C243.933 313.386 244.106 313.555 244.324 313.679C244.543 313.802 244.793 313.862 245.071 313.862C245.346 313.862 245.594 313.8 245.814 313.679C246.036 313.555 246.208 313.386 246.332 313.171C246.455 312.957 246.518 312.714 246.516 312.448C246.516 312.18 246.455 311.939 246.332 311.724L246.333 311.726Z" fill="white"/>
<path d="M242.84 307.803L242.84 306.969L245.527 304.736L242.787 304.736L242.787 303.74L247.256 303.74L247.256 304.574L244.57 306.805L247.31 306.805L247.31 307.802L242.841 307.802L242.84 307.803Z" fill="white"/>
<path d="M165.513 308.381L171.473 308.381L171.473 324.121L168.313 324.121L168.313 310.821L165.513 310.821L165.513 308.381ZM184.452 307.621L184.452 317.441L174.672 317.441L174.672 307.621L184.452 307.621ZM178.652 318.841L178.652 322.121L190.312 322.121L190.312 324.541L175.512 324.541L175.512 318.841L178.652 318.841ZM190.112 313.201L190.112 319.361L186.972 319.361L186.972 307.421L190.112 307.421L190.112 310.761L191.852 310.761L191.852 313.201L190.112 313.201ZM181.312 315.001L181.312 310.061L177.812 310.061L177.812 315.001L181.312 315.001ZM193.021 311.281C193.021 310.081 193.521 309.121 194.521 308.441C195.521 307.781 196.921 307.441 198.721 307.441C200.141 307.441 201.321 307.661 202.261 308.081C203.181 308.521 203.801 309.121 204.161 309.921L206.381 309.421L206.381 307.421L209.521 307.421L209.521 320.541L206.381 320.541L206.381 311.921L204.261 312.401C203.981 313.281 203.361 313.961 202.401 314.421C201.441 314.901 200.201 315.121 198.721 315.121C196.921 315.121 195.521 314.781 194.521 314.101C193.521 313.441 193.021 312.501 193.021 311.281ZM196.801 319.641L196.801 322.121L209.721 322.121L209.721 324.541L193.661 324.541L193.661 319.641L196.801 319.641ZM197.401 320.781L197.401 318.641L192.721 318.641L192.721 316.201L205.201 316.201L205.201 318.641L200.541 318.641L200.541 320.781L197.401 320.781ZM196.161 311.281C196.161 311.521 196.221 311.721 196.381 311.881C196.521 312.081 196.721 312.221 196.961 312.341C197.201 312.461 197.461 312.561 197.781 312.601C198.081 312.681 198.401 312.701 198.721 312.701C199.041 312.701 199.361 312.681 199.681 312.601C199.981 312.541 200.261 312.441 200.521 312.321C200.761 312.201 200.941 312.061 201.101 311.881C201.241 311.721 201.321 311.521 201.321 311.281C201.321 310.841 201.081 310.501 200.601 310.241C200.101 310.001 199.481 309.861 198.721 309.861C197.961 309.861 197.361 309.981 196.881 310.221C196.401 310.461 196.161 310.821 196.161 311.281Z" fill="#1681FF"/>
<path d="M173.782 337.793L173.782 337.121L166.702 337.121L166.702 336.137L174.982 336.137L174.982 338.777L167.902 338.777L167.902 339.449L175.102 339.449L175.102 340.433L166.702 340.433L166.702 337.793L173.782 337.793ZM169.126 332.285C169.582 332.285 169.99 332.321 170.374 332.381C170.746 332.453 171.07 332.561 171.346 332.681C171.61 332.825 171.814 332.993 171.958 333.185C172.102 333.401 172.174 333.641 172.174 333.905C172.174 334.193 172.102 334.433 171.958 334.625C171.814 334.829 171.61 334.997 171.346 335.117C171.07 335.261 170.746 335.357 170.374 335.417C169.99 335.489 169.582 335.513 169.126 335.513C168.67 335.513 168.25 335.489 167.89 335.417C167.506 335.357 167.194 335.261 166.93 335.117C166.666 334.997 166.462 334.829 166.318 334.625C166.174 334.433 166.102 334.193 166.102 333.905C166.102 333.641 166.174 333.401 166.318 333.185C166.462 332.993 166.666 332.825 166.93 332.681C167.194 332.561 167.506 332.453 167.89 332.381C168.25 332.321 168.67 332.285 169.126 332.285ZM165.802 330.641L168.526 330.641L168.526 329.705L169.726 329.705L169.726 330.641L172.462 330.641L172.462 331.625L165.802 331.625L165.802 330.641ZM174.982 333.449L174.982 335.477L173.782 335.477L173.782 330.281L174.982 330.281L174.982 332.465L176.386 332.465L176.386 333.449L174.982 333.449ZM169.126 333.269C168.886 333.269 168.658 333.281 168.442 333.305C168.214 333.329 168.022 333.365 167.854 333.413C167.686 333.461 167.554 333.533 167.458 333.605C167.35 333.689 167.302 333.785 167.302 333.905C167.302 334.025 167.35 334.121 167.458 334.193C167.554 334.277 167.686 334.337 167.854 334.385C168.022 334.433 168.214 334.469 168.442 334.493C168.658 334.517 168.886 334.529 169.126 334.529C169.366 334.529 169.594 334.517 169.822 334.493C170.038 334.469 170.23 334.433 170.41 334.385C170.578 334.337 170.71 334.277 170.818 334.193C170.914 334.121 170.974 334.025 170.974 333.905C170.974 333.785 170.914 333.689 170.818 333.605C170.698 333.533 170.566 333.461 170.398 333.413C170.218 333.365 170.014 333.329 169.798 333.305C169.57 333.281 169.342 333.269 169.126 333.269ZM186.628 330.281L186.628 337.325L185.428 337.325L185.428 330.281L186.628 330.281ZM179.188 337.133L179.188 339.449L186.748 339.449L186.748 340.433L177.988 340.433L177.988 337.133L179.188 337.133ZM177.124 333.293C177.124 332.837 177.196 332.429 177.364 332.045C177.508 331.685 177.736 331.361 178.036 331.097C178.324 330.845 178.672 330.641 179.092 330.497C179.5 330.353 179.968 330.281 180.484 330.281C180.988 330.281 181.456 330.353 181.876 330.497C182.284 330.641 182.644 330.845 182.944 331.097C183.232 331.361 183.448 331.685 183.616 332.045C183.76 332.429 183.844 332.837 183.844 333.293C183.844 333.749 183.76 334.157 183.616 334.517C183.448 334.889 183.232 335.201 182.944 335.465C182.644 335.729 182.284 335.933 181.876 336.077C181.456 336.221 180.988 336.293 180.484 336.293C179.968 336.293 179.5 336.221 179.092 336.077C178.672 335.933 178.324 335.729 178.036 335.465C177.736 335.201 177.508 334.889 177.364 334.517C177.196 334.157 177.124 333.749 177.124 333.293ZM180.484 335.309C180.796 335.309 181.084 335.261 181.348 335.165C181.612 335.081 181.84 334.949 182.032 334.769C182.224 334.601 182.368 334.385 182.488 334.133C182.584 333.893 182.644 333.605 182.644 333.293C182.644 332.981 182.584 332.693 182.488 332.441C182.368 332.201 182.224 331.985 182.032 331.805C181.84 331.637 181.612 331.493 181.348 331.397C181.084 331.313 180.796 331.265 180.484 331.265C180.172 331.265 179.884 331.313 179.62 331.397C179.356 331.493 179.128 331.637 178.936 331.805C178.744 331.985 178.588 332.201 178.492 332.441C178.372 332.693 178.324 332.981 178.324 333.293C178.324 333.605 178.372 333.893 178.492 334.133C178.588 334.385 178.744 334.601 178.936 334.769C179.128 334.949 179.356 335.081 179.62 335.165C179.884 335.261 180.172 335.309 180.484 335.309ZM196.121 336.209L196.121 334.205L188.837 334.205L188.837 333.221L196.121 333.221L196.121 331.505L188.837 331.505L188.837 330.521L197.321 330.521L197.321 336.209L196.121 336.209ZM192.473 340.565L192.473 338.297L188.249 338.297L188.249 337.313L197.909 337.313L197.909 338.297L193.673 338.297L193.673 340.565L192.473 340.565ZM199.876 330.389L208.36 330.389L208.36 331.373L206.692 331.373L206.692 333.665L208.36 333.665L208.36 334.649L204.712 334.649L204.712 335.741L208.948 335.741L208.948 336.725L199.288 336.725L199.288 335.741L203.512 335.741L203.512 334.649L199.876 334.649L199.876 333.665L201.532 333.665L201.532 331.373L199.876 331.373L199.876 330.389ZM201.076 337.373L201.076 339.449L208.48 339.449L208.48 340.433L199.876 340.433L199.876 337.373L201.076 337.373ZM202.732 333.665L205.492 333.665L205.492 331.373L202.732 331.373L202.732 333.665Z" fill="#6B7486"/>
</g>
<path d="M258.422 284.31C258.059 284.464 257.613 284.5 257.194 284.383C256.341 284.143 255.876 283.373 256.156 282.664L258.581 276.329C258.846 275.616 259.764 275.227 260.607 275.471C261.459 275.71 261.925 276.48 261.645 277.189L259.22 283.524C259.085 283.877 258.785 284.156 258.422 284.31Z" fill="#1681FF"/>
<path d="M271.824 286.06C271.824 286.06 271.74 286.101 271.694 286.123L264.524 288.888C263.716 289.205 262.764 288.899 262.379 288.215C261.993 287.53 262.339 286.723 263.152 286.413L270.323 283.649C271.13 283.332 272.083 283.637 272.468 284.322C272.826 284.967 272.529 285.719 271.824 286.06Z" fill="#1681FF"/>
<path d="M273.694 296.493C273.388 296.623 273.024 296.675 272.658 296.606L264.889 295.287C264.018 295.136 263.443 294.423 263.611 293.689C263.78 292.956 264.62 292.478 265.49 292.628L273.26 293.948C274.131 294.098 274.706 294.811 274.537 295.545C274.437 295.975 274.115 296.315 273.694 296.493Z" fill="#1681FF"/>
<path d="M143.223 397.086V399.322H138.114V401.272H143.6V403.495H135.41V393.134H143.47V395.37H138.114V397.086H143.223ZM146.201 393.134L148.71 400.505L151.219 393.134H153.923L150.413 403.495H147.007L143.497 393.134H146.201ZM161.904 397.086V399.322H156.795V401.272H162.281V403.495H154.091V393.134H162.151V395.37H156.795V397.086H161.904ZM162.828 393.134H165.532L169.419 399.413V393.134H172.123V403.495H169.419L165.532 397.099V403.495H162.828V393.134ZM178.422 395.37V403.495H175.718V395.37H172.429V393.134H181.711V395.37H178.422ZM187.728 399.166C188.313 398.698 188.768 398.23 189.106 397.749C189.418 397.281 189.587 396.839 189.587 396.423C189.587 396.293 189.561 396.137 189.535 395.981C189.483 395.838 189.418 395.695 189.34 395.565C189.236 395.448 189.119 395.344 188.963 395.266C188.807 395.188 188.612 395.149 188.378 395.149C187.416 395.149 186.714 395.734 186.298 396.878L184.231 395.799C184.361 395.331 184.569 394.915 184.855 394.551C185.128 394.187 185.453 393.888 185.843 393.628C186.207 393.394 186.636 393.212 187.104 393.082C187.559 392.965 188.04 392.913 188.56 392.913C189.093 392.926 189.6 393.017 190.068 393.186C190.523 393.368 190.926 393.602 191.264 393.914C191.602 394.226 191.862 394.603 192.057 395.032C192.239 395.474 192.33 395.968 192.317 396.488C192.291 396.878 192.226 397.229 192.096 397.567C191.953 397.918 191.771 398.243 191.563 398.555C191.342 398.88 191.095 399.179 190.809 399.465C190.523 399.764 190.211 400.037 189.899 400.297L188.703 401.272H192.72V403.495H184.517V401.753L187.728 399.166Z" fill="#6B7486"/>
<path d="M90.6562 427.043V428.566H86.5938V434.66H84.7188V428.566H80.5391V434.66H78.625V428.566H74.6406V427.043H90.6562ZM82.6094 417.824C86.3008 417.824 88.8398 419.328 88.8398 421.691C88.8398 424.016 86.3008 425.5 82.6094 425.48C78.8984 425.5 76.3789 424.016 76.3789 421.691C76.3789 419.328 78.8984 417.824 82.6094 417.824ZM82.6094 419.309C80.0117 419.328 78.2734 420.227 78.293 421.691C78.2734 423.117 80.0117 424.016 82.6094 424.016C85.207 424.016 86.9453 423.117 86.9453 421.691C86.9453 420.227 85.207 419.328 82.6094 419.309ZM106.961 431.008V432.57H90.9453V431.008H95.3203V427.922H92.8984V422.355H103.172V419.914H92.8594V418.391H105.008V423.859H94.7344V426.398H105.418V427.922H102.762V431.008H106.961ZM97.1172 431.008H100.945V427.922H97.1172V431.008ZM113.266 419.953C113.266 422.258 114.867 424.387 117.484 425.246L116.488 426.711C114.574 426.037 113.139 424.67 112.387 422.941C111.615 424.904 110.131 426.438 108.09 427.199L107.094 425.715C109.828 424.738 111.41 422.414 111.43 419.797V418.078H113.266V419.953ZM120.98 417.16V421.555H123.52V423.117H120.98V427.727H119.125V417.16H120.98ZM115.336 428.137C118.93 428.137 121.137 429.328 121.137 431.379C121.137 433.449 118.93 434.641 115.336 434.621C111.703 434.641 109.457 433.449 109.457 431.379C109.457 429.328 111.703 428.137 115.336 428.137ZM115.336 429.602C112.797 429.602 111.293 430.266 111.312 431.379C111.293 432.531 112.797 433.156 115.336 433.176C117.855 433.156 119.32 432.531 119.32 431.379C119.32 430.266 117.855 429.602 115.336 429.602ZM139.473 425.539V427.023H132.402V428.898H137.52V434.445H125.43V428.898H130.566V427.023H123.516V425.539H139.473ZM137.969 417.707V419.211H135.43V422.551H137.891V424.055H125.059V422.551H127.539V419.211H124.98V417.707H137.969ZM127.266 430.363V432.941H135.723V430.363H127.266ZM129.375 422.551H133.574V419.211H129.375V422.551ZM157.434 417.102V421.203H159.992V422.727H157.434V426.73H155.578V417.102H157.434ZM157.434 427.551V431.613H147.98V433.078H158.039V434.484H146.164V430.305H155.598V428.938H146.125V427.551H157.434ZM154.133 418.645V420.109H143.703V418.645H148V417.004H149.855V418.645H154.133ZM148.918 420.773C151.477 420.773 153.156 421.867 153.156 423.645C153.156 425.422 151.477 426.496 148.918 426.496C146.34 426.496 144.66 425.422 144.66 423.645C144.66 421.867 146.34 420.773 148.918 420.773ZM148.918 422.102C147.414 422.102 146.438 422.707 146.457 423.645C146.438 424.582 147.414 425.148 148.918 425.148C150.422 425.148 151.398 424.582 151.418 423.645C151.398 422.707 150.422 422.102 148.918 422.102ZM174.48 417.18V429.895H172.625V417.18H174.48ZM175.008 432.785V434.289H163.035V428.605H164.91V432.785H175.008ZM164.988 418.352C167.625 418.352 169.637 420.148 169.637 422.688C169.637 425.266 167.625 427.043 164.988 427.043C162.352 427.043 160.32 425.266 160.32 422.688C160.32 420.148 162.352 418.352 164.988 418.352ZM164.988 419.973C163.348 419.973 162.137 421.086 162.137 422.688C162.137 424.328 163.348 425.422 164.988 425.422C166.59 425.422 167.82 424.328 167.82 422.688C167.82 421.086 166.59 419.973 164.988 419.973ZM194.121 418.215V419.816C194.121 421.643 194.121 423.664 193.516 426.516H196.094V428.02H189.062V434.641H187.207V428.02H180.137V426.516H191.699C191.963 425.373 192.129 424.348 192.227 423.41L181.836 423.938L181.602 422.336L192.324 422.004C192.363 421.223 192.363 420.5 192.363 419.816V419.719H182.109V418.215H194.121ZM210.875 417.902V419.426H208.336V423.098H210.797V424.562H205.309V426.535H212.379V428.02H196.422V426.535H203.473V424.562H197.965V423.098H200.445V419.426H197.887V417.902H210.875ZM210.582 432.785V434.289H198.434V429.426H200.309V432.785H210.582ZM202.281 423.098H206.48V419.426H202.281V423.098ZM232.547 425.402V426.906H216.59V425.402H232.547ZM224.559 428.254C228.328 428.254 230.594 429.426 230.594 431.457C230.594 433.488 228.328 434.641 224.559 434.621C220.77 434.641 218.484 433.488 218.484 431.457C218.484 429.426 220.77 428.254 224.559 428.254ZM224.559 429.699C221.883 429.719 220.359 430.324 220.359 431.457C220.359 432.57 221.883 433.156 224.559 433.156C227.195 433.156 228.738 432.57 228.738 431.457C228.738 430.324 227.195 429.719 224.559 429.699ZM231.121 418.02V419.543H225.809C226.014 421.242 228.494 422.688 231.727 423.02L231.062 424.484C228.035 424.133 225.525 422.854 224.578 421.008C223.602 422.854 221.102 424.133 218.074 424.484L217.43 423.02C220.604 422.688 223.104 421.252 223.328 419.543H218.055V418.02H231.121ZM247.465 417.16V427.57H245.609V423.137H242.348V421.613H245.609V417.16H247.465ZM241.605 428.059C245.277 428.059 247.523 429.27 247.523 431.359C247.523 433.449 245.277 434.641 241.605 434.66C237.934 434.641 235.668 433.449 235.688 431.359C235.668 429.27 237.934 428.059 241.605 428.059ZM241.605 429.504C239.047 429.504 237.523 430.168 237.523 431.359C237.523 432.531 239.047 433.215 241.605 433.195C244.164 433.215 245.688 432.531 245.688 431.359C245.688 430.168 244.164 429.504 241.605 429.504ZM239.145 420.246C239.145 422.473 240.727 424.621 243.363 425.52L242.406 426.984C240.443 426.301 238.998 424.904 238.246 423.176C237.475 425.139 235.941 426.711 233.852 427.473L232.875 425.988C235.59 425.051 237.25 422.688 237.25 420.266V419.875H233.461V418.371H242.895V419.875H239.145V420.246ZM252.383 418.859L252.207 428.918H250.273L250.098 418.859H252.383ZM251.25 433.137C250.488 433.137 249.844 432.512 249.863 431.75C249.844 430.988 250.488 430.363 251.25 430.363C251.992 430.363 252.637 430.988 252.637 431.75C252.637 432.512 251.992 433.137 251.25 433.137Z" fill="#2C3038"/>
<defs>
<filter id="filter0_d_5675_431995" x="104.776" y="49" width="120.449" height="43.5608" filterUnits="userSpaceOnUse" color-interpolation-filters="sRGB">
<feFlood flood-opacity="0" result="BackgroundImageFix"/>
<feColorMatrix in="SourceAlpha" type="matrix" values="0 0 0 0 0 0 0 0 0 0 0 0 0 0 0 0 0 0 127 0" result="hardAlpha"/>
<feOffset dy="3.3365"/>
<feGaussianBlur stdDeviation="1.11217"/>
<feComposite in2="hardAlpha" operator="out"/>
<feColorMatrix type="matrix" values="0 0 0 0 0.278431 0 0 0 0 0.317647 0 0 0 0 0.419608 0 0 0 0.2 0"/>
<feBlend mode="multiply" in2="BackgroundImageFix" result="effect1_dropShadow_5675_431995"/>
<feBlend mode="normal" in="SourceGraphic" in2="effect1_dropShadow_5675_431995" result="shape"/>
</filter>
<filter id="filter1_d_5675_431995" x="196.776" y="41" width="34.4487" height="35.5608" filterUnits="userSpaceOnUse" color-interpolation-filters="sRGB">
<feFlood flood-opacity="0" result="BackgroundImageFix"/>
<feColorMatrix in="SourceAlpha" type="matrix" values="0 0 0 0 0 0 0 0 0 0 0 0 0 0 0 0 0 0 127 0" result="hardAlpha"/>
<feOffset dy="3.3365"/>
<feGaussianBlur stdDeviation="1.11217"/>
<feComposite in2="hardAlpha" operator="out"/>
<feColorMatrix type="matrix" values="0 0 0 0 0.278431 0 0 0 0 0.317647 0 0 0 0 0.419608 0 0 0 0.2 0"/>
<feBlend mode="multiply" in2="BackgroundImageFix" result="effect1_dropShadow_5675_431995"/>
<feBlend mode="normal" in="SourceGraphic" in2="effect1_dropShadow_5675_431995" result="shape"/>
</filter>
<filter id="filter2_f_5675_431995" x="60.8111" y="315.401" width="138.962" height="26.4176" filterUnits="userSpaceOnUse" color-interpolation-filters="sRGB">
<feFlood flood-opacity="0" result="BackgroundImageFix"/>
<feBlend mode="normal" in="SourceGraphic" in2="BackgroundImageFix" result="shape"/>
<feGaussianBlur stdDeviation="3.59385" result="effect1_foregroundBlur_5675_431995"/>
</filter>
<filter id="filter3_f_5675_431995" x="131.252" y="342.939" width="138.962" height="24.0092" filterUnits="userSpaceOnUse" color-interpolation-filters="sRGB">
<feFlood flood-opacity="0" result="BackgroundImageFix"/>
<feBlend mode="normal" in="SourceGraphic" in2="BackgroundImageFix" result="shape"/>
<feGaussianBlur stdDeviation="3.59385" result="effect1_foregroundBlur_5675_431995"/>
</filter>
<filter id="filter4_d_5675_431995" x="125.536" y="269.634" width="147.517" height="96.6885" filterUnits="userSpaceOnUse" color-interpolation-filters="sRGB">
<feFlood flood-opacity="0" result="BackgroundImageFix"/>
<feColorMatrix in="SourceAlpha" type="matrix" values="0 0 0 0 0 0 0 0 0 0 0 0 0 0 0 0 0 0 127 0" result="hardAlpha"/>
<feOffset dy="-3.82168"/>
<feGaussianBlur stdDeviation="5.73252"/>
<feComposite in2="hardAlpha" operator="out"/>
<feColorMatrix type="matrix" values="0 0 0 0 0.514123 0 0 0 0 0.564825 0 0 0 0 0.611627 0 0 0 0.15 0"/>
<feBlend mode="normal" in2="BackgroundImageFix" result="effect1_dropShadow_5675_431995"/>
<feBlend mode="normal" in="SourceGraphic" in2="effect1_dropShadow_5675_431995" result="shape"/>
</filter>
<clipPath id="clip0_5675_431995">
<rect width="124.587" height="73.7584" fill="white" transform="translate(65.124 259)"/>
</clipPath>
</defs>
</svg>
