<svg width="330" height="358" viewBox="0 0 330 358" fill="none" xmlns="http://www.w3.org/2000/svg">
<rect x="0.5" y="1.34912" width="327" height="110" rx="1.5" fill="#EFF6FF"/>
<rect x="0.5" y="1.34912" width="327" height="110" rx="1.5" stroke="#D8EAFF"/>
<path d="M44.1562 33.8022H42.6719V32.4585H39.8594V31.4116H42.6719V23.1929H44.1562V33.8022ZM44.5 36.8804H34.3906V32.771H35.8594V35.6772H44.5V36.8804ZM32.4531 29.5835C34.276 29.5731 35.9115 29.5418 37.3594 29.4897C38.8125 29.4377 40.1979 29.3283 41.5156 29.1616L41.6094 30.2241C40.4583 30.4116 39.2292 30.547 37.9219 30.6304V33.3647H36.4375V30.7163C35.4323 30.7528 34.4062 30.771 33.3594 30.771H32.6406L32.4531 29.5835ZM37.0312 23.7241C37.7083 23.7241 38.3099 23.8283 38.8359 24.0366C39.362 24.2397 39.7708 24.5288 40.0625 24.9038C40.3542 25.2736 40.5 25.7033 40.5 26.1929C40.5 26.6825 40.3542 27.1121 40.0625 27.4819C39.7708 27.8465 39.362 28.1304 38.8359 28.3335C38.3099 28.5314 37.7083 28.6304 37.0312 28.6304C36.3438 28.6304 35.737 28.5314 35.2109 28.3335C34.6849 28.1304 34.276 27.8465 33.9844 27.4819C33.6927 27.1121 33.5469 26.6825 33.5469 26.1929C33.5469 25.7033 33.6927 25.2736 33.9844 24.9038C34.276 24.5288 34.6849 24.2397 35.2109 24.0366C35.737 23.8283 36.3438 23.7241 37.0312 23.7241ZM37.0312 24.8335C36.6198 24.8283 36.2552 24.8804 35.9375 24.9897C35.6198 25.0991 35.375 25.258 35.2031 25.4663C35.0312 25.6746 34.9479 25.9168 34.9531 26.1929C34.9479 26.4637 35.0312 26.7007 35.2031 26.9038C35.375 27.1069 35.6172 27.2632 35.9297 27.3726C36.2474 27.4819 36.6146 27.5366 37.0312 27.5366C37.4323 27.5366 37.7865 27.4819 38.0938 27.3726C38.4062 27.2632 38.6484 27.1069 38.8203 26.9038C38.9974 26.7007 39.0885 26.4637 39.0938 26.1929C39.0885 25.9168 38.9974 25.6746 38.8203 25.4663C38.6484 25.258 38.4062 25.0991 38.0938 24.9897C37.7865 24.8804 37.4323 24.8283 37.0312 24.8335ZM56.93 28.8491H59.18V30.0835H56.93V37.1772H55.4613V23.1772H56.93V28.8491ZM54.2425 26.5835H45.9456V25.3647H49.3988V23.3647H50.8831V25.3647H54.2425V26.5835ZM50.1488 27.6147C50.8102 27.6147 51.404 27.7528 51.93 28.0288C52.456 28.3049 52.8701 28.6903 53.1722 29.1851C53.4743 29.6799 53.6279 30.2397 53.6331 30.8647C53.6279 31.495 53.4743 32.0575 53.1722 32.5522C52.8701 33.047 52.456 33.4325 51.93 33.7085C51.404 33.9845 50.8102 34.1252 50.1488 34.1304C49.4821 34.1252 48.8831 33.9845 48.3519 33.7085C47.8258 33.4325 47.4118 33.047 47.1097 32.5522C46.8128 32.0575 46.6644 31.495 46.6644 30.8647C46.6644 30.2397 46.8128 29.6799 47.1097 29.1851C47.4118 28.6903 47.8258 28.3049 48.3519 28.0288C48.8831 27.7528 49.4821 27.6147 50.1488 27.6147ZM50.1488 28.8335C49.7581 28.8335 49.404 28.9194 49.0863 29.0913C48.7685 29.2632 48.5211 29.5028 48.3441 29.8101C48.167 30.1174 48.081 30.4689 48.0863 30.8647C48.081 31.2658 48.167 31.62 48.3441 31.9272C48.5211 32.2345 48.7659 32.4715 49.0784 32.6382C49.3961 32.8049 49.7529 32.8856 50.1488 32.8804C50.5394 32.8856 50.8909 32.8049 51.2034 32.6382C51.5211 32.4715 51.7685 32.2345 51.9456 31.9272C52.1227 31.62 52.2113 31.2658 52.2113 30.8647C52.2113 30.4689 52.1227 30.1174 51.9456 29.8101C51.7685 29.5028 51.5211 29.2632 51.2034 29.0913C50.8909 28.9194 50.5394 28.8335 50.1488 28.8335ZM70.86 28.4585H61.2194V23.6772H62.6881V27.271H70.86V28.4585ZM72.3288 31.4116H59.5163V30.2241H72.3288V31.4116ZM70.9538 36.8491H61.11V32.7397H62.5944V35.6304H70.9538V36.8491ZM81.7825 27.3022C81.7825 28.0783 81.9388 28.8465 82.2513 29.6069C82.569 30.3674 83.0065 31.047 83.5638 31.646C84.1263 32.2397 84.7617 32.6877 85.47 32.9897L84.6575 34.146C83.8398 33.7866 83.1158 33.245 82.4856 32.521C81.8554 31.7918 81.3763 30.9559 81.0481 30.0132C80.72 31.0184 80.2382 31.9194 79.6028 32.7163C78.9726 33.5132 78.2565 34.1095 77.4544 34.5054L76.595 33.3335C77.2825 33.0106 77.9075 32.5288 78.47 31.8882C79.0325 31.2424 79.4726 30.5158 79.7903 29.7085C80.1132 28.896 80.2773 28.0939 80.2825 27.3022V25.8179H77.0794V24.5835H84.97V25.8179H81.7825V27.3022ZM88.22 37.1772H86.7356V23.1772H88.22V37.1772ZM101.806 37.1772H100.322V33.3335H92.3219V32.1616H101.806V37.1772ZM101.806 31.4272H100.322V29.5054H96.8688C96.5354 29.8908 96.1188 30.1903 95.6188 30.4038C95.1188 30.6174 94.5719 30.7241 93.9781 30.7241C93.2854 30.7241 92.663 30.5809 92.1109 30.2944C91.5589 30.0028 91.124 29.5991 90.8063 29.0835C90.4938 28.5679 90.3375 27.9845 90.3375 27.3335C90.3375 26.6929 90.4938 26.1174 90.8063 25.6069C91.124 25.0913 91.5589 24.6877 92.1109 24.396C92.6682 24.1043 93.2906 23.9585 93.9781 23.9585C94.5719 23.9585 95.1188 24.0653 95.6188 24.2788C96.1188 24.4924 96.5354 24.7918 96.8688 25.1772H100.322V23.1772H101.806V31.4272ZM94.0094 25.2085C93.5771 25.2085 93.1891 25.2996 92.8453 25.4819C92.5068 25.659 92.2411 25.909 92.0484 26.2319C91.8557 26.5549 91.7594 26.922 91.7594 27.3335C91.7594 27.7554 91.8557 28.1278 92.0484 28.4507C92.2411 28.7736 92.5068 29.0262 92.8453 29.2085C93.1891 29.3856 93.5771 29.4741 94.0094 29.4741C94.4313 29.4741 94.8089 29.3856 95.1422 29.2085C95.4807 29.0262 95.7464 28.7736 95.9391 28.4507C96.1318 28.1226 96.2281 27.7502 96.2281 27.3335C96.2281 26.922 96.1318 26.5549 95.9391 26.2319C95.7464 25.909 95.4807 25.659 95.1422 25.4819C94.8036 25.2996 94.426 25.2085 94.0094 25.2085ZM100.322 28.2866V26.396H97.5172C97.6057 26.7033 97.65 27.0158 97.65 27.3335C97.65 27.6616 97.6057 27.9793 97.5172 28.2866H100.322ZM115.689 37.1772H114.268V23.1772H115.689V37.1772ZM112.846 36.4897H111.424V29.7397H109.846C109.804 30.646 109.653 31.4325 109.393 32.0991C109.132 32.7658 108.781 33.2788 108.338 33.6382C107.895 33.9924 107.387 34.1668 106.814 34.1616C106.21 34.1668 105.679 33.9689 105.221 33.5679C104.768 33.1668 104.416 32.5939 104.166 31.8491C103.921 31.0991 103.799 30.2241 103.799 29.2241C103.799 28.2241 103.921 27.3517 104.166 26.6069C104.416 25.8621 104.768 25.2918 105.221 24.896C105.679 24.495 106.21 24.297 106.814 24.3022C107.377 24.297 107.877 24.4663 108.314 24.8101C108.752 25.1486 109.101 25.6382 109.361 26.2788C109.627 26.9142 109.786 27.6668 109.838 28.5366H111.424V23.4429H112.846V36.4897ZM106.814 25.6929C106.476 25.6929 106.184 25.8335 105.939 26.1147C105.695 26.3908 105.504 26.7944 105.369 27.3257C105.239 27.8517 105.174 28.4845 105.174 29.2241C105.174 29.9637 105.239 30.5991 105.369 31.1304C105.504 31.6564 105.695 32.0601 105.939 32.3413C106.184 32.6174 106.476 32.7554 106.814 32.7554C107.158 32.7554 107.455 32.6174 107.705 32.3413C107.955 32.0601 108.148 31.6564 108.283 31.1304C108.419 30.5991 108.486 29.9637 108.486 29.2241C108.486 28.4845 108.419 27.8517 108.283 27.3257C108.148 26.7944 107.955 26.3908 107.705 26.1147C107.455 25.8335 107.158 25.6929 106.814 25.6929ZM124.244 30.9429H117.698V24.4116H124.244V30.9429ZM119.151 29.771H122.791V25.6147H119.151V29.771ZM128.151 27.3491H130.182V28.5991H128.151V33.4272H126.666V23.1616H128.151V27.3491ZM128.744 36.8804H119.276V32.4429H120.76V35.6772H128.744V36.8804ZM145.604 30.646H141.37V34.2085H147.058V35.4272H134.245V34.2085H139.886V30.646H135.776V24.3335H137.276V29.4272H145.604V30.646ZM160.503 30.4272H154.863V31.5991H158.909V34.7554H150.753V35.9116H159.3V37.0366H149.3V33.7241H157.441V32.6772H149.284V31.5991H153.394V30.4272H147.769V29.3179H160.503V30.4272ZM154.863 24.3491H159.238V25.4897H154.98C155.073 25.8804 155.336 26.2319 155.769 26.5444C156.201 26.8517 156.769 27.1017 157.472 27.2944C158.18 27.4819 158.982 27.5991 159.878 27.646L159.425 28.771C158.18 28.6825 157.092 28.4585 156.159 28.0991C155.232 27.7345 154.555 27.2528 154.128 26.6538C153.701 27.2528 153.021 27.7345 152.089 28.0991C151.162 28.4585 150.071 28.6825 148.816 28.771L148.394 27.646C149.284 27.5991 150.079 27.4819 150.777 27.2944C151.48 27.1017 152.047 26.8517 152.48 26.5444C152.912 26.2319 153.178 25.8804 153.277 25.4897H149.034V24.3491H153.394V23.1147H154.863V24.3491ZM163.699 32.5835H162.152L162.011 24.5366H163.839L163.699 32.5835ZM162.933 35.9585C162.735 35.9585 162.548 35.909 162.371 35.8101C162.199 35.7111 162.063 35.5757 161.964 35.4038C161.865 35.2319 161.819 35.047 161.824 34.8491C161.819 34.6512 161.865 34.4663 161.964 34.2944C162.063 34.1226 162.199 33.9871 162.371 33.8882C162.548 33.7892 162.735 33.7397 162.933 33.7397C163.126 33.7397 163.308 33.7892 163.48 33.8882C163.652 33.9871 163.787 34.1226 163.886 34.2944C163.99 34.4663 164.042 34.6512 164.042 34.8491C164.042 35.047 163.99 35.2319 163.886 35.4038C163.787 35.5757 163.652 35.7111 163.48 35.8101C163.308 35.909 163.126 35.9585 162.933 35.9585Z" fill="#687183"/>
<path d="M33.1914 48.7085H36.8242L40.75 58.2983H40.9062L44.832 48.7085H48.4648V62.8491H45.6133V53.5913H45.4961L41.8047 62.7905H39.8516L36.1602 53.5522H36.043V62.8491H33.1914V48.7085ZM56.6781 51.7163C56.6781 54.5874 58.143 57.6538 61.1313 58.9038L59.7836 60.8569C57.684 59.9683 56.2387 58.2007 55.4477 56.0327C54.6371 58.3862 53.1625 60.3394 51.0727 61.3062L49.6469 59.3335C52.5961 58.0249 54.1195 54.7241 54.1195 51.7163V50.6226H50.35V48.5913H60.3891V50.6226H56.6781V51.7163ZM64.6664 46.8726V64.646H62.1469V46.8726H64.6664ZM81.6492 58.1812V64.646H79.1688V60.1343H69.4422V58.1812H81.6492ZM81.6492 46.8726V57.3804H79.1688V55.1343H75.1844C74.3348 56.0522 73.075 56.5991 71.6297 56.5991C68.9344 56.5991 66.8836 54.7437 66.9031 52.1655C66.8836 49.646 68.9344 47.8101 71.6297 47.8296C73.075 47.8198 74.3348 48.3569 75.1844 49.2554H79.1688V46.8726H81.6492ZM71.6297 49.9194C70.243 49.9194 69.2469 50.7788 69.2664 52.1655C69.2469 53.6304 70.243 54.4702 71.6297 54.4702C72.9383 54.4702 73.9539 53.6304 73.9539 52.1655C73.9539 50.7788 72.9383 49.9194 71.6297 49.9194ZM76.2195 53.1421H79.1688V51.2671H76.2391C76.2879 51.5503 76.3172 51.853 76.3172 52.1655C76.3172 52.5073 76.2781 52.8296 76.2195 53.1421ZM98.4367 46.8726V57.5757H95.9367V46.8726H98.4367ZM98.4367 58.3569V64.646H95.9367V60.3491H86.2102V58.3569H98.4367ZM94.0617 47.9077V49.8999H90.4875C90.507 51.98 91.8156 54.1675 94.7258 55.0366L93.4562 56.9702C91.4641 56.355 90.0578 55.0757 89.257 53.4546C88.4465 55.2124 87.0012 56.6089 84.9211 57.3022L83.632 55.3687C86.5617 54.4214 87.9289 52.1167 87.9484 49.8999H84.2961V47.9077H94.0617ZM109.755 53.2397V55.3687H116.65V57.3804H100.439V55.3687H107.295V53.2397H109.755ZM108.525 58.3569C112.392 58.3569 114.697 59.4702 114.716 61.5015C114.697 63.5327 112.392 64.646 108.525 64.646C104.619 64.646 102.295 63.5327 102.295 61.5015C102.295 59.4702 104.619 58.3569 108.525 58.3569ZM108.525 60.2515C106.045 60.2515 104.814 60.6616 104.834 61.5015C104.814 62.3804 106.045 62.7905 108.525 62.7905C110.947 62.7905 112.197 62.3804 112.216 61.5015C112.197 60.6616 110.947 60.2515 108.525 60.2515ZM115.185 47.6343V49.5874H110.361C110.8 50.8081 112.617 51.9995 115.947 52.3022L115.068 54.2554C111.718 53.9233 109.472 52.6831 108.525 50.9546C107.578 52.6733 105.361 53.9233 102.021 54.2554L101.142 52.3022C104.453 51.9995 106.279 50.8276 106.728 49.5874H101.923V47.6343H115.185ZM137.803 60.5054V62.5757H121.534V60.5054H137.803ZM136.436 48.4351V50.4272H133.936V55.8179H136.358V57.771H122.881V55.8179H125.264V50.4272H122.803V48.4351H136.436ZM127.764 55.8179H131.475V50.4272H127.764V55.8179ZM153.321 46.8726V64.6851H150.841V46.8726H153.321ZM147.813 48.3569V55.2124H141.954V58.4741C144.659 58.4644 146.964 58.3081 149.571 57.8882L149.786 59.8999C146.856 60.4077 144.22 60.5249 140.977 60.5249H139.376V53.2397H145.274V50.3687H139.356V48.3569H147.813ZM164.777 48.4741V60.4077H156.183V48.4741H164.777ZM158.683 50.4272V58.4351H162.355V50.4272H158.683ZM170.187 46.8726V64.6851H167.667V46.8726H170.187ZM177.15 47.8101C179.425 47.8101 181.232 49.1187 181.72 51.0913H184.689V46.8726H187.17V56.9507H184.689V53.103H181.74C181.291 55.0952 179.455 56.4624 177.15 56.4429C174.455 56.4624 172.404 54.646 172.423 52.146C172.404 49.6265 174.455 47.8101 177.15 47.8101ZM177.15 49.8999C175.783 49.8804 174.767 50.7397 174.787 52.146C174.767 53.5327 175.783 54.353 177.15 54.353C178.478 54.353 179.474 53.5327 179.474 52.146C179.474 50.7397 178.478 49.8804 177.15 49.8999ZM187.17 57.7319V64.4507H175.216V57.7319H187.17ZM177.716 59.7046V62.4585H184.728V59.7046H177.716ZM37.3125 84.6812V81.0288H33.6602V78.5874H37.3125V74.9351H39.7539V78.5874H43.4062V81.0288H39.7539V84.6812H37.3125ZM50.0672 86.8491V72.7085H55.6141C58.8367 72.7085 60.6727 74.6812 60.6727 77.4741C60.6727 80.3062 58.7977 82.2397 55.5359 82.2397H52.9969V86.8491H50.0672ZM52.9969 79.8765H55.0672C56.8055 79.8765 57.6453 78.8999 57.6453 77.4741C57.6453 76.0679 56.8055 75.1108 55.0672 75.1108H52.9969V79.8765ZM71.5812 77.6304C71.3469 76.0679 70.1359 75.1108 68.4953 75.1108C66.2883 75.1108 64.843 76.8101 64.843 79.7788C64.843 82.8257 66.3078 84.4468 68.4758 84.4468C70.0969 84.4468 71.2883 83.5483 71.5812 82.0249L74.55 82.0444C74.218 84.6616 72.0305 87.0444 68.4367 87.0444C64.6477 87.0444 61.8547 84.3882 61.8547 79.7788C61.8547 75.1694 64.7062 72.5132 68.4367 72.5132C71.6984 72.5132 74.1594 74.3882 74.55 77.6304H71.5812ZM82.4313 75.7163C82.4313 78.5874 83.8961 81.6538 86.8844 82.9038L85.5367 84.8569C83.4371 83.9683 81.9918 82.2007 81.2008 80.0327C80.3902 82.3862 78.9156 84.3394 76.8258 85.3062L75.4 83.3335C78.3492 82.0249 79.8727 78.7241 79.8727 75.7163V74.6226H76.1031V72.5913H86.1422V74.6226H82.4313V75.7163ZM90.4195 70.8726V88.646H87.9V70.8726H90.4195ZM107.402 82.1812V88.646H104.922V84.1343H95.1953V82.1812H107.402ZM107.402 70.8726V81.3804H104.922V79.1343H100.938C100.088 80.0522 98.8281 80.5991 97.3828 80.5991C94.6875 80.5991 92.6367 78.7437 92.6562 76.1655C92.6367 73.646 94.6875 71.8101 97.3828 71.8296C98.8281 71.8198 100.088 72.3569 100.938 73.2554H104.922V70.8726H107.402ZM97.3828 73.9194C95.9961 73.9194 95 74.7788 95.0195 76.1655C95 77.6304 95.9961 78.4702 97.3828 78.4702C98.6914 78.4702 99.707 77.6304 99.707 76.1655C99.707 74.7788 98.6914 73.9194 97.3828 73.9194ZM101.973 77.1421H104.922V75.2671H101.992C102.041 75.5503 102.07 75.853 102.07 76.1655C102.07 76.5073 102.031 76.8296 101.973 77.1421ZM124.19 70.8726V81.5757H121.69V70.8726H124.19ZM124.19 82.3569V88.646H121.69V84.3491H111.963V82.3569H124.19ZM119.815 71.9077V73.8999H116.241C116.26 75.98 117.569 78.1675 120.479 79.0366L119.209 80.9702C117.217 80.355 115.811 79.0757 115.01 77.4546C114.2 79.2124 112.754 80.6089 110.674 81.3022L109.385 79.3687C112.315 78.4214 113.682 76.1167 113.702 73.8999H110.049V71.9077H119.815ZM135.509 77.2397V79.3687H142.403V81.3804H126.192V79.3687H133.048V77.2397H135.509ZM134.278 82.3569C138.145 82.3569 140.45 83.4702 140.47 85.5015C140.45 87.5327 138.145 88.646 134.278 88.646C130.372 88.646 128.048 87.5327 128.048 85.5015C128.048 83.4702 130.372 82.3569 134.278 82.3569ZM134.278 84.2515C131.798 84.2515 130.567 84.6616 130.587 85.5015C130.567 86.3804 131.798 86.7905 134.278 86.7905C136.7 86.7905 137.95 86.3804 137.97 85.5015C137.95 84.6616 136.7 84.2515 134.278 84.2515ZM140.938 71.6343V73.5874H136.114C136.554 74.8081 138.37 75.9995 141.7 76.3022L140.821 78.2554C137.471 77.9233 135.225 76.6831 134.278 74.9546C133.331 76.6733 131.114 77.9233 127.774 78.2554L126.895 76.3022C130.206 75.9995 132.032 74.8276 132.481 73.5874H127.677V71.6343H140.938ZM162.052 71.3608V73.2163H159.728V75.5601H161.935V77.4155H148.83V75.5601H151.017V73.2163H148.713V71.3608H162.052ZM163.498 78.353V80.3062H147.287V78.353H163.498ZM161.525 81.3218V85.7163H151.623V86.6929H161.994V88.5288H149.181V84.0171H159.064V83.1187H149.162V81.3218H161.525ZM153.517 75.5601H157.228V73.2163H153.517V75.5601ZM171.418 72.5913V79.4468H167.062V82.6304C168.752 82.6108 170.363 82.5425 172.18 82.2593L172.355 84.2515C170.031 84.6421 168.117 84.7007 165.91 84.7007H164.68V77.4546H169.016V74.603H164.66V72.5913H171.418ZM179.543 70.8726V88.646H177.18V79.603H175.461V87.7866H173.176V71.1655H175.461V77.5913H177.18V70.8726H179.543ZM191.077 72.3374V74.3687H184.495V77.2983H190.334V79.2515H184.495V82.6108C187.219 82.5913 189.397 82.4937 191.877 82.103L192.112 84.1147C189.319 84.5249 186.76 84.603 183.557 84.603H182.034V72.3374H191.077ZM195.998 70.8726V88.646H193.479V70.8726H195.998ZM212.923 81.771V88.4507H201.048V81.771H212.923ZM203.509 83.7437V86.4585H210.481V83.7437H203.509ZM201.399 71.8101V78.2554C203.626 78.2261 205.911 78.0503 208.294 77.5718L208.548 79.6616C205.735 80.228 203.079 80.3647 200.423 80.3647H198.938V71.8101H201.399ZM212.923 70.8726V81.0288H210.442V75.8726H206.028V73.8608H210.442V70.8726H212.923Z" fill="#2C3038"/>
<g filter="url(#filter0_d_5675_432457)">
<rect x="245" y="8.69824" width="75" height="31" rx="15.5" fill="#1681FF"/>
<path d="M269.767 21.9262C269.767 22.3702 269.659 22.7782 269.467 23.1502C269.263 23.5342 268.951 23.8342 268.519 24.0622C268.771 24.1462 269.011 24.2542 269.227 24.3862C269.431 24.5302 269.611 24.6982 269.767 24.8902C269.911 25.1062 270.019 25.3462 270.103 25.6102C270.175 25.8862 270.223 26.1982 270.223 26.5342C270.223 26.9662 270.151 27.3262 270.019 27.6382C269.875 27.9502 269.683 28.2022 269.443 28.4182C269.203 28.6102 268.927 28.7662 268.615 28.8742C268.303 28.9702 267.967 29.0182 267.631 29.0182H261.787V19.5742H267.175C267.511 19.5742 267.847 19.6222 268.159 19.7062C268.471 19.8022 268.747 19.9342 268.987 20.1142C269.227 20.3062 269.419 20.5582 269.563 20.8462C269.695 21.1582 269.767 21.5182 269.767 21.9262ZM268.279 26.1622C268.279 25.7542 268.123 25.4182 267.823 25.1542C267.511 24.8902 267.115 24.7342 266.635 24.6742L263.671 25.5382V27.6262H266.755C267.247 27.6262 267.631 27.5062 267.895 27.2542C268.147 27.0142 268.279 26.6422 268.279 26.1622ZM266.887 23.2342C267.223 23.1502 267.487 22.9942 267.667 22.7782C267.835 22.5742 267.931 22.3222 267.931 22.0222C267.931 21.6862 267.823 21.4222 267.607 21.2422C267.379 21.0742 267.115 20.9782 266.815 20.9782H263.671V24.0982L266.887 23.2342ZM278.337 23.4622V24.9262H273.381V27.5662H278.685V29.0182H271.485V19.5742H278.565V21.0382H273.381V23.4622H278.337ZM280.384 26.5102C280.6 26.7022 280.84 26.8582 281.104 27.0022C281.356 27.1462 281.632 27.2782 281.92 27.3742C282.208 27.4822 282.508 27.5542 282.82 27.6022C283.12 27.6622 283.432 27.6862 283.744 27.6742C284.224 27.6742 284.62 27.5782 284.932 27.3982C285.232 27.2302 285.388 26.9422 285.388 26.5582C285.388 26.1262 285.232 25.8022 284.932 25.5742C284.62 25.3582 284.176 25.1902 283.588 25.0462C282.988 24.9262 282.46 24.7702 282.004 24.5902C281.536 24.4222 281.152 24.2062 280.84 23.9662C280.528 23.7262 280.288 23.4502 280.132 23.1262C279.964 22.8142 279.892 22.4422 279.892 22.0102C279.892 21.5542 279.988 21.1582 280.18 20.8222C280.372 20.4982 280.624 20.2222 280.96 19.9942C281.284 19.7782 281.656 19.6102 282.088 19.4902C282.508 19.3942 282.952 19.3342 283.432 19.3342C284.068 19.3342 284.68 19.4422 285.256 19.6342C285.832 19.8502 286.408 20.1262 286.984 20.4862L286.276 21.9142C285.892 21.6382 285.448 21.4102 284.968 21.2182C284.476 21.0382 283.984 20.9422 283.504 20.9182C283.3 20.9182 283.096 20.9302 282.904 20.9542C282.688 20.9902 282.508 21.0502 282.352 21.1222C282.184 21.2062 282.04 21.3142 281.944 21.4462C281.836 21.5902 281.788 21.7582 281.788 21.9502C281.788 22.1302 281.812 22.2862 281.872 22.4062C281.92 22.5502 282.028 22.6702 282.172 22.7662C282.316 22.8862 282.508 22.9822 282.748 23.0782C282.988 23.1742 283.288 23.2702 283.672 23.3662C284.332 23.5462 284.896 23.7262 285.364 23.9182C285.82 24.1222 286.192 24.3382 286.48 24.5782C286.756 24.8302 286.96 25.1062 287.092 25.4182C287.212 25.7302 287.284 26.1022 287.284 26.5102C287.284 26.9662 287.188 27.3502 286.996 27.6862C286.804 28.0222 286.54 28.3102 286.216 28.5502C285.88 28.7782 285.496 28.9582 285.052 29.0782C284.596 29.1982 284.104 29.2582 283.6 29.2582C282.868 29.2582 282.172 29.1262 281.5 28.8862C280.816 28.6342 280.204 28.3222 279.652 27.9382L280.384 26.5102ZM293.12 21.0382V29.0182H291.224V21.0382H288.068V19.5742H296.276V21.0382H293.12ZM299.397 19.5742H302.973V29.0182H301.077V21.0382H299.397V19.5742Z" fill="white"/>
<path d="M302.529 44.4177L304.803 36.1837C304.917 35.7688 305.284 35.4737 305.714 35.4512L313.133 35.0624C314.077 35.0129 314.556 36.1798 313.85 36.8081L304.158 45.431C303.413 46.0933 302.264 45.3783 302.529 44.4177Z" fill="#1681FF"/>
</g>
<path d="M0 2.84912C0 1.74455 0.895431 0.849121 2 0.849121H4V110.849H2C0.895431 110.849 0 109.954 0 108.849V2.84912Z" fill="#1681FF"/>
<rect x="0.5" y="124.349" width="327" height="110" rx="1.5" fill="#E6F4F4"/>
<rect x="0.5" y="124.349" width="327" height="110" rx="1.5" stroke="#D0E8E8"/>
<path d="M45.3281 158.427H32.5156V157.193H38.1562V153.958H33.9844V147.302H43.7969V153.958H39.625V157.193H45.3281V158.427ZM35.4219 152.787H42.3438V148.49H35.4219V152.787ZM56.93 151.599H59.18V152.849H56.93V160.177H55.4456V146.177H56.93V151.599ZM48.0238 150.943H51.7269V147.349H53.1956V156.849H46.555V147.349H48.0238V150.943ZM51.7269 155.63V152.115H48.0238V155.63H51.7269ZM63.5006 146.646C64.1985 146.651 64.8235 146.789 65.3756 147.06C65.9329 147.326 66.3704 147.698 66.6881 148.177C67.0058 148.651 67.1673 149.188 67.1725 149.787C67.1673 150.391 67.0058 150.93 66.6881 151.404C66.3704 151.878 65.9329 152.248 65.3756 152.513C64.8235 152.779 64.1985 152.912 63.5006 152.912C62.7975 152.912 62.1647 152.779 61.6022 152.513C61.0449 152.248 60.6074 151.878 60.2897 151.404C59.972 150.93 59.8131 150.391 59.8131 149.787C59.8131 149.188 59.972 148.651 60.2897 148.177C60.6074 147.698 61.0449 147.326 61.6022 147.06C62.1647 146.789 62.7975 146.651 63.5006 146.646ZM63.5006 147.896C63.0735 147.891 62.6881 147.966 62.3444 148.123C62.0058 148.279 61.7402 148.503 61.5475 148.794C61.3548 149.081 61.261 149.412 61.2663 149.787C61.261 150.167 61.3522 150.503 61.5397 150.794C61.7324 151.086 61.998 151.313 62.3366 151.474C62.6803 151.63 63.0683 151.708 63.5006 151.708C63.9277 151.708 64.3105 151.628 64.6491 151.466C64.9876 151.305 65.2532 151.081 65.4459 150.794C65.6386 150.503 65.735 150.167 65.735 149.787C65.735 149.412 65.6386 149.081 65.4459 148.794C65.2532 148.503 64.985 148.279 64.6413 148.123C64.3027 147.966 63.9225 147.891 63.5006 147.896ZM71.1413 153.302H69.6569V146.177H71.1413V153.302ZM71.1413 157.474H63.4225V158.818H71.61V160.005H61.985V156.365H69.6725V155.13H61.9381V153.943H71.1413V157.474ZM88.2981 154.333H86.8138V150.818H84.1888V149.583H86.8138V146.177H88.2981V154.333ZM88.2981 160.005H79.0638V154.99H88.2981V160.005ZM80.5325 158.802H86.845V156.162H80.5325V158.802ZM81.6419 148.568C81.6419 149.151 81.7773 149.722 82.0481 150.279C82.319 150.836 82.7096 151.333 83.22 151.771C83.7304 152.208 84.3294 152.547 85.0169 152.787L84.2513 153.958C83.4804 153.688 82.8085 153.287 82.2356 152.755C81.6627 152.219 81.22 151.599 80.9075 150.896C80.6002 151.677 80.1445 152.362 79.5403 152.951C78.9414 153.534 78.2304 153.969 77.4075 154.255L76.6419 153.083C77.345 152.844 77.9596 152.492 78.4856 152.029C79.0117 151.565 79.4153 151.034 79.6966 150.435C79.983 149.831 80.1263 149.208 80.1263 148.568V148.24H77.095V147.021H84.6419V148.24H81.6419V148.568ZM102.947 158.427H90.1344V157.177H102.947V158.427ZM101.775 148.74H99.6344V153.412H101.728V154.599H91.2594V153.412H93.3531V148.74H91.2281V147.521H101.775V148.74ZM98.1813 153.412V148.74H94.8219V153.412H98.1813ZM107.518 146.818C108.122 146.813 108.676 146.919 109.182 147.138C109.692 147.357 110.111 147.667 110.439 148.068C110.773 148.464 110.991 148.922 111.096 149.443H113.83V146.177H115.314V153.693H113.83V150.662H111.103C111.004 151.193 110.788 151.662 110.455 152.068C110.127 152.474 109.708 152.789 109.197 153.013C108.692 153.237 108.132 153.349 107.518 153.349C106.809 153.349 106.176 153.211 105.619 152.935C105.062 152.654 104.627 152.266 104.314 151.771C104.002 151.271 103.846 150.703 103.846 150.068C103.846 149.438 104.002 148.875 104.314 148.38C104.632 147.886 105.07 147.5 105.627 147.224C106.184 146.948 106.814 146.813 107.518 146.818ZM107.518 148.052C107.08 148.052 106.689 148.138 106.346 148.31C106.007 148.477 105.741 148.714 105.549 149.021C105.361 149.323 105.268 149.672 105.268 150.068C105.268 150.464 105.361 150.815 105.549 151.123C105.741 151.43 106.007 151.669 106.346 151.841C106.689 152.013 107.08 152.099 107.518 152.099C107.945 152.099 108.325 152.013 108.658 151.841C108.997 151.669 109.26 151.43 109.447 151.123C109.64 150.815 109.736 150.464 109.736 150.068C109.736 149.672 109.643 149.323 109.455 149.021C109.268 148.714 109.004 148.477 108.666 148.31C108.327 148.138 107.945 148.052 107.518 148.052ZM107.658 155.99H113.83V154.365H115.314V160.005H106.189V154.365H107.658V155.99ZM113.83 158.787V157.162H107.658V158.787H113.83ZM124.948 148.537C124.948 149.422 124.924 150.284 124.877 151.123C124.83 151.961 124.718 152.927 124.541 154.021L123.073 153.912C123.229 152.912 123.333 152.018 123.385 151.232C123.437 150.44 123.466 149.656 123.471 148.88H117.791V147.677H124.948V148.537ZM121.354 155.873C123.026 155.81 124.494 155.698 125.76 155.537L125.838 156.646C123.661 156.99 120.994 157.162 117.838 157.162H117.182L117.01 155.958C118.286 155.948 119.244 155.935 119.885 155.919V151.677H121.354V155.873ZM128.057 151.958H130.198V153.224H128.057V160.177H126.557V146.177H128.057V151.958ZM134.886 147.537H138.917C139.766 147.537 140.485 147.695 141.073 148.013C141.662 148.326 142.102 148.758 142.393 149.31C142.69 149.862 142.839 150.495 142.839 151.208C142.839 151.917 142.69 152.547 142.393 153.099C142.102 153.651 141.662 154.086 141.073 154.404C140.485 154.722 139.766 154.88 138.917 154.88H136.604V158.849H134.886V147.537ZM138.745 153.412C139.542 153.412 140.133 153.214 140.518 152.818C140.909 152.417 141.104 151.88 141.104 151.208C141.104 150.531 140.912 149.995 140.526 149.599C140.141 149.203 139.547 149.005 138.745 149.005H136.604V153.412H138.745ZM151.988 151.224C151.894 150.75 151.709 150.344 151.433 150.005C151.157 149.662 150.813 149.401 150.402 149.224C149.995 149.047 149.55 148.958 149.066 148.958C148.409 148.958 147.823 149.125 147.308 149.458C146.792 149.787 146.389 150.268 146.097 150.904C145.805 151.539 145.659 152.302 145.659 153.193C145.659 154.083 145.805 154.849 146.097 155.49C146.394 156.125 146.797 156.607 147.308 156.935C147.823 157.263 148.409 157.427 149.066 157.427C149.545 157.427 149.988 157.341 150.394 157.169C150.8 156.992 151.141 156.737 151.417 156.404C151.698 156.065 151.889 155.662 151.988 155.193L153.722 155.208C153.602 155.948 153.329 156.607 152.902 157.185C152.48 157.758 151.935 158.206 151.269 158.529C150.607 158.847 149.868 159.005 149.05 159.005C148.066 159.005 147.188 158.771 146.417 158.302C145.646 157.833 145.042 157.162 144.605 156.287C144.172 155.406 143.956 154.375 143.956 153.193C143.956 152.011 144.175 150.982 144.613 150.107C145.05 149.227 145.654 148.552 146.425 148.083C147.196 147.615 148.071 147.38 149.05 147.38C149.847 147.38 150.576 147.534 151.238 147.841C151.899 148.143 152.446 148.583 152.878 149.162C153.31 149.74 153.592 150.427 153.722 151.224H151.988ZM159.777 150.302C159.777 151.078 159.933 151.847 160.246 152.607C160.563 153.367 161.001 154.047 161.558 154.646C162.121 155.24 162.756 155.688 163.464 155.99L162.652 157.146C161.834 156.787 161.11 156.245 160.48 155.521C159.85 154.792 159.371 153.956 159.043 153.013C158.714 154.018 158.233 154.919 157.597 155.716C156.967 156.513 156.251 157.11 155.449 157.505L154.589 156.333C155.277 156.011 155.902 155.529 156.464 154.888C157.027 154.242 157.467 153.516 157.785 152.708C158.108 151.896 158.272 151.094 158.277 150.302V148.818H155.074V147.583H162.964V148.818H159.777V150.302ZM166.214 160.177H164.73V146.177H166.214V160.177ZM179.801 160.177H178.316V156.333H170.316V155.162H179.801V160.177ZM179.801 154.427H178.316V152.505H174.863C174.53 152.891 174.113 153.19 173.613 153.404C173.113 153.617 172.566 153.724 171.973 153.724C171.28 153.724 170.657 153.581 170.105 153.294C169.553 153.003 169.118 152.599 168.801 152.083C168.488 151.568 168.332 150.985 168.332 150.333C168.332 149.693 168.488 149.117 168.801 148.607C169.118 148.091 169.553 147.688 170.105 147.396C170.663 147.104 171.285 146.958 171.973 146.958C172.566 146.958 173.113 147.065 173.613 147.279C174.113 147.492 174.53 147.792 174.863 148.177H178.316V146.177H179.801V154.427ZM172.004 148.208C171.571 148.208 171.183 148.3 170.84 148.482C170.501 148.659 170.236 148.909 170.043 149.232C169.85 149.555 169.754 149.922 169.754 150.333C169.754 150.755 169.85 151.128 170.043 151.451C170.236 151.774 170.501 152.026 170.84 152.208C171.183 152.386 171.571 152.474 172.004 152.474C172.426 152.474 172.803 152.386 173.137 152.208C173.475 152.026 173.741 151.774 173.933 151.451C174.126 151.123 174.223 150.75 174.223 150.333C174.223 149.922 174.126 149.555 173.933 149.232C173.741 148.909 173.475 148.659 173.137 148.482C172.798 148.3 172.42 148.208 172.004 148.208ZM178.316 151.287V149.396H175.512C175.6 149.703 175.644 150.016 175.644 150.333C175.644 150.662 175.6 150.979 175.512 151.287H178.316ZM196.895 153.302H195.411V151.958H191.864V150.802H195.411V149.287H192.036C191.609 150.36 190.879 151.258 189.848 151.982C188.822 152.701 187.525 153.245 185.958 153.615L185.442 152.396C187.103 152.031 188.39 151.474 189.301 150.724C190.218 149.974 190.736 149.078 190.856 148.037H186.176V146.818H192.489C192.489 147.266 192.45 147.698 192.372 148.115H195.411V146.177H196.895V153.302ZM196.895 157.443H189.239V158.849H197.317V160.037H187.77V156.318H195.411V155.068H187.739V153.896H196.895V157.443ZM209.731 149.693H211.762V150.943H209.731V154.333H208.247V146.177H209.731V149.693ZM202.247 156.271H208.247V154.912H209.731V160.005H200.778V154.912H202.247V156.271ZM208.247 158.818V157.427H202.247V158.818H208.247ZM207.091 148.74H198.747V147.552H202.184V146.052H203.669V147.552H207.091V148.74ZM202.919 149.318C203.585 149.318 204.174 149.419 204.684 149.623C205.2 149.82 205.598 150.104 205.88 150.474C206.166 150.844 206.309 151.276 206.309 151.771C206.309 152.261 206.166 152.693 205.88 153.068C205.598 153.438 205.2 153.724 204.684 153.927C204.174 154.13 203.585 154.229 202.919 154.224C202.242 154.229 201.645 154.13 201.13 153.927C200.619 153.724 200.221 153.438 199.934 153.068C199.653 152.693 199.512 152.261 199.512 151.771C199.512 151.276 199.653 150.844 199.934 150.474C200.216 150.104 200.614 149.82 201.13 149.623C201.645 149.419 202.242 149.318 202.919 149.318ZM202.919 150.427C202.528 150.422 202.182 150.477 201.88 150.591C201.583 150.701 201.351 150.86 201.184 151.068C201.023 151.271 200.945 151.505 200.95 151.771C200.945 152.042 201.023 152.281 201.184 152.49C201.351 152.693 201.583 152.852 201.88 152.966C202.177 153.076 202.523 153.13 202.919 153.13C203.309 153.13 203.656 153.076 203.958 152.966C204.26 152.852 204.494 152.693 204.661 152.49C204.828 152.281 204.914 152.042 204.919 151.771C204.914 151.5 204.828 151.263 204.661 151.06C204.494 150.857 204.26 150.701 203.958 150.591C203.656 150.477 203.309 150.422 202.919 150.427ZM214.677 155.583H213.13L212.989 147.537H214.818L214.677 155.583ZM213.911 158.958C213.713 158.958 213.526 158.909 213.349 158.81C213.177 158.711 213.041 158.576 212.943 158.404C212.844 158.232 212.797 158.047 212.802 157.849C212.797 157.651 212.844 157.466 212.943 157.294C213.041 157.123 213.177 156.987 213.349 156.888C213.526 156.789 213.713 156.74 213.911 156.74C214.104 156.74 214.286 156.789 214.458 156.888C214.63 156.987 214.765 157.123 214.864 157.294C214.969 157.466 215.021 157.651 215.021 157.849C215.021 158.047 214.969 158.232 214.864 158.404C214.765 158.576 214.63 158.711 214.458 158.81C214.286 158.909 214.104 158.958 213.911 158.958Z" fill="#687183"/>
<path d="M33.1914 171.708H36.8242L40.75 181.298H40.9062L44.832 171.708H48.4648V185.849H45.6133V176.591H45.4961L41.8047 185.791H39.8516L36.1602 176.552H36.043V185.849H33.1914V171.708ZM64.7641 169.873V180.146H62.2836V176.005H59.4711V173.974H62.2836V169.873H64.7641ZM64.7641 180.888V187.451H52.8109V180.888H64.7641ZM55.3109 182.841V185.458H62.3227V182.841H55.3109ZM60.0375 170.771V172.783H56.5023C56.5414 174.804 57.8012 176.962 60.5844 177.88L59.3539 179.853C57.3813 179.199 56.0238 177.91 55.2523 176.298C54.4613 178.076 53.0453 179.492 50.9555 180.166L49.6859 178.212C52.557 177.294 53.8949 175.029 53.9633 172.783H50.3891V170.771H60.0375ZM82.9383 183.505V185.576H66.6688V183.505H82.9383ZM81.5711 171.435V173.427H79.0711V178.818H81.493V180.771H68.0164V178.818H70.3992V173.427H67.9383V171.435H81.5711ZM72.8992 178.818H76.6102V173.427H72.8992V178.818ZM88.5148 170.634C90.7902 170.615 92.5969 171.914 93.0852 173.818H96.0539V169.873H98.5344V179.423H96.0539V175.81H93.1047C92.6359 177.763 90.8098 179.091 88.5148 179.091C85.7805 179.091 83.7687 177.314 83.7883 174.833C83.7687 172.392 85.7805 170.615 88.5148 170.634ZM88.5148 172.705C87.1281 172.685 86.132 173.505 86.1516 174.833C86.132 176.162 87.1281 177.001 88.5148 177.001C89.8625 177.001 90.8391 176.162 90.8391 174.833C90.8391 173.505 89.8625 172.685 88.5148 172.705ZM89.1398 180.205V181.923H96.0539V180.205H98.5344V187.451H86.6789V180.205H89.1398ZM89.1398 185.439H96.0539V183.837H89.1398V185.439ZM105 183.349V181.025L110.977 171.708H114.668V180.986H116.465V183.349H114.668V185.849H111.875V183.349H105ZM107.969 180.986H111.914V174.931H111.777L107.969 180.869V180.986ZM132.334 169.873V187.646H129.854V169.873H132.334ZM117.471 182.626C118.829 182.617 120.381 182.617 122.002 182.568V181.064C120.049 180.722 118.78 179.511 118.799 177.841C118.78 175.849 120.596 174.501 123.213 174.501C125.85 174.501 127.686 175.849 127.686 177.841C127.686 179.501 126.416 180.712 124.463 181.064V182.49C125.948 182.421 127.452 182.304 128.877 182.119L129.053 183.955C125.166 184.619 120.967 184.658 117.803 184.658L117.471 182.626ZM128.623 171.845V173.798H117.823V171.845H122.002V169.951H124.483V171.845H128.623ZM123.213 176.396C122.002 176.396 121.143 176.923 121.162 177.841C121.143 178.779 122.002 179.287 123.213 179.287C124.463 179.287 125.303 178.779 125.303 177.841C125.303 176.923 124.463 176.396 123.213 176.396ZM37.3125 207.681V204.029H33.6602V201.587H37.3125V197.935H39.7539V201.587H43.4062V204.029H39.7539V207.681H37.3125ZM50.0672 209.849V195.708H55.6141C58.8367 195.708 60.6727 197.681 60.6727 200.474C60.6727 203.306 58.7977 205.24 55.5359 205.24H52.9969V209.849H50.0672ZM52.9969 202.876H55.0672C56.8055 202.876 57.6453 201.9 57.6453 200.474C57.6453 199.068 56.8055 198.111 55.0672 198.111H52.9969V202.876ZM71.5812 200.63C71.3469 199.068 70.1359 198.111 68.4953 198.111C66.2883 198.111 64.843 199.81 64.843 202.779C64.843 205.826 66.3078 207.447 68.4758 207.447C70.0969 207.447 71.2883 206.548 71.5812 205.025L74.55 205.044C74.218 207.662 72.0305 210.044 68.4367 210.044C64.6477 210.044 61.8547 207.388 61.8547 202.779C61.8547 198.169 64.7062 195.513 68.4367 195.513C71.6984 195.513 74.1594 197.388 74.55 200.63H71.5812ZM82.4313 198.716C82.4313 201.587 83.8961 204.654 86.8844 205.904L85.5367 207.857C83.4371 206.968 81.9918 205.201 81.2008 203.033C80.3902 205.386 78.9156 207.339 76.8258 208.306L75.4 206.333C78.3492 205.025 79.8727 201.724 79.8727 198.716V197.623H76.1031V195.591H86.1422V197.623H82.4313V198.716ZM90.4195 193.873V211.646H87.9V193.873H90.4195ZM107.402 205.181V211.646H104.922V207.134H95.1953V205.181H107.402ZM107.402 193.873V204.38H104.922V202.134H100.938C100.088 203.052 98.8281 203.599 97.3828 203.599C94.6875 203.599 92.6367 201.744 92.6562 199.166C92.6367 196.646 94.6875 194.81 97.3828 194.83C98.8281 194.82 100.088 195.357 100.938 196.255H104.922V193.873H107.402ZM97.3828 196.919C95.9961 196.919 95 197.779 95.0195 199.166C95 200.63 95.9961 201.47 97.3828 201.47C98.6914 201.47 99.707 200.63 99.707 199.166C99.707 197.779 98.6914 196.919 97.3828 196.919ZM101.973 200.142H104.922V198.267H101.992C102.041 198.55 102.07 198.853 102.07 199.166C102.07 199.507 102.031 199.83 101.973 200.142ZM124.19 193.873V204.576H121.69V193.873H124.19ZM124.19 205.357V211.646H121.69V207.349H111.963V205.357H124.19ZM119.815 194.908V196.9H116.241C116.26 198.98 117.569 201.167 120.479 202.037L119.209 203.97C117.217 203.355 115.811 202.076 115.01 200.455C114.2 202.212 112.754 203.609 110.674 204.302L109.385 202.369C112.315 201.421 113.682 199.117 113.702 196.9H110.049V194.908H119.815ZM135.509 200.24V202.369H142.403V204.38H126.192V202.369H133.048V200.24H135.509ZM134.278 205.357C138.145 205.357 140.45 206.47 140.47 208.501C140.45 210.533 138.145 211.646 134.278 211.646C130.372 211.646 128.048 210.533 128.048 208.501C128.048 206.47 130.372 205.357 134.278 205.357ZM134.278 207.251C131.798 207.251 130.567 207.662 130.587 208.501C130.567 209.38 131.798 209.791 134.278 209.791C136.7 209.791 137.95 209.38 137.97 208.501C137.95 207.662 136.7 207.251 134.278 207.251ZM140.938 194.634V196.587H136.114C136.554 197.808 138.37 199 141.7 199.302L140.821 201.255C137.471 200.923 135.225 199.683 134.278 197.955C133.331 199.673 131.114 200.923 127.774 201.255L126.895 199.302C130.206 199 132.032 197.828 132.481 196.587H127.677V194.634H140.938ZM162.052 194.361V196.216H159.728V198.56H161.935V200.416H148.83V198.56H151.017V196.216H148.713V194.361H162.052ZM163.498 201.353V203.306H147.287V201.353H163.498ZM161.525 204.322V208.716H151.623V209.693H161.994V211.529H149.181V207.017H159.064V206.119H149.162V204.322H161.525ZM153.517 198.56H157.228V196.216H153.517V198.56ZM171.418 195.591V202.447H167.062V205.63C168.752 205.611 170.363 205.542 172.18 205.259L172.355 207.251C170.031 207.642 168.117 207.701 165.91 207.701H164.68V200.455H169.016V197.603H164.66V195.591H171.418ZM179.543 193.873V211.646H177.18V202.603H175.461V210.787H173.176V194.166H175.461V200.591H177.18V193.873H179.543ZM191.077 195.337V197.369H184.495V200.298H190.334V202.251H184.495V205.611C187.219 205.591 189.397 205.494 191.877 205.103L192.112 207.115C189.319 207.525 186.76 207.603 183.557 207.603H182.034V195.337H191.077ZM195.998 193.873V211.646H193.479V193.873H195.998ZM212.923 204.771V211.451H201.048V204.771H212.923ZM203.509 206.744V209.458H210.481V206.744H203.509ZM201.399 194.81V201.255C203.626 201.226 205.911 201.05 208.294 200.572L208.548 202.662C205.735 203.228 203.079 203.365 200.423 203.365H198.938V194.81H201.399ZM212.923 193.873V204.029H210.442V198.873H206.028V196.861H210.442V193.873H212.923Z" fill="#2C3038"/>
<g filter="url(#filter1_d_5675_432457)">
<rect x="245" y="131.698" width="75" height="31" rx="15.5" fill="#26BCBC"/>
<path d="M267.904 144.926C267.904 145.37 267.796 145.778 267.604 146.15C267.4 146.534 267.088 146.834 266.656 147.062C266.908 147.146 267.148 147.254 267.364 147.386C267.568 147.53 267.748 147.698 267.904 147.89C268.048 148.106 268.156 148.346 268.24 148.61C268.312 148.886 268.36 149.198 268.36 149.534C268.36 149.966 268.288 150.326 268.156 150.638C268.012 150.95 267.82 151.202 267.58 151.418C267.34 151.61 267.064 151.766 266.752 151.874C266.44 151.97 266.104 152.018 265.768 152.018H259.924V142.574H265.312C265.648 142.574 265.984 142.622 266.296 142.706C266.608 142.802 266.884 142.934 267.124 143.114C267.364 143.306 267.556 143.558 267.7 143.846C267.832 144.158 267.904 144.518 267.904 144.926ZM266.416 149.162C266.416 148.754 266.26 148.418 265.96 148.154C265.648 147.89 265.252 147.734 264.772 147.674L261.808 148.538V150.626H264.892C265.384 150.626 265.768 150.506 266.032 150.254C266.284 150.014 266.416 149.642 266.416 149.162ZM265.024 146.234C265.36 146.15 265.624 145.994 265.804 145.778C265.972 145.574 266.068 145.322 266.068 145.022C266.068 144.686 265.96 144.422 265.744 144.242C265.516 144.074 265.252 143.978 264.952 143.978H261.808V147.098L265.024 146.234ZM276.473 146.462V147.926H271.517V150.566H276.821V152.018H269.621V142.574H276.701V144.038H271.517V146.462H276.473ZM278.521 149.51C278.737 149.702 278.977 149.858 279.241 150.002C279.493 150.146 279.769 150.278 280.057 150.374C280.345 150.482 280.645 150.554 280.957 150.602C281.257 150.662 281.569 150.686 281.881 150.674C282.361 150.674 282.757 150.578 283.069 150.398C283.369 150.23 283.525 149.942 283.525 149.558C283.525 149.126 283.369 148.802 283.069 148.574C282.757 148.358 282.313 148.19 281.725 148.046C281.125 147.926 280.597 147.77 280.141 147.59C279.673 147.422 279.289 147.206 278.977 146.966C278.665 146.726 278.425 146.45 278.269 146.126C278.101 145.814 278.029 145.442 278.029 145.01C278.029 144.554 278.125 144.158 278.317 143.822C278.509 143.498 278.761 143.222 279.097 142.994C279.421 142.778 279.793 142.61 280.225 142.49C280.645 142.394 281.089 142.334 281.569 142.334C282.205 142.334 282.817 142.442 283.393 142.634C283.969 142.85 284.545 143.126 285.121 143.486L284.413 144.914C284.029 144.638 283.585 144.41 283.105 144.218C282.613 144.038 282.121 143.942 281.641 143.918C281.437 143.918 281.233 143.93 281.041 143.954C280.825 143.99 280.645 144.05 280.489 144.122C280.321 144.206 280.177 144.314 280.081 144.446C279.973 144.59 279.925 144.758 279.925 144.95C279.925 145.13 279.949 145.286 280.009 145.406C280.057 145.55 280.165 145.67 280.309 145.766C280.453 145.886 280.645 145.982 280.885 146.078C281.125 146.174 281.425 146.27 281.809 146.366C282.469 146.546 283.033 146.726 283.501 146.918C283.957 147.122 284.329 147.338 284.617 147.578C284.893 147.83 285.097 148.106 285.229 148.418C285.349 148.73 285.421 149.102 285.421 149.51C285.421 149.966 285.325 150.35 285.133 150.686C284.941 151.022 284.677 151.31 284.353 151.55C284.017 151.778 283.633 151.958 283.189 152.078C282.733 152.198 282.241 152.258 281.737 152.258C281.005 152.258 280.309 152.126 279.637 151.886C278.953 151.634 278.341 151.322 277.789 150.938L278.521 149.51ZM291.256 144.038V152.018H289.36V144.038H286.204V142.574H294.412V144.038H291.256ZM298.002 152.018V150.914L301.098 148.202C301.362 147.962 301.614 147.734 301.854 147.494C302.07 147.266 302.274 147.038 302.442 146.798C302.61 146.57 302.742 146.342 302.838 146.102C302.934 145.874 302.982 145.646 302.982 145.406C302.982 144.914 302.838 144.518 302.562 144.23C302.274 143.954 301.89 143.81 301.386 143.81C300.906 143.81 300.486 143.99 300.102 144.338C299.718 144.698 299.418 145.166 299.214 145.718L297.75 144.914C297.882 144.542 298.062 144.194 298.29 143.87C298.506 143.558 298.782 143.294 299.106 143.054C299.418 142.838 299.778 142.658 300.186 142.526C300.594 142.406 301.05 142.346 301.554 142.346C301.986 142.346 302.418 142.406 302.826 142.526C303.222 142.658 303.582 142.85 303.894 143.09C304.194 143.354 304.434 143.666 304.614 144.05C304.782 144.446 304.854 144.902 304.842 145.43C304.83 145.718 304.77 146.006 304.662 146.294C304.542 146.606 304.386 146.906 304.194 147.206C303.99 147.518 303.762 147.818 303.498 148.106C303.234 148.418 302.946 148.706 302.634 148.97L300.81 150.566H305.214V152.018H298.002Z" fill="white"/>
<path d="M302.529 167.418L304.803 159.184C304.917 158.769 305.284 158.474 305.714 158.451L313.133 158.062C314.077 158.013 314.556 159.18 313.85 159.808L304.158 168.431C303.413 169.093 302.264 168.378 302.529 167.418Z" fill="#26BCBC"/>
</g>
<path d="M0 125.849C0 124.745 0.895431 123.849 2 123.849H4V233.849H2C0.895431 233.849 0 232.954 0 231.849V125.849Z" fill="#26BCBC"/>
<rect x="0.5" y="247.349" width="327" height="110" rx="1.5" fill="#F5F7FA"/>
<rect x="0.5" y="247.349" width="327" height="110" rx="1.5" stroke="#E8ECF5"/>
<path d="M44.1875 277.333H42.7031V273.818H40.0781V272.583H42.7031V269.177H44.1875V277.333ZM44.1875 283.005H34.9531V277.99H44.1875V283.005ZM36.4219 281.802H42.7344V279.162H36.4219V281.802ZM37.5312 271.568C37.5312 272.151 37.6667 272.722 37.9375 273.279C38.2083 273.836 38.599 274.333 39.1094 274.771C39.6198 275.208 40.2188 275.547 40.9062 275.787L40.1406 276.958C39.3698 276.688 38.6979 276.287 38.125 275.755C37.5521 275.219 37.1094 274.599 36.7969 273.896C36.4896 274.677 36.0339 275.362 35.4297 275.951C34.8307 276.534 34.1198 276.969 33.2969 277.255L32.5312 276.083C33.2344 275.844 33.849 275.492 34.375 275.029C34.901 274.565 35.3047 274.034 35.5859 273.435C35.8724 272.831 36.0156 272.208 36.0156 271.568V271.24H32.9844V270.021H40.5312V271.24H37.5312V271.568ZM58.8363 281.427H46.0238V280.177H58.8363V281.427ZM57.6644 271.74H55.5238V276.412H57.6175V277.599H47.1488V276.412H49.2425V271.74H47.1175V270.521H57.6644V271.74ZM54.0706 276.412V271.74H50.7113V276.412H54.0706ZM63.4069 269.818C64.011 269.813 64.5657 269.919 65.0709 270.138C65.5814 270.357 66.0006 270.667 66.3288 271.068C66.6621 271.464 66.8808 271.922 66.985 272.443H69.7194V269.177H71.2038V276.693H69.7194V273.662H66.9928C66.8939 274.193 66.6777 274.662 66.3444 275.068C66.0163 275.474 65.597 275.789 65.0866 276.013C64.5814 276.237 64.0215 276.349 63.4069 276.349C62.6985 276.349 62.0657 276.211 61.5084 275.935C60.9511 275.654 60.5163 275.266 60.2038 274.771C59.8913 274.271 59.735 273.703 59.735 273.068C59.735 272.438 59.8913 271.875 60.2038 271.38C60.5215 270.886 60.959 270.5 61.5163 270.224C62.0735 269.948 62.7038 269.813 63.4069 269.818ZM63.4069 271.052C62.9694 271.052 62.5788 271.138 62.235 271.31C61.8965 271.477 61.6308 271.714 61.4381 272.021C61.2506 272.323 61.1569 272.672 61.1569 273.068C61.1569 273.464 61.2506 273.815 61.4381 274.123C61.6308 274.43 61.8965 274.669 62.235 274.841C62.5788 275.013 62.9694 275.099 63.4069 275.099C63.834 275.099 64.2142 275.013 64.5475 274.841C64.886 274.669 65.1491 274.43 65.3366 274.123C65.5293 273.815 65.6256 273.464 65.6256 273.068C65.6256 272.672 65.5319 272.323 65.3444 272.021C65.1569 271.714 64.8939 271.477 64.5553 271.31C64.2168 271.138 63.834 271.052 63.4069 271.052ZM63.5475 278.99H69.7194V277.365H71.2038V283.005H62.0788V277.365H63.5475V278.99ZM69.7194 281.787V280.162H63.5475V281.787H69.7194ZM88.7513 272.365H77.2356V271.162H82.2669V269.38H83.7356V271.162H88.7513V272.365ZM89.4388 281.63H76.6263V280.427H79.9075V277.927C79.3971 277.703 79.0065 277.414 78.7356 277.06C78.4648 276.701 78.3294 276.287 78.3294 275.818C78.3294 275.266 78.5169 274.792 78.8919 274.396C79.2669 273.995 79.8059 273.69 80.5091 273.482C81.2122 273.274 82.0429 273.172 83.0013 273.177C83.9544 273.172 84.7799 273.274 85.4778 273.482C86.1809 273.69 86.72 273.995 87.095 274.396C87.47 274.792 87.6575 275.266 87.6575 275.818C87.6575 276.287 87.5221 276.701 87.2513 277.06C86.9804 277.414 86.5898 277.703 86.0794 277.927V280.427H89.4388V281.63ZM83.0013 274.318C82.0013 274.318 81.2226 274.451 80.6653 274.716C80.1132 274.977 79.8398 275.344 79.845 275.818C79.8398 276.287 80.1132 276.651 80.6653 276.912C81.2226 277.172 82.0013 277.302 83.0013 277.302C83.9856 277.302 84.7539 277.172 85.3059 276.912C85.8632 276.651 86.1419 276.287 86.1419 275.818C86.1419 275.344 85.8658 274.977 85.3138 274.716C84.7617 274.451 83.9908 274.318 83.0013 274.318ZM84.6263 280.427V278.341C84.1367 278.419 83.595 278.458 83.0013 278.458C82.4127 278.458 81.8763 278.419 81.3919 278.341V280.427H84.6263ZM97.9313 271.537C97.9313 272.422 97.9078 273.284 97.8609 274.123C97.8141 274.961 97.7021 275.927 97.525 277.021L96.0563 276.912C96.2125 275.912 96.3167 275.018 96.3688 274.232C96.4208 273.44 96.4495 272.656 96.4547 271.88H90.775V270.677H97.9313V271.537ZM94.3375 278.873C96.0094 278.81 97.4781 278.698 98.7438 278.537L98.8219 279.646C96.6448 279.99 93.9781 280.162 90.8219 280.162H90.1656L89.9938 278.958C91.2698 278.948 92.2281 278.935 92.8688 278.919V274.677H94.3375V278.873ZM101.041 274.958H103.181V276.224H101.041V283.177H99.5406V269.177H101.041V274.958ZM118.901 276.302H117.416V274.958H113.869V273.802H117.416V272.287H114.041C113.614 273.36 112.885 274.258 111.854 274.982C110.828 275.701 109.531 276.245 107.963 276.615L107.448 275.396C109.109 275.031 110.395 274.474 111.307 273.724C112.224 272.974 112.742 272.078 112.862 271.037H108.182V269.818H114.494C114.494 270.266 114.455 270.698 114.377 271.115H117.416V269.177H118.901V276.302ZM118.901 280.443H111.244V281.849H119.323V283.037H109.776V279.318H117.416V278.068H109.744V276.896H118.901V280.443ZM131.737 272.693H133.768V273.943H131.737V277.333H130.253V269.177H131.737V272.693ZM124.253 279.271H130.253V277.912H131.737V283.005H122.784V277.912H124.253V279.271ZM130.253 281.818V280.427H124.253V281.818H130.253ZM129.096 271.74H120.753V270.552H124.19V269.052H125.674V270.552H129.096V271.74ZM124.924 272.318C125.591 272.318 126.18 272.419 126.69 272.623C127.206 272.82 127.604 273.104 127.885 273.474C128.172 273.844 128.315 274.276 128.315 274.771C128.315 275.261 128.172 275.693 127.885 276.068C127.604 276.438 127.206 276.724 126.69 276.927C126.18 277.13 125.591 277.229 124.924 277.224C124.247 277.229 123.651 277.13 123.135 276.927C122.625 276.724 122.226 276.438 121.94 276.068C121.659 275.693 121.518 275.261 121.518 274.771C121.518 274.276 121.659 273.844 121.94 273.474C122.221 273.104 122.62 272.82 123.135 272.623C123.651 272.419 124.247 272.318 124.924 272.318ZM124.924 273.427C124.534 273.422 124.187 273.477 123.885 273.591C123.588 273.701 123.357 273.86 123.19 274.068C123.029 274.271 122.95 274.505 122.956 274.771C122.95 275.042 123.029 275.281 123.19 275.49C123.357 275.693 123.588 275.852 123.885 275.966C124.182 276.076 124.529 276.13 124.924 276.13C125.315 276.13 125.661 276.076 125.963 275.966C126.266 275.852 126.5 275.693 126.667 275.49C126.833 275.281 126.919 275.042 126.924 274.771C126.919 274.5 126.833 274.263 126.667 274.06C126.5 273.857 126.266 273.701 125.963 273.591C125.661 273.477 125.315 273.422 124.924 273.427ZM136.683 278.583H135.136L134.995 270.537H136.823L136.683 278.583ZM135.917 281.958C135.719 281.958 135.531 281.909 135.354 281.81C135.183 281.711 135.047 281.576 134.948 281.404C134.849 281.232 134.802 281.047 134.808 280.849C134.802 280.651 134.849 280.466 134.948 280.294C135.047 280.123 135.183 279.987 135.354 279.888C135.531 279.789 135.719 279.74 135.917 279.74C136.11 279.74 136.292 279.789 136.464 279.888C136.636 279.987 136.771 280.123 136.87 280.294C136.974 280.466 137.026 280.651 137.026 280.849C137.026 281.047 136.974 281.232 136.87 281.404C136.771 281.576 136.636 281.711 136.464 281.81C136.292 281.909 136.11 281.958 135.917 281.958Z" fill="#687183"/>
<path d="M33.1914 294.708H36.8242L40.75 304.298H40.9062L44.832 294.708H48.4648V308.849H45.6133V299.591H45.4961L41.8047 308.791H39.8516L36.1602 299.552H36.043V308.849H33.1914V294.708ZM64.7641 292.873V303.146H62.2836V299.005H59.4711V296.974H62.2836V292.873H64.7641ZM64.7641 303.888V310.451H52.8109V303.888H64.7641ZM55.3109 305.841V308.458H62.3227V305.841H55.3109ZM60.0375 293.771V295.783H56.5023C56.5414 297.804 57.8012 299.962 60.5844 300.88L59.3539 302.853C57.3813 302.199 56.0238 300.91 55.2523 299.298C54.4613 301.076 53.0453 302.492 50.9555 303.166L49.6859 301.212C52.557 300.294 53.8949 298.029 53.9633 295.783H50.3891V293.771H60.0375ZM82.9383 306.505V308.576H66.6688V306.505H82.9383ZM81.5711 294.435V296.427H79.0711V301.818H81.493V303.771H68.0164V301.818H70.3992V296.427H67.9383V294.435H81.5711ZM72.8992 301.818H76.6102V296.427H72.8992V301.818ZM88.5148 293.634C90.7902 293.615 92.5969 294.914 93.0852 296.818H96.0539V292.873H98.5344V302.423H96.0539V298.81H93.1047C92.6359 300.763 90.8098 302.091 88.5148 302.091C85.7805 302.091 83.7687 300.314 83.7883 297.833C83.7687 295.392 85.7805 293.615 88.5148 293.634ZM88.5148 295.705C87.1281 295.685 86.132 296.505 86.1516 297.833C86.132 299.162 87.1281 300.001 88.5148 300.001C89.8625 300.001 90.8391 299.162 90.8391 297.833C90.8391 296.505 89.8625 295.685 88.5148 295.705ZM89.1398 303.205V304.923H96.0539V303.205H98.5344V310.451H86.6789V303.205H89.1398ZM89.1398 308.439H96.0539V306.837H89.1398V308.439ZM105.234 308.849L105.215 306.72L110.293 302.052C111.621 300.783 112.324 300.001 112.324 298.888C112.324 297.638 111.367 296.857 110.078 296.857C108.75 296.857 107.891 297.697 107.891 299.044H105.098C105.078 296.271 107.129 294.513 110.117 294.513C113.145 294.513 115.156 296.232 115.156 298.693C115.156 300.294 114.375 301.623 111.465 304.259L109.316 306.349V306.427H115.352V308.849H105.234ZM131.397 292.873V310.646H128.916V292.873H131.397ZM116.534 305.626C117.891 305.617 119.444 305.617 121.065 305.568V304.064C119.112 303.722 117.842 302.511 117.862 300.841C117.842 298.849 119.659 297.501 122.276 297.501C124.912 297.501 126.748 298.849 126.748 300.841C126.748 302.501 125.479 303.712 123.526 304.064V305.49C125.01 305.421 126.514 305.304 127.94 305.119L128.116 306.955C124.229 307.619 120.03 307.658 116.866 307.658L116.534 305.626ZM127.686 294.845V296.798H116.885V294.845H121.065V292.951H123.545V294.845H127.686ZM122.276 299.396C121.065 299.396 120.205 299.923 120.225 300.841C120.205 301.779 121.065 302.287 122.276 302.287C123.526 302.287 124.366 301.779 124.366 300.841C124.366 299.923 123.526 299.396 122.276 299.396ZM37.3125 330.681V327.029H33.6602V324.587H37.3125V320.935H39.7539V324.587H43.4062V327.029H39.7539V330.681H37.3125ZM50.0672 332.849V318.708H55.6141C58.8367 318.708 60.6727 320.681 60.6727 323.474C60.6727 326.306 58.7977 328.24 55.5359 328.24H52.9969V332.849H50.0672ZM52.9969 325.876H55.0672C56.8055 325.876 57.6453 324.9 57.6453 323.474C57.6453 322.068 56.8055 321.111 55.0672 321.111H52.9969V325.876ZM71.5812 323.63C71.3469 322.068 70.1359 321.111 68.4953 321.111C66.2883 321.111 64.843 322.81 64.843 325.779C64.843 328.826 66.3078 330.447 68.4758 330.447C70.0969 330.447 71.2883 329.548 71.5812 328.025L74.55 328.044C74.218 330.662 72.0305 333.044 68.4367 333.044C64.6477 333.044 61.8547 330.388 61.8547 325.779C61.8547 321.169 64.7062 318.513 68.4367 318.513C71.6984 318.513 74.1594 320.388 74.55 323.63H71.5812ZM90.5172 316.873V327.146H88.0367V323.005H85.2242V320.974H88.0367V316.873H90.5172ZM90.5172 327.888V334.451H78.5641V327.888H90.5172ZM81.0641 329.841V332.458H88.0758V329.841H81.0641ZM85.7906 317.771V319.783H82.2555C82.2945 321.804 83.5543 323.962 86.3375 324.88L85.107 326.853C83.1344 326.199 81.777 324.91 81.0055 323.298C80.2145 325.076 78.7984 326.492 76.7086 327.166L75.4391 325.212C78.3102 324.294 79.648 322.029 79.7164 319.783H76.1422V317.771H85.7906ZM108.691 330.505V332.576H92.4219V330.505H108.691ZM107.324 318.435V320.427H104.824V325.818H107.246V327.771H93.7695V325.818H96.1523V320.427H93.6914V318.435H107.324ZM98.6523 325.818H102.363V320.427H98.6523V325.818ZM114.268 317.634C116.543 317.615 118.35 318.914 118.838 320.818H121.807V316.873H124.287V326.423H121.807V322.81H118.858C118.389 324.763 116.563 326.091 114.268 326.091C111.534 326.091 109.522 324.314 109.541 321.833C109.522 319.392 111.534 317.615 114.268 317.634ZM114.268 319.705C112.881 319.685 111.885 320.505 111.905 321.833C111.885 323.162 112.881 324.001 114.268 324.001C115.616 324.001 116.592 323.162 116.592 321.833C116.592 320.505 115.616 319.685 114.268 319.705ZM114.893 327.205V328.923H121.807V327.205H124.287V334.451H112.432V327.205H114.893ZM114.893 332.439H121.807V330.837H114.893V332.439ZM130.988 332.849L130.968 330.72L136.046 326.052C137.374 324.783 138.077 324.001 138.077 322.888C138.077 321.638 137.12 320.857 135.831 320.857C134.503 320.857 133.644 321.697 133.644 323.044H130.851C130.831 320.271 132.882 318.513 135.87 318.513C138.898 318.513 140.909 320.232 140.909 322.693C140.909 324.294 140.128 325.623 137.218 328.259L135.07 330.349V330.427H141.105V332.849H130.988ZM157.15 316.873V334.646H154.67V316.873H157.15ZM142.287 329.626C143.644 329.617 145.197 329.617 146.818 329.568V328.064C144.865 327.722 143.595 326.511 143.615 324.841C143.595 322.849 145.412 321.501 148.029 321.501C150.666 321.501 152.502 322.849 152.502 324.841C152.502 326.501 151.232 327.712 149.279 328.064V329.49C150.763 329.421 152.267 329.304 153.693 329.119L153.869 330.955C149.982 331.619 145.783 331.658 142.619 331.658L142.287 329.626ZM153.439 318.845V320.798H142.638V318.845H146.818V316.951H149.298V318.845H153.439ZM148.029 323.396C146.818 323.396 145.959 323.923 145.978 324.841C145.959 325.779 146.818 326.287 148.029 326.287C149.279 326.287 150.119 325.779 150.119 324.841C150.119 323.923 149.279 323.396 148.029 323.396Z" fill="#2C3038"/>
<g filter="url(#filter2_d_5675_432457)">
<rect x="245" y="254.698" width="75" height="31" rx="15.5" fill="#6B7486"/>
<path d="M267.962 267.926C267.962 268.37 267.854 268.778 267.662 269.15C267.458 269.534 267.146 269.834 266.714 270.062C266.966 270.146 267.206 270.254 267.422 270.386C267.626 270.53 267.806 270.698 267.962 270.89C268.106 271.106 268.214 271.346 268.298 271.61C268.37 271.886 268.418 272.198 268.418 272.534C268.418 272.966 268.346 273.326 268.214 273.638C268.07 273.95 267.878 274.202 267.638 274.418C267.398 274.61 267.122 274.766 266.81 274.874C266.498 274.97 266.162 275.018 265.826 275.018H259.982V265.574H265.37C265.706 265.574 266.042 265.622 266.354 265.706C266.666 265.802 266.942 265.934 267.182 266.114C267.422 266.306 267.614 266.558 267.758 266.846C267.89 267.158 267.962 267.518 267.962 267.926ZM266.474 272.162C266.474 271.754 266.318 271.418 266.018 271.154C265.706 270.89 265.31 270.734 264.83 270.674L261.866 271.538V273.626H264.95C265.442 273.626 265.826 273.506 266.09 273.254C266.342 273.014 266.474 272.642 266.474 272.162ZM265.082 269.234C265.418 269.15 265.682 268.994 265.862 268.778C266.03 268.574 266.126 268.322 266.126 268.022C266.126 267.686 266.018 267.422 265.802 267.242C265.574 267.074 265.31 266.978 265.01 266.978H261.866V270.098L265.082 269.234ZM276.532 269.462V270.926H271.576V273.566H276.88V275.018H269.68V265.574H276.76V267.038H271.576V269.462H276.532ZM278.579 272.51C278.795 272.702 279.035 272.858 279.299 273.002C279.551 273.146 279.827 273.278 280.115 273.374C280.403 273.482 280.703 273.554 281.015 273.602C281.315 273.662 281.627 273.686 281.939 273.674C282.419 273.674 282.815 273.578 283.127 273.398C283.427 273.23 283.583 272.942 283.583 272.558C283.583 272.126 283.427 271.802 283.127 271.574C282.815 271.358 282.371 271.19 281.783 271.046C281.183 270.926 280.655 270.77 280.199 270.59C279.731 270.422 279.347 270.206 279.035 269.966C278.723 269.726 278.483 269.45 278.327 269.126C278.159 268.814 278.087 268.442 278.087 268.01C278.087 267.554 278.183 267.158 278.375 266.822C278.567 266.498 278.819 266.222 279.155 265.994C279.479 265.778 279.851 265.61 280.283 265.49C280.703 265.394 281.147 265.334 281.627 265.334C282.263 265.334 282.875 265.442 283.451 265.634C284.027 265.85 284.603 266.126 285.179 266.486L284.471 267.914C284.087 267.638 283.643 267.41 283.163 267.218C282.671 267.038 282.179 266.942 281.699 266.918C281.495 266.918 281.291 266.93 281.099 266.954C280.883 266.99 280.703 267.05 280.547 267.122C280.379 267.206 280.235 267.314 280.139 267.446C280.031 267.59 279.983 267.758 279.983 267.95C279.983 268.13 280.007 268.286 280.067 268.406C280.115 268.55 280.223 268.67 280.367 268.766C280.511 268.886 280.703 268.982 280.943 269.078C281.183 269.174 281.483 269.27 281.867 269.366C282.527 269.546 283.091 269.726 283.559 269.918C284.015 270.122 284.387 270.338 284.675 270.578C284.951 270.83 285.155 271.106 285.287 271.418C285.407 271.73 285.479 272.102 285.479 272.51C285.479 272.966 285.383 273.35 285.191 273.686C284.999 274.022 284.735 274.31 284.411 274.55C284.075 274.778 283.691 274.958 283.247 275.078C282.791 275.198 282.299 275.258 281.795 275.258C281.063 275.258 280.367 275.126 279.695 274.886C279.011 274.634 278.399 274.322 277.847 273.938L278.579 272.51ZM291.315 267.038V275.018H289.419V267.038H286.263V265.574H294.471V267.038H291.315ZM298.049 267.53C298.169 267.194 298.337 266.882 298.565 266.606C298.781 266.342 299.045 266.114 299.357 265.922C299.645 265.742 299.981 265.598 300.353 265.49C300.713 265.394 301.085 265.346 301.493 265.346C302.021 265.346 302.501 265.418 302.945 265.55C303.377 265.694 303.749 265.886 304.061 266.126C304.373 266.378 304.613 266.666 304.793 266.99C304.961 267.326 305.057 267.686 305.057 268.07C305.057 268.562 304.937 268.994 304.721 269.366C304.481 269.75 304.145 270.014 303.689 270.17C304.145 270.326 304.529 270.59 304.853 270.95C305.165 271.334 305.321 271.802 305.321 272.354C305.321 272.81 305.225 273.206 305.045 273.566C304.853 273.926 304.589 274.226 304.253 274.49C303.905 274.73 303.497 274.922 303.029 275.066C302.549 275.186 302.033 275.258 301.481 275.258C301.073 275.258 300.689 275.21 300.329 275.138C299.945 275.042 299.609 274.922 299.297 274.754C298.973 274.574 298.685 274.358 298.445 274.094C298.193 273.83 297.989 273.518 297.845 273.146L299.441 272.378C299.501 272.594 299.597 272.798 299.741 272.966C299.873 273.146 300.029 273.29 300.221 273.41C300.389 273.53 300.581 273.626 300.797 273.686C301.001 273.758 301.217 273.794 301.433 273.794C302.009 273.794 302.477 273.674 302.861 273.434C303.233 273.206 303.425 272.846 303.425 272.366C303.425 272.102 303.365 271.886 303.269 271.706C303.149 271.538 303.005 271.394 302.825 271.274C302.633 271.178 302.429 271.094 302.189 271.046C301.949 270.998 301.697 270.974 301.433 270.974H300.521V269.51H301.433C301.649 269.51 301.865 269.486 302.081 269.438C302.285 269.402 302.465 269.33 302.633 269.222C302.789 269.126 302.921 268.994 303.017 268.826C303.113 268.67 303.161 268.466 303.161 268.214C303.161 267.77 302.993 267.422 302.657 267.17C302.321 266.93 301.889 266.81 301.385 266.81C300.977 266.81 300.605 266.954 300.293 267.218C299.969 267.494 299.729 267.842 299.573 268.25L298.049 267.53Z" fill="white"/>
<path d="M302.529 290.418L304.803 282.184C304.917 281.769 305.284 281.474 305.714 281.451L313.133 281.062C314.077 281.013 314.556 282.18 313.85 282.808L304.158 291.431C303.413 292.093 302.264 291.378 302.529 290.418Z" fill="#6B7486"/>
</g>
<path d="M0 248.849C0 247.745 0.895431 246.849 2 246.849H4V356.849H2C0.895431 356.849 0 355.954 0 354.849V248.849Z" fill="#6B7486"/>
<defs>
<filter id="filter0_d_5675_432457" x="235" y="3.69824" width="95" height="60.1509" filterUnits="userSpaceOnUse" color-interpolation-filters="sRGB">
<feFlood flood-opacity="0" result="BackgroundImageFix"/>
<feColorMatrix in="SourceAlpha" type="matrix" values="0 0 0 0 0 0 0 0 0 0 0 0 0 0 0 0 0 0 127 0" result="hardAlpha"/>
<feOffset dy="5"/>
<feGaussianBlur stdDeviation="5"/>
<feComposite in2="hardAlpha" operator="out"/>
<feColorMatrix type="matrix" values="0 0 0 0 0.113686 0 0 0 0 0.452189 0 0 0 0 0.411568 0 0 0 0.16 0"/>
<feBlend mode="normal" in2="BackgroundImageFix" result="effect1_dropShadow_5675_432457"/>
<feBlend mode="normal" in="SourceGraphic" in2="effect1_dropShadow_5675_432457" result="shape"/>
</filter>
<filter id="filter1_d_5675_432457" x="235" y="126.698" width="95" height="60.1509" filterUnits="userSpaceOnUse" color-interpolation-filters="sRGB">
<feFlood flood-opacity="0" result="BackgroundImageFix"/>
<feColorMatrix in="SourceAlpha" type="matrix" values="0 0 0 0 0 0 0 0 0 0 0 0 0 0 0 0 0 0 127 0" result="hardAlpha"/>
<feOffset dy="5"/>
<feGaussianBlur stdDeviation="5"/>
<feComposite in2="hardAlpha" operator="out"/>
<feColorMatrix type="matrix" values="0 0 0 0 0.113686 0 0 0 0 0.452189 0 0 0 0 0.411568 0 0 0 0.16 0"/>
<feBlend mode="normal" in2="BackgroundImageFix" result="effect1_dropShadow_5675_432457"/>
<feBlend mode="normal" in="SourceGraphic" in2="effect1_dropShadow_5675_432457" result="shape"/>
</filter>
<filter id="filter2_d_5675_432457" x="235" y="249.698" width="95" height="60.1509" filterUnits="userSpaceOnUse" color-interpolation-filters="sRGB">
<feFlood flood-opacity="0" result="BackgroundImageFix"/>
<feColorMatrix in="SourceAlpha" type="matrix" values="0 0 0 0 0 0 0 0 0 0 0 0 0 0 0 0 0 0 127 0" result="hardAlpha"/>
<feOffset dy="5"/>
<feGaussianBlur stdDeviation="5"/>
<feComposite in2="hardAlpha" operator="out"/>
<feColorMatrix type="matrix" values="0 0 0 0 0.113686 0 0 0 0 0.452189 0 0 0 0 0.411568 0 0 0 0.16 0"/>
<feBlend mode="normal" in2="BackgroundImageFix" result="effect1_dropShadow_5675_432457"/>
<feBlend mode="normal" in="SourceGraphic" in2="effect1_dropShadow_5675_432457" result="shape"/>
</filter>
</defs>
</svg>
