<svg width="113" height="18" viewBox="0 0 113 18" fill="none" xmlns="http://www.w3.org/2000/svg">
<path d="M11.7031 13.3345H0.410156V12.0903H5.27734V9.68408H1.6543V3.28564H3.17188V5.30908H8.90039V3.28564H10.418V9.68408H6.78125V12.0903H11.7031V13.3345ZM8.90039 8.45361V6.52588H3.17188V8.45361H8.90039ZM22.371 14.8384H20.8398V2.46533H22.371V14.8384ZM15.7128 3.36768C16.3326 3.36768 16.884 3.54769 17.3671 3.90771C17.8547 4.26318 18.2376 4.77132 18.5155 5.43213C18.7935 6.08838 18.9348 6.854 18.9394 7.729C18.9348 8.60856 18.7935 9.37874 18.5155 10.0396C18.2421 10.7004 17.8616 11.2108 17.3739 11.5708C16.8863 11.9263 16.3326 12.104 15.7128 12.104C15.0885 12.104 14.5325 11.9263 14.0448 11.5708C13.5572 11.2108 13.1744 10.7004 12.8964 10.0396C12.623 9.37874 12.4862 8.60856 12.4862 7.729C12.4862 6.854 12.623 6.08838 12.8964 5.43213C13.1744 4.77132 13.5572 4.26318 14.0448 3.90771C14.5325 3.54769 15.0885 3.36768 15.7128 3.36768ZM15.7128 4.73486C15.3619 4.73486 15.052 4.85335 14.7831 5.09033C14.5188 5.32731 14.3137 5.67139 14.1679 6.12256C14.0221 6.57373 13.9491 7.10921 13.9491 7.729C13.9491 8.35335 14.0221 8.89111 14.1679 9.34229C14.3137 9.79346 14.5188 10.1398 14.7831 10.3813C15.052 10.6183 15.3619 10.7368 15.7128 10.7368C16.0592 10.7368 16.3645 10.6183 16.6288 10.3813C16.8932 10.1398 17.0982 9.79346 17.2441 9.34229C17.3899 8.89111 17.4628 8.35335 17.4628 7.729C17.4628 7.10921 17.3899 6.57601 17.2441 6.12939C17.0982 5.67822 16.8932 5.33415 16.6288 5.09717C16.3645 4.85563 16.0592 4.73486 15.7128 4.73486ZM30.1541 4.16064C30.1541 4.79411 30.3455 5.41162 30.7284 6.01318C31.1157 6.61475 31.6489 7.13428 32.328 7.57178C33.007 8.00472 33.7681 8.29411 34.6112 8.43994L33.9276 9.71143C32.8931 9.49268 31.9725 9.08936 31.1659 8.50146C30.3638 7.90902 29.7622 7.1958 29.3612 6.36182C28.951 7.19124 28.3426 7.90218 27.536 8.49463C26.7293 9.08252 25.811 9.48812 24.7811 9.71143L24.1112 8.43994C24.9452 8.28955 25.6971 7.99788 26.367 7.56494C27.0415 7.12744 27.5702 6.60791 27.953 6.00635C28.3403 5.40479 28.5363 4.78955 28.5409 4.16064V3.24463H30.1541V4.16064ZM35.0623 13.2524H23.7694V11.9946H35.0623V13.2524ZM45.7713 14.8247H44.24V2.46533H45.7713V14.8247ZM42.7634 4.9126H41.574V10.4565C42.2302 10.4019 42.809 10.3449 43.3103 10.2856L43.3923 11.4204C42.2029 11.6118 40.961 11.7394 39.6668 11.8032C38.3725 11.867 37.0076 11.8989 35.572 11.8989L35.4216 10.6548L36.9529 10.6411V4.9126H35.7498V3.66846H42.7634V4.9126ZM38.4158 10.6069C38.9718 10.5933 39.5278 10.5728 40.0838 10.5454V4.9126H38.4158V10.6069ZM57.4235 9.80713H55.8923V2.479H57.4235V9.80713ZM53.2673 10.0396C54.124 10.0396 54.8692 10.133 55.5026 10.3198C56.1361 10.5067 56.6237 10.7778 56.9655 11.1333C57.3073 11.4888 57.4782 11.9126 57.4782 12.4048C57.4782 12.9015 57.3073 13.3276 56.9655 13.6831C56.6237 14.0386 56.1361 14.3097 55.5026 14.4966C54.8692 14.6834 54.124 14.7746 53.2673 14.77C52.4014 14.7746 51.6494 14.6834 51.0114 14.4966C50.3779 14.3097 49.8903 14.0386 49.5485 13.6831C49.2113 13.3276 49.0427 12.9015 49.0427 12.4048C49.0427 11.9126 49.2113 11.4888 49.5485 11.1333C49.8903 10.7778 50.3779 10.5067 51.0114 10.3198C51.6494 10.133 52.4014 10.0396 53.2673 10.0396ZM53.2673 11.2153C52.3968 11.2244 51.7269 11.3293 51.2575 11.5298C50.7927 11.7257 50.5602 12.0174 50.5602 12.4048C50.5602 12.7922 50.7949 13.0884 51.2643 13.2935C51.7337 13.494 52.4014 13.5942 53.2673 13.5942C54.1377 13.5942 54.8076 13.494 55.277 13.2935C55.751 13.0884 55.988 12.7922 55.988 12.4048C55.988 12.022 55.7533 11.7303 55.2839 11.5298C54.8145 11.3293 54.1423 11.2244 53.2673 11.2153ZM51.736 4.20166C51.736 4.74854 51.8499 5.27035 52.0778 5.76709C52.3057 6.25928 52.6452 6.69678 53.0964 7.07959C53.5475 7.45785 54.0921 7.74723 54.7302 7.94775L53.9782 9.15088C53.2764 8.91846 52.6703 8.58122 52.1598 8.13916C51.654 7.69255 51.2575 7.16618 50.9704 6.56006C50.6878 7.24365 50.2868 7.83838 49.7673 8.34424C49.2477 8.84554 48.6279 9.2238 47.9079 9.479L47.1423 8.24854C47.7894 8.02979 48.3386 7.71305 48.7897 7.29834C49.2455 6.87907 49.5873 6.40283 49.8151 5.86963C50.0475 5.33187 50.1637 4.77588 50.1637 4.20166V3.01221H51.736V4.20166ZM66.3726 5.979C66.3726 6.65804 66.5002 7.33024 66.7554 7.99561C67.0152 8.65641 67.3843 9.25114 67.8628 9.77979C68.3459 10.3039 68.911 10.7004 69.5581 10.9692L68.7241 12.1724C68.0086 11.867 67.3866 11.409 66.8579 10.7983C66.3293 10.1877 65.9191 9.479 65.6275 8.67236C65.3358 9.53825 64.9234 10.3062 64.3902 10.9761C63.8615 11.6414 63.2417 12.1405 62.5308 12.4731L61.6558 11.2837C62.2892 10.992 62.8452 10.5636 63.3237 9.99854C63.8068 9.43343 64.1782 8.79997 64.438 8.09814C64.6978 7.39176 64.8277 6.68538 64.8277 5.979V4.93994H62.107V3.68213H69.0796V4.93994H66.3726V5.979ZM71.9917 14.8247H70.4605V2.46533H71.9917V14.8247ZM80.0346 3.12158C80.0255 4.82145 79.5561 6.23193 78.6264 7.35303C77.7013 8.47412 76.2338 9.3195 74.2241 9.88916L73.6635 8.67236C75.4545 8.17562 76.7374 7.45557 77.5121 6.51221L73.8412 6.78564L73.6088 5.56885L78.1547 5.38428C78.2778 5.05615 78.3598 4.70752 78.4008 4.33838H74.2377V3.12158H80.0346ZM83.685 9.61572H82.1537V2.479H83.685V9.61572ZM83.685 14.6743H75.6049V10.1899H83.685V14.6743ZM77.0952 13.4438H82.1948V11.3794H77.0952V13.4438ZM95.3509 14.8384H93.8197V2.46533H95.3509V14.8384ZM88.6927 3.36768C89.3125 3.36768 89.864 3.54769 90.347 3.90771C90.8347 4.26318 91.2175 4.77132 91.4955 5.43213C91.7735 6.08838 91.9147 6.854 91.9193 7.729C91.9147 8.60856 91.7735 9.37874 91.4955 10.0396C91.222 10.7004 90.8415 11.2108 90.3539 11.5708C89.8662 11.9263 89.3125 12.104 88.6927 12.104C88.0684 12.104 87.5124 11.9263 87.0248 11.5708C86.5371 11.2108 86.1543 10.7004 85.8763 10.0396C85.6029 9.37874 85.4662 8.60856 85.4662 7.729C85.4662 6.854 85.6029 6.08838 85.8763 5.43213C86.1543 4.77132 86.5371 4.26318 87.0248 3.90771C87.5124 3.54769 88.0684 3.36768 88.6927 3.36768ZM88.6927 4.73486C88.3418 4.73486 88.0319 4.85335 87.763 5.09033C87.4987 5.32731 87.2936 5.67139 87.1478 6.12256C87.002 6.57373 86.9291 7.10921 86.9291 7.729C86.9291 8.35335 87.002 8.89111 87.1478 9.34229C87.2936 9.79346 87.4987 10.1398 87.763 10.3813C88.0319 10.6183 88.3418 10.7368 88.6927 10.7368C89.0391 10.7368 89.3444 10.6183 89.6087 10.3813C89.8731 10.1398 90.0782 9.79346 90.224 9.34229C90.3698 8.89111 90.4427 8.35335 90.4427 7.729C90.4427 7.10921 90.3698 6.57601 90.224 6.12939C90.0782 5.67822 89.8731 5.33415 89.6087 5.09717C89.3444 4.85563 89.0391 4.73486 88.6927 4.73486Z" fill="#BBC4D8"/>
<path d="M0 15.7544H96.7591V16.9302H0V15.7544Z" fill="#BBC4D8"/>
<g clip-path="url(#clip0_5943_107125)">
<g clip-path="url(#clip1_5943_107125)">
<path fill-rule="evenodd" clip-rule="evenodd" d="M104.646 13.4615C104.451 13.2662 104.451 12.9496 104.646 12.7544L108.293 9.10791L104.646 5.46146C104.451 5.2662 104.451 4.94962 104.646 4.75436C104.842 4.55909 105.158 4.55909 105.354 4.75436L109.354 8.75436C109.549 8.94962 109.549 9.2662 109.354 9.46146L105.354 13.4615C105.158 13.6567 104.842 13.6567 104.646 13.4615Z" fill="#BBC4D8" stroke="#BBC4D8" stroke-width="0.25" stroke-linecap="round" stroke-linejoin="round"/>
</g>
</g>
<defs>
<clipPath id="clip0_5943_107125">
<rect width="12" height="12" fill="white" transform="translate(101 3.10791)"/>
</clipPath>
<clipPath id="clip1_5943_107125">
<rect width="12" height="12" fill="white" transform="translate(101 15.1079) rotate(-90)"/>
</clipPath>
</defs>
</svg>
