<svg width="328" height="55" viewBox="0 0 328 55" fill="none" xmlns="http://www.w3.org/2000/svg">
<path d="M109.039 14.725L113.089 2.77H117.019L121.069 14.725H117.949L116.809 11.38L112.939 12.445L112.159 14.725H109.039ZM113.899 9.61L115.999 9.025L115.054 6.22L113.899 9.61ZM122.416 2.77H128.206C129.016 2.77 129.736 2.92 130.396 3.22C131.026 3.535 131.581 3.955 132.031 4.48C132.481 5.02 132.826 5.635 133.066 6.355C133.291 7.09 133.411 7.885 133.411 8.725C133.411 9.61 133.276 10.42 133.036 11.14C132.766 11.89 132.391 12.52 131.911 13.045C131.401 13.57 130.801 13.99 130.081 14.29C129.346 14.575 128.506 14.725 127.561 14.725H122.416V2.77ZM125.536 12.145H127.381C127.861 12.145 128.296 12.055 128.671 11.86C129.031 11.68 129.331 11.44 129.571 11.11C129.811 10.81 129.991 10.435 130.111 10.015C130.231 9.595 130.291 9.16 130.291 8.68C130.291 8.23 130.216 7.795 130.081 7.375C129.931 6.985 129.736 6.625 129.481 6.325C129.211 6.025 128.881 5.785 128.491 5.605C128.101 5.44 127.651 5.35 127.141 5.35H125.536V12.145ZM137.12 2.77L140.015 11.275L142.91 2.77H146.03L141.98 14.725H138.05L134 2.77H137.12ZM145.572 14.725L149.622 2.77H153.552L157.602 14.725H154.482L153.342 11.38L149.472 12.445L148.692 14.725H145.572ZM150.432 9.61L152.532 9.025L151.587 6.22L150.432 9.61ZM158.949 2.77H162.069L166.554 10.015V2.77H169.674V14.725H166.554L162.069 7.345V14.725H158.949V2.77ZM178.096 5.35V14.725H174.976V5.35H171.181V2.77H181.891V5.35H178.096ZM182.193 14.725L186.243 2.77H190.173L194.223 14.725H191.103L189.963 11.38L186.093 12.445L185.313 14.725H182.193ZM187.053 9.61L189.153 9.025L188.208 6.22L187.053 9.61ZM201.266 12.445C202.061 12.445 202.721 12.265 203.231 11.89C203.741 11.53 204.041 11.005 204.146 10.315H200.981V7.735H207.281V9.4C207.281 10.33 207.116 11.14 206.816 11.83C206.486 12.535 206.066 13.105 205.526 13.585C204.971 14.05 204.326 14.41 203.606 14.665C202.871 14.905 202.091 15.025 201.281 15.025C200.366 15.025 199.526 14.86 198.746 14.56C197.951 14.245 197.261 13.81 196.691 13.27C196.106 12.715 195.656 12.055 195.326 11.275C194.981 10.51 194.816 9.67 194.816 8.74C194.816 7.825 194.981 6.985 195.326 6.205C195.656 5.44 196.106 4.78 196.706 4.21C197.276 3.67 197.966 3.235 198.776 2.92C199.571 2.62 200.426 2.455 201.356 2.455C202.586 2.455 203.666 2.71 204.566 3.205C205.466 3.715 206.276 4.465 206.996 5.455L204.941 7.18C204.566 6.52 204.086 5.995 203.486 5.605C202.871 5.215 202.151 5.02 201.311 5.02C200.861 5.02 200.426 5.11 200.021 5.29C199.601 5.47 199.256 5.725 198.956 6.04C198.641 6.37 198.401 6.76 198.221 7.21C198.026 7.675 197.936 8.185 197.936 8.74C197.936 9.31 198.011 9.805 198.191 10.255C198.356 10.72 198.596 11.11 198.896 11.425C199.196 11.755 199.541 12.01 199.961 12.175C200.351 12.355 200.786 12.445 201.266 12.445ZM218.091 7.33V9.91H212.196V12.16H218.526V14.725H209.076V2.77H218.376V5.35H212.196V7.33H218.091Z" fill="#26BCBC"/>
<path d="M79.1319 36.64H85.8279V29.2H88.2279V48.304H76.7319V29.2H79.1319V36.64ZM95.0199 48.544H92.6199V41.968L89.1879 43.168V41.296L92.6199 40.096V35.296L89.1879 36.496V34.624L92.6199 33.424V28.72H95.0199V48.544ZM85.8279 38.608H79.1319V46.336H85.8279V38.608ZM113.048 32.512V30.904H98.9596V28.936H115.448V34.48H101.36V36.064H115.688V38.032H98.9596V32.512H113.048ZM97.5436 39.664H116.864V41.632H108.392V43.384H115.688V49.024H113.288V45.352H98.7196V43.384H105.992V41.632H97.5436V39.664ZM126.774 37.576C126.774 38.248 126.726 38.896 126.678 39.472C126.606 40.072 126.51 40.648 126.366 41.176L133.086 46.24L131.862 48.064L125.526 43.312C124.95 44.368 124.182 45.28 123.222 46.096C122.238 46.888 120.99 47.608 119.454 48.232L118.35 46.312C119.454 45.832 120.39 45.352 121.158 44.824C121.902 44.344 122.526 43.744 123.006 43.072C123.486 42.424 123.822 41.656 124.038 40.744C124.23 39.88 124.35 38.8 124.35 37.552V28.912H126.774V37.576ZM137.502 48.544H135.102V28.72H137.502V48.544ZM149.649 49.504C148.305 49.504 147.081 49.408 146.025 49.24C144.945 49.048 144.033 48.784 143.289 48.448C142.521 48.088 141.921 47.656 141.537 47.128C141.105 46.576 140.913 45.952 140.913 45.232C140.913 44.512 141.105 43.888 141.537 43.336C141.921 42.808 142.521 42.376 143.289 42.016C144.033 41.68 144.945 41.44 146.025 41.248C147.081 41.08 148.305 40.984 149.649 40.984C150.993 40.984 152.193 41.08 153.273 41.248C154.329 41.44 155.265 41.68 156.033 42.016C156.777 42.376 157.353 42.808 157.785 43.336C158.169 43.888 158.385 44.512 158.385 45.232C158.385 45.952 158.169 46.576 157.785 47.128C157.353 47.656 156.777 48.088 156.033 48.448C155.265 48.784 154.329 49.048 153.273 49.24C152.193 49.408 150.993 49.504 149.649 49.504ZM140.025 28.96H153.105V30.928H147.657V32.92C147.657 33.448 147.585 33.952 147.465 34.456L153.369 38.176L152.097 39.832L146.529 36.304C145.905 37.12 145.113 37.792 144.105 38.344C143.097 38.92 141.921 39.376 140.601 39.76L139.545 38.008C140.361 37.816 141.105 37.552 141.801 37.24C142.473 36.952 143.073 36.616 143.601 36.208C144.105 35.824 144.513 35.344 144.801 34.792C145.089 34.264 145.233 33.616 145.233 32.896V30.928H140.025V28.96ZM149.649 47.536C150.609 47.536 151.473 47.488 152.265 47.392C153.033 47.296 153.681 47.152 154.257 46.96C154.785 46.768 155.217 46.528 155.529 46.24C155.817 45.952 155.985 45.616 155.985 45.232C155.985 44.848 155.817 44.512 155.529 44.224C155.217 43.96 154.785 43.72 154.257 43.528C153.681 43.336 153.033 43.192 152.265 43.096C151.473 43 150.609 42.952 149.649 42.952C148.689 42.952 147.801 43 147.033 43.096C146.241 43.192 145.569 43.336 145.041 43.528C144.465 43.72 144.057 43.96 143.769 44.224C143.457 44.512 143.313 44.848 143.313 45.232C143.313 45.616 143.457 45.952 143.769 46.24C144.057 46.528 144.465 46.768 145.041 46.96C145.569 47.152 146.241 47.296 147.033 47.392C147.801 47.488 148.689 47.536 149.649 47.536ZM157.905 34.816V40.384H155.505V28.72H157.905V32.848H160.713V34.816H157.905ZM173.684 28.96V40.504H162.188V28.96H173.684ZM171.284 38.536V30.928H164.588V38.536H171.284ZM165.596 42.424V47.056H179.996V49.024H163.196V42.424H165.596ZM179.756 35.056V42.808H177.356V28.72H179.756V33.088H182.564V35.056H179.756ZM190.398 40.432C191.022 40.432 191.622 40.312 192.174 40.048C192.702 39.808 193.158 39.472 193.566 39.016C193.95 38.584 194.238 38.056 194.478 37.432C194.694 36.856 194.814 36.184 194.814 35.464C194.814 34.744 194.694 34.048 194.478 33.424C194.238 32.824 193.95 32.296 193.566 31.84C193.158 31.408 192.702 31.072 192.174 30.832C191.622 30.592 191.022 30.472 190.398 30.472C189.726 30.472 189.102 30.592 188.574 30.832C188.022 31.096 187.566 31.432 187.182 31.864C186.798 32.32 186.486 32.848 186.294 33.448C186.078 34.072 185.982 34.744 185.982 35.464C185.982 36.208 186.078 36.88 186.318 37.48C186.51 38.104 186.822 38.608 187.206 39.04C187.59 39.496 188.046 39.832 188.598 40.072C189.126 40.312 189.726 40.432 190.398 40.432ZM183.558 35.464C183.558 34.36 183.726 33.352 184.086 32.488C184.422 31.624 184.926 30.904 185.55 30.304C186.15 29.728 186.87 29.272 187.71 28.96C188.526 28.672 189.438 28.504 190.398 28.504C191.334 28.504 192.222 28.672 193.062 28.96C193.878 29.272 194.622 29.728 195.246 30.304C195.846 30.904 196.326 31.624 196.71 32.488C197.046 33.352 197.238 34.36 197.238 35.464C197.238 36.568 197.046 37.552 196.71 38.392C196.326 39.256 195.846 39.976 195.246 40.552C194.622 41.152 193.878 41.608 193.062 41.896C192.222 42.232 191.334 42.376 190.398 42.376C189.438 42.376 188.526 42.232 187.71 41.896C186.87 41.608 186.15 41.152 185.55 40.552C184.926 39.976 184.422 39.256 184.086 38.392C183.726 37.552 183.558 36.568 183.558 35.464ZM198.342 46.072V48.04H183.126V46.072H198.342ZM202.326 48.544H199.926V28.72H202.326V48.544ZM219.879 49.624C218.439 49.624 217.143 49.528 216.015 49.36C214.863 49.168 213.879 48.904 213.111 48.544C212.295 48.16 211.695 47.704 211.287 47.176C210.855 46.624 210.663 46 210.663 45.232C210.663 44.512 210.855 43.864 211.287 43.288C211.695 42.76 212.295 42.304 213.111 41.92C213.879 41.584 214.863 41.32 216.015 41.128C217.143 40.96 218.439 40.864 219.879 40.864C221.319 40.864 222.615 40.96 223.767 41.128C224.895 41.32 225.855 41.584 226.671 41.92C227.439 42.304 228.039 42.76 228.471 43.288C228.879 43.864 229.095 44.512 229.095 45.232C229.095 46 228.879 46.624 228.471 47.176C228.039 47.704 227.439 48.16 226.671 48.544C225.855 48.904 224.895 49.168 223.767 49.36C222.615 49.528 221.319 49.624 219.879 49.624ZM223.095 28.84V31.768H218.199V32.92C218.199 33.112 218.175 33.304 218.175 33.472C218.151 33.664 218.127 33.856 218.103 34.024L223.455 37.24L221.655 39.784L216.735 36.832C215.511 38.224 213.495 39.256 210.711 39.88L209.103 37.24C209.967 37.048 210.759 36.832 211.431 36.592C212.079 36.352 212.631 36.064 213.087 35.728C213.519 35.392 213.855 35.008 214.095 34.528C214.311 34.072 214.431 33.52 214.431 32.896V31.768H209.775V28.84H223.095ZM228.615 35.296V40.264H224.847V28.6H228.615V32.368H230.703V35.296H228.615ZM219.879 46.696C221.583 46.696 222.927 46.576 223.887 46.36C224.847 46.12 225.327 45.76 225.327 45.232C225.327 44.704 224.847 44.344 223.887 44.104C222.927 43.888 221.583 43.768 219.879 43.768C218.151 43.768 216.831 43.888 215.871 44.104C214.911 44.344 214.431 44.704 214.431 45.232C214.431 45.76 214.911 46.12 215.871 46.36C216.831 46.576 218.151 46.696 219.879 46.696ZM251.186 41.104V49.144H232.946V41.104H251.186ZM244.946 28.84V31.768H240.05V32.92C240.05 33.112 240.026 33.304 240.026 33.472C240.002 33.664 239.978 33.856 239.954 34.024L245.306 37.24L243.506 39.784L238.586 36.832C237.362 38.224 235.346 39.256 232.562 39.88L230.954 37.24C231.818 37.048 232.61 36.832 233.282 36.592C233.93 36.352 234.482 36.064 234.938 35.728C235.37 35.392 235.706 35.008 235.946 34.528C236.162 34.072 236.282 33.52 236.282 32.896V31.768H231.626V28.84H244.946ZM251.186 28.6V40.024H247.418V35.032L244.418 35.704V32.704L247.418 32.032V28.6H251.186ZM236.714 44.008V46.24H247.418V44.008H236.714Z" fill="#2C3038"/>
</svg>
