<svg width="328" height="55" viewBox="0 0 328 55" fill="none" xmlns="http://www.w3.org/2000/svg">
<path d="M144.292 7.33V9.91H138.397V12.16H144.727V14.725H135.277V2.77H144.577V5.35H138.397V7.33H144.292ZM148.882 2.77L151.777 11.275L154.672 2.77H157.792L153.742 14.725H149.812L145.762 2.77H148.882ZM168.154 7.33V9.91H162.259V12.16H168.589V14.725H159.139V2.77H168.439V5.35H162.259V7.33H168.154ZM170.375 2.77H173.495L177.98 10.015V2.77H181.1V14.725H177.98L173.495 7.345V14.725H170.375V2.77ZM189.522 5.35V14.725H186.402V5.35H182.607V2.77H193.317V5.35H189.522Z" fill="#26BCBC"/>
<path d="M54.9105 48.304V31.168H45.8145V29.2H57.3105V48.304H54.9105ZM63.3825 36.592H66.1905V38.56H63.3825V48.544H60.9825V28.72H63.3825V36.592ZM70.8328 40.6V42.832H83.3128V40.6H85.7128V49.024H68.4328V40.6H70.8328ZM83.3128 47.056V44.8H70.8328V47.056H83.3128ZM85.7128 28.72V39.28H83.3128V28.72H85.7128ZM66.7048 33.904C66.7048 33.184 66.8488 32.488 67.1608 31.84C67.4488 31.216 67.9048 30.688 68.4808 30.208C69.0568 29.752 69.7528 29.392 70.5928 29.104C71.4088 28.864 72.3688 28.72 73.4248 28.72C74.4808 28.72 75.4168 28.864 76.2568 29.104C77.0728 29.392 77.7928 29.752 78.3688 30.208C78.9448 30.688 79.3768 31.216 79.6888 31.84C79.9768 32.488 80.1448 33.184 80.1448 33.904C80.1448 34.624 79.9768 35.296 79.6888 35.92C79.3768 36.544 78.9448 37.096 78.3688 37.552C77.7928 38.032 77.0728 38.416 76.2568 38.656C75.4168 38.944 74.4808 39.064 73.4248 39.064C72.3688 39.064 71.4088 38.944 70.5928 38.656C69.7528 38.416 69.0568 38.032 68.4808 37.552C67.9048 37.096 67.4488 36.544 67.1608 35.92C66.8488 35.296 66.7048 34.624 66.7048 33.904ZM73.4248 37.096C74.0728 37.096 74.6728 37.024 75.2008 36.832C75.7288 36.688 76.1848 36.448 76.5688 36.16C76.9288 35.872 77.2168 35.536 77.4328 35.152C77.6248 34.768 77.7448 34.36 77.7448 33.904C77.7448 33.472 77.6248 33.04 77.4328 32.632C77.2168 32.248 76.9288 31.912 76.5688 31.624C76.1848 31.336 75.7288 31.12 75.2008 30.928C74.6728 30.784 74.0728 30.688 73.4248 30.688C72.7528 30.688 72.1768 30.784 71.6488 30.928C71.1208 31.12 70.6648 31.336 70.3048 31.624C69.9208 31.912 69.6088 32.248 69.4168 32.632C69.2008 33.04 69.1048 33.472 69.1048 33.904C69.1048 34.36 69.2008 34.768 69.4168 35.152C69.6088 35.536 69.9208 35.872 70.3048 36.16C70.6648 36.448 71.1208 36.688 71.6488 36.832C72.1768 37.024 72.7528 37.096 73.4248 37.096ZM93.6422 35.152C95.2262 34.96 96.4982 34.744 97.5062 34.48C98.4662 34.24 99.2342 33.952 99.8102 33.64C100.362 33.352 100.746 33.04 100.962 32.68C101.154 32.344 101.25 31.96 101.25 31.576V30.952H94.2182V28.984H110.706V30.952H103.65V31.6C103.65 32.032 103.578 32.464 103.458 32.872L111.138 35.344L110.322 37.048L102.402 34.456C101.73 35.08 100.746 35.584 99.4982 35.968C98.2022 36.4 96.5462 36.76 94.5302 37.048L93.6422 35.152ZM108.546 49.024V44.392H93.9782V42.424H110.946V49.024H108.546ZM92.8022 38.584H112.122V40.552H92.8022V38.584ZM121.792 37.576C121.792 38.248 121.744 38.896 121.696 39.472C121.624 40.072 121.528 40.648 121.384 41.176L128.104 46.24L126.88 48.064L120.544 43.312C119.968 44.368 119.2 45.28 118.24 46.096C117.256 46.888 116.008 47.608 114.472 48.232L113.368 46.312C114.472 45.832 115.408 45.352 116.176 44.824C116.92 44.344 117.544 43.744 118.024 43.072C118.504 42.424 118.84 41.656 119.056 40.744C119.248 39.88 119.368 38.8 119.368 37.552V28.912H121.792V37.576ZM132.52 48.544H130.12V28.72H132.52V48.544ZM142.322 32.272H149.018V28.96H151.418V39.544H139.922V28.96H142.322V32.272ZM157.73 47.056V49.024H140.93V41.224H157.49V43.192H143.33V47.056H157.73ZM157.49 34.816V39.904H155.09V28.72H157.49V32.848H160.298V34.816H157.49ZM149.018 34.24H142.322V37.576H149.018V34.24ZM165.036 28.96V34.288H179.124V36.256H162.636V28.96H165.036ZM161.22 38.68H180.54V40.648H161.22V38.68ZM164.796 42.424V47.056H179.604V49.024H162.396V42.424H164.796ZM188.2 29.176H205.888V39.976H188.2V29.176ZM187.024 42.304H207.064V45.232H198.928V49.408H195.16V45.232H187.024V42.304ZM191.968 37.048H202.12V32.104H191.968V37.048ZM208.634 45.736H212.69V42.496H209.81V34.312H224.21V32.008H209.81V29.08H227.978V37.24H213.578V39.568H228.218V42.496H224.618V45.736H228.674V48.664H208.634V45.736ZM216.458 45.736H220.85V42.496H216.458V45.736ZM244.092 48.664V44.92L241.164 45.952C240.636 46.912 239.964 47.608 239.1 48.04C238.212 48.448 237.228 48.664 236.172 48.664C235.308 48.664 234.54 48.544 233.844 48.304C233.124 48.04 232.524 47.632 232.02 47.104C231.492 46.528 231.084 45.832 230.796 44.968C230.508 44.104 230.364 43.072 230.364 41.824C230.364 40.624 230.508 39.568 230.796 38.68C231.084 37.816 231.492 37.12 232.02 36.568C232.524 36.04 233.124 35.632 233.844 35.368C234.54 35.128 235.308 34.984 236.172 34.984C237.084 34.984 237.924 35.152 238.692 35.44C239.436 35.752 240.084 36.232 240.612 36.904L244.092 35.704V28.6H247.548V48.664H244.092ZM252.78 48.664H249.3V28.6H252.78V48.664ZM238.068 30.52H242.604V33.448H229.764V30.52H234.3V28.048H238.068V30.52ZM233.796 41.824C233.796 43.072 233.988 44.032 234.396 44.704C234.78 45.4 235.38 45.736 236.172 45.736C236.916 45.736 237.516 45.4 237.948 44.728C238.356 44.056 238.572 43.096 238.572 41.8C238.572 40.552 238.356 39.592 237.948 38.92C237.516 38.248 236.916 37.912 236.172 37.912C235.38 37.912 234.78 38.248 234.396 38.92C233.988 39.616 233.796 40.576 233.796 41.824ZM242.028 41.824V42.136C242.028 42.232 242.004 42.328 242.004 42.424L244.092 41.704V38.944L241.836 39.712L241.98 40.72C242.004 41.08 242.028 41.44 242.028 41.824ZM257.287 31.768V33.28H264.607V36.208H257.287V37.696H264.847V40.624H253.831V28.84H264.607V31.768H257.287ZM266.047 40.744V28.6H269.503V33.016L271.615 32.272V28.6H275.095V40.744H271.615V35.512L269.503 36.256V40.744H266.047ZM271.327 49.144V44.728H254.839V41.824H275.095V49.144H271.327ZM277.825 43.6V28.792H281.593V43.6H277.825ZM277.825 49.144V45.616H281.593V49.144H277.825Z" fill="#2C3038"/>
</svg>
