<svg width="68" height="68" viewBox="0 0 68 68" fill="none" xmlns="http://www.w3.org/2000/svg">
<g clip-path="url(#clip0_9663_12730)">
<rect width="68" height="68" rx="34" fill="white"/>
<g clip-path="url(#clip1_9663_12730)">
<path d="M21.0545 16.9756L20.1129 14.5324C20.1129 14.5324 18.4205 13.0245 17.1034 14.437C15.7864 15.8494 16.5372 17.5418 16.5372 17.5418L16.9126 19.4251C16.9126 19.4251 10.3339 24.0315 8.92141 31.5582C7.50896 39.0849 8.07521 53.4703 26.8888 56.6705C26.8888 56.6705 23.2177 61.6587 23.2177 65.0434C23.2177 68.4282 24.7256 69.0899 24.7256 69.0899H26.6089L29.1475 72.1948C29.1475 72.1948 27.9259 78.1182 28.7721 78.589C29.6183 79.0598 34.5109 78.8689 34.7909 78.3981C35.0708 77.9273 35.2617 72.6592 35.2617 72.6592L37.0495 72.7547C37.0495 72.7547 36.3942 78.0227 38.0866 78.4935C39.779 78.9644 43.8255 79.6197 43.7301 77.5519C43.6346 75.4841 42.9793 72.1884 42.9793 72.1884L45.4224 69.179C45.4224 69.179 47.7765 69.4589 48.5273 67.6711C49.2781 65.8833 48.9027 62.7784 48.9027 62.7784C48.9027 62.7784 48.1519 61.2705 47.5857 60.049C47.0194 58.8274 45.6133 57.6058 45.6133 57.6058L43.4501 55.2517C43.4501 55.2517 58.1218 51.8669 59.6297 40.7646C61.1376 29.6686 57.4665 14.6151 35.3635 13.5844L33.8556 10.7595C33.8556 10.7595 32.844 9.63338 31.5015 10.2887C30.1654 10.944 30.1845 11.8857 30.1845 11.8857L30.5599 14.0489L24.5411 15.5568L21.0609 16.9692L21.0545 16.9756Z" fill="white"/>
<path opacity="0.4" d="M26.2815 44.4165C28.193 44.4165 29.7426 42.8669 29.7426 40.9554C29.7426 39.0439 28.193 37.4943 26.2815 37.4943C24.3699 37.4943 22.8203 39.0439 22.8203 40.9554C22.8203 42.8669 24.3699 44.4165 26.2815 44.4165Z" fill="#FFA763"/>
<path opacity="0.4" d="M44.7541 38.3341C46.6656 38.3341 48.2153 36.7845 48.2153 34.8729C48.2153 32.9614 46.6656 31.4118 44.7541 31.4118C42.8426 31.4118 41.293 32.9614 41.293 34.8729C41.293 36.7845 42.8426 38.3341 44.7541 38.3341Z" fill="#FFA763"/>
<path d="M30.7852 56.9505C30.7852 56.9505 31.9813 58.9292 33.6355 59.6163L35.8433 56.7914L38.8081 59.2028C38.8081 59.2028 40.2588 57.7521 41.0159 56.1679" fill="#006FFF"/>
<path d="M17.0003 19.5269C12.9857 22.4472 9.38454 26.9072 8.60833 33.6323C6.89048 48.4757 16.7077 57.0713 32.4164 56.7023C38.4416 56.5624 45.2748 55.538 49.563 53.1394C49.563 53.1394 52.7061 51.307 54.1376 49.9073C54.9774 49.0802 55.4101 48.7048 55.4101 48.7048C57.4397 46.4716 59.3738 43.284 59.851 38.6586C59.9846 37.3925 60.0037 36.0436 59.9146 34.6121C59.0557 20.7357 47.8007 13.8262 35.1968 13.8325" stroke="#212121" stroke-linecap="round" stroke-linejoin="round"/>
<path d="M30.7724 14.0743C30.5052 14.1062 30.098 14.2016 29.8308 14.2398C29.8308 14.2398 25.5489 14.8824 20.8789 17.1856" stroke="#212121" stroke-linecap="round" stroke-linejoin="round"/>
<path d="M27.3445 56.6642C27.3445 56.6642 23.4953 60.6025 23.2281 64.5917C22.9608 68.5746 24.895 69.7453 26.4983 68.9372C27.4972 68.4282 27.5736 66.7422 27.1727 65.5779" stroke="#212121" stroke-linecap="round" stroke-linejoin="round"/>
<path d="M25.6406 64.9034C25.6406 64.9034 26.7731 65.9596 27.6575 64.948C28.2619 64.2545 27.2439 63.1029 27.2439 63.1029C27.2439 63.1029 27.8356 60.6088 28.4592 59.4" stroke="#212121" stroke-linecap="round" stroke-linejoin="round"/>
<path d="M45.0184 65.5715C44.6175 66.7358 44.6939 68.4219 45.6928 68.9309C47.2961 69.7453 49.2303 68.5746 48.963 64.5854C48.6958 60.6025 44.8466 56.6578 44.8466 56.6578C44.8466 56.6578 44.0958 55.8816 43.625 55.4553" stroke="#212121" stroke-linecap="round" stroke-linejoin="round"/>
<path d="M46.549 64.9034C46.549 64.9034 45.4165 65.9596 44.5321 64.948C43.9277 64.2545 44.9457 63.1029 44.9457 63.1029C44.9457 63.1029 44.354 60.6088 43.7305 59.4" stroke="#212121" stroke-linecap="round" stroke-linejoin="round"/>
<path d="M33.7656 39.5621C33.7656 39.5621 36.8768 40.5419 38.3084 38.2514" stroke="#212121" stroke-linecap="round" stroke-linejoin="round"/>
<path d="M31.7869 37.7746C32.3749 37.572 32.641 36.7964 32.3811 36.0423C32.1213 35.2881 31.434 34.841 30.846 35.0436C30.2579 35.2462 29.9919 36.0218 30.2517 36.7759C30.5115 37.53 31.1988 37.9772 31.7869 37.7746Z" fill="#323031"/>
<path d="M38.9945 35.4917C39.5822 35.2879 39.8467 34.5118 39.5855 33.7582C39.3242 33.0046 38.636 32.5588 38.0484 32.7625C37.4608 32.9662 37.1962 33.7423 37.4574 34.4959C37.7187 35.2496 38.4069 35.6954 38.9945 35.4917Z" fill="#323031"/>
<path d="M43.4612 33.8168C43.4612 33.8168 42.2969 34.6758 42.9395 35.4456C43.5821 36.2155 44.8419 35.3247 45.1473 34.4658C45.1473 34.4658 45.2682 35.4138 46.0698 35.2929C46.8715 35.172 47.0178 34.0968 47.0178 34.0968" stroke="#212121" stroke-linecap="round" stroke-linejoin="round"/>
<path d="M24.8441 39.9883C24.8441 39.9883 23.6797 40.8473 24.3223 41.6171C24.9649 42.387 26.2247 41.4962 26.5301 40.6373C26.5301 40.6373 26.651 41.5853 27.4526 41.4644C28.2479 41.3435 28.4006 40.2683 28.4006 40.2683" stroke="#212121" stroke-linecap="round" stroke-linejoin="round"/>
<path d="M35.1855 13.8325L34.5683 11.6757C34.2311 10.5241 33.0223 9.85604 31.8707 10.1932C30.7191 10.5305 30.051 11.7393 30.3883 12.8909L30.7827 14.0679" stroke="#212121" stroke-linecap="round" stroke-linejoin="round"/>
<path d="M20.8883 17.1855L20.4238 15.5886C20.0866 14.437 18.8778 13.7689 17.7262 14.1061C16.5746 14.4434 15.9065 15.6522 16.2437 16.8038L17.0008 19.5269" stroke="#212121" stroke-linecap="round" stroke-linejoin="round"/>
<path d="M17.5547 16.6129C17.5547 16.6129 17.6756 17.949 17.9364 18.1399C18.1973 18.3308 19.4825 17.8663 19.5016 17.5864C19.5207 17.3064 19.0753 15.9512 19.0753 15.9512" stroke="#212121" stroke-linecap="round" stroke-linejoin="round"/>
<path d="M17.7656 17.3446L19.2608 16.7783" stroke="#212121" stroke-linecap="round" stroke-linejoin="round"/>
<path d="M33.3129 11.9747C33.3129 11.9747 33.8601 13.1963 33.7201 13.4953C33.5801 13.7944 32.2377 14.0107 32.0786 13.7753C31.9196 13.5399 31.6523 12.1402 31.6523 12.1402" stroke="#212121" stroke-linecap="round" stroke-linejoin="round"/>
<path d="M33.4905 12.7191L31.9062 12.9545" stroke="#212121" stroke-linecap="round" stroke-linejoin="round"/>
<path d="M30.7852 56.9505C30.7852 56.9505 31.9813 58.9292 33.6355 59.6163L35.8433 56.7914L38.8081 59.2028C38.8081 59.2028 40.2588 57.7521 41.0159 56.1679" stroke="#212121" stroke-linecap="round" stroke-linejoin="round"/>
</g>
</g>
<defs>
<clipPath id="clip0_9663_12730">
<rect width="68" height="68" rx="34" fill="white"/>
</clipPath>
<clipPath id="clip1_9663_12730">
<rect width="52.5024" height="69.7" fill="white" transform="translate(7.93359 9.63336)"/>
</clipPath>
</defs>
</svg>
