<svg width="120" height="120" viewBox="0 0 120 120" fill="none" xmlns="http://www.w3.org/2000/svg">
<g clip-path="url(#clip0_11816_195722)">
<rect width="120" height="120" rx="60" fill="#D8EAFF"/>
<g clip-path="url(#clip1_11816_195722)">
<path d="M37.1529 29.9568L35.4912 25.6454C35.4912 25.6454 32.5046 22.9844 30.1805 25.477C27.8563 27.9695 29.1812 30.9561 29.1812 30.9561L29.8437 34.2795C29.8437 34.2795 18.2342 42.4084 15.7416 55.6908C13.249 68.9733 14.2483 94.3592 47.4488 100.007C47.4488 100.007 40.9704 108.809 40.9704 114.782C40.9704 120.756 43.6313 121.923 43.6313 121.923H46.9547L51.4346 127.402C51.4346 127.402 49.2789 137.855 50.7722 138.686C52.2655 139.517 60.8996 139.18 61.3936 138.35C61.8877 137.519 62.2245 128.222 62.2245 128.222L65.3795 128.391C65.3795 128.391 64.223 137.687 67.2096 138.518C70.1962 139.349 77.337 140.505 77.1686 136.856C77.0002 133.207 75.8438 127.391 75.8438 127.391L80.1552 122.081C80.1552 122.081 84.3095 122.575 85.6343 119.42C86.9592 116.265 86.2968 110.785 86.2968 110.785C86.2968 110.785 84.9719 108.124 83.9726 105.969C82.9734 103.813 80.492 101.657 80.492 101.657L76.6746 97.503C76.6746 97.503 102.566 91.5298 105.227 71.9374C107.888 52.3562 101.409 25.7913 62.4041 23.9724L59.7432 18.9873C59.7432 18.9873 57.9579 17 55.5889 18.1565C53.2311 19.3129 53.2647 20.9746 53.2647 20.9746L53.9272 24.7921L43.3057 27.453L37.1641 29.9456L37.1529 29.9568Z" fill="white"/>
<path opacity="0.4" d="M46.3813 78.3821C49.7546 78.3821 52.4892 75.6475 52.4892 72.2742C52.4892 68.9009 49.7546 66.1663 46.3813 66.1663C43.008 66.1663 40.2734 68.9009 40.2734 72.2742C40.2734 75.6475 43.008 78.3821 46.3813 78.3821Z" fill="#FFA763"/>
<path opacity="0.4" d="M78.9751 67.6484C82.3484 67.6484 85.083 64.9138 85.083 61.5405C85.083 58.1672 82.3484 55.4326 78.9751 55.4326C75.6018 55.4326 72.8672 58.1672 72.8672 61.5405C72.8672 64.9138 75.6018 67.6484 78.9751 67.6484Z" fill="#FFA763"/>
<path d="M54.3281 100.501C54.3281 100.501 56.4389 103.993 59.3582 105.205L63.2542 100.22L68.4863 104.475C68.4863 104.475 71.0462 101.915 72.3823 99.1198" fill="#006FFF"/>
<path d="M29.9999 34.4592C22.9152 39.6127 16.5603 47.4833 15.1905 59.3511C12.159 85.5454 29.4834 100.714 57.2047 100.063C67.8374 99.8159 79.896 98.0082 87.4635 93.7753C87.4635 93.7753 93.01 90.5418 95.5363 88.0717C97.0183 86.612 97.7818 85.9496 97.7818 85.9496C101.363 82.0087 104.777 76.3836 105.619 68.221C105.855 65.9867 105.888 63.6064 105.731 61.0801C104.215 36.5924 84.3534 24.3991 62.1112 24.4103" stroke="#212121" stroke-width="1.5" stroke-linecap="round" stroke-linejoin="round"/>
<path d="M54.3068 24.837C53.8352 24.8931 53.1167 25.0615 52.6451 25.1289C52.6451 25.1289 45.0888 26.2629 36.8477 30.3273" stroke="#212121" stroke-width="1.5" stroke-linecap="round" stroke-linejoin="round"/>
<path d="M48.2576 99.9955C48.2576 99.9955 41.4648 106.945 40.9932 113.985C40.5216 121.014 43.9349 123.08 46.7643 121.654C48.527 120.756 48.6618 117.78 47.9544 115.726" stroke="#212121" stroke-width="1.5" stroke-linecap="round" stroke-linejoin="round"/>
<path d="M45.2461 114.535C45.2461 114.535 47.2446 116.399 48.8053 114.614C49.8719 113.39 48.0755 111.358 48.0755 111.358C48.0755 111.358 49.1197 106.957 50.22 104.823" stroke="#212121" stroke-width="1.5" stroke-linecap="round" stroke-linejoin="round"/>
<path d="M79.4472 115.714C78.7398 117.769 78.8745 120.744 80.6373 121.643C83.4667 123.08 86.8799 121.014 86.4084 113.974C85.9368 106.945 79.144 99.9843 79.144 99.9843C79.144 99.9843 77.8191 98.6145 76.9883 97.8622" stroke="#212121" stroke-width="1.5" stroke-linecap="round" stroke-linejoin="round"/>
<path d="M82.1419 114.535C82.1419 114.535 80.1433 116.399 78.5827 114.614C77.516 113.39 79.3125 111.358 79.3125 111.358C79.3125 111.358 78.2683 106.957 77.168 104.823" stroke="#212121" stroke-width="1.5" stroke-linecap="round" stroke-linejoin="round"/>
<path d="M59.5859 69.8153C59.5859 69.8153 65.0763 71.5444 67.6026 67.5024" stroke="#212121" stroke-width="1.5" stroke-linecap="round" stroke-linejoin="round"/>
<path d="M56.094 66.661C57.1317 66.3034 57.6012 64.9348 57.1427 63.6039C56.6842 62.2731 55.4713 61.484 54.4336 61.8416C53.3959 62.1991 52.9264 63.5678 53.3849 64.8986C53.8434 66.2294 55.0563 67.0185 56.094 66.661Z" fill="#323031"/>
<path d="M68.8169 62.6323C69.8539 62.2728 70.3208 60.9032 69.8597 59.5732C69.3987 58.2433 68.1842 57.4566 67.1472 57.8161C66.1102 58.1756 65.6433 59.5452 66.1044 60.8751C66.5654 62.2051 67.7798 62.9918 68.8169 62.6323Z" fill="#323031"/>
<path d="M76.6956 59.6767C76.6956 59.6767 74.641 61.1924 75.775 62.551C76.909 63.9095 79.1321 62.3376 79.671 60.8219C79.671 60.8219 79.8843 62.4948 81.299 62.2815C82.7137 62.0682 82.9719 60.1707 82.9719 60.1707" stroke="#212121" stroke-width="1.5" stroke-linecap="round" stroke-linejoin="round"/>
<path d="M43.8441 70.5676C43.8441 70.5676 41.7894 72.0833 42.9234 73.4419C44.0574 74.8005 46.2805 73.2286 46.8194 71.7128C46.8194 71.7128 47.0327 73.3858 48.4474 73.1724C49.8509 72.9591 50.1204 71.0616 50.1204 71.0616" stroke="#212121" stroke-width="1.5" stroke-linecap="round" stroke-linejoin="round"/>
<path d="M62.0888 24.4103L60.9997 20.6041C60.4047 18.5719 58.2714 17.393 56.2392 17.988C54.207 18.5831 53.028 20.7164 53.6231 22.7486L54.3192 24.8257" stroke="#212121" stroke-width="1.5" stroke-linecap="round" stroke-linejoin="round"/>
<path d="M36.8584 30.3273L36.0388 27.5092C35.4437 25.4769 33.3105 24.298 31.2782 24.8931C29.246 25.4882 28.0671 27.6214 28.6622 29.6537L29.9983 34.4591" stroke="#212121" stroke-width="1.5" stroke-linecap="round" stroke-linejoin="round"/>
<path d="M30.9766 29.3169C30.9766 29.3169 31.1899 31.6747 31.6502 32.0115C32.1106 32.3483 34.3786 31.5287 34.4123 31.0347C34.4459 30.5407 33.66 28.1492 33.66 28.1492" stroke="#212121" stroke-width="1.5" stroke-linecap="round" stroke-linejoin="round"/>
<path d="M31.3477 30.608L33.9862 29.6088" stroke="#212121" stroke-width="1.5" stroke-linecap="round" stroke-linejoin="round"/>
<path d="M58.7859 21.1318C58.7859 21.1318 59.7515 23.2875 59.5045 23.8152C59.2575 24.3429 56.8884 24.7247 56.6077 24.3093C56.327 23.8938 55.8555 21.4237 55.8555 21.4237" stroke="#212121" stroke-width="1.5" stroke-linecap="round" stroke-linejoin="round"/>
<path d="M59.1004 22.4455L56.3047 22.8609" stroke="#212121" stroke-width="1.5" stroke-linecap="round" stroke-linejoin="round"/>
<path d="M54.3281 100.501C54.3281 100.501 56.4389 103.993 59.3582 105.205L63.2542 100.22L68.4863 104.475C68.4863 104.475 71.0462 101.915 72.3823 99.1198" stroke="#212121" stroke-width="1.5" stroke-linecap="round" stroke-linejoin="round"/>
</g>
</g>
<defs>
<clipPath id="clip0_11816_195722">
<rect width="120" height="120" rx="60" fill="white"/>
</clipPath>
<clipPath id="clip1_11816_195722">
<rect width="92.6514" height="123" fill="white" transform="translate(14 17)"/>
</clipPath>
</defs>
</svg>
