<svg width="120" height="120" viewBox="0 0 120 120" fill="none" xmlns="http://www.w3.org/2000/svg">
<rect width="120" height="120" rx="60" fill="#D8EAFF"/>
<rect x="48.5508" y="88.3487" width="7.91672" height="10.5556" rx="3.95836" transform="rotate(9.04564 48.5508 88.3487)" fill="#2EE2F8"/>
<path d="M48.5195 90.1993L48.0225 95.132C47.8483 96.9227 49.0736 98.5593 50.8619 98.8883C52.6501 99.2174 54.3776 98.1175 54.8364 96.3499L55.7114 91.4108" stroke="#212121" stroke-width="1.5" stroke-linecap="round" stroke-linejoin="round"/>
<path d="M61.5538 23.644C43.1046 23.6339 31.0967 45.8481 31.0781 66.024C31.0556 75.7772 34.6813 86.1556 45.2878 90.0172C47.3419 90.7656 48.8332 91.8456 51.842 92.1694C53.413 92.3308 55.0013 92.3841 56.5644 92.4555C58.2608 92.526 63.8557 92.4854 65.552 92.5559C66.3228 92.5899 65.7854 94.4336 66.2108 96.497C66.4123 97.4604 66.7219 98.441 67.4075 99.1489C68.3798 100.146 70.0555 100.347 71.3075 99.7254C72.5596 99.1043 73.356 97.7232 73.425 96.315C73.4437 95.9188 73.4066 92.8085 73.5335 92.4296C73.8924 91.2893 77.7704 90.3323 78.8028 89.6983C88.4949 83.702 91.9529 74.5179 91.9601 66.1149C91.9815 41.8816 80.0177 23.7008 61.572 23.6691" fill="#2EE2F8"/>
<path d="M61.5538 23.644C43.1046 23.6339 31.0967 45.8481 31.0781 66.024C31.0556 75.7772 34.6813 86.1556 45.2878 90.0172C47.3419 90.7656 48.8332 91.8456 51.842 92.1694C53.413 92.3308 55.0013 92.3841 56.5644 92.4555C58.2608 92.526 63.8557 92.4854 65.552 92.5559C66.3228 92.5899 65.7854 94.4336 66.2108 96.497C66.4123 97.4604 66.7219 98.441 67.4075 99.1489C68.3798 100.146 70.0555 100.347 71.3075 99.7254C72.5596 99.1043 73.356 97.7232 73.425 96.315C73.4437 95.9188 73.4066 92.8085 73.5335 92.4296C73.8924 91.2893 77.7704 90.3323 78.8028 89.6983C88.4949 83.702 91.9529 74.5179 91.9601 66.1149C91.9815 41.8816 80.0177 23.7008 61.572 23.6691" stroke="#212121" stroke-width="1.5"/>
<path d="M47.9844 47.6518C49.358 47.8704 50.6489 46.9341 50.8676 45.5605C51.0863 44.1868 50.15 42.8959 48.7763 42.6773C47.4026 42.4586 46.1118 43.3949 45.8931 44.7685C45.6744 46.1422 46.6107 47.4331 47.9844 47.6518Z" fill="#323031"/>
<path d="M64.1328 47.6713C65.5065 47.89 66.7973 46.9537 67.016 45.58C67.2347 44.2063 66.2984 42.9155 64.9247 42.6968C63.5511 42.4781 62.2602 43.4144 62.0415 44.7881C61.8228 46.1617 62.7591 47.4526 64.1328 47.6713Z" fill="#323031"/>
<path d="M54.6592 46.0519L46.7718 49.2093L53.9463 52.4804" stroke="white" stroke-width="3" stroke-linecap="round" stroke-linejoin="round"/>
<path d="M60.4976 111.928C70.3662 111.928 78.3663 111.313 78.3663 110.554C78.3663 109.795 70.3662 109.179 60.4976 109.179C50.629 109.179 42.6289 109.795 42.6289 110.554C42.6289 111.313 50.629 111.928 60.4976 111.928Z" fill="#C6C6C6" fill-opacity="0.4"/>
</svg>
