<svg width="66" height="15" viewBox="0 0 66 15" fill="none" xmlns="http://www.w3.org/2000/svg">
<path d="M10.5684 7.87549H9.48828V6.23486H6.26172V5.34619H9.48828V3.70557H6.37793C5.986 4.67171 5.33887 5.5057 4.43652 6.20752C3.53418 6.90934 2.42448 7.45622 1.10742 7.84814L0.65625 7.00049C1.63607 6.70882 2.486 6.3374 3.20605 5.88623C3.92611 5.4305 4.49349 4.90641 4.9082 4.31396C5.32292 3.72152 5.56673 3.07666 5.63965 2.37939H1.27148V1.47705H6.80859C6.80859 1.94645 6.75618 2.40218 6.65137 2.84424H9.48828V0.574707H10.5684V7.87549ZM6.58984 7.99854C7.4056 7.99854 8.11882 8.09196 8.72949 8.27881C9.34017 8.46566 9.80957 8.73454 10.1377 9.08545C10.4704 9.4318 10.6367 9.84424 10.6367 10.3228C10.6367 10.8058 10.4704 11.2228 10.1377 11.5737C9.80957 11.9246 9.34017 12.1935 8.72949 12.3804C8.11882 12.5672 7.4056 12.6606 6.58984 12.6606C5.76497 12.6606 5.0472 12.5672 4.43652 12.3804C3.82585 12.1935 3.35417 11.9246 3.02148 11.5737C2.69336 11.2228 2.5293 10.8058 2.5293 10.3228C2.5293 9.84424 2.69336 9.4318 3.02148 9.08545C3.35417 8.73454 3.82585 8.46566 4.43652 8.27881C5.0472 8.09196 5.76497 7.99854 6.58984 7.99854ZM6.58984 8.85986C5.98372 8.85531 5.4528 8.91227 4.99707 9.03076C4.5459 9.14469 4.19727 9.31331 3.95117 9.53662C3.70508 9.75993 3.58203 10.022 3.58203 10.3228C3.58203 10.6235 3.70508 10.8856 3.95117 11.1089C4.19727 11.3276 4.5459 11.494 4.99707 11.6079C5.44824 11.7264 5.97917 11.7856 6.58984 11.7856C7.19141 11.7856 7.71549 11.7264 8.16211 11.6079C8.60872 11.494 8.9528 11.3276 9.19434 11.1089C9.44043 10.8856 9.56576 10.6235 9.57031 10.3228C9.56576 10.022 9.44043 9.75993 9.19434 9.53662C8.94824 9.31331 8.60189 9.14469 8.15527 9.03076C7.70866 8.91227 7.18685 8.85531 6.58984 8.85986ZM16.3144 2.9126C16.3144 3.34098 16.4443 3.75342 16.704 4.1499C16.9683 4.54183 17.3329 4.88363 17.7978 5.17529C18.2626 5.46696 18.789 5.68343 19.3769 5.82471L18.8984 6.65869C18.1829 6.4764 17.5562 6.18929 17.0185 5.79736C16.4807 5.40544 16.0774 4.94059 15.8085 4.40283C15.5442 4.99528 15.1318 5.51025 14.5712 5.94775C14.0152 6.38525 13.3658 6.70426 12.623 6.90479L12.1308 6.0708C12.7323 5.90674 13.2701 5.66748 13.7441 5.35303C14.218 5.03857 14.5894 4.67171 14.8583 4.25244C15.1272 3.83317 15.2616 3.38656 15.2616 2.9126V2.70752H12.5136V1.81885H15.2616V0.52002H16.3417V1.81885H19.0624V2.70752H16.3144V2.9126ZM21.6737 3.26807H23.5058V4.18408H21.6737V6.98682H20.6073V0.561035H21.6737V3.26807ZM21.6737 10.4321H15.0019V11.7173H22.1249V12.5786H13.9491V9.61182H20.6073V8.43604H13.9218V7.58838H21.6737V10.4321ZM27.994 3.17236C27.994 3.66911 28.1261 4.14535 28.3905 4.60107C28.6593 5.05225 29.0285 5.45101 29.4979 5.79736C29.9673 6.13916 30.5005 6.39893 31.0975 6.57666L30.578 7.41064C29.8716 7.20101 29.2495 6.87516 28.7118 6.43311C28.174 5.99105 27.7684 5.47152 27.495 4.87451C27.2306 5.53988 26.8296 6.12321 26.2918 6.62451C25.7586 7.12126 25.132 7.48812 24.412 7.7251L23.8924 6.90479C24.4849 6.70426 25.0112 6.41715 25.4715 6.04346C25.9364 5.6652 26.2964 5.2277 26.5516 4.73096C26.8114 4.23421 26.9412 3.71468 26.9412 3.17236V2.9126H24.1932V2.05127H26.9412V0.506348H28.0213V2.05127H30.742V2.9126H27.994V3.17236ZM33.9276 7.93018H32.8475V4.93604H30.3592V4.04736H32.8475V0.561035H33.9276V7.93018ZM29.8944 8.2583C30.7375 8.2583 31.4644 8.34489 32.075 8.51807C32.6857 8.69124 33.1528 8.94417 33.4764 9.27686C33.8045 9.60498 33.9686 10.0037 33.9686 10.4731C33.9686 10.938 33.8045 11.3368 33.4764 11.6694C33.1528 12.0021 32.6857 12.255 32.075 12.4282C31.4644 12.6014 30.7375 12.688 29.8944 12.688C29.0513 12.688 28.3244 12.6014 27.7137 12.4282C27.103 12.255 26.6336 12.0021 26.3055 11.6694C25.9819 11.3368 25.8202 10.938 25.8202 10.4731C25.8202 10.0037 25.9819 9.60498 26.3055 9.27686C26.6336 8.94417 27.103 8.69124 27.7137 8.51807C28.3244 8.34489 29.0513 8.2583 29.8944 8.2583ZM29.8944 9.09229C29.2746 9.09684 28.7368 9.15381 28.2811 9.26318C27.8299 9.37256 27.4836 9.53206 27.242 9.7417C27.0005 9.94678 26.882 10.1906 26.8866 10.4731C26.882 10.7511 27.0005 10.995 27.242 11.2046C27.4881 11.4097 27.8368 11.5669 28.2879 11.6763C28.7437 11.7856 29.2791 11.8403 29.8944 11.8403C30.5142 11.8403 31.0496 11.7856 31.5008 11.6763C31.952 11.5669 32.2983 11.4097 32.5399 11.2046C32.7814 10.9995 32.9022 10.7557 32.9022 10.4731C32.9022 10.1906 32.7814 9.94678 32.5399 9.7417C32.3029 9.53206 31.9588 9.37256 31.5077 9.26318C31.0565 9.15381 30.5187 9.09684 29.8944 9.09229ZM39.3766 7.83447C39.3903 5.34619 40.0466 3.16325 41.3454 1.28564H42.3845C42.07 1.74137 41.7761 2.33154 41.5026 3.05615C41.2292 3.78076 41.0082 4.56234 40.8395 5.40088C40.6755 6.23942 40.5934 7.05062 40.5934 7.83447C40.5934 8.61833 40.6755 9.4318 40.8395 10.2749C41.0082 11.118 41.2292 11.9019 41.5026 12.6265C41.7761 13.3511 42.07 13.9412 42.3845 14.397H41.3454C40.7028 13.4627 40.2152 12.4533 39.8825 11.3687C39.5498 10.284 39.3812 9.10596 39.3766 7.83447ZM46.9137 11.6079H45.6695V2.99463H45.6148L43.2086 4.59424V3.3501L45.6695 1.70947H46.9137V11.6079ZM52.6323 11.6079H51.3882V2.99463H51.3335L48.9273 4.59424V3.3501L51.3882 1.70947H52.6323V11.6079ZM54.8373 10.7056L58.2143 7.15088C58.6609 6.68148 59.0004 6.30322 59.2329 6.01611C59.4698 5.72445 59.6476 5.44417 59.7661 5.17529C59.8891 4.90186 59.9506 4.61702 59.9506 4.3208C59.9506 3.99268 59.864 3.70101 59.6909 3.4458C59.5177 3.19059 59.2807 2.99235 58.9799 2.85107C58.6837 2.7098 58.351 2.63916 57.9819 2.63916C57.5945 2.63916 57.255 2.71663 56.9633 2.87158C56.6717 3.02653 56.4461 3.24528 56.2866 3.52783C56.1316 3.81038 56.0541 4.13395 56.0541 4.49854H54.892C54.8875 3.92432 55.0196 3.41618 55.2885 2.97412C55.562 2.53206 55.9379 2.18799 56.4164 1.94189C56.895 1.6958 57.4304 1.57275 58.0229 1.57275C58.6108 1.57275 59.1371 1.69352 59.602 1.93506C60.0714 2.1766 60.4383 2.507 60.7026 2.92627C60.9669 3.34554 61.0991 3.81038 61.0991 4.3208C61.0991 4.69906 61.0307 5.06136 60.894 5.40771C60.7573 5.74951 60.5271 6.13005 60.2036 6.54932C59.8845 6.96403 59.4265 7.479 58.8295 8.09424L56.56 10.4321V10.5142H61.2768V11.6079H54.851L54.8373 10.7056ZM65.2455 7.83447C65.2409 9.10596 65.0723 10.284 64.7396 11.3687C64.4069 12.4533 63.9193 13.4627 63.2767 14.397H62.2377C62.5521 13.9412 62.8461 13.3511 63.1195 12.6265C63.3929 11.9019 63.6117 11.118 63.7757 10.2749C63.9444 9.4318 64.0287 8.61833 64.0287 7.83447C64.0287 7.05062 63.9444 6.23942 63.7757 5.40088C63.6117 4.56234 63.3929 3.78076 63.1195 3.05615C62.8461 2.33154 62.5521 1.74137 62.2377 1.28564H63.2767C64.5755 3.16325 65.2318 5.34619 65.2455 7.83447Z" fill="#BBC4D8"/>
</svg>
