<svg width="99" height="15" viewBox="0 0 99 15" fill="none" xmlns="http://www.w3.org/2000/svg">
<path d="M9.6582 2.11963C9.6582 2.77588 9.63997 3.36833 9.60352 3.89697C9.56706 4.42106 9.47819 5.01807 9.33691 5.68799H11.1211V6.57666H-0.0078125V5.68799H8.25684C8.40267 5.01351 8.49382 4.41423 8.53027 3.89014C8.57129 3.36605 8.5918 2.77588 8.5918 2.11963V2.10596H1.40039V1.21729H9.6582V2.11963ZM9.71289 12.5513H1.35938V8.2583H9.71289V12.5513ZM2.42578 11.6763H8.64648V9.10596H2.42578V11.6763ZM22.746 7.13721H19.9843V8.81885C20.44 9.00114 20.7864 9.23812 21.0234 9.52979C21.2649 9.81689 21.3879 10.1541 21.3925 10.5415C21.3879 10.9972 21.2193 11.3869 20.8866 11.7104C20.554 12.034 20.0754 12.2801 19.4511 12.4487C18.8267 12.6219 18.0793 12.7108 17.2089 12.7153C16.3293 12.7108 15.5751 12.6219 14.9462 12.4487C14.3219 12.2801 13.8433 12.034 13.5107 11.7104C13.178 11.3869 13.0116 10.9972 13.0116 10.5415C13.0116 10.1496 13.137 9.8055 13.3876 9.50928C13.6383 9.21305 14.0006 8.97607 14.4745 8.79834V7.13721H11.6718V6.26221H22.746V7.13721ZM17.2089 8.39502C17.8515 8.39502 18.4166 8.43831 18.9042 8.5249V7.13721H15.5546V8.51807C16.0468 8.43604 16.5982 8.39502 17.2089 8.39502ZM17.2089 9.21533C16.2245 9.22445 15.4589 9.34521 14.912 9.57764C14.3697 9.8055 14.1008 10.1268 14.1054 10.5415C14.1008 10.9608 14.3697 11.2843 14.912 11.5122C15.4589 11.7401 16.2245 11.854 17.2089 11.854C18.1842 11.854 18.9452 11.7401 19.4921 11.5122C20.039 11.2843 20.3124 10.9608 20.3124 10.5415C20.3124 10.1268 20.0367 9.8055 19.4853 9.57764C18.9384 9.34521 18.1796 9.22445 17.2089 9.21533ZM17.2089 0.807129C18.0839 0.807129 18.8427 0.898275 19.4853 1.08057C20.1324 1.26286 20.6292 1.5249 20.9755 1.8667C21.3264 2.2085 21.5019 2.61637 21.5019 3.09033C21.5019 3.55973 21.3287 3.96533 20.9823 4.30713C20.636 4.64437 20.1392 4.90186 19.4921 5.07959C18.845 5.25732 18.0839 5.34619 17.2089 5.34619C16.3248 5.34619 15.5592 5.25732 14.912 5.07959C14.2649 4.90186 13.7682 4.64437 13.4218 4.30713C13.0754 3.96533 12.9023 3.55973 12.9023 3.09033C12.9023 2.61637 13.0754 2.2085 13.4218 1.8667C13.7682 1.5249 14.2649 1.26286 14.912 1.08057C15.5592 0.898275 16.3248 0.807129 17.2089 0.807129ZM17.2089 1.66846C16.5527 1.66846 15.983 1.72542 15.4999 1.83936C15.0214 1.94873 14.6523 2.11051 14.3925 2.32471C14.1327 2.5389 14.0051 2.79411 14.0097 3.09033C14.0051 3.382 14.1327 3.63493 14.3925 3.84912C14.6523 4.05876 15.0214 4.22054 15.4999 4.33447C15.983 4.44385 16.5527 4.49854 17.2089 4.49854C17.856 4.49854 18.4189 4.44385 18.8974 4.33447C19.3805 4.22054 19.7519 4.05876 20.0116 3.84912C20.276 3.63493 20.4081 3.382 20.4081 3.09033C20.4081 2.79411 20.276 2.5389 20.0116 2.32471C19.7519 2.11051 19.3805 1.94873 18.8974 1.83936C18.4189 1.72542 17.856 1.66846 17.2089 1.66846ZM32.8534 3.5415H34.6854V4.43018H32.8534V7.46533H31.787V0.561035H32.8534V3.5415ZM29.5311 1.354C29.5265 2.36572 29.2964 3.28174 28.8407 4.10205C28.3849 4.92236 27.7264 5.62646 26.8651 6.21436C26.0083 6.80225 24.9784 7.26025 23.7752 7.58838L23.3377 6.72705C24.3312 6.45817 25.1926 6.10498 25.9217 5.66748C26.6509 5.22542 27.2228 4.71501 27.6375 4.13623C28.0568 3.55745 28.3029 2.92627 28.3758 2.24268H23.8846V1.354H29.5311ZM32.8534 12.5513H25.1561V8.02588H32.8534V12.5513ZM26.2225 11.6763H31.787V8.91455H26.2225V11.6763ZM46.1052 7.50635H35.031V6.63135H40.0349V5.15479H36.4392V1.05322H44.738V1.94189H37.5056V4.26611H44.8474V5.15479H41.1013V6.63135H46.1052V7.50635ZM44.7517 12.811H43.6853V9.5708H36.2615V8.6958H44.7517V12.811ZM56.7321 9.80322H55.652V8.54541H53.1364V7.76611H55.652V0.574707H56.7321V9.80322ZM57.0329 12.4556H48.3923V8.90088H49.4723V11.5532H57.0329V12.4556ZM46.6423 6.20752C48.3102 6.1984 49.7595 6.17334 50.9899 6.13232C52.2249 6.09131 53.4144 5.99788 54.5583 5.85205L54.6266 6.63135C53.624 6.79085 52.5121 6.90706 51.2907 6.97998V9.37939H50.2106V7.03467C49.3037 7.06657 48.3832 7.08252 47.4489 7.08252H46.7927L46.6423 6.20752ZM50.6345 1.06689C51.2223 1.06689 51.7419 1.15576 52.193 1.3335C52.6488 1.50667 53.002 1.75505 53.2526 2.07861C53.5078 2.39762 53.6377 2.76676 53.6423 3.18604C53.6377 3.61442 53.5078 3.98812 53.2526 4.30713C53.002 4.62158 52.6488 4.8654 52.193 5.03857C51.7419 5.20719 51.2223 5.2915 50.6345 5.2915C50.042 5.2915 49.5179 5.20719 49.0622 5.03857C48.6065 4.8654 48.2533 4.62158 48.0026 4.30713C47.752 3.98812 47.6266 3.61442 47.6266 3.18604C47.6266 2.76676 47.752 2.39762 48.0026 2.07861C48.2533 1.75505 48.6065 1.50667 49.0622 1.3335C49.5179 1.15576 50.042 1.06689 50.6345 1.06689ZM50.6345 1.88721C50.2425 1.88265 49.8962 1.93506 49.5954 2.04443C49.2946 2.15381 49.0599 2.30876 48.8913 2.50928C48.7272 2.70524 48.6475 2.93083 48.652 3.18604C48.6475 3.4458 48.7272 3.67594 48.8913 3.87646C49.0554 4.07243 49.2878 4.2251 49.5886 4.33447C49.8939 4.44385 50.2425 4.49854 50.6345 4.49854C51.0127 4.49854 51.3522 4.44385 51.653 4.33447C51.9538 4.2251 52.1885 4.07243 52.3571 3.87646C52.5257 3.67594 52.6123 3.4458 52.6169 3.18604C52.6123 2.93083 52.5235 2.70524 52.3503 2.50928C52.1817 2.30876 51.947 2.15381 51.6462 2.04443C51.3499 1.93506 51.0127 1.88265 50.6345 1.88721ZM62.2359 7.83447C62.2495 5.34619 62.9058 3.16325 64.2046 1.28564H65.2437C64.9292 1.74137 64.6353 2.33154 64.3618 3.05615C64.0884 3.78076 63.8674 4.56234 63.6987 5.40088C63.5347 6.23942 63.4527 7.05062 63.4527 7.83447C63.4527 8.61833 63.5347 9.4318 63.6987 10.2749C63.8674 11.118 64.0884 11.9019 64.3618 12.6265C64.6353 13.3511 64.9292 13.9412 65.2437 14.397H64.2046C63.562 13.4627 63.0744 12.4533 62.7417 11.3687C62.409 10.284 62.2404 9.10596 62.2359 7.83447ZM69.7729 11.6079H68.5287V2.99463H68.4741L66.0678 4.59424V3.3501L68.5287 1.70947H69.7729V11.6079ZM75.4095 11.7446C74.7578 11.7446 74.1745 11.6353 73.6595 11.4165C73.1491 11.1978 72.7435 10.8901 72.4427 10.4937C72.1465 10.0972 71.987 9.63916 71.9642 9.11963H73.2084C73.2311 9.42497 73.3405 9.69385 73.5365 9.92627C73.737 10.1587 73.999 10.3387 74.3226 10.4663C74.6462 10.5894 75.0039 10.6509 75.3959 10.6509C75.8242 10.6509 76.2093 10.578 76.5511 10.4321C76.8975 10.2817 77.1664 10.0767 77.3578 9.81689C77.5537 9.55257 77.6517 9.25179 77.6517 8.91455C77.6517 8.54997 77.556 8.22868 77.3646 7.95068C77.1778 7.67269 76.9043 7.45622 76.5443 7.30127C76.1843 7.14632 75.7513 7.06885 75.2455 7.06885H74.4388V5.98877H75.2455C75.642 5.98877 75.9951 5.91813 76.305 5.77686C76.6149 5.63558 76.8542 5.43734 77.0228 5.18213C77.196 4.92692 77.2826 4.6307 77.2826 4.29346C77.2826 3.96989 77.2051 3.68278 77.0502 3.43213C76.8998 3.18148 76.6856 2.98779 76.4076 2.85107C76.1296 2.7098 75.806 2.63916 75.4369 2.63916C75.0814 2.63916 74.7487 2.70296 74.4388 2.83057C74.1289 2.95817 73.876 3.14046 73.68 3.37744C73.4841 3.60986 73.377 3.8833 73.3587 4.19775H72.1693C72.1921 3.68734 72.3516 3.23389 72.6478 2.8374C72.944 2.43636 73.3382 2.12646 73.8304 1.90771C74.3226 1.68441 74.8627 1.57275 75.4505 1.57275C76.0612 1.57275 76.5944 1.69352 77.0502 1.93506C77.5104 2.17204 77.8636 2.49333 78.1097 2.89893C78.3558 3.30452 78.4766 3.74658 78.472 4.2251C78.4766 4.78109 78.3285 5.25732 78.0277 5.65381C77.7269 6.05029 77.3145 6.32145 76.7904 6.46729V6.53564C77.2142 6.604 77.5811 6.74756 77.891 6.96631C78.2054 7.1805 78.4447 7.45622 78.6087 7.79346C78.7774 8.12614 78.8594 8.49984 78.8548 8.91455C78.8594 9.44775 78.7113 9.93083 78.4105 10.3638C78.1097 10.7922 77.695 11.1294 77.1664 11.3755C76.6423 11.6216 76.0567 11.7446 75.4095 11.7446ZM83.6302 11.7446C82.9785 11.7446 82.3951 11.6353 81.8802 11.4165C81.3697 11.1978 80.9641 10.8901 80.6634 10.4937C80.3671 10.0972 80.2076 9.63916 80.1848 9.11963H81.429C81.4518 9.42497 81.5611 9.69385 81.7571 9.92627C81.9576 10.1587 82.2197 10.3387 82.5432 10.4663C82.8668 10.5894 83.2246 10.6509 83.6165 10.6509C84.0449 10.6509 84.43 10.578 84.7718 10.4321C85.1181 10.2817 85.387 10.0767 85.5784 9.81689C85.7744 9.55257 85.8723 9.25179 85.8723 8.91455C85.8723 8.54997 85.7766 8.22868 85.5852 7.95068C85.3984 7.67269 85.1249 7.45622 84.7649 7.30127C84.4049 7.14632 83.972 7.06885 83.4661 7.06885H82.6595V5.98877H83.4661C83.8626 5.98877 84.2158 5.91813 84.5257 5.77686C84.8356 5.63558 85.0748 5.43734 85.2434 5.18213C85.4166 4.92692 85.5032 4.6307 85.5032 4.29346C85.5032 3.96989 85.4257 3.68278 85.2708 3.43213C85.1204 3.18148 84.9062 2.98779 84.6282 2.85107C84.3502 2.7098 84.0266 2.63916 83.6575 2.63916C83.302 2.63916 82.9694 2.70296 82.6595 2.83057C82.3496 2.95817 82.0966 3.14046 81.9007 3.37744C81.7047 3.60986 81.5976 3.8833 81.5794 4.19775H80.3899C80.4127 3.68734 80.5722 3.23389 80.8684 2.8374C81.1647 2.43636 81.5589 2.12646 82.0511 1.90771C82.5432 1.68441 83.0833 1.57275 83.6712 1.57275C84.2819 1.57275 84.8151 1.69352 85.2708 1.93506C85.7311 2.17204 86.0843 2.49333 86.3304 2.89893C86.5764 3.30452 86.6972 3.74658 86.6927 4.2251C86.6972 4.78109 86.5491 5.25732 86.2483 5.65381C85.9475 6.05029 85.5351 6.32145 85.011 6.46729V6.53564C85.4348 6.604 85.8017 6.74756 86.1116 6.96631C86.4261 7.1805 86.6653 7.45622 86.8294 7.79346C86.998 8.12614 87.08 8.49984 87.0755 8.91455C87.08 9.44775 86.9319 9.93083 86.6311 10.3638C86.3304 10.7922 85.9156 11.1294 85.387 11.3755C84.8629 11.6216 84.2773 11.7446 83.6302 11.7446ZM88.4191 10.7056L91.7961 7.15088C92.2427 6.68148 92.5822 6.30322 92.8147 6.01611C93.0516 5.72445 93.2294 5.44417 93.3479 5.17529C93.4709 4.90186 93.5324 4.61702 93.5324 4.3208C93.5324 3.99268 93.4458 3.70101 93.2727 3.4458C93.0995 3.19059 92.8625 2.99235 92.5617 2.85107C92.2655 2.7098 91.9328 2.63916 91.5637 2.63916C91.1763 2.63916 90.8368 2.71663 90.5451 2.87158C90.2535 3.02653 90.0279 3.24528 89.8684 3.52783C89.7134 3.81038 89.6359 4.13395 89.6359 4.49854H88.4738C88.4693 3.92432 88.6014 3.41618 88.8703 2.97412C89.1438 2.53206 89.5197 2.18799 89.9982 1.94189C90.4768 1.6958 91.0122 1.57275 91.6047 1.57275C92.1926 1.57275 92.7189 1.69352 93.1838 1.93506C93.6532 2.1766 94.0201 2.507 94.2844 2.92627C94.5487 3.34554 94.6809 3.81038 94.6809 4.3208C94.6809 4.69906 94.6125 5.06136 94.4758 5.40771C94.3391 5.74951 94.1089 6.13005 93.7854 6.54932C93.4663 6.96403 93.0083 7.479 92.4113 8.09424L90.1418 10.4321V10.5142H94.8586V11.6079H88.4328L88.4191 10.7056ZM98.8273 7.83447C98.8227 9.10596 98.6541 10.284 98.3214 11.3687C97.9887 12.4533 97.5011 13.4627 96.8585 14.397H95.8195C96.1339 13.9412 96.4278 13.3511 96.7013 12.6265C96.9747 11.9019 97.1935 11.118 97.3575 10.2749C97.5262 9.4318 97.6105 8.61833 97.6105 7.83447C97.6105 7.05062 97.5262 6.23942 97.3575 5.40088C97.1935 4.56234 96.9747 3.78076 96.7013 3.05615C96.4278 2.33154 96.1339 1.74137 95.8195 1.28564H96.8585C98.1573 3.16325 98.8136 5.34619 98.8273 7.83447Z" fill="#BBC4D8"/>
</svg>
