<svg width="32" height="32" viewBox="0 0 32 32" fill="none" xmlns="http://www.w3.org/2000/svg">
<rect width="32" height="32" rx="16" fill="#03C75A"/>
<path d="M23.5252 4.7182H8.47476C6.55574 4.7182 5 6.27907 5 8.20528V16.4776C5 18.4038 6.55574 19.9647 8.47476 19.9647H13.6592L15.4284 22.8453C15.4284 22.8453 15.4479 22.8791 15.4859 22.9274C15.5895 23.1049 15.7804 23.225 16 23.225C16.2186 23.225 16.4084 23.1059 16.5121 22.9304C16.5562 22.8781 16.5716 22.8442 16.5716 22.8442L18.3408 19.9637H23.5252C25.4443 19.9637 27 18.4028 27 16.4766V8.20528C27 6.2801 25.4443 4.7182 23.5252 4.7182Z" fill="white"/>
<path d="M9.88574 10.7801C9.88574 10.7801 9.28541 10.7801 8.74049 11.3106V9.17404H7.39307V14.7854H8.75383V14.3462C8.75383 14.3462 9.07503 14.926 9.88472 14.926C9.88472 14.926 11.7832 14.8562 11.7832 12.8315C11.7842 12.8325 11.7145 10.7801 9.88574 10.7801ZM9.58917 13.7417C9.11095 13.7417 8.72304 13.3538 8.72304 12.8756C8.72304 12.3974 9.11095 12.0105 9.58917 12.0105C10.0674 12.0105 10.4543 12.3984 10.4543 12.8756C10.4543 13.3538 10.0674 13.7417 9.58917 13.7417Z" fill="#F47628"/>
<path d="M12.2163 9.04886V10.347C12.2163 10.347 12.831 10.3193 12.831 11.4635V14.7854H14.1292V11.1567C14.1292 11.1567 14.1846 9.04886 12.2163 9.04886Z" fill="#F47628"/>
<path d="M17.3042 10.7975C17.3042 10.7975 15.0784 10.7975 15.0784 12.8756C15.0784 12.8756 15.0065 14.926 17.3042 14.926C17.3042 14.926 19.5814 14.9229 19.5814 12.8756C19.5804 12.8756 19.6543 10.7975 17.3042 10.7975ZM17.3042 13.7417C16.826 13.7417 16.4381 13.3538 16.4381 12.8756C16.4381 12.3974 16.826 12.0105 17.3042 12.0105C17.7825 12.0105 18.1693 12.3984 18.1693 12.8756C18.1693 13.3538 17.7825 13.7417 17.3042 13.7417Z" fill="#F47628"/>
<path d="M23.2978 10.934V11.3106C23.2978 11.3106 22.9109 10.7975 22.1679 10.7975C22.1679 10.7975 20.2622 10.7175 20.2622 12.8613C20.2622 12.8613 20.2407 14.8593 22.1156 14.8593C22.1156 14.8593 22.8801 14.8901 23.2978 14.3462V14.6602C23.2978 14.6602 23.3922 15.6444 22.4398 15.6444H22.1156V16.8378H22.6389C22.6389 16.8378 24.6072 16.8594 24.6072 14.7341V10.934H23.2978ZM22.4922 13.7417C22.014 13.7417 21.6271 13.3538 21.6271 12.8756C21.6271 12.3974 22.014 12.0105 22.4922 12.0105C22.9704 12.0105 23.3573 12.3984 23.3573 12.8756C23.3573 13.3538 22.9704 13.7417 22.4922 13.7417Z" fill="#F47628"/>
</svg>
