<svg width="194" height="15" viewBox="0 0 194 15" fill="none" xmlns="http://www.w3.org/2000/svg">
<path d="M10.5684 12.7427H9.50195V7.79346H6.58984V9.6665H0.984375V1.51807H2.06445V4.68994H5.53711V1.51807H6.58984V3.60986H9.50195V0.561035H10.5684V12.7427ZM5.53711 8.77783V5.55127H2.06445V8.77783H5.53711ZM9.50195 6.89111V4.49854H6.58984V6.89111H9.50195ZM23.287 7.88916H18.2421V9.18799H21.9198V12.7153H20.8398V10.0767H13.4023V9.18799H17.1894V7.88916H12.1581V7.02783H23.287V7.88916ZM21.8515 3.81494H14.6737V5.11377H22.1112V5.9751H13.6073V3.0083H20.7714V1.75049H13.5663V0.875488H21.8515V3.81494ZM28.1717 3.82861C28.1672 4.54867 28.313 5.26416 28.6092 5.9751C28.9054 6.68148 29.3065 7.31038 29.8123 7.86182C30.3182 8.41325 30.8696 8.8234 31.4666 9.09229L30.8104 9.93994C30.1177 9.59814 29.4888 9.09001 28.9237 8.41553C28.3631 7.73649 27.9393 6.96631 27.6522 6.10498C27.3696 7.021 26.9458 7.84131 26.3807 8.56592C25.8156 9.28597 25.1776 9.82601 24.4666 10.186L23.783 9.28369C24.3801 9.0057 24.9315 8.58415 25.4373 8.01904C25.9432 7.44938 26.3465 6.79769 26.6473 6.06396C26.9481 5.32568 27.1008 4.58057 27.1053 3.82861V1.61377H28.1717V3.82861ZM33.8729 12.7427H32.7928V0.561035H33.8729V12.7427ZM39.6463 2.87158C39.6463 3.39567 39.7693 3.89697 40.0154 4.37549C40.266 4.84945 40.6147 5.26872 41.0613 5.6333C41.5125 5.99333 42.0343 6.27132 42.6267 6.46729L42.1209 7.31494C41.4282 7.08708 40.822 6.743 40.3025 6.28271C39.7875 5.82243 39.3979 5.28239 39.1336 4.6626C38.8738 5.35986 38.475 5.97054 37.9373 6.49463C37.3995 7.01416 36.766 7.40609 36.0369 7.67041L35.49 6.80908C36.0916 6.604 36.627 6.30322 37.0964 5.90674C37.5658 5.51025 37.9304 5.04997 38.1902 4.52588C38.4545 3.99723 38.589 3.4458 38.5935 2.87158V2.35205H35.8181V1.46338H42.3806V2.35205H39.6463V2.87158ZM45.033 3.66455H46.865V4.56689H45.033V7.90283H43.9666V0.561035H45.033V3.66455ZM41.1365 8.23096C41.9659 8.23096 42.6814 8.31982 43.283 8.49756C43.8845 8.67074 44.3448 8.92367 44.6638 9.25635C44.9828 9.58903 45.1423 9.98551 45.1423 10.4458C45.1423 10.9152 44.9828 11.3185 44.6638 11.6558C44.3448 11.993 43.8845 12.2482 43.283 12.4214C42.6814 12.5991 41.9659 12.688 41.1365 12.688C40.3071 12.688 39.5893 12.5991 38.9832 12.4214C38.377 12.2482 37.9122 11.993 37.5886 11.6558C37.2651 11.3185 37.1033 10.9152 37.1033 10.4458C37.1033 9.98551 37.2651 9.58903 37.5886 9.25635C37.9122 8.92367 38.377 8.67074 38.9832 8.49756C39.5893 8.31982 40.3071 8.23096 41.1365 8.23096ZM41.1365 9.09229C40.5304 9.09229 40.004 9.14697 39.5574 9.25635C39.1108 9.36117 38.769 9.51611 38.532 9.72119C38.295 9.92627 38.1788 10.1678 38.1834 10.4458C38.1788 10.7329 38.295 10.9813 38.532 11.1909C38.769 11.396 39.1085 11.5532 39.5505 11.6626C39.9972 11.772 40.5258 11.8267 41.1365 11.8267C41.7517 11.8267 42.2804 11.772 42.7224 11.6626C43.169 11.5532 43.5108 11.396 43.7478 11.1909C43.9848 10.9813 44.1033 10.7329 44.1033 10.4458C44.1033 10.1632 43.9848 9.92171 43.7478 9.72119C43.5108 9.51611 43.169 9.36117 42.7224 9.25635C42.2758 9.14697 41.7472 9.09229 41.1365 9.09229ZM60.0523 3.0083V3.15869C60.0432 4.1613 60.0113 5.06136 59.9566 5.85889C59.9065 6.65186 59.788 7.57015 59.6012 8.61377L58.5074 8.49072C58.6533 7.77067 58.7581 7.09163 58.8219 6.45361C58.8902 5.81559 58.9313 5.24821 58.9449 4.75146C58.9632 4.25472 58.9723 3.67367 58.9723 3.0083V2.68018H51.4801V1.7915H60.0523V3.0083ZM61.3785 10.9927H50.3043V10.104H54.652V5.75635H55.7047V10.104H61.3785V10.9927ZM72.3062 7.73877H71.2808V4.52588H69.6265V7.65674H68.6011V0.807129H69.6265V3.63721H71.2808V0.574707H72.3062V7.73877ZM72.3062 12.7153H71.2534V9.17432H64.103V8.29932H72.3062V12.7153ZM67.3159 1.46338C67.3159 2.90804 66.9149 4.17497 66.1128 5.26416C65.3107 6.3488 64.1349 7.21924 62.5855 7.87549L62.0523 7.06885C63.3101 6.55387 64.2899 5.89535 64.9917 5.09326C65.6981 4.29118 66.1037 3.37744 66.2085 2.35205H62.5445V1.46338H67.3159ZM83.9858 9.68018H82.9604V0.561035H83.9858V9.68018ZM81.5932 9.33838H80.5541V4.53955H78.6401V3.65088H80.5541V0.807129H81.5932V9.33838ZM84.3549 12.4556H76.0151V8.55908H77.0815V11.5532H84.3549V12.4556ZM77.2592 3.24072C77.2592 3.71924 77.3549 4.18864 77.5463 4.64893C77.7423 5.10921 78.0226 5.5262 78.3871 5.8999C78.7563 6.2736 79.1915 6.56755 79.6928 6.78174L79.0912 7.62939C78.5398 7.37419 78.0659 7.02555 77.6694 6.5835C77.2729 6.14144 76.9698 5.64014 76.7602 5.07959C76.5323 5.70394 76.2088 6.26676 75.7895 6.76807C75.3702 7.26937 74.8758 7.65674 74.3061 7.93018L73.7045 7.09619C74.2104 6.85921 74.6524 6.53109 75.0307 6.11182C75.4135 5.68799 75.7075 5.22542 75.9125 4.72412C76.1176 4.21826 76.2202 3.7238 76.2202 3.24072V1.42236H77.2592V3.24072ZM95.4193 12.7427H94.3529V6.04346H91.7826V5.15479H94.3529V0.561035H95.4193V12.7427ZM91.5775 2.5708H86.9837V5.1001H91.0443V5.9751H86.9837V8.91455C88.1459 8.91455 89.1211 8.88949 89.9095 8.83936C90.7025 8.78467 91.5046 8.68669 92.3158 8.54541L92.4388 9.43408C91.5775 9.57536 90.7298 9.67334 89.8959 9.72803C89.0619 9.77816 88.041 9.80322 86.8334 9.80322H85.9037V1.68213H91.5775V2.5708ZM100.868 7.83447C100.882 5.34619 101.538 3.16325 102.837 1.28564H103.876C103.562 1.74137 103.268 2.33154 102.994 3.05615C102.721 3.78076 102.5 4.56234 102.331 5.40088C102.167 6.23942 102.085 7.05062 102.085 7.83447C102.085 8.61833 102.167 9.4318 102.331 10.2749C102.5 11.118 102.721 11.9019 102.994 12.6265C103.268 13.3511 103.562 13.9412 103.876 14.397H102.837C102.195 13.4627 101.707 12.4533 101.374 11.3687C101.042 10.284 100.873 9.10596 100.868 7.83447ZM108.146 11.7446C107.416 11.7446 106.792 11.5464 106.273 11.1499C105.758 10.7534 105.363 10.1746 105.09 9.41357C104.821 8.65251 104.687 7.73421 104.687 6.65869C104.687 5.59684 104.823 4.68538 105.097 3.92432C105.37 3.15869 105.767 2.57536 106.286 2.17432C106.806 1.77327 107.426 1.57275 108.146 1.57275C108.866 1.57275 109.485 1.77327 110.005 2.17432C110.525 2.57536 110.921 3.15869 111.194 3.92432C111.468 4.68538 111.605 5.59684 111.605 6.65869C111.605 7.73421 111.468 8.65251 111.194 9.41357C110.926 10.1746 110.531 10.7534 110.012 11.1499C109.492 11.5464 108.87 11.7446 108.146 11.7446ZM108.146 10.6509C108.62 10.6509 109.025 10.4959 109.362 10.186C109.7 9.87614 109.957 9.42269 110.135 8.82568C110.313 8.22868 110.401 7.50635 110.401 6.65869C110.401 5.81104 110.313 5.08643 110.135 4.48486C109.957 3.8833 109.7 3.42529 109.362 3.11084C109.025 2.79639 108.62 2.63916 108.146 2.63916C107.672 2.63916 107.264 2.79639 106.922 3.11084C106.585 3.42529 106.325 3.8833 106.143 4.48486C105.965 5.08643 105.876 5.81104 105.876 6.65869C105.876 7.50635 105.965 8.22868 106.143 8.82568C106.32 9.42269 106.578 9.87614 106.915 10.186C107.257 10.4959 107.667 10.6509 108.146 10.6509ZM116.134 11.7446C115.45 11.7446 114.84 11.6284 114.302 11.396C113.769 11.159 113.354 10.8309 113.058 10.4116C112.761 9.99235 112.616 9.51611 112.62 8.98291C112.616 8.56364 112.7 8.17399 112.873 7.81396C113.051 7.44938 113.295 7.1486 113.605 6.91162C113.914 6.67464 114.256 6.52653 114.63 6.46729V6.4126C114.306 6.33512 114.022 6.19157 113.775 5.98193C113.529 5.76774 113.338 5.5057 113.201 5.1958C113.069 4.8859 113.003 4.55322 113.003 4.19775C113.003 3.70101 113.137 3.25212 113.406 2.85107C113.68 2.45003 114.053 2.13786 114.527 1.91455C115.006 1.68669 115.541 1.57275 116.134 1.57275C116.726 1.57275 117.259 1.68669 117.733 1.91455C118.212 2.13786 118.588 2.45003 118.861 2.85107C119.135 3.24756 119.274 3.69645 119.278 4.19775C119.274 4.55322 119.201 4.8859 119.06 5.1958C118.923 5.5057 118.731 5.76774 118.485 5.98193C118.239 6.19157 117.957 6.33512 117.638 6.4126V6.46729C118.007 6.52653 118.344 6.67464 118.649 6.91162C118.959 7.1486 119.203 7.44938 119.381 7.81396C119.563 8.17399 119.657 8.56364 119.661 8.98291C119.657 9.51611 119.504 9.99235 119.203 10.4116C118.902 10.8309 118.485 11.159 117.952 11.396C117.419 11.6284 116.813 11.7446 116.134 11.7446ZM116.134 10.6646C116.599 10.6646 117.004 10.5916 117.351 10.4458C117.697 10.3 117.964 10.0949 118.15 9.83057C118.337 9.56624 118.431 9.2609 118.431 8.91455C118.431 8.55452 118.33 8.23096 118.13 7.94385C117.934 7.65218 117.661 7.42432 117.31 7.26025C116.963 7.09619 116.571 7.01416 116.134 7.01416C115.696 7.01416 115.302 7.09619 114.951 7.26025C114.6 7.42432 114.327 7.65218 114.131 7.94385C113.935 8.23096 113.842 8.55452 113.851 8.91455C113.842 9.2609 113.928 9.56624 114.11 9.83057C114.297 10.0949 114.564 10.3 114.91 10.4458C115.257 10.5916 115.664 10.6646 116.134 10.6646ZM116.134 5.9751C116.503 5.9751 116.836 5.90446 117.132 5.76318C117.428 5.62191 117.658 5.42367 117.822 5.16846C117.991 4.91325 118.075 4.62158 118.075 4.29346C118.075 3.96989 117.993 3.68278 117.829 3.43213C117.67 3.18148 117.442 2.98779 117.146 2.85107C116.854 2.7098 116.517 2.63916 116.134 2.63916C115.746 2.63916 115.405 2.7098 115.108 2.85107C114.817 2.98779 114.591 3.18148 114.432 3.43213C114.272 3.68278 114.192 3.96989 114.192 4.29346C114.192 4.62158 114.274 4.91325 114.439 5.16846C114.607 5.42367 114.837 5.62191 115.129 5.76318C115.425 5.90446 115.76 5.9751 116.134 5.9751ZM124.136 11.7446C123.407 11.7446 122.782 11.5464 122.263 11.1499C121.748 10.7534 121.353 10.1746 121.08 9.41357C120.811 8.65251 120.677 7.73421 120.677 6.65869C120.677 5.59684 120.813 4.68538 121.087 3.92432C121.36 3.15869 121.757 2.57536 122.276 2.17432C122.796 1.77327 123.416 1.57275 124.136 1.57275C124.856 1.57275 125.476 1.77327 125.995 2.17432C126.515 2.57536 126.911 3.15869 127.185 3.92432C127.458 4.68538 127.595 5.59684 127.595 6.65869C127.595 7.73421 127.458 8.65251 127.185 9.41357C126.916 10.1746 126.521 10.7534 126.002 11.1499C125.482 11.5464 124.86 11.7446 124.136 11.7446ZM124.136 10.6509C124.61 10.6509 125.015 10.4959 125.353 10.186C125.69 9.87614 125.947 9.42269 126.125 8.82568C126.303 8.22868 126.392 7.50635 126.392 6.65869C126.392 5.81104 126.303 5.08643 126.125 4.48486C125.947 3.8833 125.69 3.42529 125.353 3.11084C125.015 2.79639 124.61 2.63916 124.136 2.63916C123.662 2.63916 123.254 2.79639 122.912 3.11084C122.575 3.42529 122.315 3.8833 122.133 4.48486C121.955 5.08643 121.866 5.81104 121.866 6.65869C121.866 7.50635 121.955 8.22868 122.133 8.82568C122.311 9.42269 122.568 9.87614 122.905 10.186C123.247 10.4959 123.657 10.6509 124.136 10.6509ZM133.081 7.20557H128.747V6.12549H133.081V7.20557ZM133.987 10.7056L137.364 7.15088C137.811 6.68148 138.15 6.30322 138.383 6.01611C138.62 5.72445 138.797 5.44417 138.916 5.17529C139.039 4.90186 139.1 4.61702 139.1 4.3208C139.1 3.99268 139.014 3.70101 138.841 3.4458C138.667 3.19059 138.43 2.99235 138.13 2.85107C137.833 2.7098 137.501 2.63916 137.132 2.63916C136.744 2.63916 136.405 2.71663 136.113 2.87158C135.821 3.02653 135.596 3.24528 135.436 3.52783C135.281 3.81038 135.204 4.13395 135.204 4.49854H134.042C134.037 3.92432 134.169 3.41618 134.438 2.97412C134.712 2.53206 135.088 2.18799 135.566 1.94189C136.045 1.6958 136.58 1.57275 137.173 1.57275C137.761 1.57275 138.287 1.69352 138.752 1.93506C139.221 2.1766 139.588 2.507 139.852 2.92627C140.117 3.34554 140.249 3.81038 140.249 4.3208C140.249 4.69906 140.18 5.06136 140.044 5.40771C139.907 5.74951 139.677 6.13005 139.353 6.54932C139.034 6.96403 138.576 7.479 137.979 8.09424L135.71 10.4321V10.5142H140.427V11.6079H134.001L133.987 10.7056ZM145.27 11.7446C144.632 11.7446 144.04 11.6011 143.493 11.314C142.951 11.0223 142.504 10.5278 142.153 9.83057C141.807 9.12874 141.634 8.19906 141.634 7.0415C141.634 5.88851 141.784 4.90186 142.085 4.08154C142.39 3.26123 142.823 2.63916 143.384 2.21533C143.949 1.78695 144.619 1.57275 145.393 1.57275C145.963 1.57275 146.473 1.68213 146.925 1.90088C147.38 2.11963 147.752 2.42725 148.039 2.82373C148.33 3.22021 148.52 3.67822 148.606 4.19775H147.389C147.266 3.73747 147.034 3.36833 146.692 3.09033C146.355 2.80778 145.922 2.6665 145.393 2.6665C144.856 2.6665 144.391 2.81689 143.999 3.11768C143.611 3.4139 143.313 3.84456 143.103 4.40967C142.898 4.97477 142.796 5.65153 142.796 6.43994H142.919C143.21 6.02523 143.575 5.70394 144.012 5.47607C144.45 5.24365 144.933 5.12744 145.462 5.12744C146.045 5.12744 146.583 5.26872 147.075 5.55127C147.572 5.83382 147.964 6.22575 148.251 6.72705C148.542 7.2238 148.688 7.78434 148.688 8.40869C148.688 9.02393 148.545 9.58675 148.258 10.0972C147.975 10.603 147.574 11.0041 147.054 11.3003C146.535 11.5965 145.94 11.7446 145.27 11.7446ZM145.243 10.6646C145.662 10.6646 146.043 10.5643 146.384 10.3638C146.726 10.1632 146.995 9.89209 147.191 9.55029C147.392 9.20394 147.494 8.82796 147.499 8.42236C147.494 8.01676 147.396 7.64535 147.205 7.30811C147.013 6.97087 146.749 6.70426 146.412 6.5083C146.075 6.30778 145.694 6.20752 145.27 6.20752C144.846 6.20752 144.459 6.31006 144.108 6.51514C143.757 6.72021 143.479 6.99593 143.274 7.34229C143.069 7.68408 142.964 8.04867 142.96 8.43604C142.96 8.8234 143.058 9.18799 143.254 9.52979C143.454 9.87158 143.728 10.1473 144.074 10.3569C144.425 10.562 144.815 10.6646 145.243 10.6646ZM153.231 1.57275C153.865 1.57275 154.452 1.71859 154.995 2.01025C155.537 2.29736 155.981 2.78955 156.328 3.48682C156.679 4.18408 156.854 5.10921 156.854 6.26221C156.854 7.41976 156.701 8.41097 156.396 9.23584C156.095 10.0562 155.662 10.6805 155.097 11.1089C154.537 11.5327 153.869 11.7446 153.094 11.7446C152.525 11.7446 152.012 11.6353 151.556 11.4165C151.101 11.1932 150.727 10.8833 150.435 10.4868C150.148 10.0903 149.964 9.63005 149.881 9.10596H151.098C151.212 9.5708 151.44 9.9445 151.782 10.2271C152.124 10.5096 152.561 10.6509 153.094 10.6509C153.632 10.6509 154.095 10.5028 154.482 10.2065C154.874 9.90576 155.175 9.47054 155.384 8.90088C155.594 8.33122 155.701 7.64762 155.706 6.8501H155.569C155.277 7.26481 154.913 7.58838 154.475 7.8208C154.038 8.04867 153.559 8.1626 153.04 8.1626C152.452 8.1626 151.909 8.0236 151.413 7.74561C150.916 7.46305 150.522 7.0734 150.23 6.57666C149.943 6.07992 149.799 5.51937 149.799 4.89502C149.799 4.28434 149.941 3.72607 150.223 3.22021C150.51 2.71436 150.914 2.31331 151.433 2.01709C151.953 1.72087 152.552 1.57275 153.231 1.57275ZM153.258 2.65283C152.839 2.65283 152.456 2.75309 152.11 2.95361C151.768 3.14958 151.497 3.41618 151.297 3.75342C151.101 4.09066 151.003 4.45752 151.003 4.854C151.003 5.26872 151.096 5.64697 151.283 5.98877C151.47 6.32601 151.732 6.59261 152.069 6.78857C152.406 6.98454 152.789 7.08252 153.217 7.08252C153.637 7.08252 154.022 6.97998 154.373 6.7749C154.724 6.56527 155.002 6.28955 155.207 5.94775C155.412 5.6014 155.514 5.23682 155.514 4.854C155.514 4.47575 155.416 4.118 155.22 3.78076C155.024 3.43896 154.753 3.16553 154.407 2.96045C154.065 2.75537 153.682 2.65283 153.258 2.65283ZM162.395 7.20557H158.061V6.12549H162.395V7.20557ZM167.006 11.7446C166.277 11.7446 165.653 11.5464 165.133 11.1499C164.618 10.7534 164.224 10.1746 163.951 9.41357C163.682 8.65251 163.547 7.73421 163.547 6.65869C163.547 5.59684 163.684 4.68538 163.958 3.92432C164.231 3.15869 164.627 2.57536 165.147 2.17432C165.666 1.77327 166.286 1.57275 167.006 1.57275C167.726 1.57275 168.346 1.77327 168.866 2.17432C169.385 2.57536 169.782 3.15869 170.055 3.92432C170.329 4.68538 170.465 5.59684 170.465 6.65869C170.465 7.73421 170.329 8.65251 170.055 9.41357C169.786 10.1746 169.392 10.7534 168.873 11.1499C168.353 11.5464 167.731 11.7446 167.006 11.7446ZM167.006 10.6509C167.48 10.6509 167.886 10.4959 168.223 10.186C168.56 9.87614 168.818 9.42269 168.996 8.82568C169.173 8.22868 169.262 7.50635 169.262 6.65869C169.262 5.81104 169.173 5.08643 168.996 4.48486C168.818 3.8833 168.56 3.42529 168.223 3.11084C167.886 2.79639 167.48 2.63916 167.006 2.63916C166.532 2.63916 166.124 2.79639 165.783 3.11084C165.445 3.42529 165.186 3.8833 165.003 4.48486C164.826 5.08643 164.737 5.81104 164.737 6.65869C164.737 7.50635 164.826 8.22868 165.003 8.82568C165.181 9.42269 165.439 9.87614 165.776 10.186C166.118 10.4959 166.528 10.6509 167.006 10.6509ZM174.926 11.7446C174.197 11.7446 173.573 11.5464 173.053 11.1499C172.538 10.7534 172.144 10.1746 171.871 9.41357C171.602 8.65251 171.467 7.73421 171.467 6.65869C171.467 5.59684 171.604 4.68538 171.877 3.92432C172.151 3.15869 172.547 2.57536 173.067 2.17432C173.586 1.77327 174.206 1.57275 174.926 1.57275C175.646 1.57275 176.266 1.77327 176.786 2.17432C177.305 2.57536 177.702 3.15869 177.975 3.92432C178.248 4.68538 178.385 5.59684 178.385 6.65869C178.385 7.73421 178.248 8.65251 177.975 9.41357C177.706 10.1746 177.312 10.7534 176.792 11.1499C176.273 11.5464 175.651 11.7446 174.926 11.7446ZM174.926 10.6509C175.4 10.6509 175.806 10.4959 176.143 10.186C176.48 9.87614 176.738 9.42269 176.915 8.82568C177.093 8.22868 177.182 7.50635 177.182 6.65869C177.182 5.81104 177.093 5.08643 176.915 4.48486C176.738 3.8833 176.48 3.42529 176.143 3.11084C175.806 2.79639 175.4 2.63916 174.926 2.63916C174.452 2.63916 174.044 2.79639 173.703 3.11084C173.365 3.42529 173.106 3.8833 172.923 4.48486C172.746 5.08643 172.657 5.81104 172.657 6.65869C172.657 7.50635 172.746 8.22868 172.923 8.82568C173.101 9.42269 173.358 9.87614 173.696 10.186C174.038 10.4959 174.448 10.6509 174.926 10.6509ZM183.106 11.6079H181.862V2.99463H181.807L179.401 4.59424V3.3501L181.862 1.70947H183.106V11.6079ZM188.824 11.6079H187.58V2.99463H187.526L185.119 4.59424V3.3501L187.58 1.70947H188.824V11.6079ZM193.641 7.83447C193.636 9.10596 193.468 10.284 193.135 11.3687C192.802 12.4533 192.315 13.4627 191.672 14.397H190.633C190.947 13.9412 191.241 13.3511 191.515 12.6265C191.788 11.9019 192.007 11.118 192.171 10.2749C192.34 9.4318 192.424 8.61833 192.424 7.83447C192.424 7.05062 192.34 6.23942 192.171 5.40088C192.007 4.56234 191.788 3.78076 191.515 3.05615C191.241 2.33154 190.947 1.74137 190.633 1.28564H191.672C192.971 3.16325 193.627 5.34619 193.641 7.83447Z" fill="#BBC4D8"/>
</svg>
