<?xml version="1.0" encoding="UTF-8"?><svg id="_레이어_2" xmlns="http://www.w3.org/2000/svg" xmlns:xlink="http://www.w3.org/1999/xlink" viewBox="0 0 188.371 56.835"><defs><style>.cls-1{fill:#0091ff;}.cls-2{fill:url(#_무제_그라디언트_5);}</style><linearGradient id="_무제_그라디언트_5" x1="112.433" y1="-3.341" x2="177.37" y2="61.596" gradientUnits="userSpaceOnUse"><stop offset="0" stop-color="#0091ff"/><stop offset=".427" stop-color="#00b4eb"/><stop offset=".775" stop-color="#00cae0"/><stop offset="1" stop-color="#00d2dc"/></linearGradient></defs><g id="_로고작업"><g><path class="cls-2" d="M187.722,41.324c-.434-1.07-1.052-1.989-1.857-2.759-.804-.769-1.763-1.379-2.876-1.83-1.113-.451-2.351-.768-3.712-.957,1.32-.3,2.422-.722,3.31-1.267,.887-.543,1.609-1.182,2.165-1.914,.557-.732,.959-1.529,1.206-2.393,.248-.863,.372-1.764,.372-2.702v-.676c0-3.414-1.155-5.939-3.465-7.572s-5.837-2.449-10.579-2.449h-12.065c-1.98,0-3.351,.337-4.114,1.014-.764,.675-1.145,1.895-1.145,3.66v.972s0,0,0,.002v5.275c0,1.389-.237,2.553-.711,3.491-.475,.939-1.063,1.689-1.763,2.252-.702,.563-1.476,.957-2.321,1.182-.846,.226-1.66,.338-2.444,.338-.908,0-1.754-.104-2.536-.31-.784-.206-1.465-.563-2.042-1.07-.578-.507-1.031-1.201-1.361-2.083-.331-.881-.495-1.998-.495-3.35v-5.406h.019V3.405c0-1.089-.393-1.876-1.175-2.365-.784-.487-1.712-.732-2.784-.732s-2.001,.245-2.784,.732c-.783,.489-1.175,1.277-1.175,2.365v13.4s-18.499,0-18.499,0V3.405c0-1.089-.393-1.876-1.175-2.365-.784-.487-1.712-.732-2.784-.732s-2.001,.245-2.784,.732c-.784,.489-1.176,1.277-1.176,2.365V37.917c0,1.089,.392,1.877,1.176,2.365,.782,.488,1.71,.732,2.784,.732s2-.244,2.784-.732c.782-.488,1.175-1.276,1.175-2.365v-15.145h18.499s.104,0,.104,0v6.926c0,3.792,1.072,6.653,3.217,8.585,2.145,1.934,5.011,2.9,8.6,2.9,.907,0,1.846-.084,2.816-.253,.968-.169,1.897-.422,2.784-.76,.887-.337,1.701-.768,2.444-1.295,.743-.526,1.362-1.163,1.857-1.915h.123v1.183c0,.976,.381,1.699,1.145,2.167,.763,.47,1.618,.704,2.568,.704s1.804-.234,2.568-.704c.763-.468,1.145-1.191,1.145-2.167v-15.37h6.125c3.341,0,5.743,.292,7.208,.872,1.463,.583,2.197,1.774,2.197,3.575v.507c0,1.051-.124,1.915-.372,2.59-.247,.675-.711,1.22-1.392,1.633s-1.609,.704-2.784,.873c-1.176,.168-2.671,.253-4.486,.253h-1.959v5.855h2.144c2.104,0,3.856,.112,5.259,.338,1.402,.225,2.516,.563,3.341,1.013,.824,.451,1.402,1.033,1.733,1.746,.329,.713,.495,1.539,.495,2.478v.732c0,1.238-.207,2.234-.619,2.983-.412,.751-1.042,1.324-1.887,1.717-.846,.394-1.918,.648-3.217,.76-1.299,.113-2.815,.169-4.547,.169h-4.807s-.085,0-.085,0c-.907,0-1.577,.292-2.011,.873-.433,.583-.649,1.286-.649,2.112s.217,1.529,.649,2.111c.434,.582,1.104,.873,2.011,.873h9.1c4.826,0,8.393-.948,10.703-2.843,2.309-1.895,3.464-4.551,3.464-7.966v-.901c0-1.464-.217-2.731-.65-3.801Z"/><path class="cls-1" d="M48.598,40.987c-1.072,0-2-.244-2.784-.732-.783-.489-1.176-1.277-1.176-2.365V17.228c0-1.99-.186-3.67-.557-5.039-.371-1.37-.938-2.478-1.701-3.322-.763-.845-1.742-1.445-2.939-1.802-1.196-.357-2.598-.534-4.207-.534s-3.011,.178-4.208,.534c-1.196,.357-2.175,.957-2.939,1.802-.763,.844-1.33,1.951-1.701,3.322-.371,1.369-.557,3.049-.557,5.039v20.662c0,1.088-.392,1.876-1.176,2.365-.782,.487-1.711,.732-2.784,.732s-2-.244-2.784-.732c-.783-.489-1.175-1.277-1.175-2.365V17.34c0-3.341,.382-6.119,1.144-8.333,.764-2.214,1.878-3.988,3.341-5.32,1.465-1.333,3.27-2.28,5.414-2.843,2.145-.563,4.62-.844,7.425-.844s5.28,.281,7.424,.844c2.145,.563,3.95,1.51,5.414,2.843,1.464,1.332,2.578,3.106,3.341,5.32,.764,2.214,1.144,4.992,1.144,8.333v20.55c0,1.088-.391,1.876-1.175,2.365-.783,.487-1.711,.732-2.784,.732Z"/><path class="cls-1" d="M3.959,.28c1.072,0,2,.244,2.784,.732,.782,.489,1.175,1.277,1.175,2.365V37.889c0,1.089-.393,1.877-1.175,2.365-.784,.488-1.712,.732-2.784,.732s-2.001-.244-2.784-.732c-.784-.488-1.176-1.276-1.176-2.365V3.377C0,2.288,.392,1.501,1.176,1.012c.782-.487,1.71-.732,2.784-.732Z"/><path class="cls-1" d="M66.508,.281c1.072,0,2,.244,2.784,.732,.782,.489,1.175,1.277,1.175,2.365V37.89c0,1.089-.393,1.877-1.175,2.365-.784,.488-1.712,.732-2.784,.732s-2.001-.244-2.784-.732c-.784-.488-1.176-1.276-1.176-2.365V3.378c0-1.088,.392-1.876,1.176-2.365,.782-.487,1.71-.732,2.784-.732Z"/><path class="cls-1" d="M96.948,17.789c.906,0,1.577,.291,2.011,.873,.433,.583,.65,1.286,.65,2.111s-.217,1.53-.65,2.112c-.434,.582-1.105,.873-2.011,.873h-16.457c-.907,0-1.577-.291-2.011-.873-.433-.582-.65-1.286-.65-2.112s.217-1.528,.65-2.111c.434-.582,1.104-.873,2.011-.873h16.457Z"/></g></g></svg>