<?xml version="1.0" encoding="UTF-8"?><svg id="_레이어_2" xmlns="http://www.w3.org/2000/svg" viewBox="0 0 110.761 21.485"><defs><style>.cls-1{fill:#f9df7b;}.cls-2{fill:#f2a207;}.cls-3{fill:#231815;}</style></defs><g id="_레이어_"><g><path class="cls-3" d="M91.433,8.682l.386,3.133c-.729-.637-3.051-2.791-7.354-2.641-4.901,.166-5.924,3.732-5.924,5.142,0,1.511,1.266,4.943,6.028,5.054,3.282,.072,7.22-1.767,7.847-2.515l-.726,3.319c-.02,0-.227,.034-.397,.042-.517,.02-4.601,1.343-7.038,1.265-8.704-.274-10.161-4.781-10.161-7.165,0-2.09,1.059-4.013,3.051-5.349,1.99-1.335,4.338-1.87,6.93-1.87,3.507,.002,6.222,1.481,6.86,1.489l.5,.062v.033Z"/><path class="cls-3" d="M.647,20.094c.011,.298-.093,.664-.316,1.013-.033,.054-.068,.104-.103,.151H5.397c-.033-.043-.063-.09-.096-.134-.226-.36-.329-.732-.312-1.034l-.006-.009V8.646l.006-.008c-.012-.297,.093-.661,.314-1.011,.034-.054,.071-.105,.109-.154H.214c.04,.053,.079,.106,.117,.164,.217,.346,.323,.704,.315,1.001l.007,.008v11.44l-.006,.009Z"/><path class="cls-3" d="M30.394,20.094c.012,.298-.092,.664-.315,1.013-.032,.054-.068,.104-.104,.151h5.169c-.033-.043-.063-.09-.095-.134-.227-.36-.331-.732-.313-1.034l-.007-.009V8.646l.007-.008c-.011-.297,.094-.661,.314-1.011,.036-.054,.072-.105,.107-.154h-5.195c.04,.053,.08,.106,.116,.164,.218,.346,.324,.704,.315,1.001l.006,.008v11.44l-.005,.009Z"/><path class="cls-3" d="M25.995,7.628c.033-.053,.072-.106,.109-.156h-4.086c.039,.052,.078,.106,.114,.163,.223,.35,.327,.715,.315,1.014,.002,.036,.006,.072,.006,.11v7.043l-7.471-7.597c-.35-.314-.132-.722-.112-.734h-5.314c.039,.05,.075,.107,.113,.164,.213,.337,.318,.687,.315,.982,.003,.046,.005,.091,.005,.144v11.204c0,.066-.002,.134-.01,.194-.01,.282-.111,.614-.315,.936-.035,.058-.072,.106-.109,.158l4.453-.003c-.039-.029-.778-.323-.778-1.289l.011-8.552,9.629,9.841h2.8V8.759c0-.051,.003-.099,.005-.142-.002-.295,.103-.649,.318-.989Z"/><path class="cls-3" d="M38.093,7.463v2.44s.185-.44,.885-.44h5.57v10.622l-.006,.009c.013,.298-.091,.664-.315,1.013-.032,.054-.069,.104-.104,.151h5.17c-.032-.043-.066-.09-.095-.134-.227-.36-.332-.732-.315-1.034l-.006-.009V9.463h5.579s.702,.011,.877,.44v-2.44h-17.239Z"/><path class="cls-3" d="M72.667,18.816c-.176,.428-.878,.44-.878,.44h-9.116v-4.207h7.903s.702,.011,.875,.438v-2.794c-.173,.43-.875,.437-.875,.437h-7.903v-3.658h8.626s.703,.009,.878,.437v-2.438h-14.272c.043,.053,.079,.106,.117,.164,.218,.346,.323,.704,.315,1.001l.008,.008v11.44l-.007,.009c.011,.298-.091,.664-.315,1.013-.035,.054-.069,.101-.103,.149h5.167s-.002,0-.002,0h9.582v-2.44Z"/><path class="cls-3" d="M110.335,20.128l-.007-.004V8.638l.007-.007c-.01-.302,.095-.663,.318-1.016,.032-.054,.07-.105,.107-.155h-4.759c.04,.053,.079,.107,.115,.165,.22,.348,.325,.707,.316,1.005l.007,.008v4.202h-7.851v-4.202l.005-.007c-.012-.302,.096-.663,.316-1.016,.032-.054,.07-.105,.108-.155h-4.757c.037,.053,.078,.107,.115,.165,.222,.348,.323,.707,.317,1.005l.006,.008v11.488l-.006,.009c.015,.3-.092,.666-.313,1.019-.035,.054-.071,.1-.107,.151h4.73c-.031-.045-.063-.09-.093-.137-.228-.361-.335-.733-.316-1.04l-.005-.004v-5.337h7.851v5.339l-.006,.009c.014,.3-.093,.666-.315,1.019-.033,.054-.069,.1-.103,.151h4.729c-.032-.045-.065-.09-.094-.137-.231-.361-.334-.733-.316-1.04Z"/><rect class="cls-1" width="37.342" height="2.161"/><rect x="73.749" width="36.969" height="2.161"/><rect class="cls-2" x="37.342" width="36.407" height="2.161"/></g></g></svg>