<svg xmlns="http://www.w3.org/2000/svg" width="510.466" height="296.436" viewBox="0 0 135.06079 78.432028"><path fill="#FF3F00" d="M95.673 0a39.344 39.344 0 0 0-20.307 5.606c-9.537 5.51-20.597 8.712-32.416 8.837a66.83 66.83 0 0 1-12.168-.975 26.526 26.526 0 0 0-4.52-.393C11.76 13.075 0 24.773 0 39.217 0 53.66 11.76 65.358 26.263 65.358c1.542 0 3.05-.14 4.519-.393a66.774 66.774 0 0 1 12.168-.975c11.82.125 22.879 3.326 32.416 8.836a39.34 39.34 0 0 0 20.307 5.606c21.757 0 39.388-17.553 39.388-39.212C135.06 17.548 117.43 0 95.673 0"/><path fill="#FFF" d="M22.968 33.672c-1.795-.671-3.087-1.311-3.845-1.896-.716-.555-1.07-1.161-1.07-1.845 0-.75.362-1.335 1.105-1.797.772-.474 1.836-.717 3.167-.717 2.178 0 4.114.417 5.763 1.244.583.291 1.003-.251 1.003-.615v-3.958c0-.613-.485-.896-.656-.962-1.907-.754-4.11-1.133-6.557-1.133-2.934 0-5.342.73-7.154 2.166-1.831 1.455-2.762 3.408-2.762 5.806 0 2.22.63 3.973 1.87 5.216 1.214 1.223 3.16 2.252 5.702 3.261 1.492.595 4.54 1.583 5.02 3.202.437 1.47-.913 2.781-4.34 2.847-3.275.06-6.904-1.601-6.904-1.601-.335-.14-.976.033-.976.627v4.215c0 .605.468.889.632.952 2.207.884 4.741 1.328 7.542 1.328 3.18 0 5.69-.698 7.47-2.075 1.794-1.395 2.706-3.353 2.706-5.827 0-2.144-.648-3.855-1.93-5.09-1.25-1.206-3.198-2.332-5.786-3.348M42.704 44.813c-1.645 0-3.327-.572-3.327-.572v-9.52c1.654-.578 3.327-.578 3.327-.578 2.717 0 4.621 1.81 4.621 5.337 0 3.527-1.904 5.333-4.621 5.333m-.201-15.867c-1.662 0-5.355.371-8.656 2.644a1.516 1.516 0 0 0-.643 1.25v22.578a1.03 1.03 0 0 0 1.029 1.028h4.117c.568 0 1.027-.461 1.027-1.028v-5.777c1.046.235 2.152.372 3.126.372 6.731 0 11.058-3.595 11.058-10.533 0-6.955-4.327-10.534-11.058-10.534M66.465 44.812c-2.712 0-4.611-1.806-4.611-5.332 0-3.529 1.899-5.335 4.611-5.335 2.71 0 4.612 1.806 4.612 5.335 0 3.526-1.901 5.332-4.612 5.332m.001-15.866c-6.38 0-10.847 3.567-10.847 10.534 0 6.965 4.468 10.532 10.847 10.532 6.377 0 10.845-3.567 10.845-10.532 0-6.967-4.468-10.534-10.845-10.534M90.215 44.812c-2.713 0-4.612-1.806-4.612-5.332 0-3.529 1.9-5.335 4.612-5.335 2.71 0 4.612 1.806 4.612 5.335 0 3.526-1.902 5.332-4.612 5.332m.002-15.866c-6.378 0-10.849 3.567-10.849 10.534 0 6.965 4.47 10.532 10.849 10.532 6.377 0 10.845-3.567 10.845-10.532 0-6.967-4.468-10.534-10.845-10.534M122.502 33.996a7.2 7.2 0 0 0-1.748-2.68c-.775-.75-1.773-1.327-2.992-1.74-1.216-.422-2.613-.63-4.194-.63-1.08 0-2.278.125-3.592.377a14.826 14.826 0 0 0-3.698 1.207c-.81.387-1.494.785-2.049 1.19a1.53 1.53 0 0 0-.632 1.244v15.309c.02.551.466.996 1.023.996h4.12c.569 0 1.03-.463 1.03-1.03V35.015s2.766-1.494 5.418-.397c1.811.746 1.722 3.386 1.722 3.386v10.235c0 .567.459 1.03 1.027 1.03h4.116c.568 0 1.03-.463 1.03-1.03V37.382c0-1.216-.194-2.349-.58-3.386"/></svg>