<svg xmlns="http://www.w3.org/2000/svg" xml:space="preserve" x="0px" y="0px" baseProfile="tiny" overflow="visible" version="1.2" viewBox="0 0 2048 663.5"><path fill="#FFF" d="M650.544 341.281c0 133.152-107.952 241.095-241.095 241.095-133.156 0-241.095-107.943-241.095-241.095 0-133.146 107.939-241.089 241.095-241.089 133.143 0 241.095 107.943 241.095 241.089z"/><path fill="#003764" d="M522.609 324.476c-38.349-26.062-87.445-15.45-113.26 23.736-21.472 32.753-53.972 36.828-66.49 36.828-41.061 0-69.076-28.862-77.404-58.711 0 0-.407-1.511-.514-1.853-3.273-12.477-4.101-18.403-4.101-31.643 0-71.343 73.256-150.816 178.674-150.816 107.999 0 169.809 82.213 185.779 127.917-.32-.859-.58-1.624-.84-2.43-30.64-89.38-115.383-153.622-215.212-153.622-125.518 0-227.338 101.767-227.338 227.391 0 112.26 80.968 208.343 193.303 208.343 89.549 0 149.756-50.206 177.333-119.433 15.166-37.878 4.456-82.353-29.93-105.707z"/><path fill="#E4032E" d="M626.686 274.349c-13.321-44.588-75.529-132.331-187.171-132.331-105.419 0-178.674 79.473-178.674 150.816 0 13.24.828 19.165 4.101 31.643-1.37-5.465-2.069-10.904-2.069-16.224 0-74.322 74.397-125.804 150.885-125.804 103.569 0 187.506 83.94 187.506 187.466 0 81.153-46.714 151.446-114.552 185.186v.063c87.483-31.684 149.954-115.486 149.954-213.889-.001-23.291-3.123-43.833-9.98-66.926z"/><g fill="#575757"><path d="M761.973 259.61v-23.263h125.071v23.263h-53.03l55.281 56.282-17.51 16.261-46.277-48.277-45.276 50.027-18.51-16.509 54.781-57.784h-54.53zm20.512 84.048h171.099v59.536H809.5v18.511h146.585v22.013h-173.6V382.93h144.084v-18.011H782.485v-21.261zm144.084-113.562h27.015v103.307h-27.015V230.096zM1112.672 340.407H998.855v-105.56h26.767v28.516h60.783v-28.516h26.266v105.56zm-26.266-54.28h-60.783v31.768h60.783v-31.768zm76.796 115.566c0 7.341-1.502 14.219-4.503 20.638-3.001 6.419-7.004 12.047-12.008 16.885-5.171 4.834-11.216 8.669-18.135 11.507-6.921 2.834-14.219 4.251-21.887 4.251-7.672 0-15.009-1.417-22.013-4.251-7.004-2.838-13.094-6.673-18.261-11.507-5.002-4.838-9.004-10.467-12.006-16.885-3.001-6.419-4.503-13.296-4.503-20.638 0-7.335 1.502-14.258 4.503-20.762 3.001-6.503 7.004-12.171 12.006-17.009 5.167-4.836 11.257-8.669 18.261-11.507 7.004-2.834 14.341-4.253 22.013-4.253 7.668 0 14.966 1.419 21.887 4.253 6.919 2.838 12.963 6.671 18.135 11.507 5.004 4.838 9.006 10.506 12.008 17.009 3.001 6.504 4.503 13.427 4.503 20.762zm-26.517-.25c0-8.168-3.001-15.216-9.004-21.136-6.003-5.918-13.094-8.88-21.262-8.88-8.173 0-15.22 2.962-21.138 8.88-5.92 5.92-8.88 12.968-8.88 21.136 0 8.173 2.96 15.177 8.88 21.012 5.918 5.837 12.965 8.756 21.138 8.756 8.168 0 15.26-2.919 21.262-8.756 6.003-5.835 9.004-12.839 9.004-21.012zm18.011-171.347h27.015v115.565h-27.015v-26.016h-31.768v-22.261h31.768V274.37h-31.768v-22.261h31.768v-22.013zM1356.809 336.905v23.765h-141.332v-23.765h44.277v-48.776h26.765v48.776h70.29zm-38.772-20.762v-58.032h-92.802v-23.514h119.569v81.546h-26.767zm-87.05 128.075v-65.287h27.017v41.523h146.584v23.763h-173.601zm169.598-71.042h-27.017v-143.08h27.017v58.532h28.016v24.764h-28.016v59.784zM1571.178 417.954h-116.065v-99.558h86.549v-51.031h-86.549v-23.763h113.564v98.307h-86.799v52.28h89.3v23.765zm39.774-187.858h27.015V447.97h-27.015V230.096zM1673.735 271.618v-22.763h51.031v-21.261h28.767v21.261h48.528v22.763h-52.53l54.53 55.532-18.011 16.759-47.026-48.776-46.279 52.778-18.509-17.26 54.53-59.034h-55.031zm173.852 130.075c0 7.341-1.502 14.219-4.503 20.638-3.001 6.419-7.004 12.047-12.008 16.885-5.169 4.834-11.216 8.669-18.135 11.507-6.921 2.834-14.219 4.251-21.887 4.251-7.672 0-15.009-1.417-22.013-4.251-7.004-2.838-13.094-6.673-18.261-11.507-5.002-4.838-9.004-10.467-12.006-16.885-3.001-6.419-4.503-13.296-4.503-20.638 0-7.335 1.502-14.258 4.503-20.762 3.001-6.503 7.004-12.171 12.006-17.009 5.167-4.836 11.257-8.669 18.261-11.507 7.004-2.834 14.341-4.253 22.013-4.253 7.668 0 14.966 1.419 21.887 4.253 6.919 2.838 12.965 6.671 18.135 11.507 5.004 4.838 9.006 10.506 12.008 17.009 3.001 6.504 4.503 13.427 4.503 20.762zm-26.517-.25c0-8.168-3.001-15.216-9.004-21.136-6.003-5.918-13.094-8.88-21.262-8.88-8.173 0-15.22 2.962-21.138 8.88-5.92 5.92-8.878 12.968-8.878 21.136 0 8.173 2.958 15.177 8.878 21.012 5.918 5.837 12.965 8.756 21.138 8.756 8.168 0 15.26-2.919 21.262-8.756 6.003-5.835 9.004-12.839 9.004-21.012zm18.011-49.529v-49.527h-38.021v-23.265h38.021v-49.027h27.015v121.818h-27.015z"/></g></svg>