<svg xmlns="http://www.w3.org/2000/svg" viewBox="0 0 135.34 101.71"><defs><style>.cls-1{fill:#535353;}</style></defs><title>icon_home</title><g id="Layer_2" data-name="Layer 2"><g id="격리_모드" data-name="격리 모드"><path class="cls-1" d="M132.49,48.45,73.65,2.3a8.92,8.92,0,0,0-12,0L2.85,48.45a8.65,8.65,0,0,0,6,15H22.77v28c0,5.63,3.95,10.19,8.81,10.19H55V82.21A12.65,12.65,0,0,1,67.67,69.56h0A12.65,12.65,0,0,1,80.32,82.21v19.5h23.44c4.86,0,8.8-4.56,8.8-10.19v-28h14A8.65,8.65,0,0,0,132.49,48.45Z"/></g></g></svg>