<?xml version="1.0" encoding="UTF-8"?>
<svg id="_레이어_2" data-name="레이어 2" xmlns="http://www.w3.org/2000/svg" viewBox="0 0 329.15 47.98">
  <defs>
    <style>
      .cls-1 {
        fill: #f9c128;
      }

      .cls-2 {
        fill: #1060a4;
      }
    </style>
  </defs>
  <g id="Layer_1" data-name="Layer 1">
    <g>
      <g>
        <polygon class="cls-1" points="28.89 0 19.42 4.75 9.97 0 19.42 17.99 28.89 0"/>
        <path class="cls-1" d="m32.19,13.9l-.14-.12,6.75-2.84V1.45l-11.73,5s-6.35,12.04-6.5,12.31c4.97.59,8.71,4.77,8.71,9.79,0,5.44-4.42,9.88-9.86,9.88s-9.87-4.43-9.87-9.88c0-5.03,3.73-9.2,8.71-9.79-.14-.28-6.49-12.31-6.49-12.31L.06,1.45v9.49l6.74,2.84-.14.12C2.43,17.6,0,22.94,0,28.55c0,10.71,8.71,19.43,19.42,19.43s19.43-8.72,19.43-19.43c0-5.61-2.43-10.95-6.65-14.65Z"/>
      </g>
      <g>
        <path class="cls-2" d="m251.3,17.22c3.99,4.54,10.33,6.76,10.33,6.76l1.88-3.17c-6.95-3.04-9.03-8.78-9.03-10.83v-2.67c-.03-.38-.18-.72-.45-1.01-.27-.29-.62-.43-1.03-.43h-4.88v4.11c0,2.05-2.08,7.8-9.03,10.83l1.88,3.17s6.34-2.22,10.33-6.76Z"/>
        <path class="cls-2" d="m273.73,29.65c1.21,1.21,2.02,2.64,2.06,4.36.21,7.61-9.04,7.51-11.48,7.51s-11.63-.66-11.55-7.34c.08-6.76,8.19-6.73,12.99-6.73h16.09V6.93c-.03-.38-.18-.72-.46-1-.27-.29-.61-.43-1.03-.43h-4.88v7.22h-3.01v-5.79c-.03-.38-.18-.72-.46-1-.27-.29-.61-.43-1.03-.43h-4.88v19.74h-4.82c-7.87,0-14.78,1.72-14.91,8.99-.13,7.36,9.15,10.02,18.12,10.02s17.84-2.33,17.84-10.45c0-1.52-.48-2.85-1.23-4.14h-7.39Zm-1.26-14.16h3.01v9.74h-3.01v-9.74Z"/>
        <path class="cls-2" d="m327.93,29.65h-7.39c1.21,1.21,2.01,2.64,2.06,4.36.21,7.61-9.04,7.51-11.49,7.51s-11.63-.66-11.55-7.34c.08-6.76,8.19-6.73,12.99-6.73h16.09V6.93c-.03-.38-.18-.72-.46-1-.27-.29-.61-.43-1.03-.43h-4.88v4.42h-8.34v-2.56c0-.38-.15-.72-.44-1.01-.29-.29-.64-.44-1.05-.48h-23.35v14.05c.03.83.32,1.52.86,2.06.54.54,1.23.83,2.06.86h21.92v-3.93h8.34v6.33h-14.19c-7.86,0-14.78,1.72-14.91,8.99-.13,7.36,9.15,10.02,18.12,10.02s17.84-2.33,17.84-10.45c0-1.52-.48-2.85-1.22-4.14Zm-20.35-9.54h-11.01c-.35,0-.62-.09-.82-.26-.19-.17-.29-.44-.29-.79v-10.46h12.11v11.51Zm6.37-3.98v-3.44h8.34v3.44h-8.34Z"/>
        <path class="cls-2" d="m188.57,24.55h-16.8v-5.2h15.99c.28,0,.49-.22.53-.54.02-.16.12-1.01,0-1.7-.05-.29-.25-.46-.53-.46h-30.3c-.85,0-1.55-.67-1.55-1.49v-7.4c0-.83-.7-1.49-1.55-1.49h-4.76v10.28c0,1.53,1.32,2.79,2.94,2.79h12.93v5.2h-18.54l1.79,2.71h5.53c-2.43,1.66-3.88,3.98-3.88,6.96,0,7.12,8.2,10.36,18.31,10.36s18.31-3.24,18.31-10.36c0-1.9-.58-3.52-1.62-4.86h-7.62c1.85,1.18,2.97,2.9,2.97,5.18,0,5-5.38,7.28-12.03,7.28s-12.03-2.28-12.03-7.28,5.31-7.27,12.03-7.27h-.09s20.02-.01,20.02-.01c.27,0,.48-.22.52-.55.02-.16.13-.99,0-1.69-.06-.29-.25-.47-.52-.47Z"/>
        <path class="cls-2" d="m232.67,5.58h-4.91v7.17h-15.3c.33.37.62.77.86,1.22.54.96.87,2.09.87,3.28,0,3.68-2.66,6.66-6.56,6.66s-6.56-2.98-6.56-6.66,2.81-6.61,6.48-6.65h14.13c.27,0,.49-.22.53-.55.02-.16.13-1.04,0-1.75-.06-.3-.26-.47-.53-.47h-10.79v-1.49c0-.83-.71-1.51-1.6-1.51h-4.89v3h-12.28c.25.36,1.76,2.66,1.83,2.77h4.63c-2.37,1.7-3.83,4.05-3.83,6.65,0,5.17,5.19,9.34,12.9,9.34,5.18,0,8.98-1.88,11.2-4.71h8.93v10.13h-23.73v-2.82c0-.85-.71-1.52-1.6-1.52h-4.87v12.62c0,1.57,1.36,2.87,3.02,2.87h33.69V7.1c0-.85-.73-1.52-1.6-1.52Zm-4.91,34.8h-22.86c-.48,0-.87-.37-.87-.85v-4.75h23.73v5.6Zm0-21.27h-7.51c.17-.59.26-1.23.26-1.86,0-.58-.08-1.16-.22-1.73h7.47v3.59Z"/>
        <path class="cls-2" d="m138.04,6.52h-5.67v14.63h-23.18V6.52h-5.67c-1.34,0-2.44,1.29-2.44,2.88v30.94c0,1.59,1.09,2.89,2.44,2.89h5.67v-15.72h23.18v15.72h5.67c1.35,0,2.44-1.3,2.44-2.89V9.4c0-1.6-1.08-2.88-2.44-2.88Z"/>
        <path class="cls-2" d="m91.63,6.52h-5.67v28.12l-17.04-22.46c-2.83-3.28-4.78-5.66-9.31-5.66h-5.78v33.83c0,1.59,1.09,2.89,2.45,2.89h5.66V14.99l17.15,22.31c2.9,3.36,5.48,5.94,9.68,5.94h5.3V9.4c0-1.6-1.09-2.88-2.44-2.88Z"/>
      </g>
    </g>
  </g>
</svg>