<svg xmlns="http://www.w3.org/2000/svg" xmlns:xlink="http://www.w3.org/1999/xlink" viewBox="0 0 55.25 55.25"><defs><style>.cls-1{fill:none;}.cls-2{clip-path:url(#clip-path);}.cls-3{fill:#fff;}</style><clipPath id="clip-path" transform="translate(0 0)"><rect class="cls-1" width="55.25" height="55.25"/></clipPath></defs><title>ico_setting</title><g id="Layer_2" data-name="Layer 2"><g id="Layer_1-2" data-name="Layer 1"><g class="cls-2"><path class="cls-3" d="M55.25,31.39V23.86L48.83,23a21.52,21.52,0,0,0-2.93-7.07l3.92-5.16L44.5,5.43,39.34,9.35a21.52,21.52,0,0,0-7.07-2.93L31.39,0H23.86L23,6.42a21.38,21.38,0,0,0-7.06,2.93L10.75,5.43,5.43,10.75l3.92,5.16A21.74,21.74,0,0,0,6.42,23L0,23.86v7.53l6.42.88a21.59,21.59,0,0,0,2.93,7.06L5.43,44.5l5.32,5.32,5.17-3.92A21.59,21.59,0,0,0,23,48.83l.88,6.42h7.53l.88-6.42a21.74,21.74,0,0,0,7.07-2.93l5.16,3.92,5.32-5.32L45.9,39.33a21.38,21.38,0,0,0,2.93-7.06ZM27.63,35.86a8.24,8.24,0,1,1,8.23-8.24,8.24,8.24,0,0,1-8.23,8.24" transform="translate(0 0)"/></g></g></g></svg>