<svg xmlns="http://www.w3.org/2000/svg" xmlns:xlink="http://www.w3.org/1999/xlink" width="512" height="151.043" viewBox="0 0 135.46666 39.963461"><defs><linearGradient xlink:href="#a" id="c" x1="3.4006217" x2="129.23816" y1="2.5718198" y2="2.5718198" gradientUnits="userSpaceOnUse"/><linearGradient id="a"><stop offset="0" style="stop-color:#fc001a;stop-opacity:0"/><stop offset="0.35614598" style="stop-color:#f40020;stop-opacity:.35294118"/><stop offset="1" style="stop-color:#e6002d;stop-opacity:1"/></linearGradient><clipPath id="b" clipPathUnits="userSpaceOnUse"><path d="M0 148.645h500V0H0Z"/></clipPath></defs><g clip-path="url(#b)" transform="matrix(.27646 0 0 -.27646 -1.022 41.095)"><path d="M-1.303 2.606c-4.063-10.347-8.4-20.73-12.87-31.186l-6.045-13.86-6.117 13.86c-4.612 10.455-9.033 20.84-13.18 31.186h-33.838V-.106c3.752 0 6.835-3.13 6.835-6.99-.55-7.145-1.147-14.303-1.876-21.484l-2.246-21.818c-1.076-10.443-2.295-20.85-3.716-31.185h10.813a875.237 875.237 0 0 0 2.557 31.185l3.334 32.895c4.803-10 9.403-20.062 13.86-30.147l1.23-2.748A1016.282 1016.282 0 0 0-29.37-81.583h3.274c4.086 10.335 8.412 20.742 12.904 31.185l1.948 4.481A1090.767 1090.767 0 0 0 2.34-15.783l3.525-34.615C6.918-60.84 7.79-71.248 8.423-81.583H33.3a836.451 836.451 0 0 0-3.716 31.185L27.362-28.58c-1.04 10.455-1.936 20.84-2.545 31.186z" style="fill:#04287e;fill-opacity:1;fill-rule:nonzero;stroke:none" transform="translate(78.053 147.159)"/><path d="M-1.303 2.606a339.34 339.34 0 0 0 8.746 15.605L37.66 68.502v2.127h-66.493V55.156h2.628c0 3.728 2.868 6.775 6.452 7.002 2.079.071 4.147.107 6.19.107H7.897a308.37 308.37 0 0 0-8.58-15.258l-30.372-50.65v-2.115H40.66v8.985a190.472 190.472 0 0 0-15.246-.62z" style="fill:#04287e;fill-opacity:1;fill-rule:nonzero;stroke:none" transform="translate(189.64 71.337)"/><path d="M-1.303 2.606c.215.012.43.036.633.048-.394 5.162-.633 10.335-.633 15.545v18.926h29.692V18.2c0-5.21-.18-10.43-.573-15.593h22.869a193.547 193.547 0 0 0-.61 15.593v45.19c0 5.245.192 10.43.61 15.616H21.53v-2.414h.657c3.25 0 5.867-2.568 6.094-5.819.07-2.449.107-4.91.107-7.384V45.501H-1.303v17.887c0 5.246.19 10.431.609 15.617h-29.142v-2.414h.633c3.238 0 5.867-2.545 6.094-5.783a218 218 0 0 0 .13-7.42V10.492a72.952 72.952 0 0 0-9.2-.562c-3.357 0-6.666.263-9.892.79-9.153 1.744-10.611 10.335-10.611 15.688V63.83c0 5.08.227 10.133.61 15.175h-29.143v-2.414h.62c3.25 0 5.856-2.545 6.083-5.77.084-2.486.132-4.947.132-7.433v-33.36c0-7.504 2.377-24.088 22.738-27.099 6.356-.873 12.856-1.374 19.464-1.374 10.37 0 20.67.37 30.875 1.051" style="fill:#04287e;fill-opacity:1;fill-rule:nonzero;stroke:none" transform="translate(312.568 62.97)"/><path d="M-1.303 2.606c0-26.024-22.5-39.239-44.664-39.239s-44.616 13.215-44.616 39.24c0 26.035 22.452 39.25 44.616 39.25 22.165 0 44.664-13.215 44.664-39.25m-21.77 0c-.024 14.182-5.951 30.874-22.894 30.874-16.92 0-22.87-16.692-22.87-30.875 0-14.17 5.95-30.863 22.87-30.863 16.943 0 22.87 16.692 22.894 30.863" style="fill:#04287e;fill-opacity:1;fill-rule:nonzero;stroke:none" transform="translate(462.447 101.162)"/><path d="M-1.303 2.606c0 5.245.19 10.431.633 15.617h-29.92V15.51h.622c3.872 0 6.895-3.13 6.895-7.025.059-1.936.083-3.896.083-5.879v-45.189c0-5.21-.203-10.432-.55-15.593H-.67c-.442 5.161-.633 10.383-.633 15.593z" style="fill:#04287e;fill-opacity:1;fill-rule:nonzero;stroke:none" transform="translate(149.546 123.751)"/><path d="M6.295 3.739c60.245 13.502 115.257 19.502 179.54 19.502 90.75 0 178.32-13.609 260.813-38.916.31-.096.49-.383.43-.729-.071-.323-.418-.574-.74-.502C361.563-2.914 274.732 5.067 186.277 6.61 123.093 7.72 70.342 1.47 8.783-3.86c-.62-.06-2.376 2.417-2.543 3.026-.155.67-.614 4.419.055 4.574" style="fill:url(#c);fill-opacity:1;fill-rule:nonzero;stroke:none" transform="translate(46.607 21.01)"/></g></svg>