<svg xmlns="http://www.w3.org/2000/svg" xmlns:xlink="http://www.w3.org/1999/xlink" viewBox="0 0 267.28 84.11"><defs><style>.cls-1{fill:none;}.cls-2{fill:#003477;}.cls-3{clip-path:url(#clip-path);}.cls-4{fill:#45b035;}</style><clipPath id="clip-path" transform="translate(0 0)"><rect class="cls-1" width="267.28" height="84.11"/></clipPath></defs><title>ico_sec6_logo1</title><g id="Layer_2" data-name="Layer 2"><g id="Layer_1-2" data-name="Layer 1"><polygon class="cls-2" points="185.66 79.29 185.66 69.17 182.02 69.17 182.02 79.29 179.53 79.29 179.53 69.17 175.89 69.17 175.89 79.29 170.97 79.29 170.97 82.14 193.47 82.14 193.47 79.29 185.66 79.29"/><g class="cls-3"><path class="cls-2" d="M187.71,76.52h2.38C191,72,191.6,66.24,192,62.41c.2-2.07.21-3.14-1.64-3.14H173.4v2.85h14.31Z" transform="translate(0 0)"/><polygon class="cls-2" points="210.32 79.29 210.32 74.41 206.26 74.41 206.26 79.29 196.97 79.29 196.97 82.14 219.48 82.14 219.48 79.29 210.32 79.29"/><path class="cls-2" d="M214.06,72.88a2,2,0,0,0,2.25-2.27V59h-4.06v4.7h-8.06V59h-4.06V70.61a2,2,0,0,0,2.26,2.27Zm-9.87-6.31h8.06v3.86h-8.06Z" transform="translate(0 0)"/><path class="cls-2" d="M264.82,74.52a11.22,11.22,0,0,0-10.78,0,4.72,4.72,0,0,0,0,8.21,11.22,11.22,0,0,0,10.78,0,4.71,4.71,0,0,0,0-8.21m-2.52,6a5.07,5.07,0,0,1-5.74,0,2.61,2.61,0,0,1,0-3.89,5.12,5.12,0,0,1,5.74,0,2.59,2.59,0,0,1,0,3.89" transform="translate(0 0)"/><polygon class="cls-2" points="263.22 58.14 263.22 61.22 260.15 61.22 260.15 64.07 263.22 64.07 263.22 66.01 260.15 66.01 260.15 68.86 263.22 68.86 263.22 72.51 267.28 72.51 267.28 58.14 263.22 58.14"/><path class="cls-2" d="M256.59,71.27A2,2,0,0,0,258.85,69V59.27H247.76V69A2,2,0,0,0,250,71.27Zm-1.8-2.86h-3V62.12h3Z" transform="translate(0 0)"/><path class="cls-2" d="M230.73,71.91l1.83-1.37c-3-3.42-3.87-7-3.87-11.52h-3.77c0,4.57-.87,8.1-3.88,11.52l1.83,1.37a15.28,15.28,0,0,0,3.93-5.3,15.41,15.41,0,0,0,3.93,5.3" transform="translate(0 0)"/><path class="cls-2" d="M239.76,74.72a11.36,11.36,0,0,0-10.78,0,4.58,4.58,0,0,0,0,8,11.44,11.44,0,0,0,10.78,0,4.58,4.58,0,0,0,0-8m-2.52,5.89a5.27,5.27,0,0,1-5.74,0,2.21,2.21,0,0,1-.88-1.88,2.19,2.19,0,0,1,.88-1.86,5.27,5.27,0,0,1,5.74,0,2.22,2.22,0,0,1,.88,1.86,2.24,2.24,0,0,1-.88,1.88" transform="translate(0 0)"/><polygon class="cls-2" points="238.57 58.14 238.57 63.47 237.06 63.47 237.06 58.14 233.43 58.14 233.43 72.29 237.06 72.29 237.06 66.31 238.57 66.31 238.57 72.29 242.22 72.29 242.22 58.14 238.57 58.14"/><path class="cls-2" d="M73.77,51.75a14,14,0,0,0-10.23,3.86c-2.81,2.77-4.36,7.15-4.36,12.3s1.55,9.52,4.36,12.3A14.05,14.05,0,0,0,73.77,84.1a14.19,14.19,0,0,0,10.28-3.89c2.76-2.78,4.31-7.15,4.31-12.3s-1.55-9.53-4.31-12.3a14.17,14.17,0,0,0-10.28-3.86m5.92,25.09h0a7.8,7.8,0,0,1-11.8,0c-1.51-1.88-2.3-5-2.3-8.93s.79-7,2.3-8.93a7.26,7.26,0,0,1,5.88-2.66A7.34,7.34,0,0,1,79.69,59C81.21,60.9,82,64,82,67.91s-.77,7-2.29,8.93" transform="translate(0 0)"/><path class="cls-2" d="M153.71,55.61a15.58,15.58,0,0,0-20.53,0c-2.79,2.77-4.33,7.15-4.33,12.3s1.54,9.52,4.33,12.3a15.49,15.49,0,0,0,20.53,0c2.78-2.78,4.31-7.16,4.31-12.3s-1.53-9.53-4.31-12.3m-4.36,21.23h0a7.81,7.81,0,0,1-11.81,0c-1.5-1.88-2.29-5-2.29-8.93s.79-7,2.29-8.93a7.89,7.89,0,0,1,11.81,0c1.52,1.93,2.29,5,2.29,8.94s-.77,7-2.29,8.93" transform="translate(0 0)"/><path class="cls-2" d="M44.76,83.36A2.92,2.92,0,0,1,44,81.2V70L54.44,52.43H47.27c.52.52.57,1.34-.06,2.33l-5.67,9.82C36.77,56,36.78,55.7,35.92,54.13c-.68-1.18-1.25-1.7-2.52-1.7H27.75a12.3,12.3,0,0,1,1.88,2.65L38,69.9V81.2a2.92,2.92,0,0,1-.78,2.16Z" transform="translate(0 0)"/><path class="cls-2" d="M98.35,83.36a2.92,2.92,0,0,0,.78-2.16V54.59a2.92,2.92,0,0,0-.78-2.16h10.24c4.92,0,9.2,2.37,9.2,7,0,2-.89,4.71-3.16,5.93a8.37,8.37,0,0,1,5.67,7.91,9.62,9.62,0,0,1-3.72,7.62,12.2,12.2,0,0,1-8,2.5Zm6.78-19.25a10.07,10.07,0,0,0,4.38-.53,3.3,3.3,0,0,0,2.1-3.2,3.72,3.72,0,0,0-4-3.5,7.82,7.82,0,0,0-2.49.32Zm6.71,14A4.89,4.89,0,0,0,114,73.62c0-3.39-3-5-5.85-5a23.5,23.5,0,0,0-3,.18v9.92c2,.55,5.13.41,6.71-.61" transform="translate(0 0)"/><path class="cls-2" d="M.78,81.2A2.92,2.92,0,0,1,0,83.36H7.56a3,3,0,0,1-.78-2.16V69.12l8.79,12.54c.81,1.18,1.44,1.7,2.71,1.7h6.07a14,14,0,0,1-2.18-2.64l-9.92-14L22.39,52.43H14.93c.39.51.44,1.14-.29,2.36L6.78,66.12V54.59a3,3,0,0,1,.78-2.16H0a2.92,2.92,0,0,1,.78,2.16Z" transform="translate(0 0)"/><path class="cls-4" d="M167.73,10.07c-2.82-2.86-7.49-2.37-10.24.55-3.58,3.76-6.36,5.16-9.68,5-4.63-.2-6.91-3.78-9.29-8.29-2.47-4.73-6.26-7.35-11-7.35-7.44,0-11.9,6-11.9,12.75,0,10.34,7.26,16.53,12.3,19.14a30.1,30.1,0,0,0,13,3.18,39.6,39.6,0,0,1-1.78,8h8.52a37.76,37.76,0,0,1-1.81-8.32c12.47-1.62,18.4-7.28,21.64-12.68a13.61,13.61,0,0,0,2.23-7,6.91,6.91,0,0,0-2-5m-40.15,6.47a4.36,4.36,0,1,1,4.06-4.62,4.36,4.36,0,0,1-4.06,4.62" transform="translate(0 0)"/></g></g></g></svg>