<?xml version="1.0" encoding="UTF-8"?>
<svg id="_레이어_2" data-name="레이어 2" xmlns="http://www.w3.org/2000/svg" viewBox="0 0 169.51 56.69">
  <defs>
    <style>
      .cls-1 {
        fill: #f89b6c;
      }

      .cls-2 {
        fill: #f37321;
      }

      .cls-3 {
        fill: #fbb584;
      }
    </style>
  </defs>
  <g id="_레이어_1-2" data-name="레이어 1">
    <g>
      <g>
        <path class="cls-3" d="m23.08,29.06c-.81-7.37,6.91-13.29,17.25-13.2,10.34.08,19.38,6.12,20.19,13.48.81,7.38-6.91,13.28-17.25,13.2-10.34-.07-19.38-6.11-20.19-13.48m39.37,2.28c-.93-9.14-11.34-16.63-23.24-16.73-11.91-.1-20.79,7.23-19.86,16.37.93,9.14,11.34,16.63,23.24,16.73,11.9.09,20.8-7.23,19.86-16.37"/>
        <path class="cls-1" d="m44.48,47.9c-5.86,6.13-15.27,6.64-21.02,1.14-5.74-5.5-5.65-14.92.22-21.04,5.86-6.12,15.28-6.63,21.01-1.14,5.74,5.5,5.65,14.92-.22,21.04m-21.72-20.1c-6.81,7.11-6.92,18.07-.25,24.46,6.67,6.39,17.61,5.8,24.42-1.32,6.82-7.12,6.93-18.07.25-24.46-6.67-6.39-17.61-5.8-24.43,1.32"/>
        <path class="cls-2" d="m23.39,4.88c12.19-4.57,24.25.05,26.93,10.32,2.68,10.27-5.03,22.31-17.22,26.87-12.19,4.58-24.25-.05-26.93-10.32C3.48,21.48,11.2,9.45,23.39,4.88m-11.32,3.93C-.58,18.82-3.8,33.33,4.87,41.21c8.68,7.89,25.96,6.16,38.62-3.86,12.65-10.01,15.87-24.52,7.19-32.41C42-2.94,24.71-1.21,12.07,8.8"/>
      </g>
      <g>
        <path d="m85.16,22.19h-14.2v-2.27h14.2v2.27Zm-7.1,9.98c-1.8,0-3.27-.45-4.38-1.37-1.13-.9-1.69-1.98-1.69-3.25s.55-2.32,1.69-3.25c1.11-.9,2.59-1.35,4.38-1.35s3.25.45,4.38,1.35c1.11.92,1.69,2.01,1.69,3.25s-.58,2.35-1.69,3.25c-1.13.92-2.59,1.37-4.38,1.37Zm1.08,5.23h12.27v2.43h-13.04c-2.82,0-4.22-1.29-4.22-3.93v-2.53h3.17v2.17c0,1.27.61,1.87,1.82,1.87Zm-4.73-20.59h7.29v2.3h-7.29v-2.3Zm3.64,13.15c.82,0,1.53-.21,2.14-.69.58-.45.87-1.03.87-1.72s-.29-1.21-.87-1.69c-.61-.45-1.32-.69-2.14-.69s-1.53.24-2.11.69c-.61.48-.9,1.03-.9,1.69s.29,1.27.9,1.72c.58.48,1.27.69,2.11.69Zm13.25-6.94h3.27v2.48h-3.27v8h-3.14v-16.29h3.14v5.81Z"/>
        <path d="m102.82,32.04c-1.14-.18-2.09-.61-2.88-1.27-1.11-.9-1.64-1.95-1.64-3.22s.55-2.32,1.69-3.25c1.11-.9,2.59-1.35,4.38-1.35s3.25.45,4.38,1.35c1.11.92,1.69,2.01,1.69,3.25s-.55,2.32-1.64,3.22c-.79.63-1.72,1.06-2.83,1.27v2.4h3.51c3.17,0,4.75-1.21,4.75-3.67v-13.57h3.14v7.6h3.27v2.51h-3.27v12.57h-3.14v-4.25c-.95.84-2.38,1.27-4.22,1.27h-13.3v-2.46h6.1v-2.4Zm8.61-9.85h-14.2v-2.27h14.2v2.27Zm-10.69-5.38h7.29v2.3h-7.29v-2.3Zm3.64,13.15c.82,0,1.53-.21,2.14-.69.58-.45.87-1.03.87-1.72s-.29-1.21-.87-1.69c-.61-.45-1.32-.69-2.14-.69s-1.53.24-2.11.69c-.61.48-.9,1.03-.9,1.69s.29,1.27.9,1.72c.58.48,1.27.69,2.11.69Z"/>
        <path d="m130.25,18.44c0,2.82.53,4.86,1.64,6.07.9,1.03,1.95,1.64,3.12,1.85v2.48c-2.01-.26-3.72-1.06-5.2-2.43-.42-.37-.77-.79-1.08-1.29-.32.5-.69.92-1.08,1.29-1.48,1.37-3.22,2.17-5.2,2.43v-2.48c1.16-.21,2.19-.82,3.12-1.85,1.08-1.21,1.64-3.25,1.64-6.07v-.92h3.06v.92Zm13.44,16.58c0,1.53-.69,2.83-2.03,3.93-1.37,1.11-3.09,1.66-5.2,1.66s-3.83-.55-5.17-1.66c-1.37-1.11-2.06-2.4-2.06-3.93s.69-2.8,2.06-3.91c1.35-1.06,3.06-1.61,5.17-1.61s3.83.55,5.2,1.61c1.35,1.11,2.03,2.4,2.03,3.91Zm-7.23-3.14c-1.21,0-2.22.32-2.96.92-.77.63-1.13,1.37-1.13,2.22s.37,1.61,1.13,2.24c.74.63,1.71.95,2.96.95s2.19-.32,2.96-.95c.74-.61,1.13-1.35,1.13-2.24,0-.84-.39-1.58-1.13-2.22-.79-.61-1.77-.92-2.96-.92Zm4.99-14.68h3.09v12.01h-3.09v-5.17h-2.09v4.62h-3.04v-11.46h3.04v4.36h2.09v-4.36Z"/>
        <path d="m161.72,28.45h-8.97c-2.48,0-3.7-1.27-3.7-3.85v-7.02h10.95c1.13,0,1.71.58,1.71,1.74v.42h4.65v-2.53h3.14v12.22h-3.14v-2.85h-4.65v1.88Zm-3.09-8.47h-6.47v4.59c0,1,.45,1.48,1.35,1.48h5.12v-6.07Zm10.69,15.05c0,1.5-.66,2.8-1.98,3.91-1.35,1.13-3.06,1.69-5.17,1.69s-3.83-.55-5.15-1.69c-1.35-1.11-2.01-2.4-2.01-3.91s.66-2.77,2.01-3.88c1.32-1.08,3.04-1.64,5.15-1.64s3.83.55,5.17,1.64c1.32,1.11,1.98,2.4,1.98,3.88Zm-7.15-3.14c-1.21,0-2.19.32-2.9.92-.74.63-1.11,1.37-1.11,2.22s.34,1.61,1.08,2.24c.71.63,1.69.95,2.93.95s2.19-.32,2.93-.95c.71-.61,1.08-1.35,1.08-2.24,0-.84-.37-1.58-1.11-2.22-.74-.61-1.72-.92-2.9-.92Zm-.45-9.71v1.98h4.65v-1.98h-4.65Z"/>
      </g>
    </g>
  </g>
</svg>