<?xml version="1.0" encoding="UTF-8"?>
<svg id="_레이어_2" data-name="레이어 2" xmlns="http://www.w3.org/2000/svg" viewBox="0 0 487.81 95.27">
  <defs>
    <style>
      .cls-1 {
        fill: #fff;
        stroke-width: 0px;
      }
    </style>
  </defs>
  <g id="_레이어_1-2" data-name="레이어 1">
    <path class="cls-1" d="m402.19,39.09l1.69,13.75c-3.2-2.79-13.39-12.24-32.27-11.59-21.51.73-25.99,16.38-25.99,22.56,0,6.63,5.55,21.69,26.45,22.17,14.4.32,31.68-7.76,34.43-11.03l-3.19,14.56c-.09,0-.99.15-1.74.18-2.27.09-20.19,5.89-30.88,5.55-38.19-1.2-44.59-20.98-44.59-31.44,0-9.17,4.64-17.61,13.39-23.47,8.73-5.86,19.03-8.2,30.41-8.2,15.39.01,27.3,6.5,30.1,6.53l2.19.27v.14Z"/>
    <path class="cls-1" d="m134.36,89.17c.05,1.31-.4,2.91-1.38,4.44-.14.24-.3.46-.46.66h22.68c-.14-.19-.28-.39-.42-.59-1-1.58-1.45-3.21-1.38-4.54l-.03-.04v-50.18l.03-.04c-.05-1.3.41-2.9,1.38-4.43.16-.24.32-.46.47-.68h-22.8c.17.23.35.47.51.72.96,1.52,1.42,3.09,1.38,4.39l.03.04v50.2l-.02.04Z"/>
    <path class="cls-1" d="m115.06,34.47c.15-.23.32-.47.48-.69h-17.93c.17.23.34.47.5.71.98,1.54,1.44,3.14,1.38,4.45.01.16.03.32.03.48v30.9l-32.78-33.34c-1.53-1.38-.58-3.17-.49-3.22h-23.32c.17.22.33.47.5.72.93,1.48,1.4,3.02,1.38,4.31.01.2.02.4.02.63v49.16c0,.29-.01.59-.04.85-.04,1.24-.49,2.7-1.38,4.11-.15.25-.32.47-.48.69h19.54c-.17-.14-3.41-1.43-3.41-5.67l.05-37.52,42.25,43.18h12.29v-54.81c0-.22.01-.43.02-.62,0-1.29.45-2.85,1.39-4.34Z"/>
    <path class="cls-1" d="m168.15,33.75v10.71s.81-1.93,3.88-1.93h24.44v46.61l-.03.04c.06,1.31-.4,2.91-1.38,4.44-.14.24-.3.46-.46.66h22.68c-.14-.19-.29-.39-.42-.59-.99-1.58-1.46-3.21-1.38-4.54l-.03-.04v-46.59h24.48s3.08.05,3.85,1.93v-10.71h-75.64Z"/>
    <path class="cls-1" d="m319.85,83.56c-.77,1.88-3.85,1.93-3.85,1.93h-40v-18.46h34.68s3.08.05,3.84,1.92v-12.26c-.76,1.89-3.84,1.92-3.84,1.92h-34.68v-16.05h37.85s3.09.04,3.85,1.92v-10.7h-62.62c.19.23.35.47.51.72.96,1.52,1.42,3.09,1.38,4.39l.03.04v50.2l-.03.04c.05,1.31-.4,2.91-1.38,4.44-.15.24-.3.44-.45.66h22.67s0,0,0,0h42.04v-10.71Z"/>
    <path class="cls-1" d="m485.13,89.32l-.03-.02v-50.4l.03-.03c-.04-1.33.42-2.91,1.4-4.46.14-.24.31-.46.47-.68h-20.88c.18.23.35.47.51.72.96,1.53,1.43,3.1,1.39,4.41l.03.04v18.44h-34.45v-18.44l.02-.03c-.05-1.33.42-2.91,1.39-4.46.14-.24.31-.46.48-.68h-20.87c.16.23.34.47.51.72.97,1.53,1.42,3.1,1.39,4.41l.03.04v50.41l-.03.04c.06,1.32-.4,2.92-1.38,4.47-.15.24-.31.44-.47.66h20.75c-.14-.2-.27-.39-.41-.6-1-1.59-1.47-3.22-1.39-4.56l-.02-.02v-23.42h34.45v23.43l-.03.04c.06,1.32-.41,2.92-1.38,4.47-.15.24-.3.44-.45.66h20.75c-.14-.2-.29-.39-.41-.6-1.02-1.59-1.47-3.22-1.39-4.56Z"/>
    <g>
      <polygon class="cls-1" points="486.81 0 323.96 0 323.96 1 323.96 10.48 323.96 11.48 486.81 11.48 487.81 11.48 487.81 10.48 487.81 1 487.81 0 486.81 0"/>
      <polygon class="cls-1" points="162.21 1 162.21 0 1 0 0 0 0 1 0 10.48 0 11.48 1 11.48 162.21 11.48 162.21 10.48 162.21 1"/>
      <polygon class="cls-1" points="321.96 1 321.96 0 164.21 0 164.21 1 164.21 10.48 164.21 11.48 321.96 11.48 321.96 10.48 321.96 1"/>
    </g>
  </g>
</svg>