<?xml version="1.0" encoding="UTF-8"?><svg id="_레이어_2" xmlns="http://www.w3.org/2000/svg" viewBox="0 0 126.531 81.166"><defs><style>.cls-1,.cls-2{fill:#fff;}.cls-3{fill:#3e3a39;}.cls-2{stroke:#3e3a39;stroke-linejoin:round;stroke-width:4.5px;}.cls-4{fill:#00d0dd;}</style></defs><g id="icons"><g><rect class="cls-2" x="2.25" y="8.651" width="91.793" height="70.265"/><rect class="cls-3" x="2.25" y="8.651" width="91.793" height="12.804"/><circle class="cls-1" cx="7.967" cy="13.888" r="2.644"/><circle class="cls-1" cx="18.628" cy="13.888" r="2.644"/><circle class="cls-1" cx="29.29" cy="13.888" r="2.644"/><g><rect class="cls-4" x="75.374" y="24.727" width="33.926" height="18.886" transform="translate(2.884 75.303) rotate(-45.002)"/><path class="cls-1" d="M80.26,48.497c-.576,0-1.152-.22-1.591-.659-.879-.879-.879-2.303,0-3.182l23.742-23.742c.878-.879,2.304-.879,3.182,0,.879,.879,.879,2.303,0,3.182l-23.742,23.742c-.439,.44-1.015,.659-1.591,.659Z"/><polygon class="cls-1" points="97.67 13.403 106.252 8.384 112.177 3.058 122.742 13.758 116.688 22.366 113.59 28.154 97.67 13.403"/><g><g><path class="cls-3" d="M67.266,61.493c-.591,0-1.165-.233-1.591-.659-.526-.526-.759-1.279-.62-2.011l3.602-18.973c.084-.443,.3-.851,.62-1.171L101.321,6.635c.878-.879,2.304-.879,3.182,0l15.367,15.367c.879,.879,.879,2.303,0,3.182l-32.045,32.047c-.319,.319-.727,.535-1.171,.62l-18.969,3.604c-.14,.026-.28,.039-.42,.039Zm5.683-20.122l-2.856,15.045,15.041-2.857,29.964-29.966-12.185-12.185-29.964,29.964Z"/><path class="cls-3" d="M117.687,22.61c-.576,0-1.152-.22-1.591-.659-.878-.879-.878-2.304,0-3.182l5.003-5.003-8.36-8.36-5.003,5.004c-.879,.879-2.303,.879-3.182,0-.879-.878-.879-2.303,0-3.182l6.595-6.596c.845-.844,2.338-.844,3.182,0l11.542,11.543c.422,.422,.659,.994,.659,1.591s-.237,1.169-.659,1.591l-6.595,6.594c-.44,.439-1.015,.659-1.591,.659Z"/></g><path class="cls-3" d="M86.524,56.579c-.576,0-1.152-.22-1.591-.659l-14.344-14.348c-.878-.879-.878-2.304,0-3.182,.879-.88,2.304-.879,3.182,0l14.344,14.348c.878,.879,.878,2.304,0,3.182-.439,.44-1.015,.659-1.591,.659Z"/><path class="cls-3" d="M111.502,30.112c-.576,0-1.152-.22-1.591-.659l-12.859-12.859c-.879-.879-.879-2.303,0-3.182,.878-.879,2.304-.879,3.182,0l12.859,12.859c.879,.879,.879,2.303,0,3.182-.439,.439-1.015,.659-1.591,.659Z"/></g></g><path class="cls-4" d="M20.115,55.425c2.611-3.963,6.453-7.185,10.858-8.981,.243-.099,.491-.195,.74-.28,.584-.201,1.13-.091,.058-.433,.705,.225-1.187-.449-.884-.516v-.183c.016,.154,.022,.309,.018,.464-.008,1.172-.34,2.318-.605,3.453-.727,3.111-1.077,5.984,.298,8.967,.726,1.575,2.75,1.69,4.105,1.076,3.028-1.372,6.057-2.744,9.085-4.116,.196-.089,.871-.299,.953-.423-.025,.038-.883-.418-.866-.412l-.116-.115c-.081-.185-.091-.177-.031,.022,.045,.183,.05,.207,.014,.07-.052-.228-.064-.109-.035,.357-.151,1.505-.351,2.996,.161,4.464,2.386,6.838,10.553,6.209,16.282,5.175,1.596-.288,2.497-2.229,2.095-3.69-.462-1.68-2.09-2.384-3.69-2.095-2.327,.42-5.672,1.17-7.84-.061-.71-.403-1.172-.832-1.229-1.593-.11-1.473,.402-2.841-.009-4.378-.419-1.564-1.59-3.018-3.158-3.521-1.84-.591-3.437,.061-5.106,.812-3.183,1.433-6.359,2.882-9.539,4.322l4.105,1.076c-.475-1.031-.129-2.407,.118-3.526,.374-1.698,.801-3.363,.964-5.101,.156-1.66-.161-3.508-1.328-4.772-1.424-1.541-3.493-1.766-5.414-1.11-6.247,2.135-11.574,6.539-15.184,12.019-.892,1.353-.269,3.318,1.076,4.105,1.465,.857,3.211,.28,4.105-1.076h0Z"/></g></g></svg>