<?xml version="1.0" encoding="UTF-8"?><svg id="_레이어_2" xmlns="http://www.w3.org/2000/svg" viewBox="0 0 119.947 74.282"><defs><style>.cls-1,.cls-2{fill:#fff;}.cls-3{fill:#3e3a39;}.cls-4{stroke:#fff;stroke-linecap:round;}.cls-4,.cls-5,.cls-2{stroke-width:4.5px;}.cls-4,.cls-2{stroke-linejoin:round;}.cls-4,.cls-6{fill:#00d0dd;}.cls-5{fill:none;stroke-miterlimit:10;}.cls-5,.cls-2{stroke:#3e3a39;}</style></defs><g id="icons"><g><circle class="cls-6" cx="101.91" cy="28.361" r="15.787"/><g><circle class="cls-2" cx="22.34" cy="43.067" r="8.607"/><path class="cls-2" d="M12.83,58.27H31.849c5.839,0,10.58,4.741,10.58,10.58v3.182H2.25v-3.182c0-5.839,4.741-10.58,10.58-10.58Z"/></g><g><path class="cls-6" d="M50.097,41.718h26.681c9.705,0,17.585,7.88,17.585,17.585v12.729H32.512v-12.729c0-9.705,7.88-17.585,17.585-17.585Z"/><ellipse class="cls-2" cx="63.437" cy="18.855" rx="16.076" ry="16.605"/><path class="cls-3" d="M56.23,12.555s.448,1.305,4.316,2.113c3.358,.701,9.249,.349,18.169-.107-2.037-7.487-7.961-12.311-15.172-12.311-8.503,0-15.447,7.563-16.02,17.13,3.645-.247,6.472-1.602,8.707-6.825Z"/><circle class="cls-3" cx="58.327" cy="22.016" r="2.097"/><circle class="cls-3" cx="68.699" cy="22.016" r="2.097"/><polyline class="cls-1" points="52.507 41.718 62.599 58.154 74.367 41.718"/><path class="cls-5" d="M50.097,41.718h26.681c9.705,0,17.585,7.88,17.585,17.585v12.729H32.512v-12.729c0-9.705,7.88-17.585,17.585-17.585Z"/></g><polyline class="cls-4" points="95.86 26.629 101.541 32.57 112.901 19.38"/><circle class="cls-5" cx="101.91" cy="28.361" r="15.787"/></g></g></svg>