<?xml version="1.0" encoding="UTF-8"?><svg id="_레이어_2" xmlns="http://www.w3.org/2000/svg" viewBox="0 0 95.209 93.811"><defs><style>.cls-1{fill:#fff;}.cls-2{fill:#3e3a39;}.cls-3{fill:#00d0dd;}</style></defs><g id="icons"><path class="cls-1" d="M30.82,70.36c1.242,0,2.25,1.008,2.25,2.25s-1.008,2.25-2.25,2.25H2.25c-1.242,0-2.25-1.008-2.25-2.25V2.25C0,1.008,1.008,0,2.25,0H68.676c1.242,0,2.25,1.008,2.25,2.25V24.4c0,1.242-1.008,2.25-2.25,2.25"/><path class="cls-1" d="M92.892,80.315l-11.775-11.775c7.361-12.359,5.731-28.623-4.895-39.25-6.082-6.081-14.168-9.431-22.768-9.431s-16.687,3.35-22.769,9.431c-12.555,12.556-12.555,32.983,0,45.538,6.082,6.082,14.168,9.432,22.769,9.432,5.898,0,11.554-1.576,16.488-4.528l11.767,11.768c1.542,1.541,3.567,2.312,5.593,2.312s4.05-.771,5.591-2.312c1.494-1.494,2.317-3.48,2.317-5.593s-.823-4.1-2.317-5.592Z"/><g><path class="cls-2" d="M30.82,74.86H2.286c-1.263,0-2.286-1.024-2.286-2.286V2.286C0,1.024,1.024,0,2.286,0H68.64c1.263,0,2.286,1.024,2.286,2.286V24.24c0,1.195-.857,2.297-2.047,2.401-1.333,.117-2.453-.932-2.453-2.241V6.927c0-1.34-1.087-2.427-2.427-2.427H6.927c-1.34,0-2.427,1.087-2.427,2.427v61.007c0,1.34,1.087,2.427,2.427,2.427H30.66c1.195,0,2.297,.857,2.401,2.047,.117,1.333-.932,2.453-2.241,2.453Z"/><g><path class="cls-2" d="M53.453,84.26c-8.601,0-16.686-3.35-22.769-9.432-12.555-12.555-12.555-32.982,0-45.538,6.082-6.081,14.168-9.431,22.769-9.431s16.686,3.35,22.768,9.431c12.555,12.556,12.555,32.983,0,45.538-6.082,6.082-14.168,9.432-22.768,9.432Zm0-59.9c-7.398,0-14.354,2.881-19.587,8.112-10.8,10.801-10.8,28.375,0,39.175,5.232,5.231,12.188,8.113,19.587,8.113s14.354-2.882,19.587-8.113c10.8-10.8,10.8-28.374,0-39.175-5.232-5.231-12.188-8.112-19.587-8.112Z"/><path class="cls-3" d="M67.945,37.568c-8.004-8.004-20.98-8.004-28.984,0-8.003,8.003-8.003,20.978,0,28.982,8.004,8.004,20.98,8.004,28.984,0,8.002-8.004,8.002-20.979,0-28.982Z"/><path class="cls-2" d="M87.301,93.811c-2.025,0-4.051-.771-5.593-2.311l-12.699-12.7c-.879-.879-.879-2.303,0-3.182,.879-.879,2.303-.879,3.182,0l12.699,12.699c1.331,1.329,3.493,1.328,4.82,0,.645-.645,.999-1.5,.999-2.41s-.354-1.766-.998-2.409l-12.7-12.7c-.879-.879-.879-2.303,0-3.182s2.303-.879,3.182,0l12.699,12.699c1.494,1.492,2.317,3.479,2.317,5.592s-.823,4.099-2.317,5.593c-1.541,1.541-3.566,2.311-5.591,2.311Z"/><path class="cls-2" d="M74.253,86.94c-.576,0-1.151-.22-1.591-.659-.879-.878-.879-2.303,0-3.182l11.829-11.83c.879-.879,2.303-.879,3.182,0,.879,.878,.879,2.303,0,3.182l-11.829,11.83c-.439,.439-1.015,.659-1.591,.659Z"/><path class="cls-1" d="M62.326,54.309h-17.746c-1.242,0-2.25-1.008-2.25-2.25s1.008-2.25,2.25-2.25h17.746c1.242,0,2.25,1.008,2.25,2.25s-1.008,2.25-2.25,2.25Z"/><path class="cls-1" d="M53.453,63.182c-1.242,0-2.25-1.008-2.25-2.25v-17.745c0-1.242,1.008-2.25,2.25-2.25s2.25,1.008,2.25,2.25v17.745c0,1.242-1.008,2.25-2.25,2.25Z"/></g></g></g></svg>