<?xml version="1.0" encoding="UTF-8"?><svg id="_레이어_2" xmlns="http://www.w3.org/2000/svg" viewBox="0 0 96.319 69.11"><defs><style>.cls-1{fill:#fff;}.cls-2{stroke-width:4.567px;}.cls-2,.cls-3{fill:none;stroke:#3e3a39;stroke-miterlimit:10;}.cls-4{stroke:#fff;stroke-linecap:round;stroke-linejoin:round;}.cls-4,.cls-3{stroke-width:4.5px;}.cls-4,.cls-5{fill:#00d0dd;}</style></defs><g id="icons"><g><g><polygon class="cls-5" points="82.16 57.253 13.88 57.253 13.88 2.25 35.218 2.25 42.331 10.31 82.16 10.31 82.16 57.253"/><polygon class="cls-3" points="82.16 57.253 13.88 57.253 13.88 2.25 35.218 2.25 42.331 10.31 82.16 10.31 82.16 57.253"/></g><polygon class="cls-1" points="80.569 35.239 70.528 35.239 70.528 21.635 30.7 21.635 23.587 13.574 2.25 13.574 2.25 68.576 70.528 68.576 70.528 66.826 72.006 66.826 80.569 35.239"/><polyline class="cls-3" points="2.25 68.576 2.25 13.574 23.587 13.574 30.7 21.635 70.528 21.635 70.528 35.239"/><path class="cls-2" d="M71.748,66.826l8.821-31.587H11.871L3.05,66.826H71.748Z"/><g><circle class="cls-5" cx="78.282" cy="45.49" r="15.787"/><polyline class="cls-4" points="72.232 43.758 77.913 49.699 89.273 36.509"/><circle class="cls-3" cx="78.282" cy="45.49" r="15.787"/></g></g></g></svg>