<?xml version="1.0" encoding="UTF-8"?><svg id="_레이어_2" xmlns="http://www.w3.org/2000/svg" viewBox="0 0 95.209 87.774"><defs><style>.cls-1{fill:#fff;}.cls-2{fill:#3e3a39;}.cls-3{fill:#00d0dd;}</style></defs><g id="icons"><path class="cls-1" d="M92.959,72.978h-3.604V14.236c0-1.242-1.008-2.25-2.25-2.25H8.104c-1.243,0-2.25,1.008-2.25,2.25v58.742H2.25c-1.243,0-2.25,1.008-2.25,2.25,0,6.917,5.628,12.545,12.546,12.545H82.662c6.918,0,12.547-5.628,12.547-12.545,0-1.242-1.008-2.25-2.25-2.25Z"/><g><g><g><path class="cls-2" d="M82.662,87.774H12.546C5.628,87.774,0,82.146,0,75.229,0,73.986,1.007,72.979,2.25,72.979H92.959c1.242,0,2.25,1.008,2.25,2.25,0,6.917-5.629,12.545-12.547,12.545ZM4.82,77.479c.976,3.345,4.07,5.795,7.726,5.795H82.662c3.656,0,6.751-2.45,7.726-5.795H4.82Z"/><path class="cls-2" d="M87.105,75.986c-1.242,0-2.25-1.008-2.25-2.25V16.486H10.355v57.25c0,1.242-1.007,2.25-2.25,2.25s-2.25-1.008-2.25-2.25V14.236c0-1.242,1.007-2.25,2.25-2.25H87.105c1.242,0,2.25,1.008,2.25,2.25v59.5c0,1.242-1.008,2.25-2.25,2.25Z"/></g><g><g><g><path class="cls-3" d="M58.784,47.084l11.489,3.776c4.319-5.144,6.924-11.774,6.924-19.017,0-16.344-13.249-29.594-29.593-29.594S18.011,15.5,18.011,31.844s13.249,29.594,29.594,29.594c5.322,0,10.311-1.412,14.626-3.871l-3.446-10.482Z"/><path class="cls-2" d="M47.605,63.688c-17.559,0-31.844-14.285-31.844-31.844S30.046,0,47.605,0s31.843,14.285,31.843,31.844c0,7.475-2.646,14.742-7.451,20.464-.591,.704-1.556,.975-2.425,.69l-7.259-2.386,2.056,6.251c.334,1.017-.094,2.128-1.023,2.658-4.782,2.726-10.226,4.166-15.74,4.166Zm0-59.188c-15.078,0-27.344,12.267-27.344,27.344s12.266,27.344,27.344,27.344c4.123,0,8.199-.938,11.894-2.726l-2.853-8.675c-.265-.807-.054-1.693,.547-2.294,.601-.601,1.487-.809,2.293-.547l10,3.287c3.532-4.712,5.461-10.476,5.461-16.39,0-15.077-12.266-27.344-27.343-27.344Z"/></g><path class="cls-2" d="M47.605,62.834c-.424,0-.849-.12-1.22-.359-8.418-5.435-13.858-17.458-13.858-30.631S37.966,6.648,46.384,1.213c.742-.478,1.697-.478,2.441,0,8.417,5.436,13.856,17.458,13.856,30.631s-5.439,25.195-13.856,30.631c-.372,.239-.796,.359-1.221,.359Zm0-56.977c-6.468,4.989-10.578,14.979-10.578,25.986s4.11,20.997,10.578,25.986c6.468-4.989,10.577-14.98,10.577-25.986s-4.109-20.997-10.577-25.986Z"/></g><path class="cls-2" d="M76.06,34.094H19.148c-1.243,0-2.25-1.008-2.25-2.25s1.007-2.25,2.25-2.25h56.911c1.242,0,2.25,1.008,2.25,2.25s-1.008,2.25-2.25,2.25Z"/></g></g><g><path class="cls-2" d="M65.093,68.517c-.064,0-.128-.003-.192-.008-.898-.077-1.664-.683-1.946-1.539l-6.308-19.183c-.265-.807-.054-1.693,.547-2.294,.601-.601,1.489-.809,2.294-.547l19.184,6.307c.856,.282,1.462,1.048,1.539,1.945,.076,.898-.391,1.756-1.186,2.18l-7.8,4.145-4.144,7.8c-.394,.739-1.16,1.194-1.986,1.194Zm-2.78-17.904l3.268,9.939,1.991-3.748c.211-.397,.535-.721,.932-.932l3.748-1.991-9.939-3.268Z"/><path class="cls-2" d="M74.784,65.334c-.576,0-1.151-.22-1.591-.659l-3.939-3.939c-.879-.879-.879-2.303,0-3.182,.879-.879,2.303-.879,3.182,0l3.938,3.939c.879,.879,.879,2.303,0,3.182-.439,.44-1.015,.659-1.591,.659Z"/></g></g></g></svg>