<?xml version="1.0" encoding="UTF-8"?><svg id="_레이어_2" xmlns="http://www.w3.org/2000/svg" viewBox="0 0 95.209 92.443"><defs><style>.cls-1{fill:#fff;}.cls-2{fill:#3e3a39;}.cls-3{fill:#00d0dd;}</style></defs><g id="icons"><path class="cls-1" d="M52.703,92.443c-.147,0-.294-.015-.439-.043-24.375-4.853-42.067-26.436-42.067-51.322V18.77c0-1.022,.688-1.915,1.677-2.176L52.129,5.982c.375-.1,.771-.1,1.146,0l40.257,10.611c.988,.261,1.677,1.154,1.677,2.176v22.309c0,24.886-17.691,46.47-42.066,51.322-.145,.028-.292,.043-.439,.043Z"/><g><g><path class="cls-3" d="M52.702,18.294v61.763c17.282-3.44,30.309-18.685,30.309-36.977V26.283l-30.309-7.989Z"/><path class="cls-2" d="M52.703,92.443c-.147,0-.294-.015-.439-.043-24.375-4.853-42.067-26.436-42.067-51.322V18.77c0-1.022,.688-1.915,1.677-2.176L52.129,5.982c.375-.1,.771-.1,1.146,0l40.257,10.611c.988,.261,1.677,1.154,1.677,2.176v22.309c0,24.886-17.691,46.47-42.066,51.322-.145,.028-.292,.043-.439,.043ZM14.696,20.503v20.575c0,22.596,15.957,42.214,38.007,46.819,22.05-4.605,38.006-24.223,38.006-46.819V20.503L52.702,10.485,14.696,20.503Z"/><path class="cls-2" d="M52.703,82.307c-.147,0-.294-.015-.439-.043-18.61-3.704-32.118-20.184-32.118-39.184V26.283c0-1.021,.688-1.915,1.677-2.176l30.307-7.989c.375-.1,.771-.1,1.146,0l30.309,7.989c.988,.261,1.677,1.154,1.677,2.176v16.796c0,19.001-13.508,35.48-32.118,39.184-.145,.028-.292,.043-.439,.043ZM24.645,28.017v15.062c0,16.711,11.773,31.224,28.058,34.681,16.284-3.457,28.058-17.97,28.058-34.681v-15.062l-28.059-7.396-28.057,7.396Z"/></g><path class="cls-3" d="M39.33,20.791c0-10.24-8.301-18.541-18.54-18.541S2.25,10.551,2.25,20.791s8.301,18.539,18.54,18.539,18.54-8.301,18.54-18.539Z"/><path class="cls-1" d="M19.886,30.275c-.576,0-1.151-.22-1.591-.659l-6.783-6.783c-.879-.879-.879-2.303,0-3.182s2.303-.879,3.182,0l5.192,5.192,13.784-13.784c.879-.879,2.303-.879,3.182,0s.879,2.303,0,3.182l-15.375,15.375c-.439,.439-1.015,.659-1.591,.659Z"/><path class="cls-2" d="M20.79,41.58C9.326,41.58,0,32.254,0,20.791S9.326,0,20.79,0s20.79,9.327,20.79,20.791-9.326,20.789-20.79,20.789Zm0-37.08C11.808,4.5,4.5,11.809,4.5,20.791s7.308,16.289,16.29,16.289,16.29-7.308,16.29-16.289S29.772,4.5,20.79,4.5Z"/></g></g></svg>