<?xml version="1.0" encoding="UTF-8"?><svg id="_레이어_2" xmlns="http://www.w3.org/2000/svg" viewBox="0 0 62.996 89.183"><defs><style>.cls-1{fill:none;stroke:#3e3a39;stroke-linecap:round;stroke-miterlimit:10;stroke-width:5px;}.cls-2{fill:#00d0dd;}</style></defs><g id="icons"><path class="cls-1" d="M60.496,31.499c0-16.016-12.983-28.998-28.999-28.999-16.014,0-28.996,12.983-28.997,28.997,0,16.016,12.983,28.999,28.999,28.999,16.013-.001,28.995-12.983,28.997-28.997Z"/><path class="cls-2" d="M50.379,31.499c0-10.428-8.454-18.881-18.881-18.881-10.427,0-18.879,8.453-18.88,18.88,0,10.428,8.453,18.881,18.881,18.881,10.426,0,18.879-8.454,18.88-18.88Z"/><line class="cls-1" x1="21.005" y1="70.803" x2="41.991" y2="70.803"/><path class="cls-1" d="M38.49,60.119v19.572c0,3.862-3.131,6.992-6.992,6.992h0c-3.862,0-6.992-3.131-6.992-6.992v-19.572"/></g></svg>