<?xml version="1.0" encoding="UTF-8"?><svg id="_레이어_2" xmlns="http://www.w3.org/2000/svg" viewBox="0 0 95.031 76.787"><defs><style>.cls-1{fill:none;stroke:#3e3a39;stroke-linecap:round;stroke-miterlimit:10;stroke-width:5px;}.cls-2{fill:#00d0dd;}</style></defs><g id="icons"><path class="cls-1" d="M77.473,38.394c0,3.828-4.508,6.897-5.63,10.351-1.162,3.58,.641,8.705-1.528,11.685-2.19,3.01-7.636,2.868-10.646,5.058-2.98,2.169-4.516,7.404-8.096,8.566-3.454,1.122-7.759-2.174-11.587-2.174s-8.133,3.296-11.587,2.174c-3.58-1.162-5.116-6.398-8.096-8.567-3.01-2.19-8.456-2.048-10.646-5.058-2.169-2.98-.365-8.105-1.528-11.685-1.122-3.454-5.63-6.523-5.63-10.352s4.508-6.897,5.63-10.351c1.162-3.58-.641-8.705,1.528-11.685,2.19-3.01,7.636-2.868,10.646-5.058,2.98-2.169,4.516-7.404,8.096-8.566,3.454-1.122,7.759,2.174,11.587,2.174s8.133-3.296,11.587-2.174c3.58,1.162,5.116,6.398,8.096,8.567,3.01,2.19,8.456,2.048,10.646,5.058,2.169,2.98,.365,8.105,1.528,11.685,1.122,3.454,5.63,6.523,5.63,10.352Z"/><circle class="cls-2" cx="39.986" cy="38.394" r="22.261"/><path class="cls-1" d="M53.893,24.346c6.437,0,6.437,4,12.873,4s6.441-4,12.882-4,6.441,4,12.882,4"/><path class="cls-1" d="M53.893,37.259c6.437,0,6.437,4,12.873,4s6.441-4,12.882-4,6.441,4,12.882,4"/><path class="cls-1" d="M53.893,50.173c6.437,0,6.437,4,12.873,4s6.441-4,12.882-4,6.441,4,12.882,4"/></g></svg>