<?xml version="1.0" encoding="UTF-8"?><svg id="_레이어_2" xmlns="http://www.w3.org/2000/svg" viewBox="0 0 75.068 75.067"><defs><style>.cls-1{fill:none;stroke:#3e3a39;stroke-linecap:round;stroke-miterlimit:10;stroke-width:5px;}.cls-2{fill:#00d0dd;}</style></defs><g id="icons"><path class="cls-1" d="M52.003,10.993c-11.325-11.324-29.686-11.324-41.011,0-11.323,11.324-11.323,29.684,0,41.008,11.325,11.325,29.686,11.325,41.011,0,11.322-11.324,11.322-29.684,0-41.008Z"/><path class="cls-2" d="M44.849,18.147c-7.374-7.373-19.328-7.373-26.702,0-7.373,7.373-7.373,19.327,0,26.7,7.374,7.374,19.328,7.374,26.702,0,7.372-7.373,7.372-19.327,0-26.7Z"/><line class="cls-1" x1="51.871" y1="66.71" x2="66.711" y2="51.87"/><path class="cls-1" d="M56.68,46.791l13.839,13.839c2.731,2.731,2.731,7.158,0,9.889h0c-2.731,2.731-7.158,2.731-9.889,0l-13.839-13.839"/></g></svg>