<?xml version="1.0" encoding="UTF-8"?><svg id="_레이어_2" xmlns="http://www.w3.org/2000/svg" viewBox="0 0 90.346 90.346"><defs><style>.cls-1{fill:none;stroke:#3e3a39;stroke-linecap:round;stroke-linejoin:round;stroke-width:5px;}.cls-2{fill:#00d0dd;}</style></defs><g id="icons"><g><path class="cls-1" d="M63.044,13.201c-5.286-2.961-11.382-4.65-17.873-4.65-20.225,0-36.62,16.396-36.621,36.621,0,20.227,16.396,36.624,36.624,36.624,20.224-.002,36.619-16.397,36.621-36.621,0-13.736-7.563-25.706-18.751-31.973"/><line class="cls-1" x1="45.173" y1="4.34" x2="45.173" y2="14.684"/><line class="cls-1" x1="45.173" y1="2.5" x2="45.173" y2="4.34"/><line class="cls-1" x1="4.34" y1="45.173" x2="14.684" y2="45.173"/><line class="cls-1" x1="2.5" y1="45.173" x2="4.34" y2="45.173"/><line class="cls-1" x1="45.173" y1="86.005" x2="45.173" y2="75.662"/><line class="cls-1" x1="45.173" y1="87.846" x2="45.173" y2="86.005"/><line class="cls-1" x1="86.005" y1="45.173" x2="75.662" y2="45.173"/><line class="cls-1" x1="87.846" y1="45.173" x2="86.005" y2="45.173"/><path class="cls-2" d="M64.205,45.174c0-10.511-8.521-19.032-19.033-19.033-10.511,0-19.031,8.521-19.031,19.031,0,10.512,8.521,19.033,19.033,19.033,10.51,0,19.031-8.521,19.031-19.031Z"/><polyline class="cls-1" points="37.284 43.174 44.25 50.844 60.269 34.689"/></g></g></svg>