<?xml version="1.0" encoding="UTF-8"?><svg id="_레이어_2" xmlns="http://www.w3.org/2000/svg" viewBox="0 0 60.883 38.515"><defs><style>.cls-1{fill:#fff;}.cls-2{fill:none;stroke:#fcfcfc;stroke-linecap:round;stroke-miterlimit:10;stroke-width:7px;}</style></defs><g id="icons"><g><path class="cls-1" d="M17.587,14.436l11.705,11.156c.647,.617,1.666,.617,2.312,0l11.833-11.277c.496-.473,.655-1.199,.4-1.836s-.871-1.053-1.556-1.053h-4.921V1.676c0-.925-.751-1.676-1.676-1.676h-10.471c-.925,0-1.676,.751-1.676,1.676V11.426h-4.921c-.006,0-.012,0-.015,0-.926,0-1.676,.751-1.676,1.676,0,.544,.259,1.028,.661,1.334Z"/><polyline class="cls-2" points="3.5 20.561 3.5 35.015 57.383 35.015 57.383 20.561"/></g></g></svg>